<svg width="54" height="54" viewBox="0 0 54 54" fill="none" xmlns="http://www.w3.org/2000/svg">
<path d="M43.7274 26.4516H43.7231C43.6725 25.418 42.5756 24.4519 40.6814 23.8823C36.6272 22.6631 32.13 21.9501 27 21.908C21.8742 21.9501 17.377 22.6631 13.3186 23.8823C11.4244 24.4519 10.3359 25.418 10.2811 26.4516H10.2727V47.5791C10.2263 48.7603 11.5467 50.0259 14.6011 50.8908C17.7567 51.7851 22.0261 52.3631 26.9958 52.3631C31.9655 52.3631 36.2349 51.7851 39.3905 50.8908C42.5925 49.9837 43.8877 48.638 43.702 47.4103H43.7189V26.4516H43.7274ZM10.2727 26.7595H43.7274H10.2727Z" fill="#E2A610"/>
<path d="M30.3328 45.6637L28.4386 41.2003C28.9859 40.936 29.4477 40.5226 29.7708 40.0077C30.0939 39.4928 30.2653 38.8973 30.2653 38.2894C30.2653 36.5006 28.814 35.0536 27.0295 35.0536C25.245 35.0536 23.7937 36.5048 23.7937 38.2894C23.7937 39.4917 24.4518 40.5422 25.4264 41.0991L23.6629 45.6933C23.4393 46.2755 23.8696 46.8956 24.4898 46.8956H29.5186C30.1514 46.8956 30.5775 46.2459 30.3328 45.6637Z" fill="#4E342E"/>
<path d="M30.1514 45.2503H23.8275L23.6588 45.6933C23.4352 46.2755 23.8655 46.8956 24.4857 46.8956H29.5144C30.1514 46.8956 30.5775 46.2459 30.3286 45.6638L30.1514 45.2503ZM25.7133 40.2469C25.7892 40.0275 25.7091 39.7913 25.5235 39.6563C25.2703 39.4706 24.9286 39.1416 24.7135 38.6184C23.9288 36.7284 24.8611 35.8889 24.8611 35.8889C24.5235 36.191 24.2535 36.561 24.0688 36.9746C23.8842 37.3883 23.789 37.8364 23.7896 38.2894C23.7896 39.4917 24.4477 40.5422 25.4222 41.0991L25.7133 40.2469ZM29.3035 35.9859C29.3035 35.9859 30.2316 37.8506 29.1685 39.0445C28.8057 39.4495 28.4977 39.6647 28.2699 39.7702C28.0463 39.8756 27.945 40.1414 28.0505 40.365L28.4428 41.1919C28.9902 40.9275 29.452 40.5142 29.7751 39.9993C30.0982 39.4844 30.2696 38.8888 30.2696 38.2809C30.2611 36.9099 29.3035 35.9859 29.3035 35.9859Z" fill="#9E740B"/>
<path d="M39.9684 23.6039C36.1252 22.4859 31.86 21.8363 27 21.7941C22.14 21.832 17.8749 22.4859 14.0316 23.5997C10.1799 24.7177 9.79595 27.5063 15.2508 28.9997C18.2419 29.8181 22.2919 30.3455 27 30.3455C31.7081 30.3455 35.7581 29.8181 38.7492 28.9997C44.2041 27.5105 43.8202 24.7177 39.9684 23.6039Z" fill="#FDD835"/>
<path d="M38.8758 26.2448C38.8758 26.2448 38.7197 26.9704 36.6736 26.9704C34.6275 26.9704 34.193 26.2448 34.193 26.2448V16.9425C34.193 12.7153 30.9656 9.2812 26.9958 9.2812C23.0259 9.2812 19.7986 12.7195 19.7986 16.9425V26.249C19.7986 26.249 18.9084 26.9746 17.2884 26.9746C15.6684 26.9746 15.12 26.249 15.12 26.249V16.9425C15.12 10.1334 20.4483 4.59839 26.9958 4.59839C33.5433 4.59839 38.8716 10.1376 38.8716 16.9425V26.2448H38.8758Z" fill="#84B0C1" stroke="#84B0C1" stroke-width="1.958" stroke-miterlimit="10"/>
<path d="M21.6465 9.09562C19.478 10.3866 19.1447 11.2598 18.5415 11.6606C18.0943 11.9559 17.4994 11.7197 17.8875 10.6945C18.2208 9.81702 19.0224 8.15483 21.0221 6.87655C24.4646 4.67436 27.4346 4.77562 27.2743 6.4589C27.1393 7.94812 23.9583 7.7203 21.6465 9.09562Z" fill="#B9E4EA"/>
</svg>
