<?xml version="1.0" encoding="UTF-8" standalone="no"?>
<svg
   width="20"
   height="20"
   viewBox="0 0 20 20"
   fill="none"
   version="1.1"
   id="svg2669"
   sodipodi:docname="add-user.svg"
   inkscape:version="1.2.1 (9c6d41e410, 2022-07-14)"
   xmlns:inkscape="http://www.inkscape.org/namespaces/inkscape"
   xmlns:sodipodi="http://sodipodi.sourceforge.net/DTD/sodipodi-0.dtd"
   xmlns="http://www.w3.org/2000/svg"
   xmlns:svg="http://www.w3.org/2000/svg">
  <defs
     id="defs2673" />
  <sodipodi:namedview
     id="namedview2671"
     pagecolor="#ffffff"
     bordercolor="#000000"
     borderopacity="0.25"
     inkscape:showpageshadow="2"
     inkscape:pageopacity="0.0"
     inkscape:pagecheckerboard="0"
     inkscape:deskcolor="#d1d1d1"
     showgrid="false"
     inkscape:zoom="18.561553"
     inkscape:cx="11.448396"
     inkscape:cy="12.445079"
     inkscape:window-width="1366"
     inkscape:window-height="705"
     inkscape:window-x="-8"
     inkscape:window-y="-8"
     inkscape:window-maximized="1"
     inkscape:current-layer="svg2669" />
  <path
     style="color:#000000;clip-rule:evenodd;fill:#ffffff;fill-rule:evenodd;stroke-linecap:round;stroke-linejoin:round;-inkscape-stroke:none"
     d="m 7.8769531,12.457031 c -1.9597842,0 -3.7948295,0.133253 -5.2441406,0.619141 C 1.908157,13.319116 1.2689804,13.653937 0.78320312,14.158203 0.29742584,14.662469 0,15.356957 0,16.115234 c 0,0.756975 0.29418421,1.450701 0.77734375,1.957032 0.48315955,0.506331 1.12203115,0.843743 1.84570315,1.089843 1.447344,0.4922 3.2824043,0.632813 5.2539062,0.632813 1.9598493,0 3.7948679,-0.135079 5.2441409,-0.621094 0.724636,-0.243007 1.363854,-0.575897 1.849609,-1.080078 0.485755,-0.504181 0.783203,-1.198928 0.783203,-1.957031 0,-0.756975 -0.294184,-1.4507 -0.777343,-1.957031 -0.48316,-0.506332 -1.122032,-0.845697 -1.845704,-1.091797 -1.447344,-0.4922 -3.282404,-0.63086 -5.2539059,-0.63086 z m 0,1.5 c 1.8934943,0 3.6215809,0.159732 4.7714849,0.550782 0.574951,0.195524 0.992941,0.445831 1.242187,0.707031 0.249246,0.261199 0.363281,0.515351 0.363281,0.921875 0,0.405396 -0.113349,0.656603 -0.363281,0.916015 -0.249932,0.259413 -0.671434,0.505852 -1.248047,0.699219 -1.153225,0.386735 -2.881478,0.542969 -4.7656249,0.542969 -1.8934942,0 -3.6215809,-0.161685 -4.7714843,-0.552735 C 2.530517,17.546663 2.1125272,17.298309 1.8632812,17.037109 1.6140353,16.77591 1.5,16.521758 1.5,16.115234 1.5,15.709513 1.6133718,15.45864 1.8632812,15.199219 2.1131907,14.939798 2.534735,14.691352 3.1113281,14.498047 4.2645145,14.111436 5.9927412,13.957031 7.8769531,13.957031 Z"
     id="path2661" />
  <path
     style="color:#000000;clip-rule:evenodd;fill:#ffffff;fill-rule:evenodd;stroke-linecap:round;stroke-linejoin:round"
     d="M 7.8769531,0 C 4.9411667,0 2.5585938,2.3815342 2.5585938,5.3183594 c 0,2.9359832 2.3823761,5.3183596 5.3183593,5.3183596 2.9368339,0 5.3183599,-2.3825736 5.3183599,-5.3183596 C 13.195313,2.3817314 10.81359,0 7.8769531,0 Z m 0,1.5 c 2.1353779,0 3.8183599,1.6829924 3.8183599,3.8183594 0,2.1342089 -1.683179,3.8183594 -3.8183599,3.8183594 -2.1340116,0 -3.8183593,-1.6843478 -3.8183594,-3.8183594 C 4.0585937,3.1831896 5.7427446,1.5 7.8769531,1.5 Z"
     id="path2663" />
  <path
     style="color:#000000;fill:#ffffff;stroke-linecap:round;stroke-linejoin:round"
     d="m 17.205078,5.9199219 a 0.75,0.75 0 0 0 -0.75,0.75 v 4.0097661 a 0.75,0.75 0 0 0 0.75,0.75 0.75,0.75 0 0 0 0.75,-0.75 V 6.6699219 a 0.75,0.75 0 0 0 -0.75,-0.75 z"
     id="path2665" />
  <path
     style="color:#000000;fill:#ffffff;stroke-linecap:round;stroke-linejoin:round"
     d="m 15.160156,7.9238281 a 0.75,0.75 0 0 0 -0.75,0.75 0.75,0.75 0 0 0 0.75,0.75 H 19.25 a 0.75,0.75 0 0 0 0.75,-0.75 0.75,0.75 0 0 0 -0.75,-0.75 z"
     id="path2667" />
</svg>
