<?xml version="1.0" encoding="UTF-8" standalone="no"?>
<svg
   width="40"
   height="40"
   viewBox="0 0 40 40"
   fill="none"
   version="1.1"
   id="svg23"
   sodipodi:docname="yes.svg"
   inkscape:version="1.2.1 (9c6d41e410, 2022-07-14)"
   xmlns:inkscape="http://www.inkscape.org/namespaces/inkscape"
   xmlns:sodipodi="http://sodipodi.sourceforge.net/DTD/sodipodi-0.dtd"
   xmlns="http://www.w3.org/2000/svg"
   xmlns:svg="http://www.w3.org/2000/svg">
  <defs
     id="defs27" />
  <sodipodi:namedview
     id="namedview25"
     pagecolor="#ffffff"
     bordercolor="#000000"
     borderopacity="0.25"
     inkscape:showpageshadow="2"
     inkscape:pageopacity="0"
     inkscape:pagecheckerboard="0"
     inkscape:deskcolor="#d1d1d1"
     showgrid="false"
     inkscape:zoom="8.8741901"
     inkscape:cx="20.565257"
     inkscape:cy="16.452206"
     inkscape:window-width="1366"
     inkscape:window-height="705"
     inkscape:window-x="-8"
     inkscape:window-y="-8"
     inkscape:window-maximized="1"
     inkscape:current-layer="svg23" />
  <path
     d="m 17.514677,28.788804 c -0.19,0 -0.3681,-0.0301 -0.5343,-0.0902 -0.1663,-0.0592 -0.3207,-0.1604 -0.4632,-0.3035 l -6.12751,-6.1566 c -0.26125,-0.2625 -0.38618,-0.6028 -0.37478,-1.0209 0.01236,-0.4171 0.14916,-0.7569 0.41041,-1.0194 0.26125,-0.2625 0.59378,-0.3937 0.99748,-0.3937 0.4038,0 0.7363,0.1312 0.9975,0.3937 l 5.0944,5.1186 12.077,-12.1343 c 0.2612,-0.2625 0.5999,-0.3937 1.016,-0.3937 0.4152,0 0.7534,0.1312 1.0146,0.3937 0.2613,0.2625 0.3919,0.6023 0.3919,1.0195 0,0.418 -0.1306,0.7583 -0.3919,1.0208 l -13.1101,13.1723 c -0.1425,0.1431 -0.2968,0.2443 -0.4631,0.3035 -0.1662,0.0601 -0.3444,0.0902 -0.5344,0.0902 z"
     fill="#ffffff"
     id="path19"
     style="fill:#000000" />
  <path
     style="color:#000000;fill:#000000;-inkscape-stroke:none"
     d="M 20,0 C 8.9697137,0 0,8.9697137 0,20 0,31.030286 8.9697137,40 20,40 31.030286,40 40,31.030286 40,20 40,8.9697137 31.030286,0 20,0 Z m 0,2.5996094 C 29.625143,2.5996094 37.400391,10.374857 37.400391,20 37.400391,29.625143 29.625143,37.400391 20,37.400391 10.374857,37.400391 2.5996094,29.625143 2.5996094,20 2.5996094,10.374857 10.374857,2.5996094 20,2.5996094 Z"
     id="circle21" />
</svg>
