<svg width="927" height="472" viewBox="0 0 927 472" fill="none" xmlns="http://www.w3.org/2000/svg">
<path d="M839.587 390.55L839.575 390.79C839.228 397.774 838.318 404.373 836.986 410.578C829.942 443.407 811.566 464.381 806.984 469.462C806.981 469.466 806.977 469.469 806.974 469.472C806.354 470.162 805.972 470.556 805.925 470.658C786.013 470.658 657.291 470.681 510.604 470.638C471.065 470.628 430.221 470.612 389.848 470.586C371.515 470.576 353.279 470.566 335.308 470.553C322.221 470.543 309.275 470.53 296.535 470.52C248.17 470.477 202.75 470.422 163.796 470.349C142.943 470.31 123.945 470.267 107.335 470.215C63.1074 470.086 35.853 469.922 35.7703 469.709L35.7226 469.561C35.7226 469.561 35.6813 469.518 35.6781 469.472C35.6749 469.469 35.6749 469.466 35.6749 469.462C35.6749 469.413 35.6241 469.361 35.6241 469.361C35.5064 469.078 10.0265 432.682 2.45129 382.749C0.695814 371.17 -0.0992379 358.864 0.609949 346.113V345.912C3.26224 298.883 26.3188 245.878 96.7826 200.892C164.114 157.848 92.5371 129.453 146.076 81.5272C207.616 26.5288 274.804 87.4071 343.242 62.4454C355.302 58.0142 367.457 50.9386 379.611 40.0788C386.458 33.9526 393.935 28.572 401.94 23.9863C403.196 23.2406 404.401 22.541 405.654 21.8939C410.478 19.3054 415.446 16.9633 420.607 14.8708C424.029 13.4748 427.55 12.1805 431.121 10.9848C436.811 9.04349 442.646 7.39777 448.581 6.05427C457.021 4.06036 465.75 2.61502 474.623 1.61971C478.484 1.16968 482.389 0.821487 486.345 0.571838C558.775 -4.14522 639.822 20.7836 685.919 58.2474C688.476 60.3234 690.922 62.4389 693.256 64.5904C694.223 65.4839 695.559 66.7814 697.136 68.46C707.895 79.911 729.803 109.054 720.759 148.463C719.986 151.823 718.991 155.262 717.744 158.767C715.957 163.787 713.654 168.947 710.763 174.239C706.279 182.458 706.953 190.529 711.005 198.701L711.049 198.751H711.053C711.275 199.191 711.507 199.631 711.749 200.071C712.595 201.612 713.562 203.156 714.637 204.703C715.247 205.59 715.896 206.473 716.58 207.357C716.749 207.577 716.92 207.797 717.095 208.02C717.445 208.464 717.801 208.904 718.167 209.348C718.167 209.348 718.164 209.348 718.167 209.351C718.459 209.706 718.755 210.057 719.057 210.412C719.356 210.767 719.662 211.121 719.976 211.479C720.288 211.834 720.603 212.186 720.924 212.54C721.242 212.895 721.566 213.25 721.897 213.608C722.228 213.963 722.562 214.318 722.899 214.672C723.236 215.027 723.579 215.382 723.926 215.737H723.929C729.749 221.705 731.355 229.231 732.863 238.024C733.451 241.45 734.023 245.074 734.828 248.868C734.863 249.035 734.901 249.206 734.936 249.377C735.626 252.573 736.488 255.891 737.665 259.32C737.719 259.488 737.779 259.658 737.84 259.829C738.883 262.809 740.168 265.873 741.789 269.017C741.939 269.309 742.092 269.602 742.251 269.894V269.897C742.371 270.131 742.495 270.361 742.626 270.594C742.718 270.765 742.81 270.932 742.906 271.103C743.065 271.392 743.23 271.681 743.399 271.97L743.402 271.977C743.469 272.095 743.539 272.22 743.615 272.341C744.772 274.335 746.08 276.359 747.555 278.408C748.198 279.309 748.875 280.215 749.587 281.125C753.391 285.99 758.161 291.006 764.191 296.143C772.135 302.917 782.27 309.907 795.265 317.068C797.332 318.208 799.323 319.364 801.24 320.533C819.304 331.554 830.622 343.8 834.671 357.619C835.243 359.571 836.21 363.384 837.142 367.967C838.569 374.99 839.908 383.826 839.587 390.55Z" fill="#E2F2FF"/>
<path d="M216.028 470.458H461.62L564 470.405H749.149C749.149 470.405 749.255 470.263 749.465 469.977C749.615 469.773 749.816 469.499 750.077 469.15L750.175 469.048C750.175 469.048 750.175 469.048 750.175 468.996C750.175 468.996 750.278 468.94 750.278 468.89C750.688 468.472 750.992 468.001 751.403 467.428C751.612 467.165 751.813 466.849 752.121 466.539C752.121 466.486 752.121 466.486 752.121 466.434C752.22 466.381 752.22 466.381 752.22 466.381C753.623 464.514 755.364 462.084 757.37 459.147C757.554 458.88 757.733 458.61 757.922 458.34C758.922 456.12 760.022 453.638 761.194 450.898C763.978 444.256 767.174 436.149 770.296 426.995C771.519 423.386 772.743 419.618 773.898 415.693C774.578 413.428 775.262 411.07 775.917 408.686C776.105 407.988 776.293 407.29 776.477 406.592C777.679 402.13 778.808 397.536 779.826 392.841C781.828 383.647 783.406 374.068 784.296 364.36C704.77 367.515 551.476 375.82 436.165 395.646C273.461 423.619 233.253 428.137 164.327 433.156C125.762 435.965 169.772 454.596 216.028 470.458Z" fill="#D4DFFF"/>
<path d="M319.448 440.163C319.448 440.163 582.967 378.378 649.318 373.903C715.669 369.428 652.107 379.886 652.107 379.886C652.107 379.886 471.762 416.003 429.848 431.404C341.198 463.977 319.448 440.163 319.448 440.163Z" fill="#D4DFFF"/>
<path d="M399.042 468.689C399.042 468.689 618.662 391.033 678.092 378.418C737.523 365.799 681.925 383.439 681.925 383.439C681.925 383.439 508.518 453.051 472.194 470.626C466.933 473.168 399.042 468.689 399.042 468.689Z" fill="#D4DFFF"/>
<path d="M839.312 391.5C839.322 391.583 839.325 391.665 839.331 391.747C838.985 398.748 838.075 405.363 836.743 411.584L801.001 417.389L793.624 418.588L789.427 419.269L760.347 423.995L757.746 424.416L751.898 425.368L750.378 425.615H750.369C750.369 425.615 749.116 425.766 746.941 425.98C746.76 426 746.569 426.017 746.375 426.036C744.928 426.175 743.135 426.336 741.077 426.497C740.305 426.56 739.494 426.619 738.651 426.678C738.492 426.688 738.333 426.702 738.171 426.711C736.991 426.794 735.754 426.869 734.463 426.945C731.805 427.093 728.937 427.222 725.951 427.298C724.79 427.327 723.61 427.35 722.421 427.367C721.801 427.373 721.175 427.377 720.548 427.377C719.795 427.38 719.038 427.38 718.278 427.373C717.155 427.367 716.026 427.347 714.901 427.317C714.074 427.298 713.244 427.271 712.42 427.242C711.269 427.195 710.121 427.136 708.98 427.067C708.805 427.057 708.63 427.044 708.455 427.031C707.924 426.998 707.393 426.962 706.865 426.919C704.245 426.715 701.689 426.435 699.256 426.063C698.846 426 698.442 425.934 698.041 425.865C688.893 424.317 681.748 421.364 680.104 416.075C678.609 411.231 681.84 404.339 692.499 394.754C694.273 393.16 696.124 391.632 698.041 390.173C710.411 380.756 725.639 374.081 741.596 369.369C742.257 369.171 742.918 368.98 743.583 368.792C743.685 368.763 743.786 368.733 743.888 368.703C744.069 368.654 744.251 368.601 744.432 368.552C744.791 368.45 745.151 368.351 745.507 368.256C746.136 368.081 746.766 367.91 747.399 367.745C750.585 366.902 753.79 366.135 756.996 365.437C757.803 365.259 758.611 365.088 759.419 364.92C759.797 364.841 760.175 364.762 760.551 364.686C760.811 364.63 761.072 364.578 761.333 364.528C761.73 364.449 762.128 364.37 762.525 364.294C775.881 361.683 789.106 360.181 801.001 359.355C814.398 358.42 826.113 358.344 834.428 358.495C835.388 360.899 836.209 364.564 836.899 368.868C837.989 375.628 838.772 383.973 839.312 391.5Z" fill="#A8D29F"/>
<path d="M661.09 261.66L624.822 351.605H514.649L572.088 261.988L661.09 261.66Z" fill="#ED9F4A"/>
<path d="M664.388 261.66L628.124 351.096H517.951L575.39 261.986L664.388 261.66Z" fill="#F9DDBF"/>
<path d="M627.885 351.096V470.295L517.951 470.554V351.096H627.885Z" fill="#F9DDBF"/>
<path d="M720.977 351.096H627.886V470.299H720.977V351.096Z" fill="#FFF3E9"/>
<path d="M731.205 356.383H631.201L572.088 261.981L601.876 261.99L670.375 262.008L731.205 356.383Z" fill="#F99746"/>
<path d="M566.892 311.638C566.892 308.201 569.219 305.413 572.088 305.413C574.961 305.413 577.285 308.201 577.285 311.638C577.285 315.079 574.957 317.863 572.088 317.863C569.219 317.863 566.892 315.074 566.892 311.638Z" fill="#EFCDAF"/>
<path d="M638.106 338.639H706.666L670.502 285.204H601.943L638.106 338.639Z" fill="#465C93"/>
<path d="M611.28 299.28H679.839L679.414 298.651H610.855L611.28 299.28Z" fill="#AEC3FF"/>
<path d="M654.386 285.204L690.55 338.635H691.072L654.905 285.204H654.386Z" fill="#AEC3FF"/>
<path d="M636.219 285.204L672.386 338.635H672.908L636.741 285.204H636.219Z" fill="#AEC3FF"/>
<path d="M618.741 285.204L654.908 338.635H655.431L619.263 285.204H618.741Z" fill="#AEC3FF"/>
<path d="M620.237 312.236H688.797L688.371 311.607H619.812L620.237 312.236Z" fill="#AEC3FF"/>
<path d="M629.698 326.213H698.257L697.832 325.584H629.272L629.698 326.213Z" fill="#AEC3FF"/>
<path d="M665.798 301.581L666.189 299.006L662.313 296.435L661.918 299.006L665.798 301.581Z" fill="#AEC3FF"/>
<path d="M647.827 301.581L648.223 299.006L644.343 296.435L643.948 299.006L647.827 301.581Z" fill="#AEC3FF"/>
<path d="M630.085 301.581L630.481 299.006L626.605 296.435L626.209 299.006L630.085 301.581Z" fill="#AEC3FF"/>
<path d="M674.538 314.492L674.93 311.922L671.054 309.347L670.658 311.922L674.538 314.492Z" fill="#AEC3FF"/>
<path d="M656.568 314.492L656.96 311.922L653.084 309.347L652.688 311.922L656.568 314.492Z" fill="#AEC3FF"/>
<path d="M638.826 314.492L639.222 311.922L635.346 309.347L634.95 311.922L638.826 314.492Z" fill="#AEC3FF"/>
<path d="M683.995 328.469L684.391 325.898L680.515 323.323L680.119 325.898L683.995 328.469Z" fill="#AEC3FF"/>
<path d="M666.029 328.469L666.42 325.898L662.544 323.323L662.149 325.898L666.029 328.469Z" fill="#AEC3FF"/>
<path d="M648.287 328.469L648.682 325.898L644.802 323.323L644.411 325.898L648.287 328.469Z" fill="#AEC3FF"/>
<path d="M438.01 80.2548C438.01 80.2548 448.293 58.2318 472.883 60.6784C472.883 60.6784 508.583 23.9724 546.652 55.7852C546.652 55.7852 587.119 47.9019 617.089 62.6114C637.071 72.4177 643.669 82.7014 643.669 82.7014L438.01 80.2548Z" fill="#F8FCFF"/>
<path d="M404.536 238.619C404.536 238.619 418.419 213.695 451.617 216.464C451.617 216.464 499.817 174.924 551.213 210.926C551.213 210.926 605.849 202.005 646.309 218.651C673.287 229.748 682.197 241.388 682.197 241.388L404.536 238.619Z" fill="#F8FCFF"/>
<path d="M158.031 135.101C158.031 135.101 167.16 118.713 188.99 120.534C188.99 120.534 220.683 93.219 254.479 116.892C254.479 116.892 290.404 111.027 317.01 121.969C334.747 129.266 340.608 136.922 340.608 136.922L158.031 135.101Z" fill="#F8FCFF"/>
<path d="M692.054 410.974C692.054 410.974 607.941 395.617 558.697 414.436C509.453 433.255 538.583 454.911 480.317 453.028C422.057 451.144 392.921 449.336 389.854 470.484H647.437L692.054 410.974Z" fill="#A8D29F"/>
<path d="M256.758 470.458C256.739 470.514 256.72 470.566 256.701 470.622H35.5272C35.524 470.619 35.524 470.616 35.524 470.612C35.524 470.563 35.4731 470.51 35.4731 470.51C35.3555 470.227 9.87858 433.742 2.3042 383.686C7.8403 381.483 27.3868 374.641 54.8861 375.382C55.9927 375.411 57.112 375.454 58.244 375.51C68.3909 376.001 79.5426 377.545 91.4129 380.716C91.8295 380.828 92.2492 380.94 92.669 381.055C92.7866 381.088 92.9043 381.121 93.0219 381.154C93.8614 381.388 94.7009 381.628 95.5467 381.878C96.4943 382.158 97.4419 382.448 98.399 382.748C98.7393 382.856 99.0827 382.965 99.4261 383.074C100.692 383.482 101.964 383.91 103.245 384.355C118.184 389.561 127.453 395.172 133.905 400.595C134.039 400.707 134.172 400.819 134.306 400.931C137.403 403.582 139.842 406.187 141.95 408.673C142.526 409.351 143.079 410.02 143.613 410.678C144.275 411.498 144.911 412.302 145.534 413.089C147.623 415.73 149.553 418.166 151.817 420.294C158.062 426.178 166.842 429.734 188.49 428.842C192.373 428.681 196.084 428.644 199.629 428.723C246.179 429.728 263.881 450.387 256.758 470.458Z" fill="#A8D29F"/>
<path d="M839.635 392.204C839.626 392.201 839.613 392.201 839.604 392.198C831.119 390.457 817.797 388.36 801.305 387.857C791.089 387.544 779.651 387.841 767.397 389.212C766.965 389.261 766.529 389.31 766.094 389.359C764.816 389.513 763.529 389.673 762.232 389.849C759.402 390.228 756.532 390.669 753.63 391.172C753.627 391.175 753.623 391.175 753.62 391.172C752.756 391.322 751.897 391.476 751.026 391.639C750.095 391.809 749.16 391.989 748.223 392.175C746.214 392.573 744.186 393.004 742.145 393.468C741.248 393.671 740.349 393.883 739.446 394.102C738.543 394.314 737.64 394.539 736.731 394.768C735.631 395.049 734.528 395.336 733.422 395.633H733.419C733.076 395.728 732.729 395.823 732.386 395.918H732.383C731.369 396.199 730.351 396.486 729.331 396.783C725.208 397.982 721.041 399.324 716.848 400.823C709.963 403.266 703.847 405.673 698.379 408.018C691.44 410.987 685.543 413.858 680.448 416.572C675.416 419.244 671.143 421.781 667.392 424.149C647.073 436.978 642.07 444.895 614.354 442.678C611.884 442.485 609.519 442.406 607.253 442.439C599.827 442.537 593.476 443.768 588.069 445.666C577.229 449.468 570.188 455.957 565.906 461.372C562.378 465.834 560.718 469.564 560.346 470.458C560.289 470.592 560.264 470.664 560.264 470.664H565.906H588.069H667.392H698.379H706.291H711.845H780.077H785.631H801.305H807.046C811.627 465.612 829.994 444.758 837.035 412.117C838.367 405.948 839.276 399.386 839.623 392.443L839.635 392.204Z" fill="#A8D29F"/>
<path d="M114.865 254.947C114.865 254.947 120.194 244.623 132.939 245.769C132.939 245.769 151.442 228.564 171.173 243.474C171.173 243.474 192.148 239.78 207.681 246.672C218.038 251.269 221.456 256.089 221.456 256.089L114.865 254.947Z" fill="#F8FCFF"/>
<path d="M296.87 299.34C296.87 299.34 302.2 289.016 314.944 290.162C314.944 290.162 333.448 272.957 353.179 287.867C353.179 287.867 374.153 284.173 389.687 291.065C400.043 295.661 403.462 300.482 403.462 300.482L296.87 299.34Z" fill="#F8FCFF"/>
<path d="M353.15 177.712C353.15 177.712 357.564 167.896 368.117 168.986C368.117 168.986 383.438 152.624 399.779 166.803C399.779 166.803 417.147 163.289 430.01 169.846C438.586 174.215 441.419 178.802 441.419 178.802L353.15 177.712Z" fill="#F8FCFF"/>
<path d="M127.965 467.854L140.561 467.693L169.977 340.758L157.382 340.919L127.965 467.854Z" fill="#1E3458"/>
<path d="M107.156 470.679H163.64C163.64 467.258 160.962 464.482 157.655 464.482H113.138C109.837 464.482 107.156 467.258 107.156 470.679Z" fill="#1E3458"/>
<path d="M237.635 411.908L232.21 383.743L232.201 383.684L214.145 289.948L38.6626 289.974L62.1521 411.934L95.4832 411.931H95.798L133.101 411.924H133.215L170.356 411.917H170.61L207.668 411.914H208.005L237.635 411.908Z" fill="#1E3458"/>
<path d="M240.643 409.497L65.157 409.524L41.6675 289.974L217.15 289.948L240.643 409.497Z" fill="#465C93"/>
<path d="M98.8255 409.517H98.4916L75.0625 290.291H75.3996L98.8255 409.517Z" fill="#C0D8FB"/>
<path d="M136.22 409.514H135.886L112.457 290.288H112.794L136.22 409.514Z" fill="#C0D8FB"/>
<path d="M173.615 409.507H173.281L149.852 290.281H150.189L173.615 409.507Z" fill="#C0D8FB"/>
<path d="M211.01 409.5H210.676L187.247 290.274H187.584L211.01 409.5Z" fill="#C0D8FB"/>
<path d="M222.725 318.321L47.2418 318.347L47.1782 318.02L222.661 317.994L222.725 318.321Z" fill="#C0D8FB"/>
<path d="M228.97 350.104L53.4869 350.13L53.4233 349.803L228.906 349.777L228.97 350.104Z" fill="#C0D8FB"/>
<path d="M235.215 381.89L59.7321 381.913L59.6685 381.587L235.151 381.56L235.215 381.89Z" fill="#C0D8FB"/>
<path d="M81.3995 321.692L77.0972 318.179L80.0194 314.665L84.3218 318.179L81.3995 321.692Z" fill="#C0D8FB"/>
<path d="M87.6764 353.64L83.374 350.126L86.2963 346.613L90.5986 350.126L87.6764 353.64Z" fill="#C0D8FB"/>
<path d="M118.963 321.689L114.661 318.175L117.583 314.658L121.885 318.172L118.963 321.689Z" fill="#C0D8FB"/>
<path d="M125.24 353.633L120.938 350.119L123.86 346.606L128.162 350.119L125.24 353.633Z" fill="#C0D8FB"/>
<path d="M156.358 321.682L152.056 318.169L154.978 314.652L159.28 318.169L156.358 321.682Z" fill="#C0D8FB"/>
<path d="M193.419 321.675L189.113 318.162L192.036 314.648L196.338 318.162L193.419 321.675Z" fill="#C0D8FB"/>
<path d="M93.8897 385.258L89.5874 381.745L92.5097 378.231L96.812 381.745L93.8897 385.258Z" fill="#C0D8FB"/>
<path d="M131.453 385.255L127.151 381.741L130.073 378.224L134.375 381.738L131.453 385.255Z" fill="#C0D8FB"/>
<path d="M168.848 385.248L164.546 381.735L167.468 378.221L171.77 381.735L168.848 385.248Z" fill="#C0D8FB"/>
<path d="M205.91 385.242L201.604 381.731L204.526 378.215L208.832 381.728L205.91 385.242Z" fill="#C0D8FB"/>
<path d="M199.696 353.623L195.391 350.11L198.313 346.596L202.618 350.11L199.696 353.623Z" fill="#C0D8FB"/>
<path d="M162.635 353.63L158.333 350.116L161.255 346.599L165.557 350.113L162.635 353.63Z" fill="#C0D8FB"/>
<path d="M310.635 468.74L319.281 468.628L339.479 381.478L330.83 381.59L310.635 468.74Z" fill="#1E3458"/>
<path d="M296.348 470.679H335.129C335.129 468.332 333.291 466.425 331.021 466.425H300.456C298.186 466.425 296.348 468.332 296.348 470.679Z" fill="#1E3458"/>
<path d="M385.93 430.328L382.206 410.992L382.197 410.949L369.802 346.596L249.321 346.613L265.449 430.348L288.334 430.345H288.547L314.161 430.341H314.237L339.736 430.335H339.911L365.356 430.331H365.585L385.93 430.328Z" fill="#1E3458"/>
<path d="M387.994 428.675L267.513 428.692L251.385 346.613L371.866 346.596L387.994 428.675Z" fill="#465C93"/>
<path d="M290.627 428.689H290.398L274.312 346.83H274.544L290.627 428.689Z" fill="#C0D8FB"/>
<path d="M316.301 428.685H316.072L299.985 346.827H300.217L316.301 428.685Z" fill="#C0D8FB"/>
<path d="M341.975 428.682H341.747L325.66 346.824H325.892L341.975 428.682Z" fill="#C0D8FB"/>
<path d="M367.65 428.675L367.421 428.678L351.337 346.82H351.566L367.65 428.675Z" fill="#C0D8FB"/>
<path d="M375.694 366.074L255.21 366.091L255.166 365.866L375.65 365.85L375.694 366.074Z" fill="#C0D8FB"/>
<path d="M379.981 387.896L259.5 387.913L259.455 387.688L379.936 387.672L379.981 387.896Z" fill="#C0D8FB"/>
<path d="M384.27 409.718L263.786 409.735L263.742 409.51L384.226 409.494L384.27 409.718Z" fill="#C0D8FB"/>
<path d="M278.665 368.389L275.71 365.978L277.714 363.565L280.671 365.975L278.665 368.389Z" fill="#C0D8FB"/>
<path d="M282.973 390.323L280.019 387.909L282.026 385.498L284.98 387.909L282.973 390.323Z" fill="#C0D8FB"/>
<path d="M304.453 368.385L301.499 365.972L303.506 363.561L306.46 365.972L304.453 368.385Z" fill="#C0D8FB"/>
<path d="M308.762 390.319L305.808 387.906L307.814 385.492L310.768 387.906L308.762 390.319Z" fill="#C0D8FB"/>
<path d="M330.127 368.382L327.173 365.968L329.179 363.555L332.133 365.968L330.127 368.382Z" fill="#C0D8FB"/>
<path d="M355.572 368.379L352.618 365.965L354.625 363.551L357.579 365.965L355.572 368.379Z" fill="#C0D8FB"/>
<path d="M287.241 412.033L284.287 409.619L286.29 407.209L289.244 409.619L287.241 412.033Z" fill="#C0D8FB"/>
<path d="M313.029 412.029L310.075 409.616L312.082 407.202L315.036 409.616L313.029 412.029Z" fill="#C0D8FB"/>
<path d="M338.703 412.026L335.749 409.612L337.755 407.199L340.71 409.612L338.703 412.026Z" fill="#C0D8FB"/>
<path d="M364.148 412.023L361.194 409.609L363.201 407.195L366.155 409.609L364.148 412.023Z" fill="#C0D8FB"/>
<path d="M359.881 390.313L356.927 387.899L358.933 385.485L361.887 387.899L359.881 390.313Z" fill="#C0D8FB"/>
<path d="M334.439 390.316L331.482 387.902L333.488 385.489L336.442 387.902L334.439 390.316Z" fill="#C0D8FB"/>
<path d="M850.345 440.621L847.385 440.041C847.385 440.041 854.457 411.979 853.486 409.661C852.701 407.738 844.55 406.348 840.556 402.989C839.703 402.271 839.057 401.484 838.686 400.579C836.563 395.366 840.025 391.497 840.025 391.497C840.025 391.497 847.274 393.167 853.856 395.992C858.542 398.007 862.884 400.625 864.085 403.661C866.973 411.008 850.345 440.621 850.345 440.621Z" fill="#E8945B"/>
<path d="M858.392 444.948C858.346 444.654 858.152 444.394 857.867 444.236C857.164 443.848 855.724 443.291 854.644 441.846C854.037 441.032 851.53 438.632 851.53 438.632L851.517 438.625C851.451 438.609 851.123 438.612 849.535 439.267C848.714 439.603 847.858 438.056 847.858 438.056C847.858 438.056 847.595 438.161 847.353 438.418C847.159 438.622 846.978 438.925 846.949 439.346C846.91 439.942 846.296 440.907 845.84 441.553C845.564 441.941 845.344 442.214 845.344 442.214C845.344 442.214 845.174 442.55 846.572 443.084L848.242 443.518C848.823 443.584 849.272 443.548 849.863 443.63C850.762 443.756 851.08 444.177 851.143 444.269C851.153 444.282 851.156 444.289 851.156 444.289L858.26 446.133C858.497 445.945 858.461 445.376 858.392 444.948Z" fill="#415DA5"/>
<path d="M872.318 446.067C871.59 446.067 870.999 445.474 870.999 444.743C870.999 428.308 884.322 414.936 900.7 414.936C904.484 414.936 908.166 415.641 911.648 417.027C912.324 417.297 912.655 418.068 912.386 418.749C912.114 419.424 911.352 419.76 910.67 419.49C907.503 418.229 904.146 417.587 900.7 417.587C885.779 417.587 873.637 429.771 873.637 444.743C873.637 445.474 873.047 446.067 872.318 446.067Z" fill="#2C3A64"/>
<path d="M896.222 444.74C896.222 442.303 898.191 440.328 900.619 440.328C903.047 440.328 905.016 442.303 905.016 444.74C905.016 447.177 903.047 449.153 900.619 449.153C898.191 449.153 896.222 447.177 896.222 444.74Z" fill="#415DA5"/>
<path d="M893.24 423.525L900.696 444.371L900.134 444.573L892.678 423.728L893.24 423.525Z" fill="#415DA5"/>
<path d="M879.565 454.141L879.328 453.591L900.422 444.5L914.29 424.62L914.779 424.963L900.816 444.98L900.737 445.017L879.565 454.141Z" fill="#415DA5"/>
<path d="M892.254 467.725L891.69 467.534C891.841 467.086 899.995 445.547 900.343 444.631L900.556 444.072L913.696 464.926L913.19 465.245L900.688 445.405C897.698 453.295 892.369 467.385 892.254 467.725Z" fill="#415DA5"/>
<path d="M877.272 438.887L900.679 442.932L900.578 443.523L877.171 439.478L877.272 438.887Z" fill="#415DA5"/>
<path d="M908.696 422.339L909.262 422.529L902.4 443.173L901.834 442.983L908.696 422.339Z" fill="#415DA5"/>
<path d="M900.573 445.053L900.484 445.007L879.013 434.088L879.286 433.551L900.665 444.431L923.678 440.555L923.777 441.148L900.573 445.053Z" fill="#415DA5"/>
<path d="M909.282 466.977C909.154 466.602 903.645 452.999 900.56 445.389L888.645 464.198L888.143 463.875L900.678 444.085L900.895 444.622C901.256 445.507 909.696 466.328 909.847 466.783L909.282 466.977Z" fill="#415DA5"/>
<path d="M900.577 444.441L900.665 445.033L877.556 448.47L877.468 447.877L900.577 444.441Z" fill="#415DA5"/>
<path d="M886.844 426.465L899.666 441.275L899.215 441.668L886.393 426.858L886.844 426.465Z" fill="#415DA5"/>
<path d="M901.072 446.394L901.667 446.444L899.889 468.141L899.294 468.091L901.072 446.394Z" fill="#415DA5"/>
<path d="M899.742 443.335L920.17 457.548L919.83 458.04L899.402 443.827L899.742 443.335Z" fill="#415DA5"/>
<path d="M883.686 460.809L883.263 460.388L900.32 443.12V420.652H900.917V443.367L883.686 460.809Z" fill="#415DA5"/>
<path d="M879.679 429.642C880.155 428.98 880.664 428.338 881.198 427.726C883.233 425.391 885.678 423.425 888.418 421.943C889.612 421.295 890.863 420.741 892.159 420.29C894.81 419.362 897.655 418.858 900.619 418.858C901.538 418.858 902.446 418.907 903.339 419.003H903.342C908.695 419.569 913.564 421.785 917.433 425.128L917.437 425.131C922.927 429.883 926.412 436.91 926.412 444.74C926.412 447.111 926.087 449.462 925.457 451.724C924.892 453.759 924.075 455.725 923.022 457.569C922.992 457.629 922.956 457.685 922.923 457.744C920.692 461.59 917.492 464.817 913.669 467.069C910.667 468.841 907.329 469.977 903.877 470.415C903.874 470.415 903.874 470.415 903.871 470.415C903.867 470.415 903.867 470.415 903.864 470.415C902.794 470.553 901.705 470.622 900.619 470.622C899.5 470.622 898.394 470.55 897.311 470.412H897.304C884.638 468.772 874.826 457.889 874.826 444.74C874.826 439.109 876.624 433.893 879.679 429.642ZM880.093 453.262C880.165 453.447 880.244 453.631 880.329 453.812C881.271 455.929 882.534 457.872 884.057 459.581C884.188 459.733 884.323 459.881 884.46 460.026C885.655 461.294 886.994 462.423 888.454 463.385C888.618 463.497 888.785 463.602 888.956 463.707C890.062 464.395 891.233 464.988 892.457 465.476C892.641 465.548 892.828 465.62 893.015 465.69C895.014 466.421 897.147 466.875 899.365 466.997C899.565 467.01 899.762 467.017 899.962 467.023C900.182 467.03 900.399 467.033 900.619 467.033C903.395 467.033 906.138 466.513 908.698 465.508C908.885 465.439 909.069 465.364 909.252 465.288C910.145 464.906 911.015 464.471 911.855 463.974C911.983 463.898 912.111 463.819 912.239 463.74C912.409 463.638 912.577 463.533 912.741 463.421C915.028 461.926 917.023 460.016 918.621 457.803C918.723 457.661 918.825 457.517 918.923 457.372C919.038 457.207 919.15 457.039 919.255 456.871C919.458 456.565 919.648 456.255 919.832 455.939C920.918 454.066 921.722 452.044 922.221 449.943C922.628 448.247 922.835 446.499 922.835 444.74C922.835 443.584 922.746 442.452 922.579 441.345C922.546 441.148 922.513 440.95 922.48 440.756C921.437 434.977 918.165 429.968 913.597 426.659C913.436 426.54 913.272 426.425 913.108 426.313C911.76 425.388 910.306 424.611 908.77 423.998C908.583 423.926 908.396 423.856 908.209 423.787C905.928 422.951 903.474 422.483 900.917 422.45C900.819 422.447 900.717 422.447 900.619 422.447C900.52 422.447 900.418 422.447 900.32 422.45C897.931 422.48 895.631 422.892 893.481 423.626H893.478C893.422 423.646 893.37 423.666 893.314 423.685C893.124 423.751 892.94 423.82 892.753 423.889C891.778 424.262 890.836 424.699 889.934 425.197C888.999 425.714 888.106 426.297 887.259 426.939C887.099 427.057 886.944 427.179 886.79 427.307C885.96 427.969 885.176 428.694 884.447 429.468C883.735 430.225 883.079 431.035 882.478 431.888C881.914 432.685 881.399 433.521 880.946 434.394C880.851 434.572 880.759 434.749 880.673 434.927C880.004 436.287 879.472 437.726 879.088 439.224C879.042 439.419 878.993 439.613 878.951 439.811C878.593 441.398 878.403 443.048 878.403 444.74C878.403 445.748 878.468 446.742 878.599 447.717C878.626 447.914 878.655 448.115 878.688 448.31C878.964 450.035 879.44 451.695 880.093 453.262Z" fill="#202E51"/>
<path d="M838.196 400.338L853.353 447.915L850.796 448.735L835.639 401.158L838.196 400.338Z" fill="#739CF3"/>
<path d="M849.512 448.876L813.733 445.754L880.086 400.737L876.292 408.535L821.51 443.729L849.745 446.192L849.512 448.876Z" fill="#739CF3"/>
<path d="M854.332 446.769L852.078 445.306L879.61 401.053L882.813 404.382L854.332 446.769Z" fill="#739CF3"/>
<path d="M898.482 443.555L883.151 410.629L885.205 409.806C886.541 409.269 888.053 409.924 888.585 411.264L900.966 442.537L898.482 443.555Z" fill="#415DA5"/>
<path d="M883.151 410.629C880.933 404.853 877.228 395.778 877.287 395.867L879.522 394.375C879.63 394.54 879.702 394.648 885.521 409.799L883.151 410.629Z" fill="#415DA5"/>
<path d="M870.281 399.021C869.401 397.796 869.68 396.091 870.901 395.208C872.122 394.326 873.822 394.606 874.701 395.831C875.581 397.055 875.302 398.761 874.081 399.644C872.86 400.523 871.157 400.243 870.281 399.021Z" fill="#415DA5"/>
<path d="M880.585 391.869C879.705 390.644 879.984 388.938 881.205 388.056C882.425 387.173 884.125 387.453 885.005 388.678C885.884 389.903 885.605 391.609 884.385 392.492C883.164 393.371 881.464 393.094 880.585 391.869Z" fill="#415DA5"/>
<path d="M883.24 392.837L872.844 399.476L871.4 396.627L881.799 389.989L883.24 392.837Z" fill="#415DA5"/>
<path d="M866.13 455.215H860.315C859.632 455.215 859.071 454.655 859.071 453.967C859.071 453.282 859.629 452.719 860.315 452.719H866.13C866.812 452.719 867.374 453.279 867.374 453.967C867.37 454.652 866.812 455.215 866.13 455.215Z" fill="#415DA5"/>
<path d="M851.906 447.36L863.684 452.746L863.251 453.699L851.473 448.313L851.906 447.36Z" fill="#415DA5"/>
<path d="M813.224 444.74C813.224 442.303 815.193 440.328 817.622 440.328C820.05 440.328 822.019 442.303 822.019 444.74C822.019 447.177 820.05 449.153 817.622 449.153C815.193 449.153 813.224 447.177 813.224 444.74Z" fill="#415DA5"/>
<path d="M810.241 423.531L817.697 444.377L817.135 444.579L809.679 423.733L810.241 423.531Z" fill="#415DA5"/>
<path d="M796.567 454.141L796.334 453.591L817.428 444.5L831.293 424.62L831.782 424.963L817.819 444.98L817.74 445.017L796.567 454.141Z" fill="#415DA5"/>
<path d="M809.257 467.725L808.693 467.534C808.844 467.086 816.998 445.547 817.346 444.631L817.56 444.072L830.702 464.926L830.197 465.245L817.694 445.405C814.701 453.295 809.372 467.385 809.257 467.725Z" fill="#415DA5"/>
<path d="M794.281 438.887L817.688 442.932L817.586 443.523L794.18 439.478L794.281 438.887Z" fill="#415DA5"/>
<path d="M825.697 422.327L826.263 422.516L819.401 443.161L818.835 442.971L825.697 422.327Z" fill="#415DA5"/>
<path d="M817.576 445.053L817.487 445.007L796.019 434.088L796.288 433.551L817.671 444.431L840.681 440.555L840.783 441.148L817.576 445.053Z" fill="#415DA5"/>
<path d="M826.285 466.977C826.157 466.602 820.647 452.999 817.563 445.389L805.648 464.198L805.145 463.875L817.681 444.085L817.898 444.622C818.255 445.507 826.699 466.328 826.85 466.783L826.285 466.977Z" fill="#415DA5"/>
<path d="M817.584 444.457L817.671 445.05L794.565 448.498L794.477 447.905L817.584 444.457Z" fill="#415DA5"/>
<path d="M803.846 426.467L816.668 441.277L816.217 441.67L803.395 426.86L803.846 426.467Z" fill="#415DA5"/>
<path d="M818.048 446.367L818.644 446.417L816.864 468.11L816.269 468.06L818.048 446.367Z" fill="#415DA5"/>
<path d="M816.741 443.337L837.169 457.55L836.829 458.043L816.401 443.83L816.741 443.337Z" fill="#415DA5"/>
<path d="M800.689 460.809L800.266 460.388L817.323 443.12V420.652H817.92V443.367L800.689 460.809Z" fill="#415DA5"/>
<path d="M817.622 418.858C821.569 418.858 825.314 419.753 828.661 421.354C832.435 423.148 835.706 425.842 838.2 429.155C838.85 430.014 839.447 430.92 839.985 431.858C842.168 435.652 843.415 440.054 843.415 444.74C843.415 445.04 843.408 445.339 843.398 445.639C843.369 446.538 843.29 447.434 843.168 448.323C842.706 451.639 841.61 454.846 839.93 457.744C837.816 461.386 834.83 464.475 831.27 466.704C831.073 466.829 830.872 466.951 830.672 467.069C827.693 468.828 824.388 469.957 820.969 470.405C819.863 470.55 818.744 470.622 817.622 470.622C816.486 470.622 815.367 470.55 814.271 470.405C801.627 468.752 791.829 457.872 791.829 444.74C791.829 430.469 803.399 418.858 817.622 418.858ZM797.096 453.262C797.168 453.447 797.247 453.631 797.332 453.812C798.274 455.929 799.537 457.872 801.06 459.581C801.191 459.733 801.325 459.881 801.463 460.026C802.658 461.294 803.997 462.423 805.457 463.385C805.621 463.496 805.788 463.602 805.959 463.707C807.065 464.395 808.236 464.988 809.46 465.476C809.644 465.548 809.831 465.62 810.018 465.69C812.02 466.421 814.153 466.875 816.371 466.997C816.568 467.01 816.768 467.017 816.965 467.023C817.185 467.03 817.402 467.033 817.622 467.033C820.401 467.033 823.141 466.513 825.701 465.508C825.888 465.439 826.072 465.364 826.255 465.288C827.148 464.906 828.018 464.471 828.858 463.974C828.986 463.898 829.114 463.819 829.242 463.74C829.412 463.638 829.58 463.533 829.744 463.421C829.75 463.421 829.757 463.417 829.76 463.411C832.188 461.82 834.285 459.762 835.926 457.372C836.041 457.207 836.153 457.039 836.258 456.871C836.461 456.565 836.651 456.255 836.835 455.939C838.253 453.496 839.188 450.802 839.595 448.01C839.729 447.124 839.805 446.228 839.828 445.326C839.834 445.132 839.838 444.934 839.838 444.74C839.838 443.584 839.749 442.452 839.582 441.345C839.549 441.148 839.516 440.95 839.483 440.756C839.034 438.27 838.174 435.925 836.97 433.798C836.454 432.876 835.874 431.997 835.234 431.167C833.914 429.448 832.352 427.926 830.6 426.659C830.439 426.54 830.275 426.425 830.111 426.313C828.762 425.388 827.309 424.611 825.773 423.998C825.586 423.926 825.399 423.856 825.212 423.787C823.82 423.277 822.373 422.905 820.87 422.684H820.867C819.902 422.543 818.921 422.464 817.92 422.45C817.822 422.447 817.72 422.447 817.622 422.447C817.523 422.447 817.421 422.447 817.323 422.45C814.872 422.48 812.516 422.915 810.317 423.685C810.127 423.751 809.943 423.82 809.756 423.889C807.774 424.643 805.926 425.677 804.262 426.939C804.102 427.057 803.947 427.179 803.793 427.307C801.388 429.231 799.389 431.641 797.949 434.394C797.854 434.572 797.762 434.749 797.676 434.927C797.007 436.287 796.475 437.726 796.091 439.224C796.045 439.419 795.996 439.613 795.957 439.811C795.596 441.398 795.406 443.048 795.406 444.74C795.406 445.748 795.471 446.742 795.602 447.717C795.629 447.914 795.658 448.115 795.691 448.31C795.967 450.035 796.442 451.695 797.096 453.262Z" fill="#202E51"/>
<path d="M838.643 418.183C838.266 418.318 837.849 418.272 837.505 418.064C825.435 410.747 808.739 413.497 803.908 414.515H803.902C803.636 414.571 803.387 414.366 803.387 414.093V413.148C803.387 412.424 803.915 411.808 804.627 411.702C807.239 411.311 813.343 410.474 816.756 410.458C816.847 410.458 816.939 410.458 817.031 410.458C824.671 410.458 831.267 411.831 836.688 414.541C837.794 415.094 839.077 415.173 840.245 414.762L841.731 414.238C842.581 413.938 843.513 414.386 843.812 415.239C844.005 415.789 843.717 416.391 843.169 416.586L838.643 418.183Z" fill="#F99746"/>
<path d="M827.424 399.746C827.424 399.746 826.938 397.54 828.32 397.388C829.698 397.24 834.732 398.323 836.074 398.172C837.416 398.024 844.422 396.861 845.653 398.06C846.883 399.255 846.362 400.306 843.9 400.53C841.439 400.753 838.161 401.165 837.229 401.952C836.297 402.739 829.55 405.057 827.424 399.746Z" fill="#F99746"/>
<path d="M852.062 455.067C848.355 455.067 845.351 452.052 845.351 448.333C845.351 444.614 848.355 441.599 852.062 441.599C855.768 441.599 858.772 444.614 858.772 448.333C858.772 452.052 855.768 455.067 852.062 455.067Z" fill="#2C3A64"/>
<path d="M875.443 391.267C875.443 391.267 877.638 388.471 878.839 388.817C880.913 389.419 881.084 391.319 881.031 391.708C880.982 392.096 881.005 393.624 880.086 393.95C879.167 394.276 878.209 393.875 877.782 393.519C877.359 393.16 875.443 391.267 875.443 391.267Z" fill="#E8945B"/>
<path d="M879.17 389.008C879.17 389.008 878.865 390.746 876.765 391.326C874.665 391.882 861.667 386.393 858.575 384.865C856.912 384.032 854.513 379.396 852.665 375.342C852.226 374.344 851.812 373.396 851.441 372.54C850.519 370.386 849.919 368.832 849.919 368.832C849.919 366.701 852.265 367.531 854.388 368.506C855.035 368.809 858.418 367.373 859.32 369.109C859.737 369.919 860.288 369.826 860.702 370.732C862.343 374.371 863.842 378.47 864.164 379.445C864.738 381.18 879.17 389.008 879.17 389.008Z" fill="#E8945B"/>
<path d="M873.822 392.893C873.822 392.893 876.007 390.14 877.218 390.443C880.073 391.161 879.689 393.226 879.64 393.614C879.59 394.003 879.387 395.251 878.465 395.577C877.546 395.903 876.588 395.501 876.161 395.146C875.738 394.79 873.822 392.893 873.822 392.893Z" fill="#FFB27D"/>
<path d="M848.698 365.322L856.111 368.068C857.06 367.146 858.008 365.677 858.769 364.334C859.714 362.668 860.371 361.192 860.371 361.192L855.189 357.554L853.561 356.411C853.46 359.727 848.698 365.322 848.698 365.322Z" fill="#FFB27D"/>
<path d="M853.174 358.209C853.174 358.209 854.641 362.803 858.773 364.334C859.718 362.668 860.374 361.192 860.374 361.192L855.192 357.554L853.174 358.209Z" fill="#E8945B"/>
<path d="M862.72 361.08C862.72 361.08 853.551 362.523 852.744 356.78C851.937 351.037 850.211 347.356 856.029 346.19C861.85 345.024 863.298 347.056 864.029 348.907C864.764 350.76 865.083 360.56 862.72 361.08Z" fill="#FFB27D"/>
<path d="M850.687 345.146C850.687 345.146 851.103 345.232 851.438 345.581C851.441 345.577 851.441 345.574 851.441 345.574C851.464 344.336 852.679 343.085 852.679 343.085C852.098 343.819 852.285 345.176 852.285 345.176C854.011 342.212 862.418 344.543 863.206 344.741C863.993 344.939 864.551 343.753 864.551 343.753C865.795 344.837 866.271 347.484 865.237 349.213C864.207 350.942 860.859 353.487 859.898 353.003C858.933 352.519 858.933 353.52 858.982 354.926C859.032 356.332 856.607 358.693 854.897 359.039C853.519 359.315 853.41 358.37 853.036 357.764C852.944 357.613 852.833 357.475 852.702 357.359C850.825 355.66 849.791 352.262 850.211 348.916C850.378 347.586 850.926 346.47 851.235 345.93C851.107 345.712 850.864 345.314 850.687 345.146Z" fill="#2C3A64"/>
<path d="M853.856 395.992C853.765 396.41 852.747 399.838 850.115 400.717C848.406 401.297 844.251 402.709 840.556 402.989C839.703 402.271 839.057 401.484 838.686 400.579C836.563 395.366 840.025 391.497 840.025 391.497C840.025 391.497 847.277 393.167 853.856 395.992Z" fill="#2C3A64"/>
<path d="M833.032 383.9C833.032 383.9 825.602 392.485 832.425 402.14C839.247 411.791 850.352 419.582 850.965 423.023C852.15 429.685 859.219 443.443 862.589 450.249L865.473 449.139C865.473 449.139 860.059 416.882 858.136 413.02C856.213 409.157 846.243 391.082 846.243 391.082L833.032 383.9Z" fill="#FFB27D"/>
<path d="M860.784 370.297C860.068 370.528 858.336 371.176 857.873 371.967C857.387 372.754 852.307 370.554 851.707 368.493C853.161 366.896 855.655 365.526 857.108 365.99C857.965 366.24 859.353 368.071 860.784 370.297Z" fill="#5885D6"/>
<path d="M831.536 386.541C831.536 386.541 841.18 393.437 847.625 393.051C847.625 393.051 851.858 400.292 852.797 402.683C852.797 402.683 841.83 408.186 836.13 407.171C836.13 407.171 828.697 399.93 829.13 394.862C829.564 389.791 831.536 386.541 831.536 386.541Z" fill="#35488B"/>
<path d="M857.991 373.574L855.678 376.88L855.494 377.298L850.69 388.303L848.242 393.911C846.601 394.306 843.556 394.026 842.191 393.539C834.755 390.99 831.522 386.541 831.522 386.541C835.841 375.21 841.82 367.472 843.044 366.105C845.167 363.787 850.733 361.887 850.733 361.887C852.255 363.465 857.706 366.221 857.706 366.221C858.914 367.169 857.991 373.574 857.991 373.574Z" fill="#739AF0"/>
<path d="M855.498 377.295L850.693 388.3C847.044 380.907 849.354 370.182 849.354 370.182C849.354 370.182 855.219 375.279 855.429 375.675C855.448 375.74 855.498 376.343 855.498 377.295Z" fill="#5885D6"/>
<path d="M877.546 390.638C877.546 390.638 877.241 392.376 875.141 392.956C873.041 393.512 860.043 388.023 856.951 386.495C855.288 385.662 852.889 381.026 851.041 376.972C850.602 375.974 850.188 375.026 849.817 374.17C848.895 372.016 848.295 370.462 848.295 370.462C848.295 368.331 853.306 365.434 855.429 366.408C856.075 366.711 856.928 368.029 857.831 369.767C858.248 370.577 858.661 371.46 859.078 372.362C860.719 376.001 862.218 380.1 862.54 381.075C863.117 382.81 877.546 390.638 877.546 390.638Z" fill="#FFB27D"/>
<path d="M859.074 372.359C857.135 373.238 853.647 374.954 851.038 376.969C850.598 375.971 850.185 375.023 849.814 374.167C848.892 372.013 848.291 370.459 848.291 370.459C848.291 368.328 853.302 365.43 855.425 366.405C856.072 366.708 856.925 368.025 857.827 369.764C858.244 370.574 858.661 371.456 859.074 372.359Z" fill="#739AF0"/>
<path d="M861.45 452.89H863.176C863.754 452.808 864.184 452.66 864.774 452.59C865.677 452.485 866.09 452.814 866.172 452.89C866.182 452.9 866.189 452.907 866.189 452.907H873.526C873.71 452.673 873.533 452.129 873.359 451.731C873.241 451.461 872.988 451.253 872.673 451.174C871.895 450.974 870.363 450.796 868.955 449.666C868.164 449.034 865.139 447.335 865.139 447.335L865.122 447.332C865.057 447.332 864.738 447.417 863.363 448.451C862.651 448.985 861.44 447.7 861.44 447.7C861.44 447.7 861.214 447.868 861.043 448.178C860.905 448.425 860.807 448.761 860.886 449.179C860.994 449.765 860.643 450.855 860.361 451.593C860.19 452.04 860.046 452.357 860.046 452.357C860.046 452.357 859.967 452.725 861.45 452.89Z" fill="#739CF3"/>
<path d="M861.046 448.181C861.46 448.438 862.329 448.949 862.907 449.015C863.688 449.107 865.145 447.338 865.145 447.338L865.129 447.335C865.063 447.335 864.745 447.421 863.37 448.455C862.658 448.988 861.447 447.704 861.447 447.704C861.447 447.704 861.217 447.869 861.046 448.181Z" fill="#415DA5"/>
<path d="M861.45 452.89H863.176C863.754 452.808 864.184 452.66 864.774 452.59C865.677 452.485 866.09 452.814 866.172 452.89C866.182 452.9 866.189 452.907 866.189 452.907H873.526C873.71 452.673 873.533 452.129 873.359 451.731C873.136 451.556 873.073 452.495 872.949 452.643C872.824 452.791 866.963 452.699 866.625 452.478C866.287 452.261 865.27 451.879 863.856 452.179C862.622 452.439 860.807 451.77 860.357 451.593C860.187 452.04 860.042 452.357 860.042 452.357C860.042 452.357 859.967 452.725 861.45 452.89Z" fill="#415DA5"/>
</svg>
