<svg width="762" height="468" viewBox="0 0 762 468" fill="none" xmlns="http://www.w3.org/2000/svg">
<path d="M762 375.296L759.264 388.877C758.951 395.788 756.707 400.677 755.503 406.818C749.142 439.308 732.549 460.065 728.411 465.095C728.408 465.098 728.405 465.101 728.402 465.104C727.842 465.787 727.497 466.177 727.454 466.278C709.474 466.278 593.234 466.301 460.772 466.258C425.067 466.249 388.184 466.232 351.726 466.206C335.17 466.197 318.703 466.187 302.475 466.174C290.657 466.164 278.966 466.151 267.461 466.141C223.787 466.099 182.772 466.044 147.595 465.972C128.764 465.933 111.608 465.891 96.6086 465.839C56.6702 465.712 32.0588 465.55 31.9841 465.338L31.941 465.192C31.941 465.192 31.9037 465.15 31.9008 465.104C31.898 465.101 31.898 465.098 31.898 465.095C31.898 465.046 31.852 464.994 31.852 464.994C31.7458 464.714 8.73677 428.694 1.89611 379.277C0.310869 367.817 -0.407085 355.639 0.23333 343.019V342.821C2.62842 296.277 23.4491 243.82 87.0799 199.299C147.882 156.699 83.246 128.598 131.593 81.1665C187.165 26.7363 247.838 86.9857 309.64 62.2819C320.53 57.8964 331.506 50.8939 342.482 40.1463C348.665 34.0834 355.416 28.7583 362.645 24.22C363.779 23.4821 364.868 22.7896 365.999 22.1492C370.356 19.5875 374.841 17.2696 379.502 15.1987C382.592 13.8171 385.772 12.5362 388.997 11.3529C394.134 9.43158 399.404 7.80286 404.763 6.47323C412.385 4.49992 420.268 3.06951 428.28 2.08448C431.767 1.63911 435.293 1.29451 438.866 1.04744C504.271 -3.62089 577.459 21.0504 619.086 58.1272C621.395 60.1818 623.604 62.2754 625.712 64.4048C626.585 65.289 627.791 66.5731 629.215 68.2343C638.931 79.5671 658.715 108.409 650.547 147.411C649.849 150.736 648.95 154.14 647.825 157.609C646.211 162.576 644.131 167.683 641.521 172.921C637.472 181.055 638.081 189.042 641.739 197.13L641.779 197.179H641.782C641.983 197.615 642.193 198.05 642.411 198.486C643.175 200.011 644.048 201.539 645.019 203.07C645.57 203.948 646.156 204.822 646.774 205.697C646.926 205.914 647.081 206.132 647.239 206.353C647.555 206.792 647.876 207.228 648.207 207.667C648.207 207.667 648.204 207.667 648.207 207.67C648.471 208.021 648.738 208.369 649.011 208.72C649.281 209.071 649.556 209.422 649.841 209.776C650.122 210.128 650.406 210.475 650.696 210.827C650.984 211.178 651.277 211.529 651.575 211.883C651.874 212.234 652.175 212.585 652.48 212.936C652.784 213.287 653.094 213.639 653.407 213.99H653.41C658.666 219.897 660.116 227.344 661.477 236.047C662.009 239.438 662.526 243.024 663.252 246.779C663.284 246.944 663.318 247.113 663.35 247.282C663.973 250.446 664.751 253.729 665.814 257.123C665.862 257.289 665.917 257.458 665.972 257.627C666.914 260.575 668.074 263.609 669.538 266.72C669.673 267.009 669.811 267.298 669.955 267.588V267.591C670.064 267.822 670.176 268.049 670.294 268.28C670.377 268.449 670.46 268.615 670.547 268.784C670.69 269.07 670.839 269.356 670.992 269.642L670.994 269.649C671.055 269.766 671.118 269.889 671.187 270.01C672.232 271.983 673.413 273.986 674.745 276.014C675.325 276.905 675.937 277.802 676.58 278.703C680.015 283.517 684.323 288.481 689.768 293.566C696.941 300.269 706.094 307.187 717.828 314.274C719.695 315.402 721.492 316.547 723.224 317.704C739.536 328.611 749.757 340.73 753.413 354.407C753.93 356.338 754.803 360.112 755.644 364.647C756.934 371.598 762.29 368.642 762 375.296Z" fill="#E2F2FF"/>
<path d="M462.398 59.6768C462.398 59.6768 469.992 42.4322 488.148 44.3479C488.148 44.3479 514.508 15.606 542.617 40.5164C542.617 40.5164 572.496 34.3436 594.625 45.8615C609.379 53.5401 614.251 61.5926 614.251 61.5926L462.398 59.6768Z" fill="#F8FCFF"/>
<path d="M246.407 240.15C246.407 240.15 263.094 211.169 302.997 214.389C302.997 214.389 360.932 166.087 422.709 207.949C422.709 207.949 488.381 197.576 537.013 216.932C569.44 229.835 580.149 243.371 580.149 243.371L246.407 240.15Z" fill="#F8FCFF"/>
<path d="M521.377 112.271C521.377 112.271 508.756 90.6064 478.619 95.9707C448.481 101.335 456.5 136.217 439.824 152.616C423.148 169.012 408.605 183.623 415.764 206.789C422.923 229.954 384.901 234.905 385.011 269.886C385.122 304.868 393.244 325.483 439.992 328.205C486.737 330.927 561.513 318.552 571.637 304.443C581.762 290.333 580.061 259.356 554.637 219.83C529.216 180.304 552.443 176.758 535.453 153.869C518.46 130.975 530.42 121.698 521.377 112.271Z" fill="#79B27F"/>
<path d="M129.964 149.671C129.964 149.671 140.937 130.614 167.176 132.731C167.176 132.731 205.271 100.97 245.892 128.497C245.892 128.497 289.074 121.677 321.054 134.401C342.374 142.886 349.418 151.788 349.418 151.788L129.964 149.671Z" fill="#F8FCFF"/>
<path d="M401.502 413.16C401.502 413.16 354.183 399.451 326.48 416.25C298.777 433.05 315.165 452.382 282.386 450.701C249.611 449.02 233.22 447.406 231.495 466.284H376.402L401.502 413.16Z" fill="#A8D29F"/>
<path d="M575.059 243.568H416.292V466.284H575.059V243.568Z" fill="#F9DDBF"/>
<path d="M698.629 249.504V467.269H574.873V243.524H693.24C695.094 245.499 696.89 247.471 698.629 249.504Z" fill="#FFF3E9"/>
<path d="M605.71 170.471L593.131 196.428L587.566 207.869L587.39 208.332L587.157 208.738L586.981 209.086L586.691 209.668L586.576 209.959L581.069 221.281L580.778 221.863L580.082 223.372L570.286 243.524L568.024 248.226L564.836 254.731L563.154 258.216H404.617L415.571 243.987L415.919 243.524L487.217 151.077L487.274 151.02H493.535L590.223 150.672C593.655 157.231 599.044 163.855 605.71 170.471Z" fill="#ED9F4A"/>
<path d="M574.873 257.162V275.767L415.591 282.51V258.242H410.878L493.539 150.997L574.873 257.162Z" fill="#F9DDBF"/>
<path d="M494.964 204.422H491.635C480.322 204.422 471.152 213.608 471.152 224.942V277.084H514.782V224.275C514.782 213.309 505.911 204.422 494.964 204.422Z" fill="#EFCDAF"/>
<path d="M713.149 264.196H571.945L564.817 254.731L556.412 243.524L490.27 155.201L487.197 151.077L486.85 150.614H628.057L628.405 151.077L631.478 155.201L697.616 243.524L706.021 254.731L713.149 264.196Z" fill="#F99746"/>
<path d="M476.259 288.307L439.1 364.94H326.222L385.071 288.587L476.259 288.307Z" fill="#ED9F4A"/>
<path d="M479.637 288.307L442.482 364.507H329.604L388.453 288.585L479.637 288.307Z" fill="#F9DDBF"/>
<path d="M442.238 364.507V466.063L329.604 466.284V364.507H442.238Z" fill="#F9DDBF"/>
<path d="M537.615 364.507H442.238V466.067H537.615V364.507Z" fill="#FFF3E9"/>
<path d="M548.095 369.011H445.635L385.07 288.581L415.59 288.589L485.771 288.604L548.095 369.011Z" fill="#F99746"/>
<path d="M379.746 330.888C379.746 327.96 382.131 325.585 385.07 325.585C388.013 325.585 390.394 327.96 390.394 330.888C390.394 333.82 388.01 336.192 385.07 336.192C382.131 336.192 379.746 333.816 379.746 330.888Z" fill="#EFCDAF"/>
<path d="M548.095 369.011H528.652L415.59 288.589L485.771 288.604L548.095 369.011Z" fill="#E88338"/>
<path d="M599.036 246.69H676.556L635.664 196.45H558.144L599.036 246.69Z" fill="#465C93"/>
<path d="M568.7 209.683H646.22L645.742 209.094H568.219L568.7 209.683Z" fill="#AEC3FF"/>
<path d="M617.444 196.447L658.336 246.69H658.925L618.032 196.447H617.444Z" fill="#AEC3FF"/>
<path d="M596.904 196.447L637.796 246.69H638.385L597.492 196.447H596.904Z" fill="#AEC3FF"/>
<path d="M577.14 196.447L618.032 246.69H618.621L577.728 196.447H577.14Z" fill="#AEC3FF"/>
<path d="M578.829 221.867H656.353L655.871 221.273H578.351L578.829 221.867Z" fill="#AEC3FF"/>
<path d="M589.527 235.008H667.047L666.565 234.418H589.045L589.527 235.008Z" fill="#AEC3FF"/>
<path d="M630.343 211.847L630.79 209.427L626.406 207.007L625.959 209.427L630.343 211.847Z" fill="#AEC3FF"/>
<path d="M610.029 211.847L610.472 209.427L606.088 207.007L605.641 209.427L610.029 211.847Z" fill="#AEC3FF"/>
<path d="M589.966 211.847L590.414 209.427L586.03 207.007L585.583 209.427L589.966 211.847Z" fill="#AEC3FF"/>
<path d="M640.227 223.988L640.674 221.568L636.29 219.148L635.843 221.568L640.227 223.988Z" fill="#AEC3FF"/>
<path d="M619.909 223.988L620.356 221.568L615.972 219.148L615.525 221.568L619.909 223.988Z" fill="#AEC3FF"/>
<path d="M599.851 223.988L600.298 221.568L595.914 219.148L595.467 221.568L599.851 223.988Z" fill="#AEC3FF"/>
<path d="M650.925 237.133L651.369 234.713L646.985 232.293L646.538 234.713L650.925 237.133Z" fill="#AEC3FF"/>
<path d="M630.607 237.133L631.054 234.713L626.666 232.293L626.223 234.713L630.607 237.133Z" fill="#AEC3FF"/>
<path d="M610.549 237.133L610.992 234.713L606.608 232.293L606.161 234.713L610.549 237.133Z" fill="#AEC3FF"/>
<path d="M452.711 353.894H522.953L485.902 308.367H415.659L452.711 353.894Z" fill="#465C93"/>
<path d="M425.226 320.359H495.468L495.033 319.823H424.79L425.226 320.359Z" fill="#AEC3FF"/>
<path d="M469.39 308.367L506.442 353.89H506.977L469.921 308.367H469.39Z" fill="#AEC3FF"/>
<path d="M450.776 308.367L487.832 353.89H488.367L451.311 308.367H450.776Z" fill="#AEC3FF"/>
<path d="M432.87 308.367L469.925 353.89H470.461L433.405 308.367H432.87Z" fill="#AEC3FF"/>
<path d="M434.403 331.398H504.645L504.21 330.862H433.967L434.403 331.398Z" fill="#AEC3FF"/>
<path d="M444.095 343.306H514.338L513.902 342.77H443.66L444.095 343.306Z" fill="#AEC3FF"/>
<path d="M481.082 322.32L481.484 320.126L477.513 317.936L477.107 320.126L481.082 322.32Z" fill="#AEC3FF"/>
<path d="M462.671 322.32L463.076 320.126L459.101 317.936L458.696 320.126L462.671 322.32Z" fill="#AEC3FF"/>
<path d="M444.493 322.32L444.898 320.126L440.927 317.936L440.522 320.126L444.493 322.32Z" fill="#AEC3FF"/>
<path d="M490.038 333.32L490.439 331.13L486.468 328.936L486.062 331.13L490.038 333.32Z" fill="#AEC3FF"/>
<path d="M471.626 333.32L472.028 331.13L468.057 328.936L467.651 331.13L471.626 333.32Z" fill="#AEC3FF"/>
<path d="M453.448 333.32L453.853 331.13L449.882 328.936L449.477 331.13L453.448 333.32Z" fill="#AEC3FF"/>
<path d="M499.726 345.229L500.131 343.038L496.16 340.844L495.755 343.038L499.726 345.229Z" fill="#AEC3FF"/>
<path d="M481.319 345.229L481.721 343.038L477.749 340.844L477.344 343.038L481.319 345.229Z" fill="#AEC3FF"/>
<path d="M463.141 345.229L463.546 343.038L459.571 340.844L459.17 343.038L463.141 345.229Z" fill="#AEC3FF"/>
<path d="M304.489 466.092C304.466 466.157 304.443 466.219 304.421 466.284H39.7558C39.752 466.28 39.752 466.276 39.752 466.272C39.752 466.215 33.5171 466.272 33.5171 466.272C33.3763 465.942 0 421.799 0 359.021C6.6247 356.447 30.0147 354.126 62.9214 354.992C64.2455 355.026 65.5849 355.076 66.9396 355.142C79.0817 355.715 92.4262 357.52 106.631 361.225C107.129 361.356 107.631 361.487 108.134 361.622C108.275 361.66 108.415 361.699 108.556 361.737C109.561 362.01 110.565 362.291 111.577 362.584C112.711 362.911 113.845 363.249 114.991 363.599C115.398 363.726 115.809 363.853 116.22 363.98C117.734 364.458 119.256 364.958 120.79 365.477C138.666 371.561 149.758 378.118 157.478 384.455C157.638 384.586 157.798 384.717 157.958 384.848C161.664 387.945 164.583 390.989 167.105 393.894C167.794 394.686 168.456 395.468 169.095 396.237C169.887 397.195 170.648 398.134 171.394 399.054C173.894 402.14 176.203 404.987 178.913 407.473C186.386 414.349 196.892 418.505 222.797 417.462C227.443 417.274 231.884 417.231 236.126 417.324C291.829 418.497 313.012 442.639 304.489 466.092Z" fill="#A8D29F"/>
<path d="M762 375.051C757.212 374.147 761.973 375.048 761.962 375.044C751.825 373.02 735.907 370.581 716.202 369.997C703.995 369.632 690.329 369.978 675.687 371.573C675.171 371.63 674.65 371.687 674.13 371.744C672.603 371.922 671.065 372.108 669.515 372.313C666.135 372.754 662.705 373.266 659.238 373.851C659.234 373.855 659.23 373.855 659.226 373.851C658.193 374.026 657.168 374.204 656.127 374.394C655.014 374.592 653.897 374.801 652.777 375.017C650.377 375.48 647.953 375.982 645.515 376.521C644.444 376.757 643.369 377.003 642.29 377.258C641.212 377.505 640.133 377.767 639.047 378.033C637.732 378.359 636.415 378.693 635.093 379.039H635.089C634.679 379.149 634.265 379.259 633.855 379.369H633.851C632.639 379.696 631.424 380.03 630.205 380.376C625.278 381.77 620.299 383.33 615.289 385.074C607.063 387.914 599.755 390.713 593.222 393.44C584.931 396.892 577.885 400.23 571.797 403.386C565.785 406.493 560.68 409.444 556.198 412.197C531.92 427.114 525.942 436.32 492.826 433.741C489.875 433.517 487.049 433.426 484.341 433.464C475.469 433.578 467.88 435.01 461.42 437.216C448.468 441.637 440.055 449.183 434.939 455.479C430.723 460.667 428.74 465.004 428.296 466.045C428.228 466.2 428.197 466.284 428.197 466.284H434.939H461.42H556.198H593.222H602.676H609.311H690.838H697.473H716.202H727.166C732.639 460.409 750.48 436.16 758.893 398.206C760.484 391.032 761.571 383.403 761.985 375.329L762 375.051Z" fill="#A8D29F"/>
<path d="M65.666 262.62C65.666 262.62 72.0719 250.616 87.3909 251.948C87.3909 251.948 109.632 231.942 133.348 249.28C133.348 249.28 158.559 244.984 177.23 252.998C189.678 258.343 193.787 263.948 193.787 263.948L65.666 262.62Z" fill="#F8FCFF"/>
<path d="M566.37 137.672C566.37 137.672 570.679 125.674 580.984 127.006C580.984 127.006 595.945 107.009 611.899 124.338C611.899 124.338 628.858 120.044 641.418 128.054C649.792 133.397 652.556 139 652.556 139L566.37 137.672Z" fill="#F8FCFF"/>
<path d="M331.066 104.087C331.066 104.087 336.371 92.6732 349.057 93.9406C349.057 93.9406 367.472 74.9145 387.114 91.402C387.114 91.402 407.99 87.3165 423.451 94.9399C433.759 100.021 437.164 105.355 437.164 105.355L331.066 104.087Z" fill="#F8FCFF"/>
<path d="M124.492 329.519C124.492 329.519 129.797 318.105 142.482 319.373C142.482 319.373 160.897 300.347 180.539 316.834C180.539 316.834 201.415 312.749 216.876 320.372C227.184 325.453 230.59 330.787 230.59 330.787L124.492 329.519Z" fill="#F8FCFF"/>
<path d="M245.903 439.881C246.679 439.881 247.306 439.283 247.306 438.544C247.306 421.969 233.153 408.479 215.757 408.479C211.739 408.479 207.829 409.188 204.132 410.589C203.413 410.861 203.063 411.638 203.348 412.323C203.638 413.005 204.445 413.342 205.169 413.07C208.532 411.795 212.096 411.148 215.757 411.148C231.61 411.148 244.505 423.435 244.505 438.54C244.501 439.283 245.132 439.881 245.903 439.881Z" fill="#2C3A64"/>
<path d="M271.196 375.06C271.196 375.06 269.058 379.299 266.357 385.168C263.327 391.754 259.586 400.396 257.36 407.422C256.183 411.14 255.427 414.403 255.423 416.673C255.423 417.45 258.574 420.613 259.482 421.819C265.224 429.435 273.068 439.605 273.068 439.605L275.21 439.092C275.21 439.092 272.212 426.372 267.844 420.024C266.984 418.775 264.565 417.255 264.682 417.117C264.682 417.117 264.682 417.114 264.686 417.114C265.063 416.662 266.004 415.536 267.286 413.924C270.826 409.482 276.974 401.392 281.093 393.864C281.35 393.393 281.599 392.926 281.836 392.463C284.006 388.262 285.441 384.322 285.3 381.405L271.196 375.06Z" fill="#E8945B"/>
<path d="M277.107 439.586L275.632 440.474C275.089 440.696 274.635 440.78 274.085 441.022C273.253 441.389 273.096 441.902 273.072 442.013C273.068 442.029 273.068 442.036 273.068 442.036L266.808 445.808C266.506 445.689 266.329 445.103 266.237 444.648C266.173 444.341 266.265 444.02 266.486 443.786C267.028 443.204 268.23 442.251 268.74 440.493C269.03 439.505 270.577 436.396 270.577 436.396L270.589 436.385C270.645 436.35 270.97 436.266 272.771 436.503C273.703 436.626 273.956 434.826 273.956 434.826C273.956 434.826 274.254 434.861 274.587 435.06C274.852 435.213 275.142 435.473 275.33 435.895C275.596 436.488 276.56 437.304 277.247 437.836C277.665 438.158 277.983 438.372 277.983 438.372C277.983 438.372 278.276 438.671 277.107 439.586Z" fill="#B84C42"/>
<path d="M274.587 435.06C274.394 435.508 273.96 436.419 273.506 436.779C272.895 437.262 270.581 436.396 270.581 436.396L270.593 436.385C270.649 436.35 270.974 436.266 272.775 436.503C273.707 436.626 273.96 434.826 273.96 434.826C273.96 434.826 274.253 434.865 274.587 435.06Z" fill="#AA3E39"/>
<path d="M277.106 439.586L275.631 440.474C275.089 440.696 274.635 440.78 274.084 441.022C273.252 441.389 273.096 441.902 273.072 442.013C273.068 442.029 273.068 442.036 273.068 442.036L266.807 445.808C266.506 445.689 266.329 445.103 266.236 444.648C266.321 444.372 266.944 445.199 267.14 445.276C267.337 445.348 272.28 442.247 272.437 441.872C272.593 441.496 273.224 440.623 274.619 440.172C275.828 439.777 276.969 438.23 277.247 437.836C277.665 438.158 277.982 438.372 277.982 438.372C277.982 438.372 278.275 438.671 277.106 439.586Z" fill="#AA3E39"/>
<path d="M283.34 392.364L266.532 442.464L269.368 443.328L286.176 393.228L283.34 392.364Z" fill="#F99746"/>
<path d="M270.805 443.48L310.479 440.191L236.898 392.788L241.109 400.997L301.855 438.058L270.548 440.654L270.805 443.48Z" fill="#F99746"/>
<path d="M265.458 441.259L267.957 439.724L237.429 393.121L233.873 396.629L265.458 441.259Z" fill="#F99746"/>
<path d="M261.29 434.616L255.704 437.687C255.049 438.046 254.82 438.854 255.202 439.478C255.58 440.103 256.428 440.321 257.083 439.961L262.668 436.89C263.323 436.53 263.552 435.722 263.171 435.098C262.793 434.47 261.945 434.252 261.29 434.616Z" fill="#415DA5"/>
<path d="M260.181 436.595L267.225 444.02L267.872 443.484L260.832 436.059L260.181 436.595Z" fill="#415DA5"/>
<path d="M282.856 411.159C283.274 411.301 283.74 411.255 284.118 411.033C297.503 403.329 316.016 406.224 321.372 407.296H321.38C321.674 407.353 321.951 407.139 321.951 406.852V405.856C321.951 405.094 321.364 404.447 320.573 404.336C317.675 403.927 310.904 403.042 307.123 403.027C307.023 403.027 306.918 403.027 306.818 403.027C298.347 403.027 291.03 404.47 285.018 407.327C283.792 407.909 282.366 407.993 281.072 407.56L279.425 407.009C278.484 406.695 277.451 407.166 277.118 408.062C276.905 408.64 277.222 409.276 277.833 409.482L282.856 411.159Z" fill="#35488B"/>
<path d="M295.298 391.743C295.298 391.743 295.836 389.419 294.305 389.262C292.774 389.105 287.196 390.246 285.706 390.089C284.219 389.932 276.447 388.71 275.081 389.97C273.719 391.23 274.297 392.332 277.022 392.57C279.75 392.807 283.387 393.24 284.42 394.067C285.46 394.894 292.943 397.337 295.298 391.743Z" fill="#415DA5"/>
<path d="M273.228 447.921C276.135 445.152 276.135 440.662 273.228 437.893C270.322 435.124 265.61 435.124 262.704 437.893C259.797 440.662 259.797 445.152 262.704 447.921C265.61 450.691 270.322 450.691 273.228 447.921Z" fill="#415DA5"/>
<path d="M316.135 416.856L307.867 438.807L308.491 439.02L316.759 417.069L316.135 416.856Z" fill="#415DA5"/>
<path d="M331.283 449.078L331.544 448.5L308.149 438.923L292.775 417.99L292.232 418.354L307.715 439.433L307.804 439.467L331.283 449.078Z" fill="#415DA5"/>
<path d="M317.21 463.383L317.837 463.184C317.673 462.709 308.627 440.034 308.241 439.069L308.008 438.479L293.434 460.438L293.992 460.775L307.856 439.881C311.171 448.186 317.086 463.023 317.21 463.383Z" fill="#415DA5"/>
<path d="M333.808 433.006L307.85 437.265L307.962 437.888L333.92 433.628L333.808 433.006Z" fill="#415DA5"/>
<path d="M298.991 415.638L298.362 415.838L305.966 437.578L306.595 437.379L298.991 415.638Z" fill="#415DA5"/>
<path d="M307.984 439.505L308.085 439.459L331.894 427.957L331.592 427.394L307.88 438.851L282.363 434.769L282.25 435.393L307.984 439.505Z" fill="#415DA5"/>
<path d="M298.328 462.594C298.469 462.2 304.577 447.872 308 439.861L321.213 459.669L321.771 459.332L307.872 438.494L307.631 439.061C307.233 439.995 297.87 461.92 297.701 462.399L298.328 462.594Z" fill="#415DA5"/>
<path d="M308.025 438.897L307.928 439.522L333.552 443.156L333.649 442.531L308.025 438.897Z" fill="#415DA5"/>
<path d="M323.211 419.947L308.991 435.544L309.491 435.958L323.711 420.361L323.211 419.947Z" fill="#415DA5"/>
<path d="M307.423 440.917L306.762 440.97L308.735 463.816L309.396 463.764L307.423 440.917Z" fill="#415DA5"/>
<path d="M308.924 437.708L286.271 452.675L286.648 453.194L309.302 438.227L308.924 437.708Z" fill="#415DA5"/>
<path d="M326.714 456.1L327.184 455.656L308.266 437.472V413.813H307.603V437.732L326.714 456.1Z" fill="#415DA5"/>
<path d="M307.932 443.824C310.626 443.824 312.81 441.743 312.81 439.176C312.81 436.609 310.626 434.528 307.932 434.528C305.238 434.528 303.054 436.609 303.054 439.176C303.054 441.743 305.238 443.824 307.932 443.824Z" fill="#2C3A64"/>
<path d="M331.274 423.443C326.091 416.478 317.559 411.921 307.931 411.921C298.283 411.921 289.736 416.497 284.553 423.489C283.873 424.408 283.251 425.365 282.692 426.364V426.368C280.546 430.189 279.329 434.547 279.329 439.176C279.329 439.425 279.333 439.678 279.341 439.926C279.365 440.872 279.445 441.814 279.578 442.752C280.068 446.317 281.298 449.759 283.198 452.872C285.674 456.923 289.222 460.316 293.461 462.69C296.829 464.577 300.57 465.776 304.439 466.224C304.472 466.231 304.504 466.235 304.54 466.235C305.661 466.365 306.794 466.431 307.931 466.431C309.089 466.431 310.234 466.365 311.355 466.235C311.391 466.231 311.427 466.228 311.46 466.224C319.625 465.263 326.734 461.013 331.274 454.909C334.589 450.464 336.538 445.034 336.538 439.176C336.538 433.318 334.589 427.888 331.274 423.443ZM332.251 442.932C332.034 444.223 331.704 445.475 331.274 446.688C331.101 447.182 330.909 447.672 330.696 448.151C330.611 448.346 330.527 448.538 330.434 448.729C329.39 450.958 327.987 453.006 326.295 454.802C326.151 454.959 326.002 455.116 325.849 455.269C324.527 456.609 323.041 457.796 321.421 458.807C321.24 458.926 321.055 459.037 320.867 459.148C319.637 459.872 318.339 460.496 316.981 461.013C316.776 461.089 316.567 461.162 316.362 461.235C314.144 462.008 311.781 462.483 309.322 462.613C309.101 462.625 308.88 462.636 308.659 462.64C308.418 462.648 308.177 462.651 307.931 462.651C304.853 462.651 301.815 462.104 298.974 461.047C298.77 460.97 298.565 460.894 298.36 460.81C297.367 460.411 296.403 459.952 295.47 459.431C295.326 459.351 295.185 459.27 295.044 459.182C294.856 459.075 294.671 458.964 294.486 458.845C291.79 457.172 289.459 455.001 287.639 452.478V452.474C287.506 452.302 287.385 452.129 287.269 451.953C287.044 451.632 286.831 451.302 286.626 450.969C285.019 448.343 283.974 445.436 283.536 442.423C283.399 441.489 283.319 440.547 283.307 439.597C283.299 439.456 283.299 439.318 283.299 439.176C283.299 437.962 283.395 436.771 283.584 435.607C283.616 435.397 283.652 435.19 283.693 434.983C284.135 432.659 284.938 430.45 286.047 428.413C286.578 427.436 287.176 426.498 287.844 425.606C289.415 423.5 291.34 421.651 293.542 420.135C293.722 420.012 293.903 419.893 294.084 419.775C295.579 418.802 297.19 417.983 298.898 417.339C299.099 417.263 299.304 417.186 299.513 417.114C302.041 416.237 304.765 415.743 307.602 415.708C307.71 415.704 307.823 415.704 307.931 415.704C308.044 415.704 308.152 415.704 308.265 415.708C310.981 415.743 313.593 416.198 316.033 417.006C316.242 417.075 316.45 417.148 316.655 417.225C318.853 418.017 320.899 419.105 322.747 420.433C322.924 420.56 323.097 420.69 323.27 420.82C325.938 422.849 328.152 425.388 329.751 428.283C329.856 428.47 329.956 428.658 330.053 428.845C330.523 429.757 330.933 430.699 331.274 431.667C331.475 432.226 331.652 432.793 331.805 433.371C331.861 433.574 331.913 433.777 331.961 433.984C332.359 435.653 332.568 437.392 332.568 439.176C332.568 440.237 332.496 441.282 332.347 442.308C332.319 442.519 332.287 442.725 332.251 442.932Z" fill="#202E51"/>
<path d="M332.267 433.934C332.219 433.727 332.163 433.524 332.106 433.322C331.877 432.472 331.6 431.641 331.275 430.829C330.989 430.109 330.668 429.408 330.31 428.723C330.214 428.531 330.113 428.344 330.009 428.16C328.385 425.235 326.147 422.666 323.459 420.613C323.286 420.479 323.113 420.349 322.936 420.223C318.842 417.255 313.767 415.452 308.265 415.341C308.081 415.333 307.9 415.333 307.715 415.333H307.602C304.717 415.345 301.944 415.823 299.365 416.689C299.156 416.757 298.951 416.83 298.746 416.907C296.986 417.546 295.322 418.369 293.775 419.353C293.59 419.468 293.409 419.587 293.229 419.71C290.95 421.237 288.949 423.117 287.313 425.265C286.634 426.154 286.02 427.088 285.477 428.064C284.296 430.163 283.436 432.452 282.962 434.865C282.917 435.071 282.877 435.282 282.845 435.489C282.628 436.741 282.52 438.027 282.52 439.337C282.52 439.444 282.52 439.555 282.524 439.662C282.536 440.62 282.608 441.565 282.737 442.492C283.235 446.11 284.585 449.476 286.586 452.405C286.707 452.581 286.827 452.754 286.956 452.926C288.84 455.537 291.255 457.773 294.052 459.5C294.237 459.615 294.426 459.726 294.615 459.833C295.712 460.477 296.861 461.036 298.063 461.514C298.268 461.595 298.473 461.671 298.681 461.748C301.486 462.778 304.532 463.344 307.715 463.344C308.052 463.344 308.386 463.337 308.719 463.325C308.94 463.318 309.161 463.306 309.382 463.291C311.902 463.134 314.321 462.621 316.587 461.805C316.796 461.732 317.001 461.656 317.206 461.575C318.597 461.036 319.927 460.381 321.18 459.619C321.365 459.508 321.55 459.393 321.735 459.274C323.374 458.225 324.881 456.996 326.211 455.618C326.364 455.464 326.513 455.307 326.657 455.15C328.369 453.293 329.78 451.184 330.825 448.89C330.917 448.699 331.001 448.507 331.082 448.312C331.15 448.159 331.214 448.002 331.275 447.845C331.893 446.294 332.347 444.671 332.621 442.986C332.653 442.779 332.685 442.568 332.713 442.362C332.842 441.37 332.91 440.359 332.91 439.337C332.91 437.48 332.689 435.669 332.267 433.934ZM331.616 442.844C331.524 443.415 331.407 443.978 331.275 444.533C330.989 445.701 330.612 446.838 330.149 447.929C330.065 448.124 329.981 448.316 329.892 448.507C328.9 450.686 327.558 452.692 325.942 454.461C325.798 454.618 325.649 454.775 325.496 454.932C324.214 456.261 322.768 457.448 321.188 458.459C321.004 458.577 320.819 458.692 320.634 458.803C319.44 459.527 318.175 460.151 316.849 460.668C316.644 460.748 316.439 460.825 316.23 460.898C314.052 461.683 311.725 462.177 309.298 462.322C309.081 462.341 308.856 462.353 308.635 462.357C308.33 462.372 308.024 462.376 307.715 462.376C304.665 462.376 301.747 461.836 299.059 460.848C298.854 460.775 298.649 460.695 298.444 460.614C297.299 460.163 296.202 459.627 295.153 459.018C294.964 458.907 294.78 458.796 294.595 458.681C291.915 457.027 289.6 454.879 287.792 452.374C287.663 452.202 287.542 452.026 287.422 451.85C285.521 449.059 284.235 445.854 283.749 442.408C283.621 441.481 283.548 440.535 283.54 439.578C283.536 439.498 283.536 439.417 283.536 439.337C283.536 438.081 283.641 436.852 283.846 435.65C283.882 435.439 283.918 435.232 283.962 435.025C284.416 432.743 285.224 430.58 286.333 428.589C286.871 427.62 287.482 426.69 288.157 425.809C289.72 423.761 291.633 421.965 293.811 420.502C293.992 420.38 294.173 420.261 294.358 420.146C295.824 419.216 297.4 418.435 299.067 417.826C299.272 417.749 299.477 417.676 299.686 417.607H299.69C302.169 416.773 304.83 416.313 307.602 416.302H307.715C307.9 416.302 308.085 416.306 308.265 416.309C310.901 416.363 313.433 416.826 315.8 417.627C316.009 417.696 316.214 417.768 316.419 417.849C318.528 418.622 320.493 419.675 322.269 420.958C322.446 421.08 322.619 421.211 322.792 421.345C325.384 423.316 327.537 425.786 329.101 428.597C329.205 428.784 329.306 428.972 329.402 429.159C330.113 430.53 330.688 431.978 331.102 433.486C331.158 433.689 331.214 433.892 331.263 434.099C331.267 434.11 331.271 434.126 331.275 434.141C331.68 435.81 331.893 437.549 331.893 439.337C331.893 440.313 331.829 441.278 331.705 442.22C331.676 442.431 331.648 442.637 331.616 442.844Z" fill="#B84C42"/>
<path d="M222.842 416.842L214.574 438.793L215.198 439.006L223.466 417.055L222.842 416.842Z" fill="#415DA5"/>
<path d="M238.003 449.078L238.264 448.5L214.873 438.923L199.495 417.99L198.952 418.354L214.439 439.433L214.523 439.467L238.003 449.078Z" fill="#415DA5"/>
<path d="M223.931 463.383L224.558 463.184C224.393 462.709 215.348 440.034 214.962 439.069L214.729 438.479L200.154 460.438L200.713 460.775L214.576 439.881C217.895 448.186 223.806 463.023 223.931 463.383Z" fill="#415DA5"/>
<path d="M240.532 433.004L214.575 437.264L214.687 437.886L240.644 433.627L240.532 433.004Z" fill="#415DA5"/>
<path d="M205.713 415.634L205.084 415.834L212.689 437.575L213.318 437.375L205.713 415.634Z" fill="#415DA5"/>
<path d="M214.708 439.505L214.805 439.459L238.614 427.957L238.312 427.394L214.604 438.851L189.083 434.769L188.971 435.393L214.708 439.505Z" fill="#415DA5"/>
<path d="M205.049 462.594C205.189 462.2 211.301 447.872 214.721 439.861L227.933 459.669L228.492 459.332L214.592 438.494L214.351 439.061C213.953 439.995 204.591 461.92 204.422 462.399L205.049 462.594Z" fill="#415DA5"/>
<path d="M214.743 438.897L214.645 439.522L240.269 443.156L240.367 442.531L214.743 438.897Z" fill="#415DA5"/>
<path d="M229.932 419.945L215.712 435.542L216.212 435.957L230.432 420.36L229.932 419.945Z" fill="#415DA5"/>
<path d="M214.181 440.869L213.52 440.921L215.495 463.768L216.156 463.715L214.181 440.869Z" fill="#415DA5"/>
<path d="M215.64 437.697L192.986 452.664L193.364 453.183L216.018 438.216L215.64 437.697Z" fill="#415DA5"/>
<path d="M233.435 456.1L233.905 455.656L214.986 437.472V413.813H214.323V437.732L233.435 456.1Z" fill="#415DA5"/>
<path d="M214.657 443.824C217.351 443.824 219.535 441.743 219.535 439.176C219.535 436.609 217.351 434.528 214.657 434.528C211.962 434.528 209.778 436.609 209.778 439.176C209.778 441.743 211.962 443.824 214.657 443.824Z" fill="#2C3A64"/>
<path d="M229.605 415.95C228.862 415.509 228.09 415.103 227.302 414.736C226.101 414.165 224.847 413.675 223.553 413.273C220.752 412.396 217.763 411.921 214.657 411.921C210.389 411.921 206.339 412.817 202.698 414.422C202.18 414.648 201.665 414.893 201.163 415.149C192.178 419.752 186.054 428.796 186.054 439.176C186.054 443.997 187.388 448.729 189.919 452.872C192.395 456.923 195.943 460.316 200.182 462.69C200.504 462.87 200.833 463.046 201.163 463.21C204.269 464.799 207.665 465.818 211.165 466.224C211.197 466.231 211.229 466.235 211.265 466.235C212.386 466.365 213.519 466.431 214.657 466.431C215.814 466.431 216.959 466.365 218.08 466.235C218.116 466.231 218.153 466.228 218.185 466.224C232.297 464.562 243.259 453.068 243.259 439.176C243.259 429.366 237.79 420.747 229.605 415.95ZM238.972 442.932C238.666 444.751 238.136 446.501 237.413 448.151C237.332 448.346 237.244 448.538 237.152 448.729C236.107 450.958 234.708 453.006 233.017 454.802C232.872 454.959 232.723 455.116 232.571 455.269C231.248 456.609 229.762 457.8 228.142 458.807C227.957 458.926 227.777 459.037 227.588 459.148C226.362 459.872 225.06 460.496 223.702 461.013C223.501 461.089 223.296 461.162 223.087 461.235C220.873 462.008 218.506 462.483 216.047 462.613C215.826 462.625 215.605 462.636 215.384 462.64C215.143 462.648 214.902 462.651 214.657 462.651C211.575 462.651 208.533 462.104 205.696 461.047C205.491 460.97 205.286 460.894 205.085 460.81C204.092 460.411 203.128 459.952 202.196 459.431C202.051 459.351 201.91 459.27 201.77 459.182C201.581 459.075 201.396 458.964 201.211 458.845C201.195 458.838 201.179 458.83 201.163 458.815C198.483 457.145 196.168 454.986 194.36 452.478C194.227 452.306 194.103 452.129 193.99 451.953C193.761 451.632 193.552 451.302 193.347 450.969C191.169 447.404 190.02 443.327 190.02 439.176C190.02 437.962 190.116 436.771 190.305 435.607C190.337 435.397 190.374 435.19 190.414 434.983C191.571 428.899 195.196 423.623 200.263 420.135C200.444 420.012 200.62 419.893 200.805 419.775C200.922 419.698 201.042 419.622 201.163 419.549C202.557 418.672 204.048 417.933 205.619 417.339C205.824 417.263 206.033 417.186 206.238 417.114C208.766 416.237 211.49 415.743 214.323 415.708C214.436 415.704 214.544 415.704 214.657 415.704C214.765 415.704 214.878 415.704 214.986 415.708C217.457 415.739 219.84 416.118 222.087 416.796C222.312 416.861 222.533 416.934 222.754 417.006C222.963 417.075 223.172 417.148 223.377 417.225C224.168 417.508 224.94 417.833 225.687 418.189C227.021 418.833 228.287 419.583 229.468 420.433C229.645 420.56 229.818 420.69 229.991 420.82C232.659 422.849 234.873 425.388 236.472 428.283C236.577 428.47 236.677 428.658 236.77 428.849C237.513 430.281 238.104 431.794 238.526 433.371C238.582 433.574 238.634 433.777 238.682 433.984C239.08 435.653 239.289 437.392 239.289 439.176C239.289 440.237 239.213 441.282 239.068 442.308C239.04 442.519 239.008 442.725 238.972 442.932Z" fill="#1D2A4C"/>
<path d="M238.988 433.934C238.94 433.727 238.883 433.524 238.827 433.322C238.393 431.717 237.79 430.178 237.031 428.723C236.934 428.531 236.834 428.344 236.729 428.16C235.106 425.235 232.868 422.666 230.179 420.613C230.007 420.479 229.834 420.349 229.657 420.223C228.456 419.35 227.17 418.58 225.812 417.921C224.658 417.362 223.457 416.888 222.211 416.501H222.207C221.271 416.21 220.314 415.972 219.334 415.793C217.923 415.521 216.469 415.368 214.986 415.341C214.801 415.333 214.62 415.333 214.435 415.333H214.323C213.648 415.337 212.977 415.364 212.314 415.417C210.152 415.59 208.062 416.022 206.089 416.689C205.88 416.757 205.671 416.83 205.466 416.907C203.956 417.454 202.517 418.136 201.163 418.944C200.938 419.074 200.717 419.212 200.496 419.353C200.311 419.468 200.13 419.587 199.949 419.71C194.697 423.236 190.916 428.627 189.682 434.865C189.638 435.071 189.598 435.282 189.566 435.489C189.349 436.741 189.24 438.027 189.24 439.337C189.24 444.154 190.735 448.641 193.307 452.405C193.427 452.581 193.552 452.757 193.676 452.93C195.565 455.541 197.98 457.777 200.777 459.5C200.906 459.581 201.034 459.661 201.163 459.734C201.219 459.772 201.279 459.806 201.336 459.837C202.433 460.477 203.586 461.039 204.787 461.514C204.988 461.595 205.193 461.671 205.398 461.748C208.203 462.778 211.253 463.344 214.435 463.344C214.773 463.344 215.111 463.337 215.444 463.325C215.665 463.318 215.886 463.306 216.107 463.291C218.627 463.134 221.046 462.621 223.308 461.805C223.517 461.732 223.722 461.656 223.927 461.575C225.317 461.036 226.647 460.381 227.901 459.619C228.086 459.508 228.271 459.393 228.456 459.274C230.095 458.225 231.602 456.996 232.932 455.618C233.085 455.464 233.233 455.307 233.378 455.15C235.09 453.293 236.5 451.184 237.549 448.89C237.638 448.699 237.722 448.507 237.802 448.312C238.522 446.623 239.044 444.839 239.341 442.986C239.374 442.779 239.406 442.568 239.434 442.362C239.562 441.37 239.631 440.359 239.631 439.337C239.631 437.48 239.41 435.669 238.988 433.934ZM238.337 442.844C238.048 444.613 237.553 446.317 236.87 447.929C236.786 448.124 236.701 448.316 236.613 448.507C235.62 450.686 234.278 452.692 232.663 454.461C232.518 454.618 232.37 454.775 232.217 454.932C230.935 456.261 229.488 457.448 227.909 458.459C227.724 458.577 227.539 458.692 227.355 458.803C226.161 459.527 224.895 460.151 223.569 460.668C223.364 460.748 223.159 460.825 222.95 460.898C220.772 461.683 218.446 462.177 216.023 462.322C215.806 462.341 215.581 462.353 215.36 462.357C215.054 462.372 214.745 462.376 214.435 462.376C211.386 462.376 208.468 461.836 205.78 460.848C205.575 460.775 205.37 460.695 205.165 460.614C204.024 460.163 202.923 459.627 201.878 459.018C201.689 458.907 201.504 458.796 201.319 458.681C201.267 458.65 201.215 458.619 201.163 458.581C198.547 456.942 196.288 454.829 194.512 452.374C194.388 452.202 194.263 452.026 194.147 451.85C191.687 448.243 190.257 443.947 190.257 439.337C190.257 438.081 190.361 436.852 190.566 435.65C190.602 435.439 190.639 435.232 190.683 435.025C191.876 429.048 195.501 423.883 200.536 420.506C200.717 420.38 200.898 420.261 201.078 420.146C201.107 420.127 201.135 420.112 201.163 420.096C202.605 419.185 204.152 418.423 205.788 417.826C205.993 417.749 206.202 417.676 206.411 417.607C208.89 416.773 211.55 416.313 214.323 416.302H214.435C214.62 416.302 214.805 416.306 214.986 416.309C217.369 416.359 219.667 416.738 221.833 417.408C222.066 417.477 222.291 417.55 222.52 417.627C222.729 417.696 222.934 417.768 223.139 417.849C223.911 418.132 224.666 418.454 225.398 418.81C226.663 419.426 227.865 420.142 228.99 420.958C229.167 421.08 229.34 421.211 229.512 421.345C232.104 423.316 234.258 425.786 235.821 428.597C235.926 428.784 236.026 428.972 236.123 429.159C236.834 430.53 237.409 431.978 237.822 433.486C237.879 433.689 237.935 433.892 237.983 434.099C238.397 435.78 238.614 437.533 238.614 439.337C238.614 440.313 238.55 441.278 238.425 442.22C238.397 442.431 238.369 442.637 238.337 442.844Z" fill="#B84C42"/>
<path d="M288.7 375.144C288.7 375.144 294.751 384.284 287.273 389.308C279.799 394.335 254.628 396.736 255.861 397.712C259.635 400.695 263.066 405.282 262.886 432.739L261.021 433.658C261.021 433.658 243.071 396.452 244.276 392.018C245.072 389.085 271.252 373.199 288.7 375.144Z" fill="#FFB27D"/>
<path d="M274.19 394.159C274.19 394.159 289.439 391.75 291.015 386.62C292.188 382.787 292.538 381.225 285.626 368.842C285.626 368.842 282.737 374.072 267.664 372.858C267.664 372.858 267.74 373.536 267.74 374.455C267.72 375.979 267.471 378.142 266.217 378.766C266.197 378.786 266.161 378.786 266.141 378.805C264.156 379.666 261.086 381.405 260.624 381.573C260.603 381.573 269.878 383.262 274.19 394.159Z" fill="#35488B"/>
<path d="M266.216 378.766C272.935 376.879 279.501 377.074 283.367 373.632C277.669 372.238 270.817 374.455 267.735 374.455C267.719 375.979 267.47 378.146 266.216 378.766Z" fill="#2C3A64"/>
<path d="M265.413 434.076L263.842 434.796C263.275 434.956 262.813 434.991 262.238 435.171C261.366 435.443 261.149 435.937 261.113 436.044C261.109 436.059 261.105 436.067 261.105 436.067L254.431 439.122C254.149 438.969 254.041 438.368 254.005 437.905C253.977 437.591 254.109 437.285 254.354 437.074C254.965 436.553 256.271 435.741 256.994 434.053C257.4 433.103 259.321 430.186 259.321 430.186L259.333 430.174C259.393 430.147 259.723 430.101 261.483 430.534C262.391 430.756 262.865 428.999 262.865 428.999C262.865 428.999 263.155 429.068 263.464 429.301C263.709 429.485 263.966 429.772 264.099 430.212C264.288 430.833 265.148 431.748 265.767 432.353C266.144 432.717 266.43 432.969 266.43 432.969C266.43 432.969 266.687 433.295 265.413 434.076Z" fill="#B84C42"/>
<path d="M263.464 429.305C263.215 429.73 262.673 430.588 262.182 430.894C261.519 431.308 259.321 430.189 259.321 430.189L259.333 430.178C259.394 430.151 259.723 430.105 261.483 430.538C262.391 430.76 262.866 429.002 262.866 429.002C262.866 429.002 263.155 429.071 263.464 429.305Z" fill="#AA3E39"/>
<path d="M265.413 434.076L263.841 434.796C263.275 434.956 262.813 434.991 262.238 435.171C261.366 435.443 261.149 435.937 261.113 436.044C261.109 436.059 261.105 436.067 261.105 436.067L254.43 439.122C254.149 438.969 254.041 438.368 254.004 437.905C254.121 437.641 254.639 438.533 254.824 438.628C255.009 438.724 260.297 436.189 260.498 435.833C260.699 435.477 261.434 434.681 262.869 434.386C264.119 434.129 265.441 432.717 265.762 432.357C266.14 432.72 266.425 432.973 266.425 432.973C266.425 432.973 266.686 433.295 265.413 434.076Z" fill="#AA3E39"/>
<path d="M227.475 403.873C227.901 402.854 228.898 402.219 229.974 402.154C242.323 375.125 242.456 374.911 242.64 374.62L244.425 377.989C244.521 377.844 216.497 437.874 216.497 437.874L213.74 436.802L227.475 403.873Z" fill="#35488B"/>
<path d="M256.918 378.648C257.505 376.768 256.379 374.792 254.406 374.233C252.433 373.674 250.36 374.746 249.773 376.626C249.186 378.506 250.312 380.482 252.285 381.041C254.258 381.596 256.331 380.528 256.918 378.648Z" fill="#415DA5"/>
<path d="M233.849 372.433C234.436 370.553 233.311 368.578 231.337 368.019C229.364 367.46 227.291 368.532 226.704 370.412C226.118 372.292 227.243 374.267 229.216 374.826C231.189 375.385 233.262 374.313 233.849 372.433Z" fill="#415DA5"/>
<path d="M231.06 374.819L252.755 380.007L253.133 375.833L231.437 370.645L231.06 374.819Z" fill="#415DA5"/>
<path d="M252.265 370.699C252.265 370.699 250.223 371.974 248.777 371.916C247.334 371.859 245.498 372.433 245.498 372.433C245.498 372.433 243.573 372.977 243.392 375.156C243.392 375.156 243.4 375.788 246.43 374.899C247.093 374.704 248.688 375.072 249.227 374.899C249.769 374.727 251.413 373.035 252.847 373.077L252.265 370.699Z" fill="#FFB27D"/>
<path d="M241.339 368.233C241.339 368.233 239.298 369.508 237.851 369.451C236.408 369.393 234.572 369.968 234.572 369.968C234.572 369.968 232.647 370.511 232.466 372.69C232.466 372.69 232.507 373.586 235.504 372.433C236.328 372.116 237.763 372.606 238.301 372.433C238.839 372.261 240.829 370.81 242.203 370.45L241.339 368.233Z" fill="#E8945B"/>
<path d="M267.077 315.968C270.058 316.481 271.441 318.016 273.333 322.393C275.306 326.961 272.916 331.165 271.015 330.617C269.793 330.265 269.367 332.256 269.367 332.256L257.762 322.596C257.762 322.596 259.454 315.5 267.077 315.968Z" fill="#2C3A64"/>
<path d="M260.281 342.311C260.281 342.311 264.323 344.478 263.849 349.969C263.375 355.46 258.087 364.113 254.064 366.261C250.882 367.961 241.672 370.618 241.672 370.618L241.342 368.237C241.342 368.237 248.837 363.573 250.456 361.98C253.932 358.565 257.243 340.982 260.281 342.311Z" fill="#E8945B"/>
<path d="M260.683 354.655C260.868 355.892 261.209 356.957 261.631 357.971C261.985 358.818 262.391 359.629 262.808 360.472C264.038 362.949 266.927 364.167 267.028 368.926C267.06 370.565 281.598 363.638 281.683 357.906C281.683 357.891 281.687 357.876 281.687 357.86C281.711 357.581 281.751 356.838 281.795 355.854C281.904 353.449 282.048 349.609 282.097 347.668C282.097 347.622 282.097 347.576 282.101 347.534C282.121 346.703 282.149 346.098 282.181 345.941C280.236 338.053 275.76 338.019 274.229 338.042C274.028 338.045 273.823 338.053 273.618 338.061C272.778 338.099 271.982 337.716 271.5 337.061C270.644 335.905 269.684 333.91 269.097 331.188L268.748 331.329L262.881 333.707C262.881 333.707 263.423 335.514 263.809 337.245C263.974 337.984 264.106 338.708 264.159 339.271C264.207 339.811 263.877 340.316 263.347 340.511C263.347 340.511 263.347 340.511 263.347 340.515C263.242 340.741 259.742 348.38 260.683 354.655Z" fill="#FFB27D"/>
<path d="M261.631 357.971C261.985 358.818 262.391 359.629 262.809 360.472C264.038 362.949 266.928 364.167 267.028 368.926C267.116 368.934 267.205 368.941 267.297 368.949C278.03 369.749 281.687 357.86 281.687 357.86C281.711 357.581 281.751 356.838 281.796 355.854L262.427 355.885C262.431 355.885 262.029 356.719 261.631 357.971Z" fill="#E8945B"/>
<path d="M258.907 352.339C258.959 352.492 259.024 352.645 259.088 352.798C260.948 357.026 265.059 378.77 265.059 378.77C265.112 378.744 281.852 379.816 288.491 371.093C288.816 372.016 287.245 366.698 284.798 359.553C282.961 354.192 282.025 350.409 282.097 347.671C282.097 347.626 282.097 347.58 282.101 347.537C281.675 347.212 281.257 346.91 280.876 346.622C279.642 345.696 278.726 344.911 278.706 343.946C278.698 343.567 278.726 343.176 278.782 342.786C278.81 342.602 278.838 342.418 278.879 342.238C279.268 340.316 280.18 338.597 280.18 338.597C278.071 337.693 274.237 338.049 274.237 338.049C274.237 338.049 272.799 341.112 269.741 342.939C268.885 343.448 265.823 344.731 264.316 343.398C263.319 342.518 263.291 340.71 263.352 340.523C263.352 340.519 263.352 340.519 263.352 340.519C259.88 341.675 258.614 342.705 258.614 342.705C260.623 344.049 257.469 348.253 258.907 352.339Z" fill="#739AF0"/>
<path d="M262.885 333.707C262.885 333.707 263.428 335.514 263.813 337.245C267.221 336.468 268.374 333.129 268.756 331.333L262.885 333.707Z" fill="#E8945B"/>
<path d="M262.102 335.576C262.102 335.576 270.235 334.086 269.182 329.273C268.129 324.46 268.471 321.03 263.235 321.776C257.999 322.523 257.392 324.56 257.336 326.248C257.276 327.933 259.956 335.84 262.102 335.576Z" fill="#FFB27D"/>
<path d="M256.986 323.526C257.923 321.83 258.939 321.956 259.566 322.285C263.488 319.081 267.097 321.941 267.097 321.941C268.399 325.283 271.444 326.742 271.444 326.742C271.444 326.742 270.159 327.906 266.57 327.753C265.473 327.707 264.388 327.186 263.412 326.49C265.272 328.416 267.498 329.629 267.498 329.629C263.038 328.649 260.217 323.583 259.932 323.047C259.53 323.568 258.758 324.682 258.658 325.643C258.525 326.949 258.895 329.507 258.103 329.576C258.099 329.572 255.584 326.068 256.986 323.526Z" fill="#2C3A64"/>
<path d="M252.264 370.699L252.847 373.077C252.847 373.077 266.493 371.3 270.954 368.826C275.414 366.353 282.169 351.811 282.699 345.661C282.728 345.336 282.748 345.022 282.752 344.727C282.912 339.416 280.172 338.593 280.172 338.593C279.075 338.114 277.709 339.906 276.262 342.713C273.228 348.594 269.841 358.917 267.827 361.973C266.284 364.316 252.264 370.699 252.264 370.699Z" fill="#FFB27D"/>
<path d="M276.271 342.709C280.012 341.867 282.76 344.727 282.76 344.727C282.921 339.416 280.18 338.593 280.18 338.593C279.079 338.111 277.713 339.906 276.271 342.709Z" fill="#739AF0"/>
<path d="M258.613 342.701C258.613 342.701 257.243 343.911 256.721 346.664C256.721 346.664 258.746 346.676 259.686 348.56C259.686 348.56 260.434 343 258.613 342.701Z" fill="#739AF0"/>
<path d="M266.514 317.691C266.514 317.691 271.01 312.384 276.68 313.873C282.35 315.363 285.577 321.604 288.213 320.578C292.637 318.855 293.863 324.51 292.099 328.626C290.556 332.222 283.889 333.589 279.855 329.652C276.913 326.784 272.871 314.524 267.888 318.621C262.897 322.718 266.514 317.691 266.514 317.691Z" fill="#2C3A64"/>
</svg>
