<?xml version="1.0" encoding="UTF-8" standalone="no"?>
<svg
   width="20"
   height="22"
   viewBox="0 0 20 22"
   fill="none"
   version="1.1"
   id="svg3950"
   sodipodi:docname="calendar.svg"
   inkscape:version="1.2.1 (9c6d41e410, 2022-07-14)"
   xmlns:inkscape="http://www.inkscape.org/namespaces/inkscape"
   xmlns:sodipodi="http://sodipodi.sourceforge.net/DTD/sodipodi-0.dtd"
   xmlns="http://www.w3.org/2000/svg"
   xmlns:svg="http://www.w3.org/2000/svg">
  <defs
     id="defs3954" />
  <sodipodi:namedview
     id="namedview3952"
     pagecolor="#ffffff"
     bordercolor="#000000"
     borderopacity="0.25"
     inkscape:showpageshadow="2"
     inkscape:pageopacity="0.0"
     inkscape:pagecheckerboard="0"
     inkscape:deskcolor="#d1d1d1"
     showgrid="false"
     inkscape:zoom="23.863636"
     inkscape:cx="10.03619"
     inkscape:cy="11.020952"
     inkscape:window-width="1366"
     inkscape:window-height="705"
     inkscape:window-x="-8"
     inkscape:window-y="-8"
     inkscape:window-maximized="1"
     inkscape:current-layer="svg3950" />
  <path
     style="color:#000000;fill:#ffffff;stroke-linecap:round;stroke-linejoin:round;-inkscape-stroke:none"
     d="m 1.0917969,7.6542969 a 0.75,0.75 0 0 0 -0.75000002,0.75 0.75,0.75 0 0 0 0.75000002,0.75 H 18.916016 a 0.75,0.75 0 0 0 0.75,-0.75 0.75,0.75 0 0 0 -0.75,-0.75 z"
     id="path3930" />
  <path
     style="color:#000000;fill:#ffffff;stroke-linecap:round;stroke-linejoin:round"
     d="m 14.443359,11.560547 a 0.75,0.75 0 0 0 -0.75,0.75 0.75,0.75 0 0 0 0.75,0.75 h 0.0098 a 0.75,0.75 0 0 0 0.75,-0.75 0.75,0.75 0 0 0 -0.75,-0.75 z"
     id="path3932" />
  <path
     style="color:#000000;fill:#ffffff;stroke-linecap:round;stroke-linejoin:round"
     d="m 10.005859,11.560547 a 0.75,0.75 0 0 0 -0.7499996,0.75 0.75,0.75 0 0 0 0.7499996,0.75 h 0.0098 a 0.75,0.75 0 0 0 0.75,-0.75 0.75,0.75 0 0 0 -0.75,-0.75 z"
     id="path3934" />
  <path
     style="color:#000000;fill:#ffffff;stroke-linecap:round;stroke-linejoin:round"
     d="m 5.5585937,11.560547 a 0.75,0.75 0 0 0 -0.75,0.75 0.75,0.75 0 0 0 0.75,0.75 h 0.00977 a 0.75,0.75 0 0 0 0.75,-0.75 0.75,0.75 0 0 0 -0.75,-0.75 z"
     id="path3936" />
  <path
     style="color:#000000;fill:#ffffff;stroke-linecap:round;stroke-linejoin:round"
     d="m 14.443359,15.445313 a 0.75,0.75 0 0 0 -0.75,0.749999 0.75,0.75 0 0 0 0.75,0.75 h 0.0098 a 0.75,0.75 0 0 0 0.75,-0.75 0.75,0.75 0 0 0 -0.75,-0.749999 z"
     id="path3938" />
  <path
     style="color:#000000;fill:#ffffff;stroke-linecap:round;stroke-linejoin:round"
     d="m 10.005859,15.445313 a 0.75,0.75 0 0 0 -0.7499996,0.749999 0.75,0.75 0 0 0 0.7499996,0.75 h 0.0098 a 0.75,0.75 0 0 0 0.75,-0.75 0.75,0.75 0 0 0 -0.75,-0.749999 z"
     id="path3940" />
  <path
     style="color:#000000;fill:#ffffff;stroke-linecap:round;stroke-linejoin:round"
     d="m 5.5585937,15.445313 a 0.75,0.75 0 0 0 -0.75,0.749999 0.75,0.75 0 0 0 0.75,0.75 h 0.00977 a 0.75,0.75 0 0 0 0.75,-0.75 0.75,0.75 0 0 0 -0.75,-0.749999 z"
     id="path3942" />
  <path
     style="color:#000000;fill:#ffffff;stroke-linecap:round;stroke-linejoin:round"
     d="m 14.042969,0.25 a 0.75,0.75 0 0 0 -0.75,0.75 v 3.2910156 a 0.75,0.75 0 0 0 0.75,0.75 0.75,0.75 0 0 0 0.75,-0.75 V 1 a 0.75,0.75 0 0 0 -0.75,-0.75 z"
     id="path3944" />
  <path
     style="color:#000000;fill:#ffffff;stroke-linecap:round;stroke-linejoin:round"
     d="m 5.9648437,0.25 a 0.75,0.75 0 0 0 -0.75,0.75 v 3.2910156 a 0.75,0.75 0 0 0 0.75,0.75 0.75,0.75 0 0 0 0.75,-0.75 V 1 a 0.75,0.75 0 0 0 -0.75,-0.75 z"
     id="path3946" />
  <path
     style="color:#000000;clip-rule:evenodd;fill:#ffffff;fill-rule:evenodd;stroke-linecap:round;stroke-linejoin:round"
     d="m 5.7714844,1.8300781 c -1.6076108,0 -3.0111316,0.4547002 -4.0039063,1.3984375 C 0.77480345,4.172253 0.25,5.5666175 0.25,7.2226562 v 9.0488278 c 0,1.677332 0.5206808,3.088313 1.5117187,4.048828 C 2.7527567,21.280828 4.1606591,21.75 5.7714844,21.75 h 8.4570316 c 1.612628,0 3.016398,-0.459642 4.007812,-1.40625 C 19.227742,19.397142 19.75,18.002929 19.75,16.347656 V 7.2246094 7.2226562 C 19.754623,5.5678886 19.234714,4.1747631 18.244141,3.2304688 17.253151,2.285778 15.850062,1.8300781 14.238281,1.8300781 Z m 0,1.5 h 8.4667966 c 1.334117,0 2.31502,0.361278 2.970703,0.9863281 0.655684,0.6250502 1.045151,1.552892 1.041016,2.9042969 a 0.750075,0.750075 0 0 0 0,0.00195 v 9.1249998 c 0,1.351825 -0.391244,2.284244 -1.048828,2.91211 C 16.543587,19.887631 15.561884,20.25 14.228516,20.25 H 5.7714844 C 4.4456225,20.25 3.4669085,19.88212 2.8066406,19.242187 2.1463727,18.602255 1.75,17.64855 1.75,16.271484 V 7.2226562 C 1.75,5.871608 2.1422501,4.9424098 2.8007813,4.3164062 3.4593124,3.6904027 4.442408,3.3300781 5.7714844,3.3300781 Z"
     id="path3948" />
</svg>
