<svg width="24" height="24" viewBox="0 0 24 24" fill="none" xmlns="http://www.w3.org/2000/svg">
<g clip-path="url(#clip0_101_12)">
<path d="M9.67872 14.7454C9.35584 14.4536 8.76934 14.4574 8.34634 14.7476C8.24472 14.8174 8.09284 14.8163 8.01447 14.7446C7.93684 14.6745 7.95972 14.5583 8.06134 14.4889C8.16372 14.4184 8.30884 14.4184 8.39022 14.4923C8.58147 14.3588 8.77122 14.2245 8.96059 14.0895C8.69359 13.8461 8.26272 13.8034 7.88584 13.9448C7.83222 13.8956 7.77859 13.8473 7.72459 13.7974C7.55359 13.9163 7.38184 14.034 7.20972 14.151C7.26634 14.2024 7.32372 14.2545 7.38147 14.3059C7.17859 14.574 7.17972 14.9003 7.42909 15.126C7.56822 15.2524 7.75497 15.327 7.96272 15.3488C8.24022 15.3788 8.54809 15.3128 8.78809 15.1474C8.89009 15.078 9.03559 15.078 9.11359 15.1489C9.19197 15.2201 9.17547 15.3368 9.07347 15.4069C8.97184 15.477 8.81959 15.4755 8.74122 15.4054C8.54884 15.5348 8.35534 15.6634 8.16034 15.7905C8.40784 16.0148 8.82859 16.0718 9.19722 15.9544C9.26397 16.0148 9.32959 16.0759 9.39672 16.1359C9.56959 16.0193 9.74097 15.9023 9.91159 15.7834C9.84678 15.7262 9.78277 15.668 9.71959 15.609C9.94534 15.3308 9.93559 14.9801 9.67872 14.7454ZM16.1711 8.16227C16.4152 8.16227 16.6706 8.04639 16.8517 7.82777C16.929 7.73514 17.0538 7.71752 17.1318 7.78839C17.2106 7.85927 17.2143 7.99427 17.1375 8.08689C17.0602 8.17989 16.929 8.19714 16.851 8.12664C16.7047 8.29952 16.5573 8.47089 16.4092 8.64114C16.6563 8.86577 17.028 8.87664 17.3268 8.69589L17.5267 8.87702C17.658 8.72215 17.7873 8.56689 17.9156 8.41014L17.724 8.23652C17.8743 7.89077 17.8113 7.49214 17.5552 7.25852C17.2316 6.96602 16.7291 7.04477 16.4103 7.42727C16.3331 7.52027 16.2018 7.53752 16.1238 7.46702C16.0455 7.39577 16.0485 7.26077 16.1246 7.16814C16.203 7.07589 16.3271 7.05714 16.4081 7.13027C16.5525 6.95552 16.6953 6.77852 16.836 6.60114C16.5682 6.35814 16.1928 6.36264 15.8906 6.57152L15.7282 6.42452C15.6003 6.58127 15.4702 6.73689 15.3393 6.89139C15.3967 6.94314 15.4541 6.99564 15.5111 7.04664C15.378 7.37852 15.4275 7.75052 15.6776 7.97627C15.8171 8.10339 15.9885 8.16527 16.1711 8.16227Z" fill="#FF852A"/>
<path d="M22.386 11.8849C22.684 11.5232 22.9721 11.1536 23.25 10.7764C23.1334 9.84188 23.0055 8.89762 22.8652 7.947L22.8169 7.9035L22.9935 7.64475L22.551 7.24275C20.3636 5.25712 18.177 3.27188 15.9896 1.287L15.3983 0.75L14.949 1.40887C14.1836 2.52625 13.3565 3.60016 12.4718 4.62563C12.5201 4.42013 12.573 4.20825 12.6307 3.98813C12.8674 3.09 12.5903 2.48025 12.3158 2.12737C11.8046 1.46925 10.8371 1.10625 9.59025 1.10625C6.05475 1.10625 0.93975 3.8865 0.93975 8.91337C0.93975 9.60337 1.3995 10.0856 2.05725 10.0856C2.54288 10.0856 3.10387 9.81413 3.73387 9.276C3.79312 9.47962 3.88238 9.672 4.01288 9.8355C4.26262 10.149 4.63088 10.3219 5.05013 10.3219C5.14425 10.3219 5.241 10.3136 5.34037 10.2964C5.385 10.5128 5.46675 10.7269 5.59725 10.9136C4.37782 11.7925 3.11036 12.6028 1.80075 13.3406L0.968625 13.8075L1.63275 14.4105C1.497 14.4945 1.36087 14.5789 1.2255 14.6606C1.0755 15.3536 0.916875 16.0376 0.75 16.7092C3.15188 18.8902 5.55337 21.0694 7.95487 23.25C10.0458 22.1125 12.0686 20.8542 14.013 19.4813C14.0138 19.4824 14.0138 19.4839 14.0145 19.4846C14.1953 19.7985 14.49 20.013 14.8931 20.1274C14.1953 20.9333 13.9444 21.6236 14.1469 22.1873C14.3085 22.6361 14.7244 22.9042 15.2599 22.9042C20.3171 22.9042 23.1139 17.82 23.1139 14.3055C23.1139 13.4674 22.947 12.7451 22.6312 12.2175C22.5594 12.0996 22.4774 11.9883 22.386 11.8849ZM12.1973 5.97787C13.4051 4.656 14.5215 3.26288 15.522 1.79513C17.7094 3.78038 19.8964 5.76525 22.0834 7.75125C21.1756 9.07665 20.1838 10.3425 19.1141 11.541C18.7676 11.6141 18.4403 11.6775 18.1403 11.7262C19.077 10.7168 19.9646 9.66862 20.7795 8.57025L20.5609 8.37188C20.319 8.1525 20.2841 7.75987 20.4757 7.49213C20.5335 7.41038 20.5916 7.32975 20.6494 7.24875C19.191 5.92575 17.733 4.60162 16.2758 3.27863L16.1021 3.522C15.9101 3.789 15.5528 3.82612 15.312 3.60675L15.093 3.40912C14.163 4.66237 13.1434 5.85413 12.0566 6.99113C12.0893 6.68587 12.1346 6.3495 12.1973 5.97787ZM14.8391 9.654C14.0737 8.95875 13.002 8.80163 12.0431 9.11737C12.0143 8.92875 11.9726 8.53312 11.9918 7.91062C13.1357 6.76024 14.2054 5.53827 15.1943 4.25212C15.5666 4.44525 16.0095 4.40213 16.3365 4.13513L19.8908 7.36125C19.7235 7.773 19.764 8.256 20.0055 8.6205C19.143 9.74662 18.207 10.821 17.2162 11.8511C16.8007 11.8974 16.383 11.9218 15.9649 11.9242C15.8453 11.9243 15.7395 11.9212 15.6409 11.9171C15.7755 11.1101 15.4991 10.2529 14.8391 9.654ZM5.13075 9.62512C5.1045 9.62737 5.07525 9.633 5.0505 9.633C4.21238 9.633 4.2945 8.43188 4.38338 7.85025C4.84575 7.38975 5.28075 6.909 5.73488 6.4545C6.21413 5.96625 6.71775 5.50425 7.28437 5.136C7.85062 4.77075 8.49375 4.51163 9.19088 4.44712C8.4945 4.37513 7.76662 4.55663 7.146 4.90462C6.5175 5.24625 5.98088 5.7195 5.48738 6.21375C4.99725 6.71325 4.54762 7.24125 4.09462 7.76062C3.63825 8.27325 3.18675 8.78775 2.63587 9.2115C2.4045 9.33825 2.21025 9.39637 2.05687 9.39637C1.7775 9.39637 1.632 9.20813 1.632 8.913C1.632 4.21163 6.51713 1.79475 9.5895 1.79475C11.202 1.79475 12.3158 2.4615 11.9587 3.81375C10.9245 7.743 11.4 9.43762 11.4 9.43762C10.995 10.1932 10.2143 10.4389 10.2143 10.4389C9.78879 10.3241 9.34991 10.2668 8.90925 10.2682C8.0265 10.2683 7.40213 10.4872 7.40213 10.4872C7.07212 10.674 6.81712 10.7494 6.62025 10.7494C5.90775 10.7494 5.96175 9.75638 6.0015 9.4125C6.09562 9.36825 6.18712 9.32025 6.27525 9.2685C6.6285 9.06525 6.9405 8.81025 7.245 8.5605C7.54575 8.30625 7.83825 8.05238 8.148 7.82925C8.45888 7.6095 8.79338 7.4265 9.19012 7.353C9.0898 7.33514 8.9878 7.32848 8.886 7.33313C8.58 7.347 8.27287 7.455 8.0055 7.60013C7.64138 7.7925 7.32675 8.04675 7.0215 8.29688C6.72038 8.553 6.42863 8.8095 6.12488 9.04537C5.82225 9.27787 5.50313 9.48413 5.13075 9.62512ZM12.7219 17.3156C11.433 18.2524 10.0911 19.1141 8.703 19.8964C6.516 17.9104 4.32938 15.9266 2.142 13.9403C3.53321 13.1564 4.87795 12.2929 6.1695 11.3539C6.31012 11.406 6.4605 11.439 6.62063 11.439C6.78488 11.439 6.957 11.4105 7.1385 11.355C6.10156 12.1387 5.0273 12.8718 3.9195 13.5518C3.99225 13.6181 4.06575 13.6845 4.13812 13.7512C4.37888 13.9699 4.33875 14.2935 4.04475 14.4671C3.95475 14.5196 3.8655 14.5725 3.77625 14.6243L8.15025 18.5951C8.24025 18.5426 8.32913 18.4909 8.41875 18.4369C8.71313 18.2636 9.14625 18.2959 9.38737 18.5145L9.606 18.714C10.7474 18.0123 11.8531 17.2542 12.9191 16.4426C12.7766 16.7588 12.7114 17.0505 12.7219 17.3156ZM13.1693 15.5175C12.0448 16.4094 10.8739 17.2412 9.6615 18.0094C9.2595 17.7908 8.727 17.7544 8.27512 17.9066L4.7205 14.6805C5.01375 14.3839 5.06138 13.9811 4.8495 13.6429C6.14601 12.8226 7.39536 11.9301 8.59162 10.9695C8.69287 10.9624 8.79788 10.9575 8.90963 10.9575C9.28844 10.9562 9.66574 11.0053 10.0316 11.1034L10.0958 11.121C9.91125 11.8973 10.1321 12.7155 10.7992 13.3211C11.412 13.8769 12.2696 14.1319 13.1014 14.0674C13.2218 14.6175 13.215 15.1267 13.1693 15.5175ZM15.2595 22.2154C14.7986 22.2154 14.6014 21.8644 14.9644 21.2111C15.39 20.667 15.9056 20.2192 16.419 19.7681C16.9414 19.3181 17.4724 18.8704 17.9753 18.3836C18.4717 17.8931 18.9484 17.3603 19.2919 16.7351C19.6418 16.1182 19.8248 15.3945 19.7524 14.7023C19.6871 15.3953 19.4272 16.035 19.0594 16.5983C18.6889 17.1611 18.2239 17.6617 17.733 18.1384C17.2759 18.5891 16.7925 19.0215 16.3298 19.4809C16.1513 19.5079 15.9158 19.5341 15.6735 19.5341C15.0986 19.5341 14.4919 19.3845 14.541 18.7451C14.6828 18.3716 14.8916 18.0521 15.1264 17.7488C15.3638 17.4469 15.6218 17.157 15.8794 16.8577C16.1314 16.554 16.3871 16.2413 16.5802 15.8798C16.7745 15.5254 16.9031 15.1009 16.8289 14.7023C16.7554 15.0968 16.5713 15.4294 16.3504 15.7384C16.1261 16.0463 15.8708 16.3372 15.6143 16.6365C15.3634 16.9395 15.1065 17.2496 14.9025 17.6006C14.8499 17.6888 14.8018 17.7796 14.7581 17.8725C14.6433 17.8854 14.5279 17.8922 14.4124 17.8927C13.8266 17.8927 12.9761 17.7056 13.6766 16.4797C13.6766 16.4797 14.1379 15.1796 13.7254 13.6845C13.7254 13.6845 13.9721 12.9082 14.7319 12.5055C14.7319 12.5055 15.123 12.6139 15.9649 12.6139C16.8806 12.6139 18.33 12.4856 20.3899 11.9497C20.5475 11.9072 20.71 11.8849 20.8732 11.8834C24.1687 11.8834 22.1576 22.2154 15.2595 22.2154Z" fill="#FF852A"/>
</g>
<defs>
<clipPath id="clip0_101_12">
<rect width="24" height="24" fill="white"/>
</clipPath>
</defs>
</svg>
