<svg width="17" height="13" viewBox="0 0 17 13" fill="none" xmlns="http://www.w3.org/2000/svg">
<path d="M5.79587 13C5.64905 13 5.51141 12.9756 5.38294 12.9267C5.25447 12.8786 5.13518 12.7964 5.02507 12.6801L0.290153 7.67785C0.0882769 7.46458 -0.00825666 7.1881 0.00055249 6.84841C0.0100957 6.5095 0.115805 6.23341 0.317681 6.02013C0.519558 5.80686 0.776491 5.70022 1.08848 5.70022C1.40047 5.70022 1.65741 5.80686 1.85928 6.02013L5.79587 10.179L15.1281 0.319911C15.3299 0.106637 15.5916 0 15.9132 0C16.234 0 16.4953 0.106637 16.6972 0.319911C16.8991 0.533184 17 0.809277 17 1.14819C17 1.48787 16.8991 1.76436 16.6972 1.97763L6.56667 12.6801C6.45655 12.7964 6.33726 12.8786 6.2088 12.9267C6.08033 12.9756 5.94269 13 5.79587 13Z" fill="white"/>
</svg>
