<svg width="328" height="36" viewBox="0 0 328 36" fill="none" xmlns="http://www.w3.org/2000/svg">
<g clip-path="url(#clip0_371_204)">
<path d="M26.5844 0C20.415 13.3443 1.78464 11.1268 0.141825 22.9084C-0.39002 26.7348 1.35128 30.0131 4.21536 32.1843L10.6763 22.8052L5.23966 22.015L24.6264 7.85209L15.7741 20.4987L22.4557 22.0684L0 36C0 36 6.59094 33.6259 6.60276 33.6294C12.5594 35.7224 21.2777 34.2772 25.4931 27.8454C34.9521 13.4048 26.5844 0 26.5844 0Z" fill="url(#paint0_linear_371_204)"/>
<path d="M22.4557 22.0684L0 35.9999C0 35.9999 6.59094 33.6258 6.60276 33.6294C11.937 35.5016 19.4852 34.537 24.0315 29.6962C24.4846 29.1836 24.8746 28.7138 25.1701 28.3116C25.2804 28.1585 25.3867 28.0055 25.4931 27.8453C27.2186 25.101 26.2298 23.0187 22.4557 22.0684Z" fill="url(#paint1_linear_371_204)"/>
<path d="M26.5844 0C21.0019 12.07 5.22782 11.4151 1.05579 19.9007C0.58304 20.9508 1.63491 21.417 2.9074 21.6769L5.2357 22.015L24.6224 7.85209C28.0184 3.00771 26.5844 0 26.5844 0Z" fill="url(#paint2_linear_371_204)"/>
</g>
<path d="M253.918 24.3819C254.402 24.3819 254.798 24.3453 255.106 24.2719C255.429 24.1839 255.685 24.0739 255.876 23.9419C256.067 23.7953 256.199 23.6266 256.272 23.436C256.345 23.2453 256.382 23.0326 256.382 22.7979C256.382 22.2993 256.147 21.8886 255.678 21.5659C255.209 21.2286 254.402 20.8693 253.258 20.4879C252.759 20.3119 252.261 20.1139 251.762 19.8939C251.263 19.6593 250.816 19.3733 250.42 19.0359C250.024 18.6839 249.701 18.2659 249.452 17.7819C249.203 17.2833 249.078 16.6819 249.078 15.9779C249.078 15.2739 249.21 14.6433 249.474 14.0859C249.738 13.5139 250.112 13.0299 250.596 12.6339C251.08 12.2379 251.667 11.9373 252.356 11.7319C253.045 11.5119 253.823 11.4019 254.688 11.4019C255.715 11.4019 256.602 11.5119 257.35 11.7319C258.098 11.9519 258.714 12.1939 259.198 12.4579L258.208 15.1639C257.783 14.9439 257.306 14.7533 256.778 14.5919C256.265 14.4159 255.641 14.3279 254.908 14.3279C254.087 14.3279 253.493 14.4453 253.126 14.6799C252.774 14.8999 252.598 15.2446 252.598 15.7139C252.598 15.9926 252.664 16.2273 252.796 16.4179C252.928 16.6086 253.111 16.7846 253.346 16.9459C253.595 17.0926 253.874 17.2319 254.182 17.3639C254.505 17.4813 254.857 17.6059 255.238 17.7379C256.03 18.0313 256.719 18.3246 257.306 18.6179C257.893 18.8966 258.377 19.2266 258.758 19.6079C259.154 19.9893 259.447 20.4366 259.638 20.95C259.829 21.4633 259.924 22.0866 259.924 22.82C259.924 24.2426 259.425 25.3499 258.428 26.1419C257.431 26.9193 255.927 27.3079 253.918 27.3079C253.243 27.3079 252.635 27.2639 252.092 27.1759C251.549 27.1026 251.065 27.0073 250.64 26.8899C250.229 26.7726 249.87 26.6479 249.562 26.5159C249.269 26.3839 249.019 26.2593 248.814 26.1419L249.782 23.4139C250.237 23.6633 250.794 23.8906 251.454 24.096C252.129 24.2866 252.95 24.3819 253.918 24.3819Z" fill="#FF852A"/>
<path d="M267.024 24.712C267.347 24.712 267.655 24.7046 267.948 24.6899C268.242 24.6753 268.476 24.6533 268.652 24.624V22.1379C268.52 22.1086 268.322 22.0793 268.058 22.0499C267.794 22.0206 267.552 22.0059 267.332 22.0059C267.024 22.0059 266.731 22.028 266.452 22.0719C266.188 22.1013 265.954 22.1673 265.748 22.2699C265.543 22.3726 265.382 22.512 265.264 22.688C265.147 22.8639 265.088 23.084 265.088 23.3479C265.088 23.8613 265.257 24.2206 265.594 24.426C265.946 24.6166 266.423 24.712 267.024 24.712ZM266.76 15.1199C267.728 15.1199 268.535 15.2299 269.18 15.4499C269.826 15.6699 270.339 15.9853 270.72 16.3959C271.116 16.8066 271.395 17.3053 271.556 17.8919C271.718 18.4786 271.798 19.1313 271.798 19.8499V26.67C271.329 26.7726 270.676 26.8899 269.84 27.0219C269.004 27.1686 267.992 27.2419 266.804 27.2419C266.056 27.2419 265.374 27.1759 264.758 27.0439C264.157 26.9119 263.636 26.6993 263.196 26.406C262.756 26.098 262.419 25.702 262.184 25.2179C261.95 24.7339 261.832 24.1399 261.832 23.436C261.832 22.7613 261.964 22.1893 262.228 21.7199C262.507 21.2506 262.874 20.8766 263.328 20.5979C263.783 20.3193 264.304 20.1213 264.89 20.0039C265.477 19.8719 266.086 19.8059 266.716 19.8059C267.142 19.8059 267.516 19.8279 267.838 19.872C268.176 19.9013 268.447 19.9453 268.652 20.0039V19.6959C268.652 19.1386 268.484 18.6913 268.146 18.3539C267.809 18.0166 267.222 17.8479 266.386 17.8479C265.829 17.8479 265.279 17.8919 264.736 17.9799C264.194 18.0533 263.724 18.1633 263.328 18.3099L262.91 15.6699C263.101 15.6113 263.336 15.5526 263.614 15.4939C263.908 15.4206 264.223 15.3619 264.56 15.3179C264.898 15.2593 265.25 15.2153 265.616 15.1859C265.998 15.1419 266.379 15.1199 266.76 15.1199Z" fill="#FF852A"/>
<path d="M277.629 27C276.881 25.5333 276.119 23.8173 275.341 21.8519C274.579 19.8866 273.853 17.7453 273.163 15.4279H276.639C276.786 15.9999 276.955 16.6233 277.145 17.2979C277.351 17.9579 277.556 18.6326 277.761 19.3219C277.981 19.9966 278.194 20.6566 278.399 21.3019C278.619 21.9473 278.832 22.5339 279.037 23.0619C279.228 22.5339 279.433 21.9473 279.653 21.3019C279.873 20.6566 280.086 19.9966 280.291 19.3219C280.511 18.6326 280.717 17.9579 280.907 17.2979C281.113 16.6233 281.289 15.9999 281.435 15.4279H284.823C284.134 17.7453 283.401 19.8866 282.623 21.8519C281.861 23.8173 281.105 25.5333 280.357 27H277.629Z" fill="#FF852A"/>
<path d="M289.857 27H286.579V15.4279H289.857V27ZM290.165 12.0839C290.165 12.6853 289.967 13.1619 289.571 13.5139C289.19 13.8513 288.735 14.0199 288.207 14.0199C287.679 14.0199 287.217 13.8513 286.821 13.5139C286.44 13.1619 286.249 12.6853 286.249 12.0839C286.249 11.4826 286.44 11.0133 286.821 10.6759C287.217 10.3239 287.679 10.1479 288.207 10.1479C288.735 10.1479 289.19 10.3239 289.571 10.6759C289.967 11.0133 290.165 11.4826 290.165 12.0839Z" fill="#FF852A"/>
<path d="M292.938 15.8239C293.496 15.6626 294.214 15.5159 295.094 15.384C295.974 15.2373 296.898 15.1639 297.866 15.1639C298.849 15.1639 299.663 15.2959 300.308 15.5599C300.968 15.8093 301.489 16.1686 301.87 16.6379C302.252 17.1073 302.523 17.6646 302.684 18.3099C302.846 18.9553 302.926 19.6739 302.926 20.4659V27H299.648V20.8619C299.648 19.806 299.509 19.0579 299.23 18.6179C298.952 18.1779 298.431 17.9579 297.668 17.9579C297.434 17.9579 297.184 17.9726 296.92 18.0019C296.656 18.0166 296.422 18.0386 296.216 18.0679V27H292.938V15.8239Z" fill="#FF852A"/>
<path d="M308.687 20.8399C308.687 22.6733 309.428 23.5899 310.909 23.5899C311.247 23.5899 311.562 23.5459 311.855 23.4579C312.149 23.3699 312.398 23.2673 312.603 23.15V17.9139C312.442 17.8846 312.251 17.8626 312.031 17.8479C311.811 17.8186 311.555 17.8039 311.261 17.8039C310.396 17.8039 309.751 18.09 309.325 18.662C308.9 19.234 308.687 19.9599 308.687 20.8399ZM315.881 25.5479C315.881 27.4399 315.397 28.8406 314.429 29.75C313.476 30.674 311.995 31.136 309.985 31.136C309.281 31.136 308.577 31.07 307.873 30.938C307.169 30.8206 306.517 30.6593 305.915 30.454L306.487 27.704C307.001 27.9093 307.536 28.0706 308.093 28.188C308.665 28.3053 309.311 28.364 310.029 28.364C310.968 28.364 311.628 28.1586 312.009 27.7479C312.405 27.3373 312.603 26.8093 312.603 26.1639V25.7459C312.251 25.9073 311.885 26.0319 311.503 26.12C311.137 26.1933 310.733 26.2299 310.293 26.2299C308.695 26.2299 307.47 25.7606 306.619 24.8219C305.769 23.8686 305.343 22.5413 305.343 20.8399C305.343 19.9893 305.475 19.2193 305.739 18.5299C306.003 17.8259 306.385 17.2246 306.883 16.7259C307.397 16.2273 308.02 15.8459 308.753 15.5819C309.487 15.3033 310.315 15.1639 311.239 15.1639C311.635 15.1639 312.039 15.1859 312.449 15.2299C312.875 15.2593 313.293 15.3033 313.703 15.3619C314.114 15.4206 314.503 15.4939 314.869 15.5819C315.251 15.6553 315.588 15.7359 315.881 15.8239V25.5479Z" fill="#FF852A"/>
<path d="M322.278 24.6459C322.879 24.6459 323.305 24.5873 323.554 24.4699C323.803 24.3526 323.928 24.1253 323.928 23.7879C323.928 23.5239 323.767 23.2966 323.444 23.106C323.121 22.9006 322.63 22.6733 321.97 22.424C321.457 22.2333 320.987 22.0353 320.562 21.8299C320.151 21.6246 319.799 21.3826 319.506 21.1039C319.213 20.8106 318.985 20.4659 318.824 20.0699C318.663 19.6739 318.582 19.1973 318.582 18.6399C318.582 17.5546 318.985 16.6966 319.792 16.0659C320.599 15.4353 321.706 15.1199 323.114 15.1199C323.818 15.1199 324.493 15.1859 325.138 15.3179C325.783 15.4353 326.297 15.5673 326.678 15.7139L326.106 18.2659C325.725 18.1339 325.307 18.0166 324.852 17.9139C324.412 17.8113 323.913 17.7599 323.356 17.7599C322.329 17.7599 321.816 18.0459 321.816 18.6179C321.816 18.7499 321.838 18.8673 321.882 18.9699C321.926 19.0726 322.014 19.1753 322.146 19.2779C322.278 19.3659 322.454 19.4686 322.674 19.5859C322.909 19.6886 323.202 19.806 323.554 19.938C324.273 20.202 324.867 20.4659 325.336 20.7299C325.805 20.9793 326.172 21.2579 326.436 21.5659C326.715 21.8593 326.905 22.1893 327.008 22.556C327.125 22.9226 327.184 23.3479 327.184 23.832C327.184 24.976 326.751 25.8413 325.886 26.4279C325.035 27.0146 323.825 27.3079 322.256 27.3079C321.229 27.3079 320.371 27.2199 319.682 27.0439C319.007 26.8679 318.538 26.7213 318.274 26.604L318.824 23.9419C319.381 24.162 319.953 24.3379 320.54 24.4699C321.127 24.5873 321.706 24.6459 322.278 24.6459Z" fill="#FF852A"/>
<path d="M154.808 11.754C155.072 12.238 155.372 12.8393 155.71 13.558C156.062 14.262 156.421 15.032 156.788 15.868C157.169 16.6893 157.543 17.5326 157.91 18.398C158.276 19.2633 158.621 20.0773 158.944 20.84C159.266 20.0773 159.611 19.2633 159.978 18.398C160.344 17.5326 160.711 16.6893 161.078 15.868C161.459 15.032 161.818 14.262 162.156 13.558C162.508 12.8393 162.816 12.238 163.08 11.754H166.204C166.35 12.766 166.482 13.9026 166.6 15.164C166.732 16.4106 166.842 17.716 166.93 19.08C167.032 20.4293 167.12 21.786 167.194 23.15C167.282 24.514 167.355 25.7973 167.414 27H164.07C164.026 25.5186 163.967 23.9053 163.894 22.16C163.82 20.4146 163.71 18.6546 163.564 16.88C163.3 17.496 163.006 18.178 162.684 18.926C162.361 19.674 162.038 20.422 161.716 21.17C161.408 21.918 161.107 22.6366 160.814 23.326C160.52 24.0006 160.271 24.58 160.066 25.064H157.668C157.462 24.58 157.213 24.0006 156.92 23.326C156.626 22.6366 156.318 21.918 155.996 21.17C155.688 20.422 155.372 19.674 155.05 18.926C154.727 18.178 154.434 17.496 154.17 16.88C154.023 18.6546 153.913 20.4146 153.84 22.16C153.766 23.9053 153.708 25.5186 153.664 27H150.32C150.378 25.7973 150.444 24.514 150.518 23.15C150.606 21.786 150.694 20.4293 150.782 19.08C150.884 17.716 150.994 16.4106 151.112 15.164C151.244 13.9026 151.383 12.766 151.53 11.754H154.808Z" fill="#5CB925"/>
<path d="M180.558 15.428C179.898 17.6573 179.209 19.7473 178.49 21.698C177.771 23.6486 176.987 25.5406 176.136 27.374C175.828 28.034 175.52 28.5913 175.212 29.046C174.904 29.5153 174.567 29.8966 174.2 30.19C173.833 30.498 173.415 30.718 172.946 30.85C172.491 30.9966 171.956 31.07 171.34 31.07C170.827 31.07 170.35 31.0186 169.91 30.916C169.485 30.828 169.133 30.7253 168.854 30.608L169.426 27.99C169.763 28.1073 170.064 28.188 170.328 28.232C170.592 28.276 170.871 28.298 171.164 28.298C171.751 28.298 172.198 28.1366 172.506 27.814C172.829 27.506 173.1 27.0733 173.32 26.516C172.572 25.0493 171.824 23.4066 171.076 21.588C170.328 19.7546 169.624 17.7013 168.964 15.428H172.44C172.587 16 172.755 16.6233 172.946 17.298C173.151 17.958 173.364 18.6326 173.584 19.322C173.804 19.9966 174.024 20.6566 174.244 21.302C174.479 21.9473 174.699 22.534 174.904 23.062C175.095 22.534 175.293 21.9473 175.498 21.302C175.703 20.6566 175.901 19.9966 176.092 19.322C176.297 18.6326 176.488 17.958 176.664 17.298C176.855 16.6233 177.023 16 177.17 15.428H180.558Z" fill="#5CB925"/>
<path d="M191.978 24.382C192.462 24.382 192.858 24.3453 193.166 24.272C193.489 24.184 193.746 24.074 193.936 23.942C194.127 23.7953 194.259 23.6266 194.332 23.436C194.406 23.2453 194.442 23.0326 194.442 22.798C194.442 22.2993 194.208 21.8886 193.738 21.566C193.269 21.2286 192.462 20.8693 191.318 20.488C190.82 20.312 190.321 20.114 189.822 19.894C189.324 19.6593 188.876 19.3733 188.48 19.036C188.084 18.684 187.762 18.266 187.512 17.782C187.263 17.2833 187.138 16.682 187.138 15.978C187.138 15.274 187.27 14.6433 187.534 14.086C187.798 13.514 188.172 13.03 188.656 12.634C189.14 12.238 189.727 11.9373 190.416 11.732C191.106 11.512 191.883 11.402 192.748 11.402C193.775 11.402 194.662 11.512 195.41 11.732C196.158 11.952 196.774 12.194 197.258 12.458L196.268 15.164C195.843 14.944 195.366 14.7533 194.838 14.592C194.325 14.416 193.702 14.328 192.968 14.328C192.147 14.328 191.553 14.4453 191.186 14.68C190.834 14.9 190.658 15.2446 190.658 15.714C190.658 15.9926 190.724 16.2273 190.856 16.418C190.988 16.6086 191.172 16.7846 191.406 16.946C191.656 17.0926 191.934 17.232 192.242 17.364C192.565 17.4813 192.917 17.606 193.298 17.738C194.09 18.0313 194.78 18.3246 195.366 18.618C195.953 18.8966 196.437 19.2266 196.818 19.608C197.214 19.9893 197.508 20.4366 197.698 20.95C197.889 21.4633 197.984 22.0866 197.984 22.82C197.984 24.2426 197.486 25.35 196.488 26.142C195.491 26.9193 193.988 27.308 191.978 27.308C191.304 27.308 190.695 27.264 190.152 27.176C189.61 27.1026 189.126 27.0073 188.7 26.89C188.29 26.7726 187.93 26.648 187.622 26.516C187.329 26.384 187.08 26.2593 186.874 26.142L187.842 23.414C188.297 23.6633 188.854 23.8906 189.514 24.096C190.189 24.2866 191.01 24.382 191.978 24.382Z" fill="#5CB925"/>
<path d="M211.229 21.192C211.229 22.1013 211.097 22.9373 210.833 23.7C210.569 24.448 210.188 25.0933 209.689 25.636C209.19 26.164 208.589 26.5746 207.885 26.868C207.196 27.1613 206.418 27.308 205.553 27.308C204.702 27.308 203.925 27.1613 203.221 26.868C202.532 26.5746 201.938 26.164 201.439 25.636C200.94 25.0933 200.552 24.448 200.273 23.7C199.994 22.9373 199.855 22.1013 199.855 21.192C199.855 20.2826 199.994 19.454 200.273 18.706C200.566 17.958 200.962 17.32 201.461 16.792C201.974 16.264 202.576 15.8533 203.265 15.56C203.969 15.2666 204.732 15.12 205.553 15.12C206.389 15.12 207.152 15.2666 207.841 15.56C208.545 15.8533 209.146 16.264 209.645 16.792C210.144 17.32 210.532 17.958 210.811 18.706C211.09 19.454 211.229 20.2826 211.229 21.192ZM207.885 21.192C207.885 20.18 207.68 19.388 207.269 18.816C206.873 18.2293 206.301 17.936 205.553 17.936C204.805 17.936 204.226 18.2293 203.815 18.816C203.404 19.388 203.199 20.18 203.199 21.192C203.199 22.204 203.404 23.0106 203.815 23.612C204.226 24.1986 204.805 24.492 205.553 24.492C206.301 24.492 206.873 24.1986 207.269 23.612C207.68 23.0106 207.885 22.204 207.885 21.192Z" fill="#5CB925"/>
<path d="M218.388 27.22C217.435 27.2053 216.658 27.1026 216.056 26.912C215.47 26.7213 215 26.4573 214.648 26.12C214.311 25.768 214.076 25.35 213.944 24.866C213.827 24.3673 213.768 23.81 213.768 23.194V10.456L217.046 9.92798V22.534C217.046 22.8273 217.068 23.0913 217.112 23.326C217.156 23.5606 217.237 23.7586 217.354 23.92C217.486 24.0813 217.67 24.2133 217.904 24.316C218.139 24.4186 218.454 24.4846 218.85 24.514L218.388 27.22Z" fill="#5CB925"/>
<path d="M225.474 24.712C225.796 24.712 226.104 24.7046 226.398 24.69C226.691 24.6753 226.926 24.6533 227.102 24.624V22.138C226.97 22.1086 226.772 22.0793 226.508 22.05C226.244 22.0206 226.002 22.006 225.782 22.006C225.474 22.006 225.18 22.028 224.902 22.072C224.638 22.1013 224.403 22.1673 224.198 22.27C223.992 22.3726 223.831 22.512 223.714 22.688C223.596 22.864 223.538 23.084 223.538 23.348C223.538 23.8613 223.706 24.2206 224.044 24.426C224.396 24.6166 224.872 24.712 225.474 24.712ZM225.21 15.12C226.178 15.12 226.984 15.23 227.63 15.45C228.275 15.67 228.788 15.9853 229.17 16.396C229.566 16.8066 229.844 17.3053 230.006 17.892C230.167 18.4786 230.248 19.1313 230.248 19.85V26.67C229.778 26.7726 229.126 26.89 228.29 27.022C227.454 27.1686 226.442 27.242 225.254 27.242C224.506 27.242 223.824 27.176 223.208 27.044C222.606 26.912 222.086 26.6993 221.646 26.406C221.206 26.098 220.868 25.702 220.634 25.218C220.399 24.734 220.282 24.14 220.282 23.436C220.282 22.7613 220.414 22.1893 220.678 21.72C220.956 21.2506 221.323 20.8766 221.778 20.598C222.232 20.3193 222.753 20.1213 223.34 20.004C223.926 19.872 224.535 19.806 225.166 19.806C225.591 19.806 225.965 19.828 226.288 19.872C226.625 19.9013 226.896 19.9453 227.102 20.004V19.696C227.102 19.1386 226.933 18.6913 226.596 18.354C226.258 18.0166 225.672 17.848 224.836 17.848C224.278 17.848 223.728 17.892 223.186 17.98C222.643 18.0533 222.174 18.1633 221.778 18.31L221.36 15.67C221.55 15.6113 221.785 15.5526 222.064 15.494C222.357 15.4206 222.672 15.362 223.01 15.318C223.347 15.2593 223.699 15.2153 224.066 15.186C224.447 15.142 224.828 15.12 225.21 15.12Z" fill="#5CB925"/>
<path d="M240.186 18.332C239.892 18.2586 239.548 18.1853 239.152 18.112C238.756 18.024 238.33 17.98 237.876 17.98C237.67 17.98 237.421 18.002 237.128 18.046C236.849 18.0753 236.636 18.112 236.49 18.156V27H233.212V16.044C233.798 15.8386 234.488 15.648 235.28 15.472C236.086 15.2813 236.981 15.186 237.964 15.186C238.14 15.186 238.352 15.2006 238.602 15.23C238.851 15.2446 239.1 15.274 239.35 15.318C239.599 15.3473 239.848 15.3913 240.098 15.45C240.347 15.494 240.56 15.5526 240.736 15.626L240.186 18.332Z" fill="#5CB925"/>
<path d="M50.7121 27.308C48.2334 27.308 46.3414 26.6186 45.0361 25.24C43.7454 23.8613 43.1001 21.9033 43.1001 19.366C43.1001 18.1046 43.2981 16.9826 43.6941 16C44.0901 15.0026 44.6328 14.1666 45.3221 13.492C46.0114 12.8026 46.8328 12.282 47.7861 11.93C48.7394 11.578 49.7734 11.402 50.8881 11.402C51.5334 11.402 52.1201 11.4533 52.6481 11.556C53.1761 11.644 53.6381 11.754 54.0341 11.886C54.4301 12.0033 54.7601 12.128 55.0241 12.26C55.2881 12.392 55.4788 12.4946 55.5961 12.568L54.6061 15.34C54.1368 15.0906 53.5868 14.878 52.9561 14.702C52.3401 14.526 51.6361 14.438 50.8441 14.438C50.3161 14.438 49.7954 14.526 49.2821 14.702C48.7834 14.878 48.3361 15.164 47.9401 15.56C47.5588 15.9413 47.2508 16.44 47.0161 17.056C46.7814 17.672 46.6641 18.42 46.6641 19.3C46.6641 20.004 46.7374 20.664 46.8841 21.28C47.0454 21.8813 47.2948 22.402 47.6321 22.842C47.9841 23.282 48.4388 23.634 48.9961 23.898C49.5534 24.1473 50.2281 24.272 51.0201 24.272C51.5188 24.272 51.9661 24.2426 52.3621 24.184C52.7581 24.1253 53.1101 24.0593 53.4181 23.986C53.7261 23.898 53.9974 23.8026 54.2321 23.7C54.4668 23.5973 54.6794 23.502 54.8701 23.414L55.8161 26.164C55.3321 26.4573 54.6501 26.7213 53.7701 26.956C52.8901 27.1906 51.8708 27.308 50.7121 27.308Z" fill="#FF852A"/>
<path d="M62.4426 24.712C62.7652 24.712 63.0732 24.7046 63.3666 24.69C63.6599 24.6753 63.8946 24.6533 64.0706 24.624V22.138C63.9386 22.1086 63.7406 22.0793 63.4766 22.05C63.2126 22.0206 62.9706 22.006 62.7506 22.006C62.4426 22.006 62.1492 22.028 61.8706 22.072C61.6066 22.1013 61.3719 22.1673 61.1666 22.27C60.9612 22.3726 60.7999 22.512 60.6826 22.688C60.5652 22.864 60.5066 23.084 60.5066 23.348C60.5066 23.8613 60.6752 24.2206 61.0126 24.426C61.3646 24.6166 61.8412 24.712 62.4426 24.712ZM62.1786 15.12C63.1466 15.12 63.9532 15.23 64.5986 15.45C65.2439 15.67 65.7572 15.9853 66.1386 16.396C66.5346 16.8066 66.8132 17.3053 66.9746 17.892C67.1359 18.4786 67.2166 19.1313 67.2166 19.85V26.67C66.7472 26.7726 66.0946 26.89 65.2586 27.022C64.4226 27.1686 63.4106 27.242 62.2226 27.242C61.4746 27.242 60.7926 27.176 60.1766 27.044C59.5752 26.912 59.0546 26.6993 58.6146 26.406C58.1746 26.098 57.8372 25.702 57.6026 25.218C57.3679 24.734 57.2506 24.14 57.2506 23.436C57.2506 22.7613 57.3826 22.1893 57.6466 21.72C57.9252 21.2506 58.2919 20.8766 58.7466 20.598C59.2012 20.3193 59.7219 20.1213 60.3086 20.004C60.8952 19.872 61.5039 19.806 62.1346 19.806C62.5599 19.806 62.9339 19.828 63.2566 19.872C63.5939 19.9013 63.8652 19.9453 64.0706 20.004V19.696C64.0706 19.1386 63.9019 18.6913 63.5646 18.354C63.2272 18.0166 62.6406 17.848 61.8046 17.848C61.2472 17.848 60.6972 17.892 60.1546 17.98C59.6119 18.0533 59.1426 18.1633 58.7466 18.31L58.3286 15.67C58.5192 15.6113 58.7539 15.5526 59.0326 15.494C59.3259 15.4206 59.6412 15.362 59.9786 15.318C60.3159 15.2593 60.6679 15.2153 61.0346 15.186C61.4159 15.142 61.7972 15.12 62.1786 15.12Z" fill="#FF852A"/>
<path d="M74.8007 27.22C73.8474 27.2053 73.0701 27.1026 72.4687 26.912C71.8821 26.7213 71.4127 26.4573 71.0607 26.12C70.7234 25.768 70.4887 25.35 70.3567 24.866C70.2394 24.3673 70.1807 23.81 70.1807 23.194V10.456L73.4587 9.92798V22.534C73.4587 22.8273 73.4807 23.0913 73.5247 23.326C73.5687 23.5606 73.6494 23.7586 73.7667 23.92C73.8987 24.0813 74.0821 24.2133 74.3167 24.316C74.5514 24.4186 74.8667 24.4846 75.2627 24.514L74.8007 27.22Z" fill="#FF852A"/>
<path d="M76.5917 21.214C76.5917 20.378 76.7237 19.5933 76.9877 18.86C77.2663 18.112 77.6623 17.4666 78.1757 16.924C78.689 16.3666 79.3123 15.9266 80.0457 15.604C80.779 15.2813 81.615 15.12 82.5537 15.12C83.1697 15.12 83.7343 15.1786 84.2477 15.296C84.761 15.3986 85.2597 15.5526 85.7437 15.758L85.0617 18.376C84.7537 18.2586 84.4163 18.156 84.0497 18.068C83.683 17.98 83.2723 17.936 82.8177 17.936C81.8497 17.936 81.1237 18.2366 80.6397 18.838C80.1703 19.4393 79.9357 20.2313 79.9357 21.214C79.9357 22.2553 80.1557 23.062 80.5957 23.634C81.0503 24.206 81.835 24.492 82.9497 24.492C83.3457 24.492 83.771 24.4553 84.2257 24.382C84.6803 24.3086 85.0983 24.1913 85.4797 24.03L85.9417 26.714C85.5603 26.8753 85.0837 27.0146 84.5117 27.132C83.9397 27.2493 83.309 27.308 82.6197 27.308C81.5637 27.308 80.6543 27.154 79.8917 26.846C79.129 26.5233 78.4983 26.0906 77.9997 25.548C77.5157 25.0053 77.1563 24.3673 76.9217 23.634C76.7017 22.886 76.5917 22.0793 76.5917 21.214Z" fill="#FF852A"/>
<path d="M98.0197 26.604C97.4623 26.7653 96.7437 26.912 95.8637 27.044C94.9837 27.1906 94.0597 27.264 93.0917 27.264C92.109 27.264 91.2877 27.132 90.6277 26.868C89.9823 26.604 89.469 26.2373 89.0877 25.768C88.7063 25.284 88.435 24.712 88.2737 24.052C88.1123 23.392 88.0317 22.666 88.0317 21.874V15.428H91.3097V21.478C91.3097 22.534 91.449 23.2966 91.7277 23.766C92.0063 24.2353 92.527 24.47 93.2897 24.47C93.5243 24.47 93.7737 24.4626 94.0377 24.448C94.3017 24.4186 94.5363 24.3893 94.7417 24.36V15.428H98.0197V26.604Z" fill="#FF852A"/>
<path d="M105.717 27.22C104.763 27.2053 103.986 27.1026 103.385 26.912C102.798 26.7213 102.329 26.4573 101.977 26.12C101.639 25.768 101.405 25.35 101.273 24.866C101.155 24.3673 101.097 23.81 101.097 23.194V10.456L104.375 9.92798V22.534C104.375 22.8273 104.397 23.0913 104.441 23.326C104.485 23.5606 104.565 23.7586 104.683 23.92C104.815 24.0813 104.998 24.2133 105.233 24.316C105.467 24.4186 105.783 24.4846 106.179 24.514L105.717 27.22Z" fill="#FF852A"/>
<path d="M112.802 24.712C113.125 24.712 113.433 24.7046 113.726 24.69C114.019 24.6753 114.254 24.6533 114.43 24.624V22.138C114.298 22.1086 114.1 22.0793 113.836 22.05C113.572 22.0206 113.33 22.006 113.11 22.006C112.802 22.006 112.509 22.028 112.23 22.072C111.966 22.1013 111.731 22.1673 111.526 22.27C111.321 22.3726 111.159 22.512 111.042 22.688C110.925 22.864 110.866 23.084 110.866 23.348C110.866 23.8613 111.035 24.2206 111.372 24.426C111.724 24.6166 112.201 24.712 112.802 24.712ZM112.538 15.12C113.506 15.12 114.313 15.23 114.958 15.45C115.603 15.67 116.117 15.9853 116.498 16.396C116.894 16.8066 117.173 17.3053 117.334 17.892C117.495 18.4786 117.576 19.1313 117.576 19.85V26.67C117.107 26.7726 116.454 26.89 115.618 27.022C114.782 27.1686 113.77 27.242 112.582 27.242C111.834 27.242 111.152 27.176 110.536 27.044C109.935 26.912 109.414 26.6993 108.974 26.406C108.534 26.098 108.197 25.702 107.962 25.218C107.727 24.734 107.61 24.14 107.61 23.436C107.61 22.7613 107.742 22.1893 108.006 21.72C108.285 21.2506 108.651 20.8766 109.106 20.598C109.561 20.3193 110.081 20.1213 110.668 20.004C111.255 19.872 111.863 19.806 112.494 19.806C112.919 19.806 113.293 19.828 113.616 19.872C113.953 19.9013 114.225 19.9453 114.43 20.004V19.696C114.43 19.1386 114.261 18.6913 113.924 18.354C113.587 18.0166 113 17.848 112.164 17.848C111.607 17.848 111.057 17.892 110.514 17.98C109.971 18.0533 109.502 18.1633 109.106 18.31L108.688 15.67C108.879 15.6113 109.113 15.5526 109.392 15.494C109.685 15.4206 110.001 15.362 110.338 15.318C110.675 15.2593 111.027 15.2153 111.394 15.186C111.775 15.142 112.157 15.12 112.538 15.12Z" fill="#FF852A"/>
<path d="M120.43 12.546L123.708 12.018V15.428H127.646V18.156H123.708V22.226C123.708 22.9153 123.825 23.4653 124.06 23.876C124.309 24.2866 124.801 24.492 125.534 24.492C125.886 24.492 126.245 24.4626 126.612 24.404C126.993 24.3306 127.338 24.2353 127.646 24.118L128.108 26.67C127.712 26.8313 127.272 26.9706 126.788 27.088C126.304 27.2053 125.71 27.264 125.006 27.264C124.111 27.264 123.371 27.1466 122.784 26.912C122.197 26.6626 121.728 26.3253 121.376 25.9C121.024 25.46 120.775 24.932 120.628 24.316C120.496 23.7 120.43 23.018 120.43 22.27V12.546Z" fill="#FF852A"/>
<path d="M129.336 21.302C129.336 20.2753 129.49 19.3806 129.798 18.618C130.12 17.8406 130.538 17.1953 131.052 16.682C131.565 16.1686 132.152 15.78 132.812 15.516C133.486 15.252 134.176 15.12 134.88 15.12C136.522 15.12 137.82 15.626 138.774 16.638C139.727 17.6353 140.204 19.1093 140.204 21.06C140.204 21.2506 140.196 21.4633 140.182 21.698C140.167 21.918 140.152 22.116 140.138 22.292H132.702C132.775 22.9666 133.09 23.502 133.648 23.898C134.205 24.294 134.953 24.492 135.892 24.492C136.493 24.492 137.08 24.4406 137.652 24.338C138.238 24.2206 138.715 24.0813 139.082 23.92L139.522 26.582C139.346 26.67 139.111 26.758 138.818 26.846C138.524 26.934 138.194 27.0073 137.828 27.066C137.476 27.1393 137.094 27.198 136.684 27.242C136.273 27.286 135.862 27.308 135.452 27.308C134.41 27.308 133.501 27.154 132.724 26.846C131.961 26.538 131.323 26.12 130.81 25.592C130.311 25.0493 129.937 24.4113 129.688 23.678C129.453 22.9446 129.336 22.1526 129.336 21.302ZM137.036 20.048C137.021 19.7693 136.97 19.498 136.882 19.234C136.808 18.97 136.684 18.7353 136.508 18.53C136.346 18.3246 136.134 18.156 135.87 18.024C135.62 17.892 135.305 17.826 134.924 17.826C134.557 17.826 134.242 17.892 133.978 18.024C133.714 18.1413 133.494 18.3026 133.318 18.508C133.142 18.7133 133.002 18.9553 132.9 19.234C132.812 19.498 132.746 19.7693 132.702 20.048H137.036Z" fill="#FF852A"/>
<defs>
<linearGradient id="paint0_linear_371_204" x1="15.204" y1="20.035" x2="35.1226" y2="-33.6345" gradientUnits="userSpaceOnUse">
<stop offset="0.00201102" stop-color="#81CF4E"/>
<stop offset="1" stop-color="#D4E271"/>
</linearGradient>
<linearGradient id="paint1_linear_371_204" x1="24.6761" y1="24.7429" x2="12.7171" y2="34.3868" gradientUnits="userSpaceOnUse">
<stop stop-color="#1E6326"/>
<stop offset="0.998" stop-color="#81CF4E"/>
</linearGradient>
<linearGradient id="paint2_linear_371_204" x1="21.2518" y1="7.49188" x2="7.02397" y2="18.9652" gradientUnits="userSpaceOnUse">
<stop offset="0.00201102" stop-color="#81CF4E"/>
<stop offset="1" stop-color="#1E6326"/>
</linearGradient>
<clipPath id="clip0_371_204">
<rect width="30" height="36" fill="white"/>
</clipPath>
</defs>
</svg>
