<?xml version="1.0" encoding="UTF-8" standalone="no"?>
<svg
   width="22"
   height="22"
   viewBox="0 0 22 22"
   fill="none"
   version="1.1"
   id="svg6013"
   sodipodi:docname="calling.svg"
   inkscape:version="1.2.1 (9c6d41e410, 2022-07-14)"
   xmlns:inkscape="http://www.inkscape.org/namespaces/inkscape"
   xmlns:sodipodi="http://sodipodi.sourceforge.net/DTD/sodipodi-0.dtd"
   xmlns="http://www.w3.org/2000/svg"
   xmlns:svg="http://www.w3.org/2000/svg">
  <defs
     id="defs6017" />
  <sodipodi:namedview
     id="namedview6015"
     pagecolor="#ffffff"
     bordercolor="#000000"
     borderopacity="0.25"
     inkscape:showpageshadow="2"
     inkscape:pageopacity="0.0"
     inkscape:pagecheckerboard="0"
     inkscape:deskcolor="#d1d1d1"
     showgrid="false"
     inkscape:zoom="23.863636"
     inkscape:cx="11"
     inkscape:cy="11.020952"
     inkscape:window-width="1366"
     inkscape:window-height="705"
     inkscape:window-x="-8"
     inkscape:window-y="-8"
     inkscape:window-maximized="1"
     inkscape:current-layer="svg6013" />
  <path
     style="color:#000000;clip-rule:evenodd;fill:#00aba1;fill-rule:evenodd;stroke-linecap:round;stroke-linejoin:round;-inkscape-stroke:none"
     d="M 5.328125,0.75195312 C 4.308585,0.70477954 3.4995966,1.3108586 2.8085938,1.8964844 2.1317593,2.4701024 1.6467025,3.0166502 1.3769531,3.453125 0.52031284,4.6420716 0.61874206,6.2046191 1.3378906,7.7929687 2.2902769,10.11592 4.415187,12.819887 6.8417969,15.230469 c 2.4244899,2.408476 5.1145941,4.489107 7.3535161,5.425781 1.608345,0.745495 3.168472,0.803438 4.349609,-0.03125 0.204315,-0.123197 0.376515,-0.262828 0.625,-0.484375 0.266411,-0.237529 0.574894,-0.538537 0.875,-0.884766 0.600211,-0.692456 1.24025,-1.524044 1.203125,-2.576172 a 0.750075,0.750075 0 0 0 -0.002,-0.03516 c -0.0527,-0.636147 -0.402051,-1.097559 -0.726563,-1.429687 -0.379689,-0.388822 -1.081052,-0.959685 -1.800781,-1.501953 -0.359864,-0.271135 -0.71616,-0.525733 -1.027344,-0.728516 -0.311183,-0.202783 -0.460088,-0.356457 -0.894531,-0.447266 a 0.750075,0.750075 0 0 0 -0.002,0 c -0.892071,-0.185008 -1.586363,0.258849 -2.03125,0.513672 -0.440978,0.252585 -0.582642,0.340657 -0.876953,0.236328 C 11.411964,12.271267 9.7279453,10.586953 8.7109375,8.1132813 8.6078536,7.8198986 8.6967918,7.6766267 8.9492188,7.2363281 9.2044058,6.7912152 9.6487258,6.09731 9.4628906,5.2050781 9.3725945,4.7686989 9.2184265,4.6197588 9.015625,4.3085937 8.8128235,3.9974287 8.5582613,3.6429481 8.2871094,3.2832031 7.7448056,2.5637132 7.1739388,1.8614276 6.7871094,1.4824219 a 0.750075,0.750075 0 0 0 -0.00195,-0.00195 C 6.4515242,1.1545581 5.989561,0.80804248 5.3574219,0.75390625 A 0.750075,0.750075 0 0 0 5.328125,0.75195312 Z M 5.2441406,2.2578125 c 0.1129651,0.014724 0.2979848,0.1071668 0.4921875,0.296875 a 0.750075,0.750075 0 0 0 0.00195,0.00195 c 0.2263801,0.2223177 0.8371524,0.949015 1.3496094,1.6289063 0.2567439,0.3406293 0.4985241,0.6773813 0.671875,0.9433593 0.173351,0.2659781 0.2753712,0.5789839 0.234375,0.3808594 0.057575,0.276427 -0.073406,0.5021052 -0.3476562,0.9804688 -0.27425,0.4783636 -0.6653257,1.2646607 -0.3476563,2.1425781 a 0.750075,0.750075 0 0 0 0.011719,0.029297 C 8.4646522,11.485966 10.514504,13.534634 13.339844,14.6875 a 0.750075,0.750075 0 0 0 0.02734,0.01172 c 0.8773,0.318422 1.664166,-0.07168 2.142578,-0.345703 0.477565,-0.273541 0.702453,-0.404283 0.978515,-0.347657 -0.196193,-0.04101 0.116641,0.06092 0.382813,0.234375 0.266172,0.173451 0.604602,0.415173 0.945312,0.671875 0.68142,0.513406 1.409896,1.127285 1.628906,1.351563 0.1883,0.192718 0.279954,0.376592 0.294922,0.486328 8.98e-4,0.264358 -0.335401,0.954987 -0.828125,1.523437 -0.249219,0.287522 -0.517814,0.54974 -0.740234,0.748047 -0.22242,0.198308 -0.443441,0.351646 -0.416016,0.335938 a 0.750075,0.750075 0 0 0 -0.06445,0.04102 c -0.675891,0.484129 -1.530278,0.519825 -2.871093,-0.103515 a 0.750075,0.750075 0 0 0 -0.0293,-0.01172 C 12.903847,18.498075 10.239162,16.48934 7.9003906,14.166016 5.5616188,11.842691 3.5190122,9.1725079 2.71875,7.2128906 A 0.750075,0.750075 0 0 0 2.7070313,7.1855469 C 2.0969617,5.8448298 2.1093695,4.980195 2.5957031,4.3164062 a 0.750075,0.750075 0 0 0 0.037109,-0.056641 C 2.6835261,4.1756341 3.208586,3.5246938 3.7792969,3.0410156 4.3446505,2.5618778 5.0145106,2.2536637 5.2441406,2.2578125 Z"
     id="path7244" />
  <path
     style="color:#000000;fill:#00aba1;stroke-linecap:round;stroke-linejoin:round"
     d="m 13.646484,1.0039062 a 0.75,0.75 0 0 0 -0.828125,0.6640625 0.75,0.75 0 0 0 0.664063,0.8281251 c 3.357827,0.3727896 5.999621,3.0121559 6.376953,6.3691406 a 0.75,0.75 0 0 0 0.830078,0.6621094 0.75,0.75 0 0 0 0.662109,-0.8300782 C 20.896895,4.6522577 17.692649,1.4531158 13.646484,1.0039062 Z"
     id="path7247" />
  <path
     style="color:#000000;fill:#00aba1;stroke-linecap:round;stroke-linejoin:round"
     d="m 13.707031,4.5566406 a 0.75,0.75 0 0 0 -0.878906,0.59375 0.75,0.75 0 0 0 0.59375,0.8789063 c 1.472579,0.2870281 2.617269,1.4317179 2.904297,2.9042969 a 0.75,0.75 0 0 0 0.878906,0.59375 0.75,0.75 0 0 0 0.59375,-0.8789063 C 17.395857,6.58102 15.774449,4.9596118 13.707031,4.5566406 Z"
     id="path7250" />
</svg>
