<?xml version="1.0" encoding="UTF-8" standalone="no"?>
<svg
   width="18"
   height="18"
   viewBox="0 0 18 18"
   fill="none"
   version="1.1"
   id="svg16"
   sodipodi:docname="close.svg"
   inkscape:version="1.2.1 (9c6d41e410, 2022-07-14)"
   xmlns:inkscape="http://www.inkscape.org/namespaces/inkscape"
   xmlns:sodipodi="http://sodipodi.sourceforge.net/DTD/sodipodi-0.dtd"
   xmlns="http://www.w3.org/2000/svg"
   xmlns:svg="http://www.w3.org/2000/svg">
  <defs
     id="defs20" />
  <sodipodi:namedview
     id="namedview18"
     pagecolor="#ffffff"
     bordercolor="#000000"
     borderopacity="0.25"
     inkscape:showpageshadow="2"
     inkscape:pageopacity="0.0"
     inkscape:pagecheckerboard="0"
     inkscape:deskcolor="#d1d1d1"
     showgrid="false"
     inkscape:zoom="20.623948"
     inkscape:cx="8.0246518"
     inkscape:cy="9.5035151"
     inkscape:window-width="1366"
     inkscape:window-height="705"
     inkscape:window-x="-8"
     inkscape:window-y="-8"
     inkscape:window-maximized="1"
     inkscape:current-layer="svg16" />
  <path
     style="color:#000000;fill:#ff852a;stroke-linecap:round;stroke-linejoin:round;-inkscape-stroke:none"
     d="M 16.992187,0.0078125 A 1,1 0 0 0 16.285156,0.30078125 L 0.29882813,16.283203 a 1,1 0 0 0 0,1.414063 1,1 0 0 0 1.41406247,0 L 17.699219,1.7148437 a 1,1 0 0 0 0,-1.41406245 1,1 0 0 0 -0.707032,-0.29296875 z"
     id="path12" />
  <path
     style="color:#000000;fill:#ff852a;stroke-linecap:round;stroke-linejoin:round"
     d="m 1,0 a 1,1 0 0 0 -0.70703125,0.29296875 1,1 0 0 0 0,1.41406245 L 16.292969,17.707031 a 1,1 0 0 0 1.414062,0 1,1 0 0 0 0,-1.414062 L 1.7070312,0.29296875 A 1,1 0 0 0 1,0 Z"
     id="path14" />
</svg>
