<?xml version="1.0" encoding="UTF-8" standalone="no"?>
<svg
   width="19"
   height="20"
   viewBox="0 0 19 20"
   fill="none"
   version="1.1"
   id="svg10739"
   sodipodi:docname="document.svg"
   inkscape:version="1.2.1 (9c6d41e410, 2022-07-14)"
   xmlns:inkscape="http://www.inkscape.org/namespaces/inkscape"
   xmlns:sodipodi="http://sodipodi.sourceforge.net/DTD/sodipodi-0.dtd"
   xmlns="http://www.w3.org/2000/svg"
   xmlns:svg="http://www.w3.org/2000/svg">
  <defs
     id="defs10743" />
  <sodipodi:namedview
     id="namedview10741"
     pagecolor="#ffffff"
     bordercolor="#000000"
     borderopacity="0.25"
     inkscape:showpageshadow="2"
     inkscape:pageopacity="0.0"
     inkscape:pagecheckerboard="0"
     inkscape:deskcolor="#d1d1d1"
     showgrid="false"
     inkscape:zoom="18.561553"
     inkscape:cx="13.926636"
     inkscape:cy="11.690832"
     inkscape:window-width="1366"
     inkscape:window-height="705"
     inkscape:window-x="-8"
     inkscape:window-y="-8"
     inkscape:window-maximized="1"
     inkscape:current-layer="svg10739" />
  <path
     style="color:#000000;fill:#ffffff;stroke-linecap:round;stroke-linejoin:round;-inkscape-stroke:none"
     d="m 5.4960937,13.472656 a 0.75,0.75 0 0 0 -0.75,0.75 0.75,0.75 0 0 0 0.75,0.75 h 7.2207033 a 0.75,0.75 0 0 0 0.75,-0.75 0.75,0.75 0 0 0 -0.75,-0.75 z"
     id="path10731" />
  <path
     style="color:#000000;fill:#ffffff;stroke-linecap:round;stroke-linejoin:round"
     d="m 5.4960937,9.2871094 a 0.75,0.75 0 0 0 -0.75,0.7499996 0.75,0.75 0 0 0 0.75,0.75 h 7.2207033 a 0.75,0.75 0 0 0 0.75,-0.75 0.75,0.75 0 0 0 -0.75,-0.7499996 z"
     id="path10733" />
  <path
     style="color:#000000;fill:#ffffff;stroke-linecap:round;stroke-linejoin:round"
     d="m 5.4960937,5.109375 a 0.75,0.75 0 0 0 -0.75,0.75 0.75,0.75 0 0 0 0.75,0.75 h 2.7558594 a 0.75,0.75 0 0 0 0.75,-0.75 0.75,0.75 0 0 0 -0.75,-0.75 z"
     id="path10735" />
  <path
     style="color:#000000;clip-rule:evenodd;fill:#ffffff;fill-rule:evenodd;stroke-linecap:round;stroke-linejoin:round"
     d="m 12.908203,0 c 0,0 -1.919096,9.5312611e-4 -3.8398436,0.00195313 C 7.1476115,0.00295312 5.1414167,0.00390625 5.21875,0.00390625 a 0.750075,0.750075 0 0 0 -0.00391,0 C 3.671315,0.01341349 2.3321426,0.54197009 1.4082031,1.5019531 0.4842636,2.4619362 0,3.8181815 0,5.3574219 v 9.1953121 c 0,1.546632 0.48844206,2.907449 1.4199219,3.869141 0.9314798,0.961692 2.2802357,1.488281 3.8359375,1.488281 0,0 1.9192208,-0.0012 3.8398437,-0.002 1.9206229,-7.5e-4 3.9008019,-0.002 3.8496099,-0.002 a 0.750075,0.750075 0 0 0 0.0039,0 c 1.543618,-0.0095 2.882498,-0.537866 3.80664,-1.498047 0.924143,-0.960181 1.408203,-2.316138 1.408203,-3.855469 V 5.3574219 c 0,-1.5467219 -0.48819,-2.9074968 -1.419921,-3.8691407 C 15.812409,0.52663736 14.463905,0 12.908203,0 Z m 0,1.5 c 1.228295,0 2.132046,0.3853935 2.757813,1.03125 0.625767,0.6458565 0.998046,1.5888965 0.998046,2.8261719 v 9.1953121 c 0,1.230667 -0.369378,2.169386 -0.990234,2.814453 -0.620856,0.645068 -1.517996,1.031571 -2.734375,1.039063 -0.06956,2e-6 -1.92605,0.0012 -3.8437499,0.002 -1.9206232,7.5e-4 -3.8398437,0.002 -3.8398437,0.002 -1.2282955,0 -2.1322939,-0.385443 -2.7578125,-1.03125 C 1.8725282,16.733099 1.5,15.7901 1.5,14.552734 V 5.3574219 C 1.5,4.126665 1.8696754,3.1877361 2.4902344,2.5429688 3.1100541,1.8989694 4.0044915,1.5122929 5.21875,1.5039062 c 0.089333,0 1.9288611,-9.531e-4 3.8496094,-0.00195 C 10.989108,1.5009531 12.908203,1.5 12.908203,1.5 Z"
     id="path10737" />
</svg>
