<?xml version="1.0" encoding="UTF-8" standalone="no"?>
<svg
   width="21"
   height="20"
   viewBox="0 0 21 20"
   fill="none"
   version="1.1"
   id="svg12718"
   sodipodi:docname="download.svg"
   inkscape:version="1.2.1 (9c6d41e410, 2022-07-14)"
   xmlns:inkscape="http://www.inkscape.org/namespaces/inkscape"
   xmlns:sodipodi="http://sodipodi.sourceforge.net/DTD/sodipodi-0.dtd"
   xmlns="http://www.w3.org/2000/svg"
   xmlns:svg="http://www.w3.org/2000/svg">
  <defs
     id="defs12722" />
  <sodipodi:namedview
     id="namedview12720"
     pagecolor="#ffffff"
     bordercolor="#000000"
     borderopacity="0.25"
     inkscape:showpageshadow="2"
     inkscape:pageopacity="0.0"
     inkscape:pagecheckerboard="0"
     inkscape:deskcolor="#d1d1d1"
     showgrid="false"
     inkscape:zoom="26.25"
     inkscape:cx="10.533333"
     inkscape:cy="10.019048"
     inkscape:window-width="1366"
     inkscape:window-height="705"
     inkscape:window-x="-8"
     inkscape:window-y="-8"
     inkscape:window-maximized="1"
     inkscape:current-layer="svg12718" />
  <path
     style="color:#000000;fill:#aeaeae;stroke-linecap:round;stroke-linejoin:round;-inkscape-stroke:none"
     d="M 10.121094,0.64453125 A 0.75,0.75 0 0 0 9.3710938,1.3945312 V 13.435547 a 0.75,0.75 0 0 0 0.7500002,0.75 0.75,0.75 0 0 0 0.75,-0.75 V 1.3945312 a 0.75,0.75 0 0 0 -0.75,-0.74999995 z"
     id="path12712" />
  <path
     style="color:#000000;fill:#aeaeae;stroke-linecap:round;stroke-linejoin:round"
     d="m 6.6757812,9.9765625 a 0.75,0.75 0 0 0 -0.00195,1.0605465 l 2.9160157,2.927735 a 0.750075,0.750075 0 0 0 1.0625002,0 l 2.916015,-2.927735 a 0.75,0.75 0 0 0 -0.002,-1.0605465 0.75,0.75 0 0 0 -1.060547,0.00195 L 10.121094,12.373047 7.7363281,9.9785156 a 0.75,0.75 0 0 0 -1.0605469,-0.00195 z"
     id="path12714" />
  <path
     style="color:#000000;fill:#aeaeae;stroke-linecap:round;stroke-linejoin:round"
     d="m 4.546875,5.3789062 c -2.4343697,0 -4.42578125,1.9892131 -4.42578125,4.4238282 V 14.6875 c 0,2.440402 1.99514395,4.433594 4.43554685,4.433594 H 15.695313 c 2.435169,0 4.425781,-1.988658 4.425781,-4.423828 V 9.8125 c 0,-2.4409583 -1.993437,-4.4335938 -4.433594,-4.4335938 h -0.933594 a 0.75,0.75 0 0 0 -0.75,0.75 0.75,0.75 0 0 0 0.75,0.75 H 15.6875 c 1.629839,0 2.933594,1.3025561 2.933594,2.9335938 v 4.884766 c 0,1.624826 -1.300956,2.923828 -2.925781,2.923828 H 4.5566406 c -1.6295929,0 -2.9355469,-1.304 -2.9355469,-2.933594 V 9.8027344 c 10e-8,-1.6233809 1.302155,-2.9238282 2.9257813,-2.9238282 h 0.9414062 a 0.75,0.75 0 0 0 0.75,-0.75 0.75,0.75 0 0 0 -0.75,-0.75 z"
     id="path12716" />
</svg>
