<?xml version="1.0" encoding="UTF-8" standalone="no"?>
<svg
   width="22"
   height="24"
   viewBox="0 0 22 24"
   fill="none"
   version="1.1"
   id="svg3388"
   sodipodi:docname="money-bag.svg"
   inkscape:version="1.2.1 (9c6d41e410, 2022-07-14)"
   xmlns:inkscape="http://www.inkscape.org/namespaces/inkscape"
   xmlns:sodipodi="http://sodipodi.sourceforge.net/DTD/sodipodi-0.dtd"
   xmlns="http://www.w3.org/2000/svg"
   xmlns:svg="http://www.w3.org/2000/svg">
  <defs
     id="defs3392" />
  <sodipodi:namedview
     id="namedview3390"
     pagecolor="#ffffff"
     bordercolor="#000000"
     borderopacity="0.25"
     inkscape:showpageshadow="2"
     inkscape:pageopacity="0.0"
     inkscape:pagecheckerboard="0"
     inkscape:deskcolor="#d1d1d1"
     showgrid="false"
     inkscape:zoom="16"
     inkscape:cx="-1.96875"
     inkscape:cy="18.875"
     inkscape:window-width="1366"
     inkscape:window-height="705"
     inkscape:window-x="-8"
     inkscape:window-y="-8"
     inkscape:window-maximized="1"
     inkscape:current-layer="svg3388" />
  <path
     fill-rule="evenodd"
     clip-rule="evenodd"
     d="m 10.375,10.75 c -0.66304,0 -1.29893,0.2634 -1.76777,0.7322 C 8.13839,11.9511 7.875,12.587 7.875,13.25 c 0,0.663 0.26339,1.2989 0.73223,1.7678 C 9.07607,15.4866 9.71196,15.75 11,15.75 c 0.9565,0 1.2745,0.1317 1.5089,0.3661 0.2344,0.2344 0.3661,0.5524 0.3661,0.8839 0,0.3315 -0.1317,0.6495 -0.3661,0.8839 C 12.2745,18.1183 11.9565,18.25 11,18.25 9.83125,18.25 9.36813,17.9031 9.19563,17.4169 9.17003,17.3373 9.12875,17.2637 9.07421,17.2004 9.01967,17.1371 8.95298,17.0853 8.8781,17.0482 8.80322,17.0111 8.72165,16.9894 8.63824,16.9844 c -0.08342,-0.005 -0.167,0.0067 -0.24579,0.0346 -0.0788,0.0278 -0.15121,0.0712 -0.21295,0.1275 -0.06175,0.0563 -0.11158,0.1244 -0.14653,0.2003 -0.03496,0.0759 -0.05434,0.1581 -0.057,0.2416 -0.00266,0.0835 0.01147,0.1668 0.04153,0.2447 0.1724,0.4875 0.49168,0.9096 0.91388,1.2081 C 9.35357,19.3397 9.85793,19.5 10.375,19.5 l 1.251429,9.2e-5 C 12.288,19.5 12.9239,19.2366 13.3928,18.7678 13.8616,18.2989 14.125,17.663 14.125,17 c 0,-0.663 -0.2634,-1.2989 -0.7322,-1.7678 C 12.9239,14.7634 12.288,14.5 11,14.5 10.0435,14.5 9.72554,14.3683 9.49112,14.1339 9.2567,13.8995 9.125,13.5815 9.125,13.25 9.125,12.9185 9.2567,12.6005 9.49112,12.3661 9.72554,12.1317 10.0435,12 11,12 c 0.8835,-10e-5 1.1357,0.08 1.3468,0.2292 0.2111,0.1492 0.3707,0.3602 0.457,0.6039 0.0551,0.1563 0.1702,0.2843 0.3197,0.3558 0.0741,0.0354 0.1544,0.0559 0.2364,0.0603 0.0819,0.0043 0.164,-0.0075 0.2414,-0.0348 0.0773,-0.0274 0.1486,-0.0697 0.2097,-0.1245 0.061,-0.0549 0.1106,-0.1213 0.146,-0.1953 0.0354,-0.0741 0.0559,-0.1544 0.0603,-0.2363 0.0044,-0.082 -0.0075,-0.164 -0.0348,-0.2414 C 13.8101,11.9294 13.4908,11.5073 13.0686,11.2088 12.6464,10.9103 12.1421,10.75 11.626953,10.75 Z"
     fill="#FF852A"
     id="path3384"
     style="fill:#ff852a;stroke:none;stroke-width:0.2;stroke-dasharray:none;stroke-opacity:1;fill-opacity:1"
     sodipodi:nodetypes="ccsccsssccssscccscccccsccssscsccccccccscc" />
  <path
     fill-rule="evenodd"
     clip-rule="evenodd"
     d="M4.22061 2.38813C5.75436 1.6375 8.27061 0.75 11.0244 0.75C13.7206 0.75 16.1706 1.60062 17.6962 2.34125L17.7825 2.38312C18.2425 2.61062 18.6137 2.82563 18.875 3L16.5662 6.375C21.8887 11.8162 26 23.2481 11.0244 23.2481C-3.95126 23.2481 0.0493628 12.0238 5.41811 6.375L3.12436 3C3.30124 2.88438 3.52561 2.75 3.79311 2.6075C3.92561 2.53625 4.06811 2.46312 4.22061 2.38875V2.38813ZM15.0825 6.33L16.9306 3.62812C15.2119 3.75187 13.1669 4.15563 11.1981 4.72563C9.79186 5.13188 8.22936 5.07 6.78249 4.80312C6.41788 4.73553 6.05578 4.65506 5.69686 4.56187L6.89686 6.32875C9.46874 7.24437 12.51 7.24438 15.0825 6.33ZM6.17499 7.39375C9.18436 8.55625 12.8012 8.55625 15.8106 7.3925C17.0668 8.71668 18.1176 10.2215 18.9281 11.8569C19.7731 13.5806 20.2331 15.3038 20.1581 16.7887C20.0856 18.2219 19.5219 19.4462 18.2344 20.3562C16.8925 21.3044 14.6356 21.9981 11.0237 21.9981C7.40811 21.9981 5.14061 21.3162 3.78624 20.3787C2.48936 19.48 1.91999 18.2725 1.83936 16.8587C1.75499 15.39 2.20499 13.6756 3.04686 11.94C3.84999 10.285 4.97061 8.69187 6.17499 7.39375ZM5.45624 3.1975C5.95624 3.34625 6.47874 3.47562 7.00874 3.57375C8.35249 3.82125 9.69999 3.8575 10.85 3.52437C12.1901 3.13397 13.5531 2.82692 14.9312 2.605C13.7812 2.25875 12.4362 2 11.0237 2C8.87061 2 6.86249 2.60063 5.45624 3.1975Z"
     fill="#FF852A"
     id="path3386" />
  <rect
     style="fill:#ff852a;fill-opacity:1;stroke:none;stroke-width:0.2;stroke-dasharray:none;stroke-opacity:1"
     id="rect3957"
     width="1.3037277"
     height="10.009979"
     x="-11.645164"
     y="10.109631"
     transform="scale(-1,1)" />
</svg>
