<?xml version="1.0" encoding="UTF-8" standalone="no"?>
<svg
   width="20"
   height="20"
   viewBox="0 0 20 20"
   fill="none"
   version="1.1"
   id="svg16701"
   sodipodi:docname="simple-clock.svg"
   inkscape:version="1.2.1 (9c6d41e410, 2022-07-14)"
   xmlns:inkscape="http://www.inkscape.org/namespaces/inkscape"
   xmlns:sodipodi="http://sodipodi.sourceforge.net/DTD/sodipodi-0.dtd"
   xmlns="http://www.w3.org/2000/svg"
   xmlns:svg="http://www.w3.org/2000/svg">
  <defs
     id="defs16705" />
  <sodipodi:namedview
     id="namedview16703"
     pagecolor="#ffffff"
     bordercolor="#000000"
     borderopacity="0.25"
     inkscape:showpageshadow="2"
     inkscape:pageopacity="0.0"
     inkscape:pagecheckerboard="0"
     inkscape:deskcolor="#d1d1d1"
     showgrid="false"
     inkscape:zoom="26.25"
     inkscape:cx="10"
     inkscape:cy="10.019048"
     inkscape:window-width="1366"
     inkscape:window-height="705"
     inkscape:window-x="-8"
     inkscape:window-y="-8"
     inkscape:window-maximized="1"
     inkscape:current-layer="svg16701" />
  <path
     style="color:#000000;clip-rule:evenodd;fill:#00aba1;fill-rule:evenodd;stroke-linecap:round;stroke-linejoin:round;-inkscape-stroke:none"
     d="M 10,0 C 4.4857401,0 0,4.4857311 0,10 0,15.51426 4.4857403,20 10,20 15.51426,20 20,15.51426 20,10 20,4.4857311 15.51426,0 10,0 Z m 0,1.5 c 4.70373,0 8.5,3.7962591 8.5,8.5 0,4.70373 -3.79627,8.5 -8.5,8.5 C 5.2962699,18.5 1.5,14.70373 1.5,10 1.5,5.2962591 5.2962701,1.5 10,1.5 Z"
     id="path16697" />
  <path
     style="color:#000000;fill:#00aba1;stroke-linecap:round;stroke-linejoin:round"
     d="m 9.6621094,5.0976562 a 0.75,0.75 0 0 0 -0.75,0.75 v 4.8457028 a 0.750075,0.750075 0 0 0 0.3652344,0.644532 l 3.7714842,2.25 a 0.75,0.75 0 0 0 1.027344,-0.261719 0.75,0.75 0 0 0 -0.259766,-1.027344 l -3.404297,-2.03125 V 5.8476562 a 0.75,0.75 0 0 0 -0.7499996,-0.75 z"
     id="path16699" />
</svg>
