<svg width="762" height="550" viewBox="0 0 762 550" fill="none" xmlns="http://www.w3.org/2000/svg">
<g clip-path="url(#clip0_107_1548)">
<path d="M0 456.296L2.73608 469.877C3.04913 476.788 5.2934 481.677 6.4967 487.818C12.8578 520.308 29.451 541.065 33.5893 546.095C33.5922 546.098 33.595 546.101 33.5979 546.104C34.1579 546.787 34.5026 547.177 34.5457 547.278C52.5261 547.278 168.766 547.301 301.228 547.258C336.933 547.249 373.816 547.232 410.274 547.206C426.83 547.197 443.297 547.187 459.525 547.174C471.343 547.164 483.034 547.151 494.539 547.141C538.213 547.099 579.228 547.044 614.405 546.972C633.236 546.933 650.392 546.891 665.391 546.839C705.33 546.712 729.941 546.55 730.016 546.338L730.059 546.192C730.059 546.192 730.096 546.15 730.099 546.104C730.102 546.101 730.102 546.098 730.102 546.095C730.102 546.046 730.148 545.994 730.148 545.994C730.254 545.714 753.263 509.694 760.104 460.277C761.689 448.817 762.407 436.639 761.767 424.019V423.821C759.372 377.277 738.551 324.82 674.92 280.299C614.118 237.699 678.754 209.598 630.407 162.167C574.835 107.736 514.162 167.986 452.36 143.282C441.47 138.896 430.494 131.894 419.518 121.146C413.335 115.083 406.584 109.758 399.355 105.22C398.221 104.482 397.132 103.79 396.001 103.149C391.644 100.587 387.159 98.2696 382.498 96.1987C379.408 94.8171 376.228 93.5362 373.003 92.3529C367.866 90.4316 362.596 88.8029 357.237 87.4732C349.615 85.4999 341.732 84.0695 333.72 83.0845C330.233 82.6391 326.707 82.2945 323.134 82.0474C257.729 77.3791 184.541 102.05 142.914 139.127C140.605 141.182 138.396 143.275 136.288 145.405C135.415 146.289 134.209 147.573 132.785 149.234C123.069 160.567 103.285 189.409 111.453 228.411C112.151 231.736 113.05 235.14 114.175 238.609C115.789 243.576 117.869 248.683 120.479 253.921C124.528 262.055 123.919 270.042 120.261 278.13L120.221 278.179H120.218C120.017 278.615 119.807 279.05 119.589 279.486C118.825 281.011 117.952 282.539 116.981 284.07C116.43 284.948 115.844 285.822 115.226 286.697C115.074 286.914 114.919 287.132 114.761 287.353C114.445 287.792 114.124 288.228 113.793 288.667C113.793 288.667 113.796 288.667 113.793 288.67C113.529 289.021 113.262 289.369 112.989 289.72C112.719 290.071 112.444 290.422 112.159 290.776C111.878 291.128 111.594 291.475 111.304 291.827C111.016 292.178 110.723 292.529 110.425 292.883C110.126 293.234 109.825 293.585 109.52 293.936C109.216 294.287 108.906 294.639 108.593 294.99H108.59C103.334 300.897 101.884 308.344 100.523 317.047C99.9914 320.438 99.4745 324.024 98.7479 327.779C98.7164 327.944 98.6819 328.113 98.6503 328.282C98.0271 331.446 97.2489 334.729 96.1863 338.123C96.1375 338.289 96.083 338.458 96.0284 338.627C95.0865 341.575 93.9261 344.609 92.4615 347.72C92.3265 348.009 92.1888 348.298 92.0452 348.588V348.591C91.936 348.822 91.824 349.049 91.7063 349.28C91.623 349.449 91.5397 349.615 91.4535 349.784C91.3099 350.07 91.1607 350.356 91.0085 350.642L91.0056 350.649C90.9453 350.766 90.882 350.889 90.8131 351.01C89.7678 352.983 88.5875 354.986 87.2549 357.014C86.6748 357.905 86.0632 358.802 85.4199 359.703C81.9852 364.517 77.6774 369.481 72.2325 374.566C65.0587 381.269 55.9062 388.187 44.172 395.274C42.3053 396.402 40.5075 397.547 38.7758 398.704C22.4639 409.611 12.2433 421.73 8.58746 435.407C8.0705 437.338 7.19739 441.112 6.35596 445.647C5.06647 452.598 -0.290039 449.642 0 456.296Z" fill="#E2F2FF"/>
<path d="M299.602 140.677C299.602 140.677 292.008 123.432 273.852 125.348C273.852 125.348 247.492 96.606 219.383 121.516C219.383 121.516 189.504 115.344 167.375 126.861C152.621 134.54 147.749 142.593 147.749 142.593L299.602 140.677Z" fill="#F8FCFF"/>
<path d="M515.594 321.15C515.594 321.15 498.906 292.169 459.004 295.389C459.004 295.389 401.068 247.087 339.291 288.949C339.291 288.949 273.62 278.576 224.987 297.932C192.561 310.835 181.851 324.371 181.851 324.371L515.594 321.15Z" fill="#F8FCFF"/>
<path d="M240.623 193.271C240.623 193.271 253.244 171.606 283.381 176.971C313.518 182.335 305.499 217.217 322.175 233.616C338.851 250.012 353.394 264.623 346.235 287.789C339.077 310.954 377.099 315.905 376.988 350.886C376.877 385.867 368.755 406.483 322.007 409.205C275.263 411.927 200.487 399.552 190.362 385.442C180.237 371.333 181.938 340.356 207.363 300.83C232.784 261.304 209.557 257.758 226.546 234.868C243.539 211.975 231.58 202.698 240.623 193.271Z" fill="#79B27F"/>
<path d="M632.035 230.671C632.035 230.671 621.062 211.614 594.823 213.731C594.823 213.731 556.728 181.97 516.107 209.497C516.107 209.497 472.925 202.677 440.945 215.401C419.625 223.886 412.581 232.788 412.581 232.788L632.035 230.671Z" fill="#F8FCFF"/>
<path d="M360.499 494.16C360.499 494.16 407.818 480.451 435.521 497.25C463.224 514.05 446.836 533.382 479.615 531.701C512.39 530.02 528.781 528.406 530.506 547.284H385.599L360.499 494.16Z" fill="#A8D29F"/>
<path d="M186.942 324.568H345.709V547.284H186.942V324.568Z" fill="#F9DDBF"/>
<path d="M63.3729 330.504V548.269H187.129V324.524H68.7621C66.9083 326.499 65.1119 328.471 63.3729 330.504Z" fill="#FFF3E9"/>
<path d="M156.292 251.471L168.871 277.428L174.436 288.869L174.612 289.332L174.845 289.738L175.021 290.086L175.311 290.668L175.426 290.959L180.933 302.281L181.224 302.863L181.92 304.372L191.716 324.524L193.978 329.226L197.166 335.731L198.848 339.216H357.385L346.431 324.987L346.083 324.524L274.785 232.077L274.728 232.02H268.467L171.779 231.672C168.347 238.231 162.958 244.855 156.292 251.471Z" fill="#ED9F4A"/>
<path d="M187.13 338.162V356.767L346.412 363.51V339.242H351.125L268.464 231.997L187.13 338.162Z" fill="#F9DDBF"/>
<path d="M267.038 285.422H270.367C281.68 285.422 290.85 294.608 290.85 305.942V358.084H247.22V305.275C247.22 294.309 256.091 285.422 267.038 285.422Z" fill="#EFCDAF"/>
<path d="M48.8529 345.196H190.057L197.185 335.731L205.59 324.524L271.732 236.201L274.805 232.077L275.152 231.614H133.945L133.597 232.077L130.524 236.201L64.386 324.524L55.9812 335.731L48.8529 345.196Z" fill="#F99746"/>
<path d="M285.742 369.307L322.901 445.94H435.779L376.93 369.587L285.742 369.307Z" fill="#ED9F4A"/>
<path d="M282.363 369.307L319.518 445.507H432.396L373.548 369.585L282.363 369.307Z" fill="#F9DDBF"/>
<path d="M319.763 445.507V547.063L432.396 547.284V445.507H319.763Z" fill="#F9DDBF"/>
<path d="M224.387 445.507H319.764V547.067H224.387V445.507Z" fill="#FFF3E9"/>
<path d="M213.905 450.011H316.365L376.93 369.581L346.41 369.589L276.229 369.604L213.905 450.011Z" fill="#F99746"/>
<path d="M382.254 411.888C382.254 408.96 379.869 406.585 376.93 406.585C373.987 406.585 371.606 408.96 371.606 411.888C371.606 414.82 373.99 417.192 376.93 417.192C379.869 417.192 382.254 414.816 382.254 411.888Z" fill="#EFCDAF"/>
<path d="M213.905 450.011H233.348L346.41 369.589L276.229 369.604L213.905 450.011Z" fill="#E88338"/>
<path d="M162.965 327.69H85.4447L126.337 277.45H203.857L162.965 327.69Z" fill="#465C93"/>
<path d="M193.302 290.683H115.782L116.259 290.094H193.783L193.302 290.683Z" fill="#AEC3FF"/>
<path d="M144.559 277.447L103.666 327.69H103.077L143.97 277.447H144.559Z" fill="#AEC3FF"/>
<path d="M165.098 277.447L124.205 327.69H123.616L164.509 277.447H165.098Z" fill="#AEC3FF"/>
<path d="M184.863 277.447L143.971 327.69H143.382L184.275 277.447H184.863Z" fill="#AEC3FF"/>
<path d="M183.173 302.867H105.649L106.13 302.273H183.65L183.173 302.867Z" fill="#AEC3FF"/>
<path d="M172.475 316.008H94.9555L95.4371 315.418H172.957L172.475 316.008Z" fill="#AEC3FF"/>
<path d="M131.659 292.847L131.212 290.427L135.596 288.007L136.043 290.427L131.659 292.847Z" fill="#AEC3FF"/>
<path d="M151.974 292.847L151.53 290.427L155.914 288.007L156.361 290.427L151.974 292.847Z" fill="#AEC3FF"/>
<path d="M172.036 292.847L171.589 290.427L175.973 288.007L176.42 290.427L172.036 292.847Z" fill="#AEC3FF"/>
<path d="M121.774 304.988L121.327 302.568L125.711 300.148L126.158 302.568L121.774 304.988Z" fill="#AEC3FF"/>
<path d="M142.093 304.988L141.645 302.568L146.029 300.148L146.477 302.568L142.093 304.988Z" fill="#AEC3FF"/>
<path d="M162.151 304.988L161.704 302.568L166.088 300.148L166.535 302.568L162.151 304.988Z" fill="#AEC3FF"/>
<path d="M111.077 318.133L110.634 315.713L115.018 313.293L115.465 315.713L111.077 318.133Z" fill="#AEC3FF"/>
<path d="M131.395 318.133L130.948 315.713L135.336 313.293L135.779 315.713L131.395 318.133Z" fill="#AEC3FF"/>
<path d="M151.454 318.133L151.011 315.713L155.395 313.293L155.842 315.713L151.454 318.133Z" fill="#AEC3FF"/>
<path d="M309.29 434.894H239.048L276.099 389.367H346.342L309.29 434.894Z" fill="#465C93"/>
<path d="M336.775 401.359H266.533L266.968 400.823H337.211L336.775 401.359Z" fill="#AEC3FF"/>
<path d="M292.611 389.367L255.56 434.89H255.025L292.08 389.367H292.611Z" fill="#AEC3FF"/>
<path d="M311.225 389.367L274.169 434.89H273.634L310.69 389.367H311.225Z" fill="#AEC3FF"/>
<path d="M329.131 389.367L292.075 434.89H291.54L328.596 389.367H329.131Z" fill="#AEC3FF"/>
<path d="M327.597 412.398H257.355L257.79 411.862H328.033L327.597 412.398Z" fill="#AEC3FF"/>
<path d="M317.906 424.306H247.663L248.099 423.77H318.342L317.906 424.306Z" fill="#AEC3FF"/>
<path d="M280.918 403.32L280.516 401.126L284.487 398.936L284.893 401.126L280.918 403.32Z" fill="#AEC3FF"/>
<path d="M299.33 403.32L298.925 401.126L302.9 398.936L303.305 401.126L299.33 403.32Z" fill="#AEC3FF"/>
<path d="M317.507 403.32L317.102 401.126L321.073 398.936L321.479 401.126L317.507 403.32Z" fill="#AEC3FF"/>
<path d="M271.962 414.32L271.561 412.13L275.532 409.936L275.938 412.13L271.962 414.32Z" fill="#AEC3FF"/>
<path d="M290.375 414.32L289.973 412.13L293.944 409.936L294.35 412.13L290.375 414.32Z" fill="#AEC3FF"/>
<path d="M308.552 414.32L308.147 412.13L312.118 409.936L312.523 412.13L308.552 414.32Z" fill="#AEC3FF"/>
<path d="M262.273 426.229L261.868 424.038L265.839 421.844L266.244 424.038L262.273 426.229Z" fill="#AEC3FF"/>
<path d="M280.681 426.229L280.28 424.038L284.251 421.844L284.656 424.038L280.681 426.229Z" fill="#AEC3FF"/>
<path d="M298.859 426.229L298.454 424.038L302.429 421.844L302.83 424.038L298.859 426.229Z" fill="#AEC3FF"/>
<path d="M457.511 547.092C457.534 547.157 457.557 547.219 457.579 547.284H722.244C722.248 547.28 722.248 547.276 722.248 547.272C722.248 547.215 728.483 547.272 728.483 547.272C728.624 546.942 762 502.799 762 440.021C755.375 437.447 731.985 435.126 699.079 435.992C697.754 436.026 696.415 436.076 695.06 436.142C682.918 436.715 669.574 438.52 655.369 442.225C654.871 442.356 654.369 442.487 653.866 442.622C653.725 442.66 653.585 442.699 653.444 442.737C652.439 443.01 651.435 443.291 650.423 443.584C649.289 443.911 648.155 444.249 647.009 444.599C646.602 444.726 646.191 444.853 645.78 444.98C644.266 445.458 642.744 445.958 641.21 446.477C623.334 452.561 612.242 459.118 604.522 465.455C604.362 465.586 604.202 465.717 604.042 465.848C600.336 468.945 597.417 471.989 594.895 474.894C594.206 475.686 593.544 476.468 592.905 477.237C592.113 478.195 591.352 479.134 590.606 480.054C588.106 483.14 585.797 485.987 583.087 488.473C575.614 495.349 565.108 499.505 539.203 498.462C534.557 498.274 530.116 498.231 525.874 498.324C470.171 499.497 448.988 523.639 457.511 547.092Z" fill="#A8D29F"/>
<path d="M0.000213623 456.051C4.78839 455.147 0.0267944 456.048 0.0381775 456.044C10.1754 454.02 26.0933 451.581 45.798 450.997C58.0052 450.632 71.671 450.978 86.3128 452.573C86.8293 452.63 87.3496 452.687 87.8699 452.744C89.3968 452.922 90.9351 453.108 92.4847 453.313C95.8651 453.754 99.2947 454.266 102.762 454.851C102.766 454.855 102.77 454.855 102.774 454.851C103.807 455.026 104.832 455.204 105.873 455.394C106.986 455.592 108.103 455.801 109.223 456.017C111.623 456.48 114.047 456.982 116.485 457.521C117.556 457.757 118.631 458.003 119.71 458.258C120.788 458.505 121.867 458.767 122.953 459.033C124.268 459.359 125.585 459.693 126.907 460.039H126.911C127.321 460.149 127.735 460.259 128.145 460.369H128.149C129.361 460.696 130.576 461.03 131.795 461.376C136.722 462.77 141.701 464.33 146.711 466.074C154.937 468.914 162.245 471.713 168.778 474.44C177.069 477.892 184.115 481.23 190.203 484.386C196.215 487.493 201.32 490.444 205.802 493.197C230.08 508.114 236.058 517.32 269.174 514.741C272.125 514.517 274.951 514.426 277.659 514.464C286.531 514.578 294.12 516.01 300.58 518.216C313.532 522.637 321.945 530.183 327.061 536.479C331.277 541.667 333.26 546.004 333.704 547.045C333.772 547.2 333.803 547.284 333.803 547.284H327.061H300.58H205.802H168.778H159.324H152.689H71.162H64.5267H45.798H34.8344C29.3614 541.409 11.5199 517.16 3.10706 479.206C1.51566 472.032 0.429321 464.403 0.0153503 456.329L0.000213623 456.051Z" fill="#A8D29F"/>
<path d="M696.334 343.62C696.334 343.62 689.928 331.616 674.609 332.948C674.609 332.948 652.368 312.942 628.652 330.28C628.652 330.28 603.441 325.984 584.77 333.998C572.322 339.343 568.213 344.948 568.213 344.948L696.334 343.62Z" fill="#F8FCFF"/>
<path d="M195.631 218.672C195.631 218.672 191.322 206.674 181.017 208.006C181.017 208.006 166.055 188.009 150.101 205.338C150.101 205.338 133.142 201.044 120.582 209.054C112.208 214.397 109.444 220 109.444 220L195.631 218.672Z" fill="#F8FCFF"/>
<path d="M430.934 185.087C430.934 185.087 425.629 173.673 412.943 174.941C412.943 174.941 394.528 155.914 374.886 172.402C374.886 172.402 354.01 168.317 338.549 175.94C328.241 181.021 324.836 186.355 324.836 186.355L430.934 185.087Z" fill="#F8FCFF"/>
<path d="M637.508 410.519C637.508 410.519 632.203 399.105 619.517 400.373C619.517 400.373 601.102 381.347 581.46 397.834C581.46 397.834 560.584 393.749 545.124 401.372C534.815 406.453 531.41 411.787 531.41 411.787L637.508 410.519Z" fill="#F8FCFF"/>
<path d="M516.096 520.881C515.32 520.881 514.693 520.283 514.693 519.544C514.693 502.969 528.846 489.479 546.242 489.479C550.26 489.479 554.17 490.188 557.867 491.589C558.586 491.861 558.936 492.638 558.651 493.323C558.361 494.005 557.554 494.342 556.83 494.07C553.467 492.795 549.903 492.148 546.242 492.148C530.389 492.148 517.494 504.435 517.494 519.54C517.498 520.283 516.867 520.881 516.096 520.881Z" fill="#2C3A64"/>
<path d="M490.804 456.06C490.804 456.06 492.942 460.299 495.642 466.168C498.672 472.754 502.413 481.396 504.639 488.422C505.817 492.14 506.572 495.403 506.576 497.673C506.576 498.45 503.426 501.613 502.518 502.819C496.775 510.435 488.931 520.605 488.931 520.605L486.79 520.092C486.79 520.092 489.787 507.372 494.155 501.024C495.015 499.775 497.434 498.255 497.318 498.117C497.318 498.117 497.318 498.114 497.314 498.114C496.936 497.662 495.996 496.536 494.714 494.924C491.174 490.482 485.026 482.392 480.907 474.864C480.65 474.393 480.4 473.926 480.163 473.463C477.993 469.262 476.559 465.322 476.7 462.405L490.804 456.06Z" fill="#E8945B"/>
<path d="M484.891 520.586L486.366 521.474C486.909 521.696 487.363 521.78 487.913 522.022C488.745 522.389 488.902 522.902 488.926 523.013C488.93 523.029 488.93 523.036 488.93 523.036L495.191 526.808C495.492 526.689 495.669 526.103 495.761 525.648C495.826 525.341 495.733 525.02 495.512 524.786C494.97 524.204 493.768 523.251 493.258 521.493C492.968 520.505 491.421 517.396 491.421 517.396L491.409 517.385C491.353 517.35 491.028 517.266 489.227 517.503C488.295 517.626 488.042 515.826 488.042 515.826C488.042 515.826 487.745 515.861 487.411 516.06C487.146 516.213 486.856 516.473 486.668 516.895C486.402 517.488 485.438 518.304 484.751 518.836C484.333 519.158 484.015 519.372 484.015 519.372C484.015 519.372 483.722 519.671 484.891 520.586Z" fill="#B84C42"/>
<path d="M487.412 516.06C487.605 516.508 488.038 517.419 488.493 517.779C489.103 518.262 491.418 517.396 491.418 517.396L491.406 517.385C491.35 517.35 491.024 517.266 489.224 517.503C488.292 517.626 488.039 515.826 488.039 515.826C488.039 515.826 487.745 515.865 487.412 516.06Z" fill="#AA3E39"/>
<path d="M484.892 520.586L486.367 521.474C486.909 521.696 487.363 521.78 487.914 522.022C488.746 522.389 488.902 522.902 488.926 523.013C488.93 523.029 488.93 523.036 488.93 523.036L495.191 526.808C495.492 526.689 495.669 526.103 495.762 525.648C495.677 525.372 495.054 526.199 494.858 526.276C494.661 526.348 489.718 523.247 489.561 522.872C489.405 522.496 488.774 521.623 487.379 521.172C486.17 520.777 485.029 519.23 484.751 518.836C484.333 519.158 484.016 519.372 484.016 519.372C484.016 519.372 483.723 519.671 484.892 520.586Z" fill="#AA3E39"/>
<path d="M478.658 473.364L495.467 523.464L492.631 524.328L475.822 474.228L478.658 473.364Z" fill="#F99746"/>
<path d="M491.194 524.48L451.521 521.191L525.102 473.788L520.89 481.997L460.144 519.058L491.452 521.654L491.194 524.48Z" fill="#F99746"/>
<path d="M496.542 522.259L494.043 520.724L524.571 474.121L528.127 477.629L496.542 522.259Z" fill="#F99746"/>
<path d="M500.71 515.616L506.295 518.687C506.95 519.046 507.179 519.854 506.797 520.478C506.42 521.103 505.572 521.321 504.917 520.961L499.331 517.89C498.676 517.53 498.447 516.722 498.829 516.098C499.207 515.47 500.055 515.252 500.71 515.616Z" fill="#415DA5"/>
<path d="M501.818 517.595L494.774 525.02L494.127 524.484L501.167 517.059L501.818 517.595Z" fill="#415DA5"/>
<path d="M479.143 492.159C478.725 492.301 478.259 492.255 477.881 492.033C464.496 484.329 445.983 487.224 440.627 488.296H440.619C440.325 488.353 440.048 488.139 440.048 487.852V486.856C440.048 486.094 440.635 485.447 441.426 485.336C444.324 484.927 451.095 484.042 454.876 484.027C454.976 484.027 455.081 484.027 455.181 484.027C463.652 484.027 470.969 485.47 476.981 488.327C478.207 488.909 479.633 488.993 480.927 488.56L482.575 488.009C483.515 487.695 484.548 488.166 484.881 489.062C485.094 489.64 484.777 490.276 484.166 490.482L479.143 492.159Z" fill="#35488B"/>
<path d="M466.702 472.743C466.702 472.743 466.164 470.419 467.695 470.262C469.226 470.105 474.803 471.246 476.294 471.089C477.781 470.932 485.552 469.71 486.919 470.97C488.281 472.23 487.702 473.332 484.978 473.57C482.249 473.807 478.613 474.24 477.58 475.067C476.539 475.894 469.057 478.337 466.702 472.743Z" fill="#415DA5"/>
<path d="M488.772 528.921C485.865 526.152 485.865 521.662 488.772 518.893C491.678 516.124 496.39 516.124 499.296 518.893C502.203 521.662 502.203 526.152 499.296 528.921C496.39 531.691 491.678 531.691 488.772 528.921Z" fill="#415DA5"/>
<path d="M445.865 497.856L454.133 519.807L453.509 520.02L445.241 498.069L445.865 497.856Z" fill="#415DA5"/>
<path d="M430.715 530.078L430.454 529.5L453.849 519.923L469.223 498.99L469.766 499.354L454.283 520.433L454.194 520.467L430.715 530.078Z" fill="#415DA5"/>
<path d="M444.788 544.383L444.161 544.184C444.325 543.709 453.371 521.034 453.757 520.069L453.99 519.479L468.564 541.438L468.006 541.775L454.142 520.881C450.827 529.186 444.912 544.023 444.788 544.383Z" fill="#415DA5"/>
<path d="M428.191 514.006L454.148 518.265L454.036 518.888L428.079 514.628L428.191 514.006Z" fill="#415DA5"/>
<path d="M463.008 496.638L463.637 496.838L456.032 518.578L455.403 518.379L463.008 496.638Z" fill="#415DA5"/>
<path d="M454.014 520.505L453.914 520.459L430.105 508.957L430.406 508.394L454.119 519.851L479.636 515.769L479.748 516.393L454.014 520.505Z" fill="#415DA5"/>
<path d="M463.67 543.594C463.529 543.2 457.421 528.872 453.998 520.861L440.785 540.669L440.227 540.332L454.126 519.494L454.367 520.061C454.765 520.995 464.128 542.92 464.297 543.399L463.67 543.594Z" fill="#415DA5"/>
<path d="M453.973 519.897L454.07 520.522L428.446 524.156L428.349 523.531L453.973 519.897Z" fill="#415DA5"/>
<path d="M438.788 500.947L453.008 516.544L452.507 516.958L438.287 501.361L438.788 500.947Z" fill="#415DA5"/>
<path d="M454.576 521.917L455.236 521.97L453.264 544.816L452.603 544.764L454.576 521.917Z" fill="#415DA5"/>
<path d="M453.075 518.708L475.729 533.675L475.351 534.194L452.697 519.227L453.075 518.708Z" fill="#415DA5"/>
<path d="M435.285 537.1L434.815 536.656L453.733 518.472V494.813H454.396V518.732L435.285 537.1Z" fill="#415DA5"/>
<path d="M454.067 524.824C451.373 524.824 449.189 522.743 449.189 520.176C449.189 517.609 451.373 515.528 454.067 515.528C456.761 515.528 458.945 517.609 458.945 520.176C458.945 522.743 456.761 524.824 454.067 524.824Z" fill="#2C3A64"/>
<path d="M430.724 504.443C435.908 497.478 444.439 492.921 454.067 492.921C463.715 492.921 472.262 497.497 477.446 504.489C478.125 505.408 478.748 506.365 479.307 507.364V507.368C481.452 511.189 482.67 515.547 482.67 520.176C482.67 520.425 482.666 520.678 482.658 520.926C482.634 521.872 482.553 522.814 482.421 523.752C481.931 527.317 480.701 530.759 478.8 533.872C476.325 537.923 472.777 541.316 468.537 543.69C465.17 545.577 461.429 546.776 457.559 547.224C457.527 547.231 457.495 547.235 457.459 547.235C456.337 547.365 455.204 547.431 454.067 547.431C452.91 547.431 451.765 547.365 450.643 547.235C450.607 547.231 450.571 547.228 450.539 547.224C442.374 546.263 435.265 542.013 430.724 535.909C427.409 531.464 425.46 526.034 425.46 520.176C425.46 514.318 427.409 508.888 430.724 504.443ZM429.748 523.932C429.965 525.223 430.294 526.475 430.724 527.688C430.897 528.182 431.09 528.672 431.303 529.151C431.387 529.346 431.472 529.538 431.564 529.729C432.609 531.958 434.011 534.006 435.703 535.802C435.848 535.959 435.996 536.116 436.149 536.269C437.471 537.609 438.958 538.796 440.577 539.807C440.758 539.926 440.943 540.037 441.132 540.148C442.362 540.872 443.659 541.496 445.018 542.013C445.223 542.089 445.432 542.162 445.637 542.235C447.855 543.008 450.217 543.483 452.677 543.613C452.898 543.625 453.119 543.636 453.34 543.64C453.581 543.648 453.822 543.651 454.067 543.651C457.145 543.651 460.183 543.104 463.024 542.047C463.229 541.97 463.434 541.894 463.639 541.81C464.631 541.411 465.596 540.952 466.528 540.431C466.673 540.351 466.813 540.27 466.954 540.182C467.143 540.075 467.328 539.964 467.513 539.845C470.209 538.172 472.54 536.001 474.36 533.478V533.474C474.493 533.302 474.613 533.129 474.73 532.953C474.955 532.632 475.168 532.302 475.373 531.969C476.98 529.343 478.025 526.436 478.463 523.423C478.599 522.489 478.68 521.547 478.692 520.597C478.7 520.456 478.7 520.318 478.7 520.176C478.7 518.962 478.603 517.771 478.414 516.607C478.382 516.397 478.346 516.19 478.306 515.983C477.864 513.659 477.06 511.45 475.951 509.413C475.421 508.436 474.822 507.498 474.155 506.606C472.584 504.5 470.659 502.651 468.457 501.135C468.276 501.012 468.095 500.893 467.914 500.775C466.42 499.802 464.808 498.983 463.1 498.339C462.899 498.263 462.695 498.186 462.486 498.114C459.958 497.237 457.234 496.743 454.397 496.708C454.288 496.704 454.176 496.704 454.067 496.704C453.955 496.704 453.846 496.704 453.734 496.708C451.017 496.743 448.405 497.198 445.966 498.006C445.757 498.075 445.548 498.148 445.343 498.225C443.145 499.017 441.1 500.105 439.251 501.433C439.074 501.56 438.902 501.69 438.729 501.82C436.061 503.849 433.847 506.388 432.247 509.283C432.143 509.47 432.042 509.658 431.946 509.845C431.476 510.757 431.066 511.699 430.724 512.667C430.523 513.226 430.346 513.793 430.194 514.371C430.138 514.574 430.085 514.777 430.037 514.984C429.639 516.653 429.43 518.392 429.43 520.176C429.43 521.237 429.503 522.282 429.651 523.308C429.68 523.519 429.712 523.725 429.748 523.932Z" fill="#202E51"/>
<path d="M429.731 514.934C429.779 514.727 429.835 514.524 429.892 514.322C430.121 513.472 430.398 512.641 430.723 511.829C431.009 511.109 431.33 510.408 431.688 509.723C431.784 509.531 431.885 509.344 431.989 509.16C433.613 506.235 435.851 503.666 438.539 501.613C438.712 501.479 438.885 501.349 439.062 501.223C443.156 498.255 448.232 496.452 453.733 496.341C453.918 496.333 454.098 496.333 454.283 496.333H454.396C457.281 496.345 460.054 496.823 462.633 497.689C462.842 497.757 463.047 497.83 463.252 497.907C465.012 498.546 466.676 499.369 468.223 500.353C468.408 500.468 468.589 500.587 468.769 500.71C471.048 502.237 473.049 504.117 474.685 506.265C475.364 507.154 475.978 508.088 476.521 509.064C477.702 511.163 478.562 513.452 479.036 515.865C479.081 516.071 479.121 516.282 479.153 516.489C479.37 517.741 479.479 519.027 479.479 520.337C479.479 520.444 479.479 520.555 479.474 520.662C479.462 521.62 479.39 522.565 479.262 523.492C478.763 527.11 477.413 530.476 475.412 533.405C475.291 533.581 475.171 533.754 475.042 533.926C473.158 536.537 470.743 538.773 467.946 540.5C467.761 540.615 467.572 540.726 467.383 540.833C466.286 541.477 465.137 542.036 463.935 542.514C463.73 542.595 463.526 542.671 463.317 542.748C460.512 543.778 457.466 544.344 454.283 544.344C453.946 544.344 453.612 544.337 453.279 544.325C453.058 544.318 452.837 544.306 452.616 544.291C450.096 544.134 447.677 543.621 445.411 542.805C445.202 542.732 444.997 542.656 444.792 542.575C443.401 542.036 442.071 541.381 440.818 540.619C440.633 540.508 440.448 540.393 440.263 540.274C438.624 539.225 437.117 537.996 435.787 536.618C435.634 536.464 435.485 536.307 435.341 536.15C433.629 534.293 432.218 532.184 431.174 529.89C431.081 529.699 430.997 529.507 430.916 529.312C430.848 529.159 430.784 529.002 430.723 528.845C430.105 527.294 429.651 525.671 429.377 523.986C429.345 523.779 429.313 523.568 429.285 523.362C429.156 522.37 429.088 521.359 429.088 520.337C429.088 518.48 429.309 516.669 429.731 514.934ZM430.382 523.844C430.474 524.415 430.591 524.978 430.723 525.533C431.009 526.701 431.386 527.838 431.849 528.929C431.933 529.124 432.017 529.316 432.106 529.507C433.098 531.686 434.44 533.692 436.056 535.461C436.2 535.618 436.349 535.775 436.502 535.932C437.784 537.261 439.23 538.448 440.81 539.459C440.994 539.577 441.179 539.692 441.364 539.803C442.558 540.527 443.823 541.151 445.149 541.668C445.354 541.748 445.559 541.825 445.768 541.898C447.946 542.683 450.273 543.177 452.7 543.322C452.917 543.341 453.142 543.353 453.363 543.357C453.668 543.372 453.974 543.376 454.283 543.376C457.333 543.376 460.251 542.836 462.939 541.848C463.144 541.775 463.349 541.695 463.554 541.614C464.699 541.163 465.796 540.627 466.845 540.018C467.034 539.907 467.218 539.796 467.403 539.681C470.084 538.027 472.398 535.879 474.206 533.374C474.335 533.202 474.456 533.026 474.576 532.85C476.477 530.059 477.763 526.854 478.249 523.408C478.377 522.481 478.45 521.535 478.458 520.578C478.462 520.498 478.462 520.417 478.462 520.337C478.462 519.081 478.357 517.852 478.152 516.65C478.116 516.439 478.08 516.232 478.036 516.025C477.582 513.743 476.774 511.58 475.665 509.589C475.127 508.62 474.516 507.69 473.841 506.809C472.278 504.761 470.365 502.965 468.187 501.502C468.006 501.38 467.825 501.261 467.64 501.146C466.174 500.216 464.598 499.435 462.931 498.826C462.726 498.749 462.521 498.676 462.312 498.607H462.308C459.829 497.773 457.168 497.313 454.396 497.302H454.283C454.098 497.302 453.914 497.306 453.733 497.309C451.097 497.363 448.565 497.826 446.198 498.627C445.989 498.696 445.784 498.768 445.579 498.849C443.47 499.622 441.505 500.675 439.729 501.958C439.552 502.08 439.379 502.211 439.206 502.345C436.614 504.316 434.461 506.786 432.897 509.597C432.793 509.784 432.693 509.972 432.596 510.159C431.885 511.53 431.31 512.978 430.896 514.486C430.84 514.689 430.784 514.892 430.735 515.099C430.731 515.11 430.727 515.126 430.723 515.141C430.318 516.81 430.105 518.549 430.105 520.337C430.105 521.313 430.169 522.278 430.293 523.22C430.322 523.431 430.35 523.637 430.382 523.844Z" fill="#B84C42"/>
<path d="M539.156 497.842L547.424 519.793L546.8 520.006L538.532 498.055L539.156 497.842Z" fill="#415DA5"/>
<path d="M523.994 530.078L523.733 529.5L547.124 519.923L562.502 498.99L563.045 499.354L547.558 520.433L547.474 520.467L523.994 530.078Z" fill="#415DA5"/>
<path d="M538.067 544.383L537.44 544.184C537.605 543.709 546.65 521.034 547.036 520.069L547.269 519.479L561.844 541.438L561.285 541.775L547.422 520.881C544.103 529.186 538.192 544.023 538.067 544.383Z" fill="#415DA5"/>
<path d="M521.466 514.004L547.424 518.264L547.312 518.886L521.354 514.627L521.466 514.004Z" fill="#415DA5"/>
<path d="M556.285 496.634L556.914 496.834L549.309 518.575L548.68 518.375L556.285 496.634Z" fill="#415DA5"/>
<path d="M547.29 520.505L547.193 520.459L523.384 508.957L523.686 508.394L547.394 519.851L572.915 515.769L573.027 516.393L547.29 520.505Z" fill="#415DA5"/>
<path d="M556.949 543.594C556.809 543.2 550.697 528.872 547.277 520.861L534.065 540.669L533.506 540.332L547.406 519.494L547.647 520.061C548.045 520.995 557.407 542.92 557.576 543.399L556.949 543.594Z" fill="#415DA5"/>
<path d="M547.256 519.897L547.354 520.522L521.729 524.156L521.632 523.531L547.256 519.897Z" fill="#415DA5"/>
<path d="M532.067 500.945L546.287 516.542L545.787 516.957L531.567 501.36L532.067 500.945Z" fill="#415DA5"/>
<path d="M547.818 521.869L548.479 521.921L546.503 544.768L545.843 544.715L547.818 521.869Z" fill="#415DA5"/>
<path d="M546.358 518.697L569.012 533.664L568.634 534.183L545.98 519.216L546.358 518.697Z" fill="#415DA5"/>
<path d="M528.562 537.1L528.092 536.656L547.011 518.472V494.813H547.674V518.732L528.562 537.1Z" fill="#415DA5"/>
<path d="M547.34 524.824C544.646 524.824 542.462 522.743 542.462 520.176C542.462 517.609 544.646 515.528 547.34 515.528C550.035 515.528 552.219 517.609 552.219 520.176C552.219 522.743 550.035 524.824 547.34 524.824Z" fill="#2C3A64"/>
<path d="M532.394 496.95C533.137 496.509 533.909 496.103 534.697 495.736C535.898 495.165 537.152 494.675 538.446 494.273C541.247 493.396 544.236 492.921 547.342 492.921C551.61 492.921 555.66 493.817 559.301 495.422C559.819 495.648 560.334 495.893 560.836 496.149C569.821 500.752 575.945 509.796 575.945 520.176C575.945 524.997 574.611 529.729 572.08 533.872C569.604 537.923 566.056 541.316 561.817 543.69C561.495 543.87 561.166 544.046 560.836 544.21C557.73 545.799 554.334 546.818 550.834 547.224C550.802 547.231 550.77 547.235 550.734 547.235C549.613 547.365 548.48 547.431 547.342 547.431C546.185 547.431 545.04 547.365 543.919 547.235C543.883 547.231 543.846 547.228 543.814 547.224C529.702 545.562 518.74 534.068 518.74 520.176C518.74 510.366 524.209 501.747 532.394 496.95ZM523.027 523.932C523.333 525.751 523.863 527.501 524.586 529.151C524.667 529.346 524.755 529.538 524.847 529.729C525.892 531.958 527.291 534.006 528.982 535.802C529.127 535.959 529.276 536.116 529.428 536.269C530.751 537.609 532.237 538.8 533.857 539.807C534.042 539.926 534.222 540.037 534.411 540.148C535.637 540.872 536.939 541.496 538.297 542.013C538.498 542.089 538.703 542.162 538.912 542.235C541.126 543.008 543.493 543.483 545.952 543.613C546.173 543.625 546.394 543.636 546.615 543.64C546.856 543.648 547.097 543.651 547.342 543.651C550.424 543.651 553.466 543.104 556.303 542.047C556.508 541.97 556.713 541.894 556.914 541.81C557.907 541.411 558.871 540.952 559.803 540.431C559.948 540.351 560.089 540.27 560.229 540.182C560.418 540.075 560.603 539.964 560.788 539.845C560.804 539.838 560.82 539.83 560.836 539.815C563.516 538.145 565.831 535.986 567.639 533.478C567.772 533.306 567.896 533.129 568.009 532.953C568.238 532.632 568.447 532.302 568.652 531.969C570.83 528.404 571.979 524.327 571.979 520.176C571.979 518.962 571.883 517.771 571.694 516.607C571.662 516.397 571.626 516.19 571.585 515.983C570.428 509.899 566.803 504.623 561.736 501.135C561.555 501.012 561.379 500.893 561.194 500.775C561.077 500.698 560.957 500.622 560.836 500.549C559.442 499.672 557.951 498.933 556.38 498.339C556.175 498.263 555.966 498.186 555.761 498.114C553.233 497.237 550.509 496.743 547.676 496.708C547.563 496.704 547.455 496.704 547.342 496.704C547.234 496.704 547.121 496.704 547.013 496.708C544.542 496.739 542.159 497.118 539.912 497.796C539.687 497.861 539.466 497.934 539.245 498.006C539.036 498.075 538.827 498.148 538.623 498.225C537.831 498.508 537.059 498.833 536.312 499.189C534.978 499.833 533.712 500.583 532.531 501.433C532.354 501.56 532.181 501.69 532.008 501.82C529.34 503.849 527.126 506.388 525.527 509.283C525.422 509.47 525.322 509.658 525.229 509.849C524.486 511.281 523.895 512.794 523.473 514.371C523.417 514.574 523.365 514.777 523.317 514.984C522.919 516.653 522.71 518.392 522.71 520.176C522.71 521.237 522.786 522.282 522.931 523.308C522.959 523.519 522.991 523.725 523.027 523.932Z" fill="#1D2A4C"/>
<path d="M523.012 514.934C523.06 514.727 523.117 514.524 523.173 514.322C523.607 512.717 524.21 511.178 524.969 509.723C525.066 509.531 525.166 509.344 525.271 509.16C526.894 506.235 529.132 503.666 531.821 501.613C531.993 501.479 532.166 501.349 532.343 501.223C533.544 500.35 534.83 499.58 536.188 498.921C537.342 498.362 538.543 497.888 539.789 497.501H539.793C540.729 497.21 541.686 496.972 542.666 496.793C544.077 496.521 545.531 496.368 547.014 496.341C547.199 496.333 547.38 496.333 547.565 496.333H547.677C548.352 496.337 549.023 496.364 549.686 496.417C551.848 496.59 553.938 497.022 555.911 497.689C556.12 497.757 556.329 497.83 556.534 497.907C558.044 498.454 559.483 499.136 560.837 499.944C561.062 500.074 561.283 500.212 561.504 500.353C561.689 500.468 561.87 500.587 562.051 500.71C567.303 504.236 571.084 509.627 572.318 515.865C572.362 516.071 572.402 516.282 572.434 516.489C572.651 517.741 572.76 519.027 572.76 520.337C572.76 525.154 571.265 529.641 568.693 533.405C568.573 533.581 568.448 533.757 568.324 533.93C566.435 536.541 564.02 538.777 561.223 540.5C561.094 540.581 560.966 540.661 560.837 540.734C560.781 540.772 560.721 540.806 560.664 540.837C559.567 541.477 558.414 542.039 557.213 542.514C557.012 542.595 556.807 542.671 556.602 542.748C553.797 543.778 550.747 544.344 547.565 544.344C547.227 544.344 546.889 544.337 546.556 544.325C546.335 544.318 546.114 544.306 545.893 544.291C543.373 544.134 540.954 543.621 538.692 542.805C538.483 542.732 538.278 542.656 538.073 542.575C536.683 542.036 535.353 541.381 534.099 540.619C533.914 540.508 533.729 540.393 533.544 540.274C531.905 539.225 530.398 537.996 529.068 536.618C528.915 536.464 528.767 536.307 528.622 536.15C526.91 534.293 525.5 532.184 524.451 529.89C524.362 529.699 524.278 529.507 524.198 529.312C523.478 527.623 522.956 525.839 522.659 523.986C522.626 523.779 522.594 523.568 522.566 523.362C522.438 522.37 522.369 521.359 522.369 520.337C522.369 518.48 522.59 516.669 523.012 514.934ZM523.663 523.844C523.952 525.613 524.447 527.317 525.13 528.929C525.214 529.124 525.299 529.316 525.387 529.507C526.38 531.686 527.722 533.692 529.337 535.461C529.482 535.618 529.63 535.775 529.783 535.932C531.065 537.261 532.512 538.448 534.091 539.459C534.276 539.577 534.461 539.692 534.645 539.803C535.839 540.527 537.105 541.151 538.431 541.668C538.636 541.748 538.841 541.825 539.05 541.898C541.228 542.683 543.554 543.177 545.977 543.322C546.194 543.341 546.419 543.353 546.64 543.357C546.946 543.372 547.255 543.376 547.565 543.376C550.614 543.376 553.532 542.836 556.22 541.848C556.425 541.775 556.63 541.695 556.835 541.614C557.976 541.163 559.077 540.627 560.122 540.018C560.311 539.907 560.496 539.796 560.681 539.681C560.733 539.65 560.785 539.619 560.837 539.581C563.453 537.942 565.712 535.829 567.488 533.374C567.612 533.202 567.737 533.026 567.853 532.85C570.313 529.243 571.743 524.947 571.743 520.337C571.743 519.081 571.639 517.852 571.434 516.65C571.398 516.439 571.361 516.232 571.317 516.025C570.124 510.048 566.499 504.883 561.464 501.506C561.283 501.38 561.102 501.261 560.922 501.146C560.893 501.127 560.865 501.112 560.837 501.096C559.395 500.185 557.848 499.423 556.212 498.826C556.007 498.749 555.798 498.676 555.589 498.607C553.11 497.773 550.45 497.313 547.677 497.302H547.565C547.38 497.302 547.195 497.306 547.014 497.309C544.631 497.359 542.333 497.738 540.167 498.408C539.934 498.477 539.709 498.55 539.48 498.627C539.271 498.696 539.066 498.768 538.861 498.849C538.089 499.132 537.334 499.454 536.602 499.81C535.337 500.426 534.135 501.142 533.01 501.958C532.833 502.08 532.66 502.211 532.488 502.345C529.896 504.316 527.742 506.786 526.179 509.597C526.074 509.784 525.974 509.972 525.877 510.159C525.166 511.53 524.591 512.978 524.178 514.486C524.121 514.689 524.065 514.892 524.017 515.099C523.603 516.78 523.386 518.533 523.386 520.337C523.386 521.313 523.45 522.278 523.575 523.22C523.603 523.431 523.631 523.637 523.663 523.844Z" fill="#B84C42"/>
<path d="M473.3 456.144C473.3 456.144 467.248 465.284 474.726 470.308C482.201 475.335 507.372 477.736 506.138 478.712C502.365 481.695 498.933 486.282 499.114 513.739L500.979 514.658C500.979 514.658 518.929 477.452 517.723 473.018C516.927 470.085 490.748 454.199 473.3 456.144Z" fill="#FFB27D"/>
<path d="M487.809 475.159C487.809 475.159 472.559 472.75 470.984 467.62C469.811 463.787 469.461 462.225 476.373 449.842C476.373 449.842 479.262 455.072 494.335 453.858C494.335 453.858 494.258 454.536 494.258 455.455C494.279 456.979 494.528 459.142 495.781 459.766C495.801 459.786 495.838 459.786 495.858 459.805C497.843 460.666 500.913 462.405 501.375 462.573C501.395 462.573 492.121 464.262 487.809 475.159Z" fill="#35488B"/>
<path d="M495.783 459.766C489.064 457.879 482.498 458.074 478.633 454.632C484.331 453.238 491.182 455.455 494.264 455.455C494.28 456.979 494.529 459.146 495.783 459.766Z" fill="#2C3A64"/>
<path d="M496.586 515.076L498.157 515.796C498.724 515.956 499.186 515.991 499.761 516.171C500.633 516.443 500.85 516.937 500.886 517.044C500.89 517.059 500.894 517.067 500.894 517.067L507.568 520.122C507.85 519.969 507.958 519.368 507.994 518.905C508.022 518.591 507.89 518.285 507.645 518.074C507.034 517.553 505.728 516.741 505.005 515.053C504.599 514.103 502.678 511.186 502.678 511.186L502.666 511.174C502.606 511.147 502.276 511.101 500.516 511.534C499.608 511.756 499.134 509.999 499.134 509.999C499.134 509.999 498.844 510.068 498.535 510.301C498.29 510.485 498.033 510.772 497.9 511.212C497.711 511.833 496.851 512.748 496.232 513.353C495.855 513.717 495.57 513.969 495.57 513.969C495.57 513.969 495.312 514.295 496.586 515.076Z" fill="#B84C42"/>
<path d="M498.535 510.305C498.784 510.73 499.326 511.588 499.817 511.894C500.48 512.308 502.678 511.189 502.678 511.189L502.666 511.178C502.605 511.151 502.276 511.105 500.516 511.538C499.608 511.76 499.133 510.002 499.133 510.002C499.133 510.002 498.844 510.071 498.535 510.305Z" fill="#AA3E39"/>
<path d="M496.586 515.076L498.157 515.796C498.724 515.956 499.186 515.991 499.76 516.171C500.632 516.443 500.849 516.937 500.886 517.044C500.89 517.059 500.894 517.067 500.894 517.067L507.568 520.122C507.849 519.969 507.958 519.368 507.994 518.905C507.878 518.641 507.359 519.533 507.174 519.628C506.99 519.724 501.701 517.189 501.5 516.833C501.3 516.477 500.564 515.681 499.13 515.386C497.88 515.129 496.558 513.717 496.236 513.357C495.859 513.72 495.573 513.973 495.573 513.973C495.573 513.973 495.312 514.295 496.586 515.076Z" fill="#AA3E39"/>
<path d="M534.525 484.873C534.099 483.854 533.102 483.219 532.026 483.154C519.677 456.125 519.544 455.911 519.36 455.62L517.575 458.989C517.479 458.844 545.503 518.874 545.503 518.874L548.26 517.802L534.525 484.873Z" fill="#35488B"/>
<path d="M505.081 459.648C504.494 457.768 505.619 455.792 507.592 455.233C509.565 454.674 511.639 455.746 512.225 457.626C512.812 459.506 511.687 461.482 509.714 462.041C507.741 462.596 505.667 461.528 505.081 459.648Z" fill="#415DA5"/>
<path d="M528.151 453.433C527.564 451.553 528.689 449.578 530.663 449.019C532.636 448.46 534.709 449.532 535.296 451.412C535.882 453.292 534.757 455.267 532.784 455.826C530.811 456.385 528.738 455.313 528.151 453.433Z" fill="#415DA5"/>
<path d="M530.939 455.819L509.244 461.007L508.866 456.833L530.562 451.645L530.939 455.819Z" fill="#415DA5"/>
<path d="M509.735 451.699C509.735 451.699 511.776 452.974 513.223 452.916C514.665 452.859 516.502 453.433 516.502 453.433C516.502 453.433 518.427 453.977 518.607 456.156C518.607 456.156 518.599 456.788 515.57 455.899C514.907 455.704 513.311 456.072 512.773 455.899C512.23 455.727 510.587 454.035 509.152 454.077L509.735 451.699Z" fill="#FFB27D"/>
<path d="M520.661 449.233C520.661 449.233 522.702 450.508 524.149 450.451C525.591 450.393 527.428 450.967 527.428 450.967C527.428 450.967 529.352 451.511 529.533 453.69C529.533 453.69 529.493 454.586 526.495 453.433C525.672 453.116 524.237 453.606 523.699 453.433C523.16 453.261 521.171 451.81 519.797 451.45L520.661 449.233Z" fill="#E8945B"/>
<path d="M494.922 396.968C491.94 397.481 490.558 399.016 488.665 403.393C486.692 407.961 489.083 412.165 490.984 411.617C492.205 411.265 492.631 413.256 492.631 413.256L504.236 403.596C504.236 403.596 502.545 396.5 494.922 396.968Z" fill="#2C3A64"/>
<path d="M501.718 423.311C501.718 423.311 497.675 425.478 498.149 430.969C498.623 436.46 503.912 445.113 507.934 447.261C511.117 448.961 520.327 451.618 520.327 451.618L520.656 449.237C520.656 449.237 513.162 444.573 511.543 442.98C508.067 439.565 504.756 421.982 501.718 423.311Z" fill="#E8945B"/>
<path d="M501.316 435.655C501.131 436.892 500.79 437.957 500.368 438.971C500.014 439.818 499.608 440.629 499.191 441.472C497.961 443.949 495.072 445.167 494.971 449.926C494.939 451.565 480.401 444.638 480.316 438.906C480.316 438.891 480.312 438.876 480.312 438.86C480.288 438.581 480.248 437.838 480.204 436.854C480.095 434.449 479.951 430.609 479.902 428.668C479.902 428.622 479.902 428.576 479.898 428.534C479.878 427.703 479.85 427.098 479.818 426.941C481.763 419.053 486.239 419.019 487.77 419.042C487.971 419.045 488.176 419.053 488.381 419.061C489.221 419.099 490.017 418.716 490.499 418.061C491.355 416.905 492.315 414.91 492.902 412.188L493.251 412.329L499.118 414.707C499.118 414.707 498.576 416.514 498.19 418.245C498.025 418.984 497.893 419.708 497.84 420.271C497.792 420.811 498.122 421.316 498.652 421.511C498.652 421.511 498.652 421.511 498.652 421.515C498.757 421.741 502.257 429.38 501.316 435.655Z" fill="#FFB27D"/>
<path d="M500.367 438.971C500.014 439.818 499.608 440.629 499.19 441.472C497.96 443.949 495.071 445.167 494.971 449.926C494.882 449.934 494.794 449.941 494.701 449.949C483.968 450.749 480.311 438.86 480.311 438.86C480.287 438.581 480.247 437.838 480.203 436.854L499.572 436.885C499.568 436.885 499.969 437.719 500.367 438.971Z" fill="#E8945B"/>
<path d="M503.092 433.339C503.04 433.492 502.976 433.645 502.912 433.798C501.051 438.026 496.94 459.77 496.94 459.77C496.888 459.744 480.147 460.816 473.509 452.093C473.183 453.016 474.755 447.698 477.202 440.553C479.038 435.192 479.975 431.409 479.902 428.671C479.902 428.626 479.902 428.58 479.898 428.537C480.324 428.212 480.742 427.91 481.124 427.622C482.358 426.696 483.274 425.911 483.294 424.946C483.302 424.567 483.274 424.176 483.217 423.786C483.189 423.602 483.161 423.418 483.121 423.238C482.731 421.316 481.819 419.597 481.819 419.597C483.929 418.693 487.762 419.049 487.762 419.049C487.762 419.049 489.201 422.112 492.259 423.939C493.115 424.448 496.177 425.731 497.684 424.398C498.68 423.518 498.708 421.71 498.648 421.523C498.648 421.519 498.648 421.519 498.648 421.519C502.12 422.675 503.386 423.705 503.386 423.705C501.377 425.049 504.531 429.253 503.092 433.339Z" fill="#739AF0"/>
<path d="M499.113 414.707C499.113 414.707 498.571 416.514 498.185 418.245C494.778 417.468 493.624 414.129 493.242 412.333L499.113 414.707Z" fill="#E8945B"/>
<path d="M499.897 416.576C499.897 416.576 491.764 415.086 492.817 410.273C493.87 405.46 493.528 402.03 498.764 402.776C504 403.523 504.607 405.56 504.663 407.248C504.723 408.933 502.043 416.84 499.897 416.576Z" fill="#FFB27D"/>
<path d="M505.012 404.526C504.076 402.83 503.059 402.956 502.432 403.285C498.51 400.081 494.902 402.941 494.902 402.941C493.6 406.283 490.554 407.742 490.554 407.742C490.554 407.742 491.84 408.906 495.428 408.753C496.525 408.707 497.61 408.186 498.587 407.49C496.726 409.416 494.5 410.629 494.5 410.629C498.961 409.649 501.781 404.583 502.067 404.047C502.469 404.568 503.24 405.682 503.341 406.643C503.473 407.949 503.104 410.507 503.895 410.576C503.899 410.572 506.415 407.068 505.012 404.526Z" fill="#2C3A64"/>
<path d="M509.734 451.699L509.152 454.077C509.152 454.077 495.505 452.3 491.045 449.826C486.584 447.353 479.83 432.811 479.299 426.661C479.271 426.336 479.251 426.022 479.247 425.727C479.086 420.416 481.827 419.593 481.827 419.593C482.924 419.114 484.29 420.906 485.737 423.713C488.77 429.594 492.158 439.917 494.171 442.973C495.714 445.316 509.734 451.699 509.734 451.699Z" fill="#FFB27D"/>
<path d="M485.729 423.709C481.987 422.867 479.239 425.727 479.239 425.727C479.078 420.416 481.819 419.593 481.819 419.593C482.92 419.111 484.286 420.906 485.729 423.709Z" fill="#739AF0"/>
<path d="M503.385 423.701C503.385 423.701 504.755 424.911 505.277 427.664C505.277 427.664 503.252 427.676 502.312 429.56C502.312 429.56 501.564 424 503.385 423.701Z" fill="#739AF0"/>
<path d="M495.486 398.691C495.486 398.691 490.989 393.384 485.319 394.873C479.649 396.363 476.423 402.604 473.786 401.578C469.362 399.855 468.137 405.51 469.901 409.626C471.444 413.222 478.11 414.589 482.145 410.652C485.086 407.784 489.129 395.524 494.111 399.621C499.102 403.718 495.486 398.691 495.486 398.691Z" fill="#2C3A64"/>
</g>
<defs>
<clipPath id="clip0_107_1548">
<rect width="762" height="550" fill="white" transform="matrix(-1 0 0 1 762 0)"/>
</clipPath>
</defs>
</svg>
