<svg width="901" height="356" viewBox="0 0 901 356" fill="none" xmlns="http://www.w3.org/2000/svg">
<g clip-path="url(#clip0_55_4423)">
<path d="M729.28 355.606C729.255 355.74 729.231 355.868 729.202 355.997L717.583 355.96L537.458 355.41L418.598 355.049L414.981 355.035L406.615 355.011L297.878 354.679L125.046 354.151L93.2148 354.055L84.7565 354.028L81.7984 354.02L81.3261 354.017L80.3545 354.014L47.3388 353.913C47.3361 353.913 47.3361 353.913 47.3361 353.913L38.1355 353.889C38.1355 353.889 38.1355 353.889 38.1328 353.889L37.1315 353.886L31.7553 353.867C31.7553 353.867 31.7553 353.867 31.7526 353.867L28.0686 353.854L26.4439 353.848C26.4439 353.848 26.3737 353.733 26.2387 353.508C26.1929 353.43 26.1389 353.337 26.0741 353.229C25.985 353.074 25.8798 352.892 25.7583 352.683C25.7179 352.611 25.6747 352.533 25.6261 352.452C25.4669 352.168 25.2833 351.847 25.0809 351.477C24.8326 351.03 24.5573 350.521 24.2523 349.953V349.95C23.1134 347.831 21.6047 344.894 19.8882 341.245C19.3241 340.048 18.7412 338.773 18.1393 337.422C17.8991 336.884 17.6589 336.337 17.416 335.777V335.775C17.1785 335.233 16.941 334.681 16.7035 334.116C16.6954 334.097 16.6873 334.079 16.6792 334.06C16.5146 333.671 16.3499 333.28 16.1853 332.881C16.0126 332.474 15.8399 332.059 15.6671 331.641C14.7819 329.481 13.875 327.188 12.9736 324.768C12.9493 324.707 12.9277 324.64 12.9034 324.578C12.9034 324.578 12.9034 324.578 12.9034 324.576C12.3124 322.992 11.7267 321.358 11.1438 319.675C10.8226 318.748 10.5068 317.811 10.191 316.857C10.1721 316.801 10.1506 316.742 10.1344 316.68C9.99402 316.257 9.85638 315.833 9.71873 315.405C9.60268 315.043 9.48663 314.684 9.37327 314.32C9.13577 313.572 8.89826 312.817 8.66346 312.053C8.36388 311.072 8.0643 310.076 7.77282 309.068C7.37878 307.699 6.99014 306.309 6.61229 304.894C6.49894 304.471 6.38558 304.045 6.27493 303.619C5.94296 302.341 5.61639 301.044 5.30062 299.734C5.19806 299.313 5.0982 298.893 5.00104 298.47C4.93897 298.207 4.87689 297.947 4.81752 297.684C4.33981 295.611 3.88639 293.497 3.46536 291.346C2.99845 288.977 2.56933 286.561 2.18608 284.104C1.82983 281.837 1.50866 279.533 1.23337 277.197C0.968874 274.992 0.744865 272.763 0.564038 270.504C0.132213 265.223 -0.0648072 259.803 0.0188589 254.282C0.167299 244.669 1.17939 234.748 3.3628 224.706C3.44107 224.339 3.52204 223.977 3.60571 223.61C4.14549 221.22 4.75004 218.828 5.42747 216.43C5.94026 214.603 6.49624 212.77 7.09539 210.94C7.52992 209.614 7.98603 208.285 8.46644 206.956C9.5514 203.948 10.7551 200.942 12.0884 197.936C12.4554 197.105 12.8306 196.272 13.2219 195.441C20.455 179.947 31.1211 164.598 46.297 150.077C46.5804 149.807 46.8665 149.536 47.1472 149.265C54.6798 142.123 62.1207 135.907 69.4617 130.511C69.7316 130.313 70.0015 130.117 70.2714 129.919C150.866 71.2608 218.989 111.066 255.141 108.861C262.255 108.429 268.501 105.624 274.641 101.182C285.893 93.0399 296.777 79.3948 311.967 64.7477C334.737 42.7917 367.165 18.5826 424.956 7.27103C496.469 -6.72773 594.712 -2.80272 637.215 39.2713C662.924 64.7236 668.239 104.132 634.899 161.981C632.872 165.496 630.702 169.083 628.384 172.74C626.438 175.811 624.74 178.742 623.28 181.539C619.612 188.569 617.442 194.766 616.525 200.291C614.325 213.563 619.378 222.962 628.432 230.689C630.886 232.781 633.625 234.75 636.597 236.645C636.786 236.765 636.977 236.886 637.166 237.006C647.746 243.643 661.116 249.341 674.446 256.023C681.803 259.715 689.152 263.702 696.013 268.315C702.383 272.602 708.331 277.422 713.48 283.037C716.843 286.703 719.863 290.713 722.433 295.131C722.581 295.38 722.721 295.63 722.862 295.876C726.179 301.754 728.713 308.356 730.211 315.841C730.286 316.222 730.362 316.602 730.429 316.988C732.429 327.855 732.289 340.568 729.28 355.606Z" fill="#EBF3FA"/>
<path d="M634.893 161.984L118.344 250.628L135.76 218.169L637.209 39.2769C662.919 64.7265 668.23 104.137 634.893 161.984Z" fill="#F8FBFF"/>
<path d="M484 32.6191L274.638 101.188C285.89 93.0455 296.775 79.4004 311.964 64.7533L484 32.6191Z" fill="#F8FBFF"/>
<path d="M477.537 55.4967C472.452 55.4967 468.331 59.5878 468.331 64.6354C468.331 69.683 472.452 73.7741 477.537 73.7741C482.621 73.7741 486.742 69.683 486.742 64.6354C486.742 59.5878 482.621 55.4967 477.537 55.4967Z" fill="#F8FBFF"/>
<path d="M361.403 89.4312H313.6V320.192H361.403V89.4312Z" fill="#C4D9ED"/>
<path d="M372.139 89.4313H324.336V320.193H372.139V89.4313Z" fill="#D5E7F7"/>
<path d="M324.35 102.704H372.139V89.3694H324.35V102.704Z" fill="#C4D9ED"/>
<path d="M324.35 131.624H372.139V118.289H324.35V131.624Z" fill="#C4D9ED"/>
<path d="M324.35 160.546H372.139V147.212H324.35V160.546Z" fill="#C4D9ED"/>
<path d="M372.139 176.133H324.35V189.467H372.139V176.133Z" fill="#C4D9ED"/>
<path d="M372.139 205.052H324.35V218.386H372.139V205.052Z" fill="#C4D9ED"/>
<path d="M372.139 233.974H324.35V247.308H372.139V233.974Z" fill="#C4D9ED"/>
<path d="M372.139 262.895H324.35V276.23H372.139V262.895Z" fill="#C4D9ED"/>
<path d="M324.35 305.151H372.139V291.817H324.35V305.151Z" fill="#C4D9ED"/>
<path d="M437.82 122.082H390.017V320.19H437.82V122.082Z" fill="#C4D9ED"/>
<path d="M448.556 122.083H400.753V320.19H448.556V122.083Z" fill="#D5E7F7"/>
<path d="M448.556 122.032H400.767V133.48H448.556V122.032Z" fill="#C4D9ED"/>
<path d="M448.556 146.86H400.767V158.308H448.556V146.86Z" fill="#C4D9ED"/>
<path d="M448.556 171.688H400.767V183.136H448.556V171.688Z" fill="#C4D9ED"/>
<path d="M448.556 196.516H400.767V207.964H448.556V196.516Z" fill="#C4D9ED"/>
<path d="M448.556 221.344H400.767V232.792H448.556V221.344Z" fill="#C4D9ED"/>
<path d="M448.556 246.175H400.767V257.623H448.556V246.175Z" fill="#C4D9ED"/>
<path d="M448.556 271.003H400.767V282.451H448.556V271.003Z" fill="#C4D9ED"/>
<path d="M400.766 307.278H448.556V295.83H400.766V307.278Z" fill="#C4D9ED"/>
<path d="M287.73 342.089H307.748V313.113H287.73V342.089Z" fill="#DCEAF9"/>
<path d="M293.841 273.583V354.033H81.8009L80.357 354.02L26.2412 353.516C26.1953 353.439 26.1413 353.345 26.0765 353.238C25.9875 353.082 25.8822 352.9 25.7608 352.691C25.7203 352.619 25.6771 352.541 25.6285 352.461C25.4693 352.177 25.2858 351.855 25.0834 351.486C24.8351 351.038 24.5598 350.529 24.2548 349.961V349.958C23.1158 347.839 21.6072 344.903 19.8907 341.254C19.3266 340.056 18.7436 338.781 18.1418 337.43C17.9016 336.892 17.6614 336.345 17.4185 335.786V335.783C17.181 335.242 16.9434 334.69 16.7059 334.124C16.6978 334.106 16.6898 334.087 16.6817 334.068C16.517 333.68 16.3524 333.288 16.1878 332.889C16.015 332.482 15.8423 332.067 15.6696 331.649C14.7843 329.489 13.8775 327.196 12.9761 324.777C12.9518 324.715 12.9302 324.648 12.9059 324.586C12.9059 324.586 12.9059 324.586 12.9059 324.584C12.3148 323 11.7292 321.366 11.1462 319.684C10.825 318.757 10.5093 317.819 10.1935 316.865C10.1746 316.809 10.153 316.75 10.1368 316.688C9.99646 316.265 9.85882 315.842 9.72117 315.413C9.60512 315.051 9.48907 314.692 9.37571 314.328C9.13821 313.58 8.9007 312.825 8.6659 312.061C8.36632 311.081 8.06674 310.084 7.77526 309.077C7.38122 307.708 6.99258 306.317 6.61473 304.902C6.50138 304.479 6.38802 304.053 6.27737 303.627C5.9454 302.349 5.61883 301.052 5.30306 299.742C5.2005 299.322 5.10064 298.901 5.00348 298.478C4.94141 298.215 4.87933 297.955 4.81996 297.693C4.34225 295.619 3.88883 293.505 3.4678 291.354C3.00089 288.985 2.57177 286.569 2.18852 284.112C1.83227 281.845 1.5111 279.541 1.23581 277.205C0.971316 275 0.747306 272.771 0.56648 270.512C0.134654 265.232 -0.0623658 259.812 0.0213003 254.29C0.16974 244.677 1.18183 234.756 3.36525 224.714C3.44351 224.347 3.52448 223.986 3.60815 223.619C4.14793 221.229 4.75248 218.836 5.42991 216.438C5.9427 214.611 6.49868 212.779 7.09783 210.949C7.53236 209.622 7.98847 208.294 8.46888 206.965C9.55384 203.956 10.7576 200.95 12.0908 197.944L13.2244 195.45C20.4574 179.956 31.1235 164.607 46.2995 150.086C46.5828 149.815 46.8689 149.544 47.1496 149.274H48.0376V180.047H75.4719V129.9H105.746V162.453H112.649V123.588H142.923V196.452H181.21V238.938H195.514V249.642H228.373V231.209H247.238V181.127H270.544V273.583H293.841Z" fill="#D5E7F7"/>
<path d="M112.642 135.931H142.932V128.507H112.642V135.931Z" fill="#C4D9ED"/>
<path d="M112.642 149.877H142.932V142.453H112.642V149.877Z" fill="#C4D9ED"/>
<path d="M112.642 162.425H142.932V155.001H112.642V162.425Z" fill="#C4D9ED"/>
<path d="M75.4763 162.425H105.766V155.001H75.4763V162.425Z" fill="#C4D9ED"/>
<path d="M75.4763 149.877H105.766V142.453H75.4763V149.877Z" fill="#C4D9ED"/>
<path d="M75.4763 137.351H105.766V129.927H75.4763V137.351Z" fill="#C4D9ED"/>
<path d="M75.4685 174.591H142.933V167.167H75.4685V174.591Z" fill="#C4D9ED"/>
<path d="M75.4685 186.757H142.933V179.333H75.4685V186.757Z" fill="#C4D9ED"/>
<path d="M247.016 192.592H270.526V181.133H247.016V192.592Z" fill="#C4D9ED"/>
<path d="M247.016 209.634H270.526V198.175H247.016V209.634Z" fill="#C4D9ED"/>
<path d="M247.016 226.676H270.526V215.217H247.016V226.676Z" fill="#C4D9ED"/>
<path d="M247.016 244.54H270.526V233.081H247.016V244.54Z" fill="#C4D9ED"/>
<path d="M247.016 261.85H270.526V250.392H247.016V261.85Z" fill="#C4D9ED"/>
<path d="M247.016 279.162H270.526V267.703H247.016V279.162Z" fill="#C4D9ED"/>
<path d="M247.016 297.271H270.526V285.813H247.016V297.271Z" fill="#C4D9ED"/>
<path d="M75.4685 195.936H142.933V191.223H75.4685V195.936Z" fill="#C4D9ED"/>
<path d="M247.344 181.132H238.675V231.211H247.344V181.132Z" fill="#C4D9ED"/>
<path d="M228.366 231.211H210.931V249.642H228.366V231.211Z" fill="#C4D9ED"/>
<path d="M75.4748 129.925V137.349L75.4695 167.165L75.4668 174.589V180.042H69.459V130.517C69.7289 130.318 69.9988 130.123 70.2687 129.925H75.4748Z" fill="#C4D9ED"/>
<path d="M112.645 123.588H108.95V162.426H112.645V123.588Z" fill="#C4D9ED"/>
<g opacity="0.8">
<path d="M169.816 210.943H174.946V203.763H169.816V210.943Z" fill="#C4D9ED"/>
<path d="M160.219 210.943H165.35V203.763H160.219V210.943Z" fill="#C4D9ED"/>
<path d="M150.837 210.943H155.967V203.763H150.837V210.943Z" fill="#C4D9ED"/>
<path d="M141.938 210.943H147.072V203.763H141.938V210.943Z" fill="#C4D9ED"/>
<path d="M132.874 210.943H138.007V203.763H132.874V210.943Z" fill="#C4D9ED"/>
<path d="M123.702 210.943H128.835V203.763H123.702V210.943Z" fill="#C4D9ED"/>
<path d="M114.108 210.943H119.239V203.763H114.108V210.943Z" fill="#C4D9ED"/>
<path d="M104.723 210.943H109.856V203.763H104.723V210.943Z" fill="#C4D9ED"/>
<path d="M95.8293 210.943H100.96V203.763H95.8293V210.943Z" fill="#C4D9ED"/>
<path d="M86.7654 210.943H91.896V203.763H86.7654V210.943Z" fill="#C4D9ED"/>
<path d="M77.3157 210.943H82.4463V203.763H77.3157V210.943Z" fill="#C4D9ED"/>
<path d="M67.7195 210.943H72.8501V203.763H67.7195V210.943Z" fill="#C4D9ED"/>
<path d="M58.334 210.943H63.4673V203.763H58.334V210.943Z" fill="#C4D9ED"/>
<path d="M49.4416 210.943H54.5723V203.763H49.4416V210.943Z" fill="#C4D9ED"/>
<path d="M40.374 210.943H45.5073V203.763H40.374V210.943Z" fill="#C4D9ED"/>
<path d="M31.2043 210.943H36.335V203.763H31.2043V210.943Z" fill="#C4D9ED"/>
<path d="M21.6081 210.943H26.7388V203.763H21.6081V210.943Z" fill="#C4D9ED"/>
<path d="M12.2253 210.943H17.356V203.763H12.2253V210.943Z" fill="#C4D9ED"/>
<path d="M8.46382 206.959V210.943H7.09277C7.5273 209.617 7.98341 208.288 8.46382 206.959Z" fill="#C4D9ED"/>
<path d="M169.816 223.614H174.946V216.433H169.816V223.614Z" fill="#C4D9ED"/>
<path d="M160.219 223.614H165.35V216.433H160.219V223.614Z" fill="#C4D9ED"/>
<path d="M150.837 223.614H155.967V216.433H150.837V223.614Z" fill="#C4D9ED"/>
<path d="M141.938 223.614H147.072V216.433H141.938V223.614Z" fill="#C4D9ED"/>
<path d="M132.874 223.614H138.007V216.433H132.874V223.614Z" fill="#C4D9ED"/>
<path d="M123.702 223.614H128.835V216.433H123.702V223.614Z" fill="#C4D9ED"/>
<path d="M114.108 223.614H119.239V216.433H114.108V223.614Z" fill="#C4D9ED"/>
<path d="M104.723 223.614H109.856V216.433H104.723V223.614Z" fill="#C4D9ED"/>
<path d="M95.8293 223.614H100.96V216.433H95.8293V223.614Z" fill="#C4D9ED"/>
<path d="M86.7654 223.614H91.896V216.433H86.7654V223.614Z" fill="#C4D9ED"/>
<path d="M77.3157 223.614H82.4463V216.433H77.3157V223.614Z" fill="#C4D9ED"/>
<path d="M67.7195 223.614H72.8501V216.433H67.7195V223.614Z" fill="#C4D9ED"/>
<path d="M58.334 223.614H63.4673V216.433H58.334V223.614Z" fill="#C4D9ED"/>
<path d="M49.4416 223.614H54.5723V216.433H49.4416V223.614Z" fill="#C4D9ED"/>
<path d="M40.374 223.614H45.5073V216.433H40.374V223.614Z" fill="#C4D9ED"/>
<path d="M31.2048 223.614H36.3354V216.433H31.2048V223.614Z" fill="#C4D9ED"/>
<path d="M21.6081 223.614H26.7388V216.433H21.6081V223.614Z" fill="#C4D9ED"/>
<path d="M12.2253 223.614H17.356V216.433H12.2253V223.614Z" fill="#C4D9ED"/>
<path d="M8.46399 216.433V223.613H3.60596C4.14574 221.223 4.75029 218.831 5.42772 216.433H8.46399Z" fill="#C4D9ED"/>
<path d="M169.816 236.091H174.946V228.911H169.816V236.091Z" fill="#C4D9ED"/>
<path d="M160.219 236.091H165.35V228.911H160.219V236.091Z" fill="#C4D9ED"/>
<path d="M150.837 236.091H155.967V228.911H150.837V236.091Z" fill="#C4D9ED"/>
<path d="M141.938 236.091H147.072V228.911H141.938V236.091Z" fill="#C4D9ED"/>
<path d="M132.874 236.091H138.007V228.911H132.874V236.091Z" fill="#C4D9ED"/>
<path d="M123.702 236.091H128.835V228.911H123.702V236.091Z" fill="#C4D9ED"/>
<path d="M114.108 236.091H119.239V228.911H114.108V236.091Z" fill="#C4D9ED"/>
<path d="M104.723 236.091H109.856V228.911H104.723V236.091Z" fill="#C4D9ED"/>
<path d="M95.8293 236.091H100.96V228.911H95.8293V236.091Z" fill="#C4D9ED"/>
<path d="M86.7654 236.091H91.896V228.911H86.7654V236.091Z" fill="#C4D9ED"/>
<path d="M77.3157 236.091H82.4463V228.911H77.3157V236.091Z" fill="#C4D9ED"/>
<path d="M67.7195 236.091H72.8501V228.911H67.7195V236.091Z" fill="#C4D9ED"/>
<path d="M58.334 236.091H63.4673V228.911H58.334V236.091Z" fill="#C4D9ED"/>
<path d="M49.4416 236.091H54.5723V228.911H49.4416V236.091Z" fill="#C4D9ED"/>
<path d="M40.374 236.091H45.5073V228.911H40.374V236.091Z" fill="#C4D9ED"/>
<path d="M31.2043 236.091H36.335V228.911H31.2043V236.091Z" fill="#C4D9ED"/>
<path d="M21.6081 236.091H26.7388V228.911H21.6081V236.091Z" fill="#C4D9ED"/>
<path d="M12.2253 236.091H17.356V228.911H12.2253V236.091Z" fill="#C4D9ED"/>
<path d="M3.32713 236.091H8.46045V228.911H3.32713L3.32713 236.091Z" fill="#C4D9ED"/>
<path d="M169.816 249.348H174.946V242.167H169.816V249.348Z" fill="#C4D9ED"/>
<path d="M160.219 249.348H165.35V242.167H160.219V249.348Z" fill="#C4D9ED"/>
<path d="M150.837 249.348H155.967V242.167H150.837V249.348Z" fill="#C4D9ED"/>
<path d="M141.938 249.348H147.072V242.167H141.938V249.348Z" fill="#C4D9ED"/>
<path d="M132.874 249.348H138.007V242.167H132.874V249.348Z" fill="#C4D9ED"/>
<path d="M123.702 249.348H128.835V242.167H123.702V249.348Z" fill="#C4D9ED"/>
<path d="M114.108 249.348H119.239V242.167H114.108V249.348Z" fill="#C4D9ED"/>
<path d="M104.723 249.348H109.856V242.167H104.723V249.348Z" fill="#C4D9ED"/>
<path d="M95.8293 249.348H100.96V242.167H95.8293V249.348Z" fill="#C4D9ED"/>
<path d="M86.7654 249.348H91.896V242.167H86.7654V249.348Z" fill="#C4D9ED"/>
<path d="M77.3157 249.348H82.4463V242.167H77.3157V249.348Z" fill="#C4D9ED"/>
<path d="M67.7195 249.348H72.8501V242.167H67.7195V249.348Z" fill="#C4D9ED"/>
<path d="M58.334 249.348H63.4673V242.167H58.334V249.348Z" fill="#C4D9ED"/>
<path d="M49.4416 249.348H54.5723V242.167H49.4416V249.348Z" fill="#C4D9ED"/>
<path d="M40.374 249.348H45.5073V242.167H40.374V249.348Z" fill="#C4D9ED"/>
<path d="M31.2043 249.348H36.335V242.167H31.2043V249.348Z" fill="#C4D9ED"/>
<path d="M21.6081 249.348H26.7388V242.167H21.6081V249.348Z" fill="#C4D9ED"/>
<path d="M12.2253 249.348H17.356V242.167H12.2253V249.348Z" fill="#C4D9ED"/>
<path d="M3.32713 249.348H8.46045V242.167H3.32713L3.32713 249.348Z" fill="#C4D9ED"/>
<path d="M169.816 262.018H174.946V254.837H169.816V262.018Z" fill="#C4D9ED"/>
<path d="M160.219 262.018H165.35V254.837H160.219V262.018Z" fill="#C4D9ED"/>
<path d="M150.837 262.018H155.967V254.837H150.837V262.018Z" fill="#C4D9ED"/>
<path d="M141.938 262.018H147.072V254.837H141.938V262.018Z" fill="#C4D9ED"/>
<path d="M132.874 262.018H138.007V254.837H132.874V262.018Z" fill="#C4D9ED"/>
<path d="M123.702 262.018H128.835V254.837H123.702V262.018Z" fill="#C4D9ED"/>
<path d="M114.108 262.018H119.239V254.837H114.108V262.018Z" fill="#C4D9ED"/>
<path d="M104.723 262.018H109.856V254.837H104.723V262.018Z" fill="#C4D9ED"/>
<path d="M95.8293 262.018H100.96V254.837H95.8293V262.018Z" fill="#C4D9ED"/>
<path d="M86.7654 262.018H91.896V254.837H86.7654V262.018Z" fill="#C4D9ED"/>
<path d="M77.3157 262.018H82.4463V254.837H77.3157V262.018Z" fill="#C4D9ED"/>
<path d="M67.7195 262.018H72.8501V254.837H67.7195V262.018Z" fill="#C4D9ED"/>
<path d="M58.334 262.018H63.4673V254.837H58.334V262.018Z" fill="#C4D9ED"/>
<path d="M49.4416 262.018H54.5723V254.837H49.4416V262.018Z" fill="#C4D9ED"/>
<path d="M40.374 262.018H45.5073V254.837H40.374V262.018Z" fill="#C4D9ED"/>
<path d="M31.2043 262.018H36.335V254.837H31.2043V262.018Z" fill="#C4D9ED"/>
<path d="M21.6081 262.018H26.7388V254.837H21.6081V262.018Z" fill="#C4D9ED"/>
<path d="M12.2253 262.018H17.356V254.837H12.2253V262.018Z" fill="#C4D9ED"/>
<path d="M3.32713 262.018H8.46045V254.837H3.32713L3.32713 262.018Z" fill="#C4D9ED"/>
<path d="M169.816 274.495H174.946V267.315H169.816V274.495Z" fill="#C4D9ED"/>
<path d="M160.219 274.495H165.35V267.315H160.219V274.495Z" fill="#C4D9ED"/>
<path d="M150.837 274.495H155.967V267.315H150.837V274.495Z" fill="#C4D9ED"/>
<path d="M141.938 274.495H147.072V267.315H141.938V274.495Z" fill="#C4D9ED"/>
<path d="M132.874 274.495H138.007V267.315H132.874V274.495Z" fill="#C4D9ED"/>
<path d="M123.702 274.495H128.835V267.315H123.702V274.495Z" fill="#C4D9ED"/>
<path d="M114.108 274.495H119.239V267.315H114.108V274.495Z" fill="#C4D9ED"/>
<path d="M104.723 274.495H109.856V267.315H104.723V274.495Z" fill="#C4D9ED"/>
<path d="M95.8293 274.495H100.96V267.315H95.8293V274.495Z" fill="#C4D9ED"/>
<path d="M86.7654 274.495H91.896V267.315H86.7654V274.495Z" fill="#C4D9ED"/>
<path d="M77.3157 274.495H82.4463V267.315H77.3157V274.495Z" fill="#C4D9ED"/>
<path d="M67.7195 274.495H72.8501V267.315H67.7195V274.495Z" fill="#C4D9ED"/>
<path d="M58.334 274.495H63.4673V267.315H58.334V274.495Z" fill="#C4D9ED"/>
<path d="M49.4416 274.495H54.5723V267.315H49.4416V274.495Z" fill="#C4D9ED"/>
<path d="M40.374 274.495H45.5073V267.315H40.374V274.495Z" fill="#C4D9ED"/>
<path d="M31.2043 274.495H36.335V267.315H31.2043V274.495Z" fill="#C4D9ED"/>
<path d="M21.6081 274.495H26.7388V267.315H21.6081V274.495Z" fill="#C4D9ED"/>
<path d="M12.2253 274.495H17.356V267.315H12.2253V274.495Z" fill="#C4D9ED"/>
<path d="M3.32713 274.495H8.46045V267.315H3.32713L3.32713 274.495Z" fill="#C4D9ED"/>
</g>
<path d="M91.9827 353.512H210.932V289.812H91.9827L91.9827 353.512Z" fill="#C4D9ED"/>
<path d="M182.178 353.513H301.127V321.663H182.178V353.513Z" fill="#C4D9ED"/>
<path d="M82.4461 299.737V353.514H26.2413C26.1955 353.436 26.1415 353.342 26.0767 353.235C25.9876 353.08 25.8824 352.897 25.7609 352.689C25.7205 352.616 25.6773 352.538 25.6287 352.458C25.4695 352.174 25.2859 351.853 25.0835 351.483C24.8352 351.035 24.5599 350.526 24.255 349.958V349.956C23.116 347.836 21.6073 344.9 19.8908 341.251C19.3267 340.053 18.7438 338.778 18.1419 337.428C17.9017 336.889 17.6615 336.343 17.4186 335.783V335.78C17.1811 335.239 16.9436 334.687 16.7061 334.122C16.698 334.103 16.6899 334.084 16.6818 334.065C16.5172 333.677 16.3526 333.286 16.1879 332.887C16.0152 332.479 15.8425 332.064 15.6697 331.646C14.7845 329.487 13.8777 327.193 12.9762 324.774C12.9519 324.712 12.9303 324.645 12.906 324.584C12.906 324.584 12.906 324.584 12.906 324.581C12.315 322.998 11.7293 321.363 11.1464 319.681C10.8252 318.754 10.5094 317.816 10.1936 316.862C10.1748 316.806 10.1532 316.747 10.137 316.686C9.99662 316.262 9.85898 315.839 9.72133 315.41C9.60528 315.049 9.48923 314.69 9.37587 314.325C9.13837 313.578 8.90087 312.822 8.66606 312.059C8.36648 311.078 8.0669 310.081 7.77542 309.074C7.38138 307.705 6.99274 306.314 6.61489 304.9C6.50154 304.476 6.38818 304.05 6.27753 303.625C5.94556 302.347 5.61899 301.05 5.30322 299.74H82.4461V299.737Z" fill="#C4D9ED"/>
<path d="M180.825 309.07H202.985V297.271H180.825V309.07Z" fill="#D5E7F7"/>
<path d="M152.375 309.07H174.536V297.271H152.375V309.07Z" fill="#D5E7F7"/>
<path d="M124.471 309.07H146.631V297.271H124.471V309.07Z" fill="#D5E7F7"/>
<path d="M97.101 309.07H119.262V297.271H97.101V309.07Z" fill="#D5E7F7"/>
<path d="M81.8029 354.061H93.2192L93.2192 289.811H81.8029V354.061Z" fill="#ADC9E0"/>
<path d="M265.23 181.131H265.847V176.145H265.23V181.131Z" fill="#DCEAF9"/>
<path d="M243.017 181.131H243.634V176.145H243.017V181.131Z" fill="#DCEAF9"/>
<path d="M1.2334 277.2C1.51139 279.536 1.83256 281.84 2.18611 284.107C2.56936 286.563 3.00118 288.98 3.46539 291.348C3.88642 293.5 4.33984 295.614 4.81755 297.687C4.87692 297.95 4.939 298.21 5.00107 298.472C5.09823 298.896 5.19809 299.316 5.30065 299.737C5.61642 301.047 5.94299 302.341 6.27496 303.622C6.38561 304.048 6.49897 304.474 6.61232 304.897C6.99017 306.312 7.37611 307.702 7.77285 309.071C8.06433 310.079 8.36391 311.075 8.66349 312.056C8.89829 312.819 9.1358 313.575 9.3733 314.323C9.48666 314.687 9.60271 315.046 9.71876 315.408C9.8591 315.836 9.99675 316.26 10.1344 316.683C10.1533 316.745 10.1749 316.803 10.1911 316.86C10.5068 317.814 10.8226 318.754 11.1438 319.678C11.7267 321.363 12.3124 322.998 12.9035 324.578C12.9035 324.581 12.9035 324.581 12.9035 324.581C12.9278 324.643 12.9521 324.71 12.9736 324.771C13.8751 327.191 14.7819 329.484 15.6672 331.643C15.8399 332.061 16.0126 332.474 16.1853 332.884C16.3527 333.283 16.5173 333.677 16.6792 334.063C16.6873 334.082 16.6954 334.1 16.7035 334.119V277.197H1.2334V277.2Z" fill="#D5E7F7"/>
<path d="M16.7093 298.472V334.124C16.7012 334.106 16.6931 334.087 16.685 334.068C16.5204 333.68 16.3557 333.289 16.1911 332.889C16.0184 332.482 15.8456 332.067 15.6729 331.649C14.7877 329.489 13.8808 327.196 12.9794 324.777C12.9551 324.715 12.9335 324.648 12.9092 324.586C12.9092 324.586 12.9092 324.586 12.9092 324.584C12.3182 323 11.7325 321.366 11.1495 319.684C10.8284 318.757 10.5126 317.819 10.1968 316.865C10.1779 316.809 10.1564 316.75 10.1402 316.688C9.99981 316.265 9.86217 315.842 9.72452 315.413C9.60847 315.051 9.49242 314.692 9.37907 314.328C9.14156 313.58 8.90406 312.825 8.66925 312.061C8.36967 311.081 8.0701 310.084 7.77861 309.077C7.38457 307.708 6.99593 306.317 6.61808 304.902C6.50473 304.479 6.39138 304.053 6.28072 303.627C5.94875 302.349 5.62219 301.052 5.30641 299.742C5.20386 299.322 5.104 298.901 5.00684 298.478H16.7093V298.472Z" fill="#D5E7F7"/>
<path d="M16.7091 291.348V309.071H7.77572C7.38168 307.702 6.99303 306.312 6.61519 304.897C6.50183 304.474 6.38848 304.048 6.27782 303.622C5.94586 302.344 5.61929 301.047 5.30352 299.737C5.20096 299.316 5.1011 298.896 5.00394 298.472C4.94186 298.21 4.87979 297.95 4.82041 297.687C4.34271 295.614 3.88929 293.5 3.46826 291.348H16.7091Z" fill="#C4D9ED"/>
<path d="M11.1465 314.323V319.681C10.8253 318.754 10.5095 317.816 10.1937 316.862C10.1749 316.806 10.1533 316.747 10.1371 316.686C9.99673 316.262 9.85908 315.839 9.72144 315.41C9.60538 315.049 9.48933 314.69 9.37598 314.325H11.1465V314.323Z" fill="#C4D9ED"/>
<path d="M6.95277 302.382H10.4775V296.33H6.95277L6.95277 302.382Z" fill="#ADC9E0"/>
<path d="M278.611 352.997H360.282V298.472H278.611V352.997Z" fill="#D5E7F7"/>
<path d="M278.611 309.07H360.282V291.35H278.611V309.07Z" fill="#C4D9ED"/>
<path d="M350.525 320.191H354.719V314.321H350.525V320.191Z" fill="#C4D9ED"/>
<path d="M342.683 320.191H346.877V314.321H342.683V320.191Z" fill="#C4D9ED"/>
<path d="M335.014 320.191H339.208V314.321H335.014V320.191Z" fill="#C4D9ED"/>
<path d="M327.744 320.191H331.938V314.321H327.744V320.191Z" fill="#C4D9ED"/>
<path d="M320.332 320.191H324.526V314.321H320.332V320.191Z" fill="#C4D9ED"/>
<path d="M312.838 320.191H317.032V314.321H312.838V320.191Z" fill="#C4D9ED"/>
<path d="M304.995 320.191H309.189V314.321H304.995V320.191Z" fill="#C4D9ED"/>
<path d="M297.327 320.191H301.521V314.321H297.327V320.191Z" fill="#C4D9ED"/>
<path d="M290.056 320.191H294.25V314.321H290.056V320.191Z" fill="#C4D9ED"/>
<path d="M282.645 320.191H286.839V314.321H282.645V320.191Z" fill="#C4D9ED"/>
<path d="M350.525 330.549H354.719V324.679H350.525V330.549Z" fill="#C4D9ED"/>
<path d="M342.683 330.549H346.877V324.679H342.683V330.549Z" fill="#C4D9ED"/>
<path d="M335.014 330.549H339.208V324.679H335.014V330.549Z" fill="#C4D9ED"/>
<path d="M327.744 330.549H331.938V324.679H327.744V330.549Z" fill="#C4D9ED"/>
<path d="M320.332 330.549H324.526V324.679H320.332V330.549Z" fill="#C4D9ED"/>
<path d="M312.838 330.549H317.032V324.679H312.838V330.549Z" fill="#C4D9ED"/>
<path d="M304.995 330.549H309.189V324.679H304.995V330.549Z" fill="#C4D9ED"/>
<path d="M297.327 330.549H301.521V324.679H297.327V330.549Z" fill="#C4D9ED"/>
<path d="M290.056 330.549H294.25V324.679H290.056V330.549Z" fill="#C4D9ED"/>
<path d="M282.645 330.549H286.839V324.679H282.645V330.549Z" fill="#C4D9ED"/>
<path d="M350.525 340.745H354.719V334.875H350.525V340.745Z" fill="#C4D9ED"/>
<path d="M342.683 340.745H346.877V334.875H342.683V340.745Z" fill="#C4D9ED"/>
<path d="M335.014 340.745H339.208V334.875H335.014V340.745Z" fill="#C4D9ED"/>
<path d="M327.744 340.745H331.938V334.875H327.744V340.745Z" fill="#C4D9ED"/>
<path d="M320.332 340.745H324.526V334.875H320.332V340.745Z" fill="#C4D9ED"/>
<path d="M312.838 340.745H317.032V334.875H312.838V340.745Z" fill="#C4D9ED"/>
<path d="M304.995 340.745H309.189V334.875H304.995V340.745Z" fill="#C4D9ED"/>
<path d="M297.327 340.745H301.521V334.875H297.327V340.745Z" fill="#C4D9ED"/>
<path d="M290.056 340.745H294.25V334.875H290.056V340.745Z" fill="#C4D9ED"/>
<path d="M282.645 340.745H286.839V334.875H282.645V340.745Z" fill="#C4D9ED"/>
<path d="M350.525 302.382H354.049V296.33H350.525V302.382Z" fill="#ADC9E0"/>
<path d="M315.533 302.382H319.058V296.33H315.533V302.382Z" fill="#ADC9E0"/>
<path d="M287.696 302.382H291.221V296.33H287.696V302.382Z" fill="#ADC9E0"/>
<path d="M365.409 352.997H447.081V298.472H365.409V352.997Z" fill="#D5E7F7"/>
<path d="M365.409 309.07H447.081V291.35H365.409V309.07Z" fill="#C4D9ED"/>
<path d="M437.327 320.191H441.521V314.321H437.327V320.191Z" fill="#C4D9ED"/>
<path d="M429.482 320.191H433.676V314.321H429.482V320.191Z" fill="#C4D9ED"/>
<path d="M421.814 320.191H426.008V314.321H421.814V320.191Z" fill="#C4D9ED"/>
<path d="M414.543 320.191H418.737V314.321H414.543V320.191Z" fill="#C4D9ED"/>
<path d="M407.135 320.191H411.329V314.321H407.135V320.191Z" fill="#C4D9ED"/>
<path d="M399.639 320.191H403.833V314.321H399.639V320.191Z" fill="#C4D9ED"/>
<path d="M391.794 320.191H395.988V314.321H391.794V320.191Z" fill="#C4D9ED"/>
<path d="M384.126 320.191H388.32V314.321H384.126V320.191Z" fill="#C4D9ED"/>
<path d="M376.855 320.191H381.049V314.321H376.855V320.191Z" fill="#C4D9ED"/>
<path d="M369.447 320.191H373.641V314.321H369.447V320.191Z" fill="#C4D9ED"/>
<path d="M437.327 330.549H441.521V324.679H437.327V330.549Z" fill="#C4D9ED"/>
<path d="M429.482 330.549H433.676V324.679H429.482V330.549Z" fill="#C4D9ED"/>
<path d="M421.814 330.549H426.008V324.679H421.814V330.549Z" fill="#C4D9ED"/>
<path d="M414.543 330.549H418.737V324.679H414.543V330.549Z" fill="#C4D9ED"/>
<path d="M407.135 330.549H411.329V324.679H407.135V330.549Z" fill="#C4D9ED"/>
<path d="M399.639 330.549H403.833V324.679H399.639V330.549Z" fill="#C4D9ED"/>
<path d="M391.794 330.549H395.988V324.679H391.794V330.549Z" fill="#C4D9ED"/>
<path d="M384.126 330.549H388.32V324.679H384.126V330.549Z" fill="#C4D9ED"/>
<path d="M376.855 330.549H381.049V324.679H376.855V330.549Z" fill="#C4D9ED"/>
<path d="M369.447 330.549H373.641V324.679H369.447V330.549Z" fill="#C4D9ED"/>
<path d="M437.327 340.745H441.521V334.875H437.327V340.745Z" fill="#C4D9ED"/>
<path d="M429.482 340.745H433.676V334.875H429.482V340.745Z" fill="#C4D9ED"/>
<path d="M421.814 340.745H426.008V334.875H421.814V340.745Z" fill="#C4D9ED"/>
<path d="M414.543 340.745H418.737V334.875H414.543V340.745Z" fill="#C4D9ED"/>
<path d="M407.135 340.745H411.329V334.875H407.135V340.745Z" fill="#C4D9ED"/>
<path d="M399.639 340.745H403.833V334.875H399.639V340.745Z" fill="#C4D9ED"/>
<path d="M391.794 340.745H395.988V334.875H391.794V340.745Z" fill="#C4D9ED"/>
<path d="M384.126 340.745H388.32V334.875H384.126V340.745Z" fill="#C4D9ED"/>
<path d="M376.855 340.745H381.049V334.875H376.855V340.745Z" fill="#C4D9ED"/>
<path d="M369.447 340.745H373.641V334.875H369.447V340.745Z" fill="#C4D9ED"/>
<path d="M437.326 302.382H440.851V296.33H437.326V302.382Z" fill="#ADC9E0"/>
<path d="M402.332 302.382H405.856V296.33H402.332V302.382Z" fill="#ADC9E0"/>
<path d="M374.495 302.382H378.02V296.33H374.495V302.382Z" fill="#ADC9E0"/>
<path d="M452.403 352.996H534.074V298.472H452.403V352.996Z" fill="#D5E7F7"/>
<path d="M452.403 309.07H534.074V291.35H452.403V309.07Z" fill="#C4D9ED"/>
<path d="M524.318 320.191H528.512V314.32H524.318V320.191Z" fill="#C4D9ED"/>
<path d="M516.476 320.191H520.67V314.32H516.476V320.191Z" fill="#C4D9ED"/>
<path d="M508.807 320.191H513.001V314.32H508.807V320.191Z" fill="#C4D9ED"/>
<path d="M501.537 320.191H505.731V314.32H501.537V320.191Z" fill="#C4D9ED"/>
<path d="M494.125 320.191H498.319V314.32H494.125V320.191Z" fill="#C4D9ED"/>
<path d="M486.63 320.191H490.824V314.32H486.63V320.191Z" fill="#C4D9ED"/>
<path d="M478.788 320.191H482.982V314.32H478.788V320.191Z" fill="#C4D9ED"/>
<path d="M471.119 320.191H475.313V314.32H471.119V320.191Z" fill="#C4D9ED"/>
<path d="M463.849 320.191H468.043V314.32H463.849V320.191Z" fill="#C4D9ED"/>
<path d="M456.437 320.191H460.631V314.32H456.437V320.191Z" fill="#C4D9ED"/>
<path d="M524.318 330.549H528.512V324.679H524.318V330.549Z" fill="#C4D9ED"/>
<path d="M516.476 330.549H520.67V324.679H516.476V330.549Z" fill="#C4D9ED"/>
<path d="M508.807 330.549H513.001V324.679H508.807V330.549Z" fill="#C4D9ED"/>
<path d="M501.537 330.549H505.731V324.679H501.537V330.549Z" fill="#C4D9ED"/>
<path d="M494.125 330.549H498.319V324.679H494.125V330.549Z" fill="#C4D9ED"/>
<path d="M486.63 330.549H490.824V324.679H486.63V330.549Z" fill="#C4D9ED"/>
<path d="M478.788 330.549H482.982V324.679H478.788V330.549Z" fill="#C4D9ED"/>
<path d="M471.119 330.549H475.313V324.679H471.119V330.549Z" fill="#C4D9ED"/>
<path d="M463.849 330.549H468.043V324.679H463.849V330.549Z" fill="#C4D9ED"/>
<path d="M456.437 330.549H460.631V324.679H456.437V330.549Z" fill="#C4D9ED"/>
<path d="M524.318 340.745H528.512V334.875H524.318V340.745Z" fill="#C4D9ED"/>
<path d="M516.476 340.745H520.67V334.875H516.476V340.745Z" fill="#C4D9ED"/>
<path d="M508.807 340.745H513.001V334.875H508.807V340.745Z" fill="#C4D9ED"/>
<path d="M501.537 340.745H505.731V334.875H501.537V340.745Z" fill="#C4D9ED"/>
<path d="M494.125 340.745H498.319V334.875H494.125V340.745Z" fill="#C4D9ED"/>
<path d="M486.63 340.745H490.824V334.875H486.63V340.745Z" fill="#C4D9ED"/>
<path d="M478.788 340.745H482.982V334.875H478.788V340.745Z" fill="#C4D9ED"/>
<path d="M471.119 340.745H475.313V334.875H471.119V340.745Z" fill="#C4D9ED"/>
<path d="M463.849 340.745H468.043V334.875H463.849V340.745Z" fill="#C4D9ED"/>
<path d="M456.437 340.745H460.631V334.875H456.437V340.745Z" fill="#C4D9ED"/>
<path d="M524.317 302.382H527.842V296.33H524.317V302.382Z" fill="#ADC9E0"/>
<path d="M489.325 302.382H492.85V296.33H489.325V302.382Z" fill="#ADC9E0"/>
<path d="M461.489 302.382H465.014V296.33H461.489V302.382Z" fill="#ADC9E0"/>
<path d="M729.28 355.606L343.679 353.613C343.679 353.613 355.176 306.874 406.528 306.874C457.88 306.874 475.987 268.374 536.051 268.717C575.353 268.942 601.168 248.385 636.591 236.647C636.78 236.768 636.972 236.889 637.161 237.009C647.74 243.645 661.111 249.344 674.441 256.026C681.798 259.718 689.147 263.705 696.008 268.318C702.377 272.605 708.325 277.425 713.475 283.04C716.838 286.705 719.858 290.716 722.427 295.134C722.576 295.383 722.716 295.632 722.856 295.879C726.173 301.757 728.707 308.359 730.205 315.844C730.281 316.225 730.357 316.605 730.424 316.991C732.429 327.855 732.289 340.568 729.28 355.606Z" fill="#B9E0AD"/>
<path d="M231.245 354.1C231.245 354.1 317.748 331.108 470.622 338.382C623.496 345.656 729.104 321.192 729.104 321.192V355.962L231.245 354.1Z" fill="#ACD29A"/>
<path d="M730.205 315.842C728.705 308.356 726.173 301.757 722.856 295.879C717.801 292.442 711.229 289.427 706.236 292.241C696.855 297.521 722.589 299.879 726.397 307.86C727.782 310.764 728.516 313.32 728.891 315.397C727.523 314.995 725.288 314.51 723.199 314.815C721.002 315.14 717.296 317.83 715.043 319.614C716.093 317.851 717.056 315.643 717.296 313.229C717.882 307.381 715.575 300.782 711.888 305.141C709.216 308.3 710.417 316.64 711.281 320.991C709.853 321.546 708.417 322.151 706.984 322.807C701.494 303.608 688.599 273.087 663.486 272.042C663.486 272.042 653.575 275.79 664.554 288.115C673.895 298.601 688.82 302.802 702.968 324.79C702.094 325.254 701.224 325.741 700.358 326.25C693.573 319.801 680.877 309.562 670.255 311.413C658.911 313.39 683.541 323.298 697.079 328.305C694 330.365 691.033 332.731 688.289 335.456C688.289 335.456 683.865 341.313 664.32 338.384C644.774 335.456 627.812 355.609 627.812 355.609H729.28C732.394 340.04 732.437 326.96 730.205 315.842Z" fill="#82B378"/>
<path d="M81.3288 354.023L47.3414 353.918C47.3387 353.918 47.3387 353.918 47.3387 353.918L38.1381 353.894C38.1381 353.894 38.1381 353.894 38.1354 353.894L37.1341 353.891L31.7579 353.873C31.7579 353.873 31.7579 353.873 31.7552 353.873L28.0712 353.859L26.4465 353.854C26.4465 353.854 26.3169 353.645 26.0767 353.235C25.9877 353.08 25.8824 352.897 25.761 352.688C25.7205 352.616 25.6773 352.538 25.6287 352.458C25.4695 352.174 25.2859 351.853 25.0835 351.483C24.8352 351.035 24.5599 350.526 24.255 349.958V349.956C23.116 347.836 21.6073 344.9 19.8908 341.251C19.3268 340.053 18.7438 338.778 18.1419 337.428C17.9017 336.889 17.6615 336.343 17.4186 335.783V335.78C17.173 335.22 16.9274 334.65 16.6845 334.068C16.5199 333.68 16.3553 333.288 16.1906 332.889C16.0179 332.482 15.8452 332.067 15.6724 331.649C14.7872 329.489 13.8804 327.196 12.9789 324.777C12.9546 324.715 12.9331 324.648 12.9088 324.586C12.9088 324.586 12.9088 324.586 12.9088 324.584C11.9938 322.132 11.087 319.558 10.1964 316.865C10.1775 316.809 10.1559 316.75 10.1397 316.688C9.99934 316.265 9.8617 315.842 9.72405 315.413C9.37049 314.312 9.01694 313.195 8.67148 312.061C7.96167 309.746 7.27884 307.359 6.62301 304.902C6.50965 304.479 6.3963 304.053 6.28564 303.627C8.56352 303.41 10.693 303.349 12.6848 303.426C16.0044 303.555 18.9435 304.061 21.5696 304.868C25.3777 306.036 28.5246 307.833 31.2181 310.009C36.9533 314.641 40.6103 320.986 44.1459 326.623C46.2322 329.956 48.2806 333.039 50.6827 335.376C53.0118 337.637 55.6756 339.199 59.0439 339.598C61.3649 339.877 63.4539 340.313 65.335 340.865C77.0483 344.305 80.6648 352.276 81.3288 354.023Z" fill="#8EBF82"/>
<path d="M826.569 312.953C826.569 312.953 825.138 316.185 823.165 314.765C821.193 313.345 820.356 310.213 820.356 310.213L826.536 312.002L826.569 312.953Z" fill="#CE8E55"/>
<path d="M807.714 319.118C807.898 318.639 808.3 318.277 808.799 318.135C810.027 317.781 812.451 317.468 814.669 315.475C815.916 314.355 820.696 311.359 820.696 311.359L820.72 311.354C820.826 311.357 821.325 311.509 823.497 313.331C824.62 314.272 826.536 312.002 826.536 312.002C826.536 312.002 826.895 312.297 827.165 312.846C827.381 313.28 827.538 313.878 827.413 314.612C827.241 315.649 827.799 317.575 828.245 318.877C828.515 319.667 828.741 320.227 828.741 320.227C828.741 320.227 828.871 320.878 826.526 321.17H823.797C822.882 321.028 822.21 320.766 821.271 320.643C819.848 320.458 819.193 321.037 819.063 321.17C819.044 321.187 819.039 321.197 819.039 321.197H807.452C807.158 320.782 807.439 319.823 807.714 319.118Z" fill="#AA5A0B"/>
<path d="M838.207 258.175C833.913 266.354 815.703 277.251 816.559 278.245C822.623 285.294 826.536 312 826.536 312C826.536 312 825.308 312.688 824.175 312.723C822.264 312.779 820.307 312.12 820.307 312.12C812.761 296.846 800.878 280.155 801.914 276.482C804.551 267.131 824.55 242.116 824.55 242.116L842.452 238.185L847.874 238.006C847.871 238.006 844.071 247.003 838.207 258.175Z" fill="#2C3A64"/>
<path d="M754.611 317.179L775.514 272.771L772.712 271.659C770.893 270.936 768.828 271.817 768.102 273.626L751.221 315.807L754.611 317.179Z" fill="#415DA5"/>
<path d="M772.283 271.646C780.215 251.212 780.315 251.067 780.463 250.844L783.508 252.859C783.548 252.798 782.266 255.927 780.598 260.039L826.525 290.866L836.819 258.903L840.303 260.01L829.683 292.988L870.153 320.15L821.373 324.361L821.058 320.742L859.552 317.42L828.228 297.511L819.641 324.179L816.156 323.073L817.139 320.021L814.801 321.516L777.786 267.021C776.982 269.036 776.196 271.019 775.513 272.774L772.283 271.646ZM817.487 318.928L825.038 295.48L787.899 271.876L817.487 318.928Z" fill="#EE9849"/>
<path d="M775.716 248.54C777.082 248.54 778.24 249.403 778.677 250.609L787.343 250.118C787.837 249.031 788.935 248.272 790.215 248.272C791.955 248.272 793.364 249.674 793.364 251.399C793.364 253.127 791.953 254.528 790.215 254.528C789.405 254.528 788.668 254.223 788.109 253.725L777.36 254.333C776.879 254.625 776.318 254.796 775.713 254.796C773.973 254.796 772.564 253.395 772.564 251.67C772.566 249.939 773.978 248.54 775.716 248.54Z" fill="#415DA5"/>
<path d="M858.856 318.778C858.856 318.58 858.867 318.387 858.886 318.194L833.278 313.929L833.413 313.133L859.021 317.398C859.334 316.096 860.073 314.96 861.091 314.146L845.548 292.104L846.214 291.641L861.126 312.787L853.083 288.838L853.855 288.584L862.2 313.438C862.885 313.104 863.644 312.895 864.445 312.841V286.29H865.258V312.841C865.722 312.873 866.173 312.953 866.602 313.085L874.901 290.121L875.667 290.395L867.768 312.246L883.651 294.095L884.263 294.625L867.708 313.543C868.575 314.009 869.309 314.684 869.851 315.496L870.788 315.335L893.936 303.686L894.303 304.407L873.508 314.872L896.692 310.915L896.83 311.71L871.044 316.112L870.367 316.452C870.672 317.168 870.842 317.953 870.842 318.778C870.842 318.936 870.834 319.094 870.82 319.25L896.411 323.019L896.293 323.818L870.701 320.048C870.65 320.289 870.583 320.522 870.502 320.75L893.869 330.714L893.548 331.456L870.178 321.489C870.172 321.497 870.17 321.505 870.164 321.513L888.506 339.879L887.929 340.447L869.727 322.221C869.357 322.738 868.907 323.193 868.394 323.568L881.853 344.587L881.168 345.021L867.708 324.002C867.59 324.067 867.468 324.126 867.347 324.182C870.71 332.97 876.866 349.069 877.017 349.519L876.245 349.774C876.11 349.374 870.688 335.188 866.586 324.469C866.032 324.635 865.447 324.726 864.839 324.726C864.74 324.726 864.64 324.723 864.543 324.718L866.669 350.218L865.86 350.285L863.719 324.621C863.46 324.573 863.209 324.509 862.964 324.428C858.735 334.757 853.18 348.335 853.029 348.769L852.257 348.514C852.408 348.064 858.716 332.654 862.208 324.126C862.132 324.088 862.057 324.051 861.984 324.013L847.701 346.435L847.013 346.004L861.298 323.579C860.729 323.167 860.238 322.655 859.844 322.071L838.644 336.664L838.18 336L859.436 321.366C859.072 320.586 858.856 319.708 858.856 318.778Z" fill="#2C3A64"/>
<path d="M864.853 353.688C884.244 353.688 900.02 338.028 900.02 318.778C900.02 299.528 884.244 283.868 864.853 283.868C845.461 283.868 829.686 299.528 829.686 318.778C829.686 324.948 831.33 331.014 834.441 336.319C837.483 341.506 841.847 345.857 847.062 348.897C852.435 352.032 858.589 353.688 864.853 353.688ZM864.853 288.712C881.554 288.712 895.14 302.199 895.14 318.778C895.14 335.357 881.554 348.844 864.853 348.844C859.455 348.844 854.157 347.419 849.534 344.721C845.04 342.1 841.281 338.352 838.66 333.881C835.983 329.315 834.566 324.094 834.566 318.778C834.566 302.199 848.152 288.712 864.853 288.712Z" fill="#2C3A64"/>
<path d="M864.586 349.736C881.667 349.736 895.561 335.941 895.561 318.987C895.561 302.03 881.664 288.238 864.586 288.238C847.504 288.238 833.61 302.033 833.61 318.987C833.608 335.941 847.504 349.736 864.586 349.736ZM864.586 289.478C880.976 289.478 894.311 302.716 894.311 318.987C894.311 335.258 880.976 348.496 864.586 348.496C848.195 348.496 834.86 335.258 834.86 318.987C834.86 302.716 848.195 289.478 864.586 289.478Z" fill="#B84C42"/>
<path d="M720.669 313.931L720.804 313.136L751.355 318.223L750.189 316.568L749.828 316.688L749.42 315.477L732.941 292.104L733.607 291.641L748.519 312.787L740.476 288.838L741.248 288.584L750.154 315.11L752.044 317.792L752.378 317.562L752.403 317.492L751.838 316.927V286.29H752.651V316.281L752.853 316.246L753.622 314.122L753.566 314.073L753.693 313.929L762.299 290.121L763.066 290.395L755.166 312.246L771.049 294.095L771.662 294.625L754.408 314.344L753.776 316.091L758.186 315.338L781.335 303.689L781.702 304.41L760.907 314.874L784.09 310.917L784.228 311.713L758.443 316.115L754.267 318.215L754.802 318.749L783.812 323.022L783.694 323.82L755.757 319.705L755.989 319.935L781.273 330.716L780.952 331.459L757.517 321.465L775.91 339.885L775.332 340.453L755.522 320.616L753.296 319.665L769.257 344.592L768.572 345.026L754.043 322.336C757.153 330.462 764.259 349.039 764.423 349.524L763.652 349.779C763.498 349.321 756.321 330.556 752.235 319.879C752.049 320.329 751.86 320.795 751.663 321.275L754.076 350.221L753.266 350.288L750.986 322.928C746.7 333.388 740.595 348.311 740.438 348.769L739.666 348.514C739.826 348.04 746.816 330.968 750.152 322.826L735.111 346.438L734.422 346.007L751.555 319.113L726.056 336.667L725.592 336.003L750.454 318.888L720.669 313.931ZM753.517 316.954L753.895 317.495L755.72 316.578L753.517 316.954Z" fill="#415DA5"/>
<path d="M746.394 320.193C745.633 316.993 747.629 313.787 750.852 313.031C754.076 312.276 757.306 314.257 758.067 317.457C758.828 320.657 756.832 323.863 753.609 324.619C750.385 325.374 747.155 323.393 746.394 320.193Z" fill="#2C3A64"/>
<path d="M752.243 353.688C771.635 353.688 787.41 338.028 787.41 318.778C787.41 299.528 771.635 283.868 752.243 283.868C732.852 283.868 717.077 299.528 717.077 318.778C717.077 324.948 718.72 331.014 721.832 336.319C724.874 341.506 729.238 345.857 734.452 348.897C739.826 352.032 745.979 353.688 752.243 353.688ZM752.243 288.712C768.944 288.712 782.531 302.199 782.531 318.778C782.531 335.357 768.944 348.844 752.243 348.844C746.846 348.844 741.548 347.419 736.922 344.721C732.428 342.1 728.668 338.352 726.048 333.881C723.371 329.315 721.956 324.094 721.956 318.778C721.956 302.199 735.543 288.712 752.243 288.712Z" fill="#2C3A64"/>
<path d="M751.973 349.736C769.055 349.736 782.949 335.941 782.949 318.987C782.949 302.03 769.052 288.238 751.973 288.238C734.892 288.238 720.998 302.033 720.998 318.987C720.998 335.941 734.895 349.736 751.973 349.736ZM751.973 289.478C768.364 289.478 781.699 302.716 781.699 318.987C781.699 335.258 768.364 348.496 751.973 348.496C735.583 348.496 722.248 335.258 722.248 318.987C722.248 302.716 735.583 289.478 751.973 289.478Z" fill="#B84C42"/>
<path d="M829.149 278.992C829.556 277.843 830.825 277.237 831.983 277.642L834.012 278.349C835.602 278.904 837.353 278.799 838.862 278.052C846.252 274.395 855.247 272.543 865.662 272.543C865.786 272.543 865.913 272.543 866.037 272.543C870.688 272.562 879.008 273.693 882.571 274.22C883.543 274.365 884.263 275.193 884.263 276.171V277.446C884.263 277.816 883.923 278.089 883.559 278.014L883.548 278.011C876.963 276.64 854.197 272.932 837.745 282.799C837.278 283.081 836.708 283.137 836.193 282.957L830.026 280.806C829.281 280.549 828.887 279.734 829.149 278.992Z" fill="#EE9849"/>
<path d="M851.488 258.092C851.488 258.092 852.149 255.115 850.268 254.914C848.387 254.713 841.526 256.176 839.696 255.972C837.867 255.772 828.312 254.207 826.636 255.822C824.96 257.438 825.67 258.85 829.025 259.153C832.38 259.455 836.852 260.01 838.123 261.068C839.394 262.127 848.592 265.253 851.488 258.092Z" fill="#415DA5"/>
<path d="M798.722 329.54H802.084L809.166 326.336C808.896 325.479 808.751 324.568 808.751 323.619C808.751 318.604 812.845 314.54 817.897 314.54C822.95 314.54 827.044 318.604 827.044 323.619C827.044 328.635 822.95 332.699 817.897 332.699C814.302 332.699 811.193 330.639 809.698 327.646L805.515 329.538H806.648C807.579 329.538 808.343 330.293 808.343 331.22C808.343 332.145 807.579 332.903 806.648 332.903H798.722C797.791 332.903 797.027 332.145 797.027 331.22C797.027 330.299 797.791 329.54 798.722 329.54Z" fill="#415DA5"/>
<path d="M802.74 320.857C802.74 320.857 801.814 324.16 799.89 323.917C797.966 323.673 796.924 320.209 796.924 320.209L802.74 320.857Z" fill="#CE8E55"/>
<path d="M802.729 330.025H800.001C799.088 329.883 798.414 329.621 797.474 329.497C796.052 329.313 795.396 329.891 795.267 330.025C795.251 330.044 795.242 330.052 795.242 330.052H783.656C783.365 329.639 783.645 328.683 783.918 327.978C784.101 327.499 784.506 327.137 785.003 326.995C786.231 326.641 788.654 326.328 790.873 324.335C792.123 323.215 796.9 320.217 796.9 320.217L796.924 320.211C797.029 320.214 797.528 320.367 799.701 322.189C800.824 323.129 802.74 320.86 802.74 320.86C802.74 320.86 803.099 321.154 803.369 321.704C803.585 322.138 803.741 322.735 803.617 323.469C803.444 324.506 804.003 326.432 804.448 327.735C804.718 328.525 804.945 329.085 804.945 329.085C804.945 329.085 805.075 329.733 802.729 330.025Z" fill="#D57912"/>
<path d="M803.366 321.704C802.716 322.159 801.342 323.057 800.43 323.175C799.199 323.335 796.897 320.217 796.897 320.217L796.921 320.211C797.026 320.214 797.526 320.367 799.698 322.189C800.821 323.129 802.737 320.86 802.737 320.86C802.737 320.86 803.099 321.154 803.366 321.704Z" fill="#AA3F3A"/>
<path d="M802.729 330.025H800.001C799.089 329.883 798.414 329.621 797.475 329.497C796.052 329.313 795.396 329.891 795.267 330.025C795.251 330.044 795.243 330.052 795.243 330.052H783.656C783.365 329.639 783.645 328.683 783.918 327.978C784.269 327.668 784.369 329.326 784.563 329.591C784.757 329.856 794.015 329.688 794.549 329.302C795.083 328.916 796.687 328.241 798.924 328.771C800.87 329.232 803.736 328.051 804.446 327.735C804.716 328.525 804.942 329.085 804.942 329.085C804.942 329.085 805.075 329.733 802.729 330.025Z" fill="#AA3F3A"/>
<path d="M847.016 233.719C847.016 233.719 854.184 249.167 845.504 256.216C836.825 263.265 811.576 273.251 811.182 274.818C810.788 276.385 809.053 302.06 802.74 320.857C802.74 320.857 800.567 321.717 796.924 320.209C794.886 319.365 792.15 270.606 795.699 265.907C799.25 261.208 819.036 247.771 819.036 247.771L847.016 233.719Z" fill="#35488B"/>
<path d="M823.964 181.78C823.964 181.78 815.225 190.088 808.645 190.094C808.645 190.094 809.523 187.763 811.644 185.555C811.223 184.738 810.853 183.983 810.537 183.31C809.393 180.869 808.921 179.423 808.921 179.423L813.646 172.355L814.707 170.769C815.05 171.985 815.482 173.078 815.968 174.056C816.005 174.134 816.043 174.212 816.081 174.287C819.058 180.074 823.964 181.78 823.964 181.78Z" fill="#FFB27D"/>
<path d="M781.313 245.309C781.313 245.309 793.82 229.416 794.924 228.015C796.028 226.611 807.099 202.938 807.099 202.938L823.956 201.486C823.956 201.486 805.8 230.734 802.932 234.233C798.187 240.015 784.741 247.115 784.741 247.115C785 248.639 783.772 250.151 781.853 250.807C779.931 251.463 780.568 251.474 779.224 251.972C777.88 252.468 777.395 250.424 777.395 250.424C776.604 245.489 781.313 245.309 781.313 245.309Z" fill="#FFB27D"/>
<path d="M847.016 233.719C847.256 234.365 846.125 235.509 845.62 235.956C843.375 237.944 841.167 239.688 838.808 241.175C837.162 242.215 835.44 243.131 833.581 243.916C828.218 246.223 821.274 247.04 819.036 247.774C818.799 247.849 818.558 247.825 818.332 247.734C818.143 247.662 815.881 240.98 813.301 232.465C813.196 232.138 813.082 231.779 813.007 231.444L812.969 231.327C811.946 228.015 810.958 224.497 810.011 221.004C807.914 213.288 806.17 205.754 805.892 201.36C805.566 196.197 807.315 192.178 809.093 189.07L810.583 186.608C812.783 186.372 814.931 185.569 816.777 183.811C818.774 181.909 820.952 179.851 821.465 180.017C827.538 182.118 833.413 192.117 837.27 204.369C837.391 204.754 837.513 205.146 837.632 205.534C838.012 206.804 838.374 208.098 838.711 209.405C841.054 218.603 844.098 226.258 845.861 230.71C846.363 231.991 846.767 233.006 847.016 233.719Z" fill="#EE9849"/>
<path d="M847.016 233.719C847.256 234.365 846.125 235.509 845.62 235.956C843.375 237.944 841.167 239.688 838.808 241.175C824.356 220.497 825.832 195.592 825.832 195.592L837.629 205.534C838.01 206.804 838.371 208.098 838.709 209.405C841.051 218.603 844.096 226.258 845.858 230.71C846.363 231.991 846.767 233.006 847.016 233.719Z" fill="#E58638"/>
<path d="M816.103 174.179C816.103 174.179 816.094 174.217 816.081 174.289C815.908 175.128 814.637 180.577 810.537 183.31C809.393 180.869 808.921 179.423 808.921 179.423L813.647 172.355C814.794 173.068 815.649 173.78 815.968 174.059C816.054 174.137 816.103 174.179 816.103 174.179Z" fill="#ED975D"/>
<path d="M806.097 179.61C806.097 179.61 816.599 179.937 816.701 173.443C816.807 166.948 818.232 162.616 811.53 162.134C804.832 161.652 803.487 164.108 802.921 166.268C802.357 168.427 803.369 179.358 806.097 179.61Z" fill="#FFB27D"/>
<path d="M817.169 224.46L818.097 224.13C818.561 223.964 819.077 224.208 819.241 224.666L819.452 225.247C819.619 225.708 819.373 226.22 818.912 226.383L817.984 226.713C817.519 226.879 817.004 226.635 816.839 226.177L816.629 225.596C816.461 225.135 816.704 224.623 817.169 224.46Z" fill="#739CF3"/>
<path d="M815.104 228.128L819.079 239.131C819.349 239.876 820.183 240.267 820.933 239.999L825.141 238.501C825.891 238.234 826.285 237.406 826.016 236.661L822.043 225.657C821.773 224.913 820.939 224.521 820.189 224.789L815.981 226.287C815.231 226.555 814.837 227.383 815.104 228.128Z" fill="#B2CBFD"/>
<path d="M815.266 228.572L819.079 239.131C819.349 239.876 820.183 240.267 820.933 239.999L825.141 238.501C825.891 238.234 826.285 237.406 826.016 236.661L822.28 226.319C821.643 226.52 820.21 227.024 819.409 227.696C818.629 228.355 816.37 228.53 815.266 228.572Z" fill="#739CF3"/>
<path d="M822.546 227.121L825.038 234.021L818.1 236.49L815.608 229.59L822.546 227.121Z" fill="#415DA5"/>
<path d="M818.605 229.864C820.488 228.714 824.855 228.211 824.855 228.211C824.855 228.211 834.736 215.495 836.25 212.599C837.764 209.706 820.548 200.971 819.946 196.135C819.341 191.302 818.381 182.338 825.338 182.737C825.338 182.737 841.918 195.948 848.533 212.291C848.533 212.291 841.113 226.065 828.137 232.093C828.137 232.093 820.65 236.567 819.344 236.886C818.04 237.202 816.988 235.672 816.521 234.796C816.054 233.92 816.721 231.013 818.605 229.864Z" fill="#FFB27D"/>
<path d="M822.288 201.727C822.288 201.727 828.574 193.309 834.619 191.616C834.865 191.546 834.959 191.254 834.798 191.058C833.421 189.387 828.183 183.27 823.53 181.116C823.53 181.116 815.325 185.368 816.372 189.628C817.417 193.89 822.288 201.727 822.288 201.727Z" fill="#EE9849"/>
<path d="M798.05 165.751C796.927 164.001 796.495 162.461 796.495 162.461C796.495 162.461 798.355 163.779 801.221 160.909C804.087 158.04 809.412 154.386 814.062 156.459C814.356 156.591 814.648 156.741 814.934 156.901C814.556 155.881 813.62 154.667 813.62 154.667C815.506 155.658 816.556 158.029 816.556 158.029C816.613 158.075 816.667 158.126 816.723 158.171C817.897 158.158 820.008 159.433 820.008 159.433C819.374 159.117 818.594 159.224 817.978 159.409C820.351 162.096 821.552 165.686 820.302 168.138C818.475 171.723 817.733 170.828 816.521 175.152C816.521 175.152 814.937 174.868 814.904 173.788C814.872 172.709 816.038 170.096 814.135 170.123C812.232 170.15 812.732 171.532 811.774 171.251C810.815 170.967 811.237 167.385 807.126 167.905C803.016 168.419 799.172 167.503 798.05 165.751Z" fill="#233862"/>
<path d="M435.555 318.778C435.555 318.58 435.544 318.387 435.525 318.194L461.132 313.929L460.998 313.133L435.39 317.398C435.077 316.096 434.338 314.96 433.32 314.146L448.863 292.104L448.197 291.64L433.285 312.787L441.328 288.838L440.556 288.584L432.211 313.438C431.525 313.103 430.767 312.895 429.965 312.841V286.29H429.153V312.841C428.689 312.873 428.238 312.953 427.809 313.085L419.507 290.121L418.741 290.395L426.64 312.246L410.757 294.095L410.145 294.625L426.7 313.543C425.833 314.009 425.099 314.684 424.557 315.496L423.62 315.335L400.472 303.686L400.105 304.407L420.9 314.872L397.716 310.915L397.579 311.71L423.364 316.112L424.041 316.452C423.736 317.168 423.566 317.953 423.566 318.778C423.566 318.936 423.574 319.094 423.588 319.25L397.997 323.019L398.116 323.818L423.707 320.048C423.758 320.289 423.825 320.522 423.906 320.75L400.539 330.714L400.86 331.456L424.23 321.489C424.236 321.497 424.238 321.505 424.244 321.513L405.902 339.879L406.48 340.447L424.681 322.221C425.051 322.738 425.501 323.193 426.014 323.568L412.555 344.587L413.24 345.021L426.7 324.002C426.819 324.067 426.94 324.126 427.061 324.182C423.699 332.97 417.542 349.069 417.391 349.519L418.163 349.774C418.295 349.374 423.72 335.188 427.823 324.469C428.376 324.635 428.962 324.726 429.566 324.726C429.666 324.726 429.766 324.723 429.863 324.718L427.736 350.218L428.546 350.285L430.686 324.621C430.945 324.573 431.196 324.509 431.442 324.428C435.671 334.757 441.225 348.335 441.376 348.769L442.148 348.514C441.997 348.064 435.69 332.654 432.197 324.126C432.273 324.088 432.349 324.051 432.421 324.013L446.704 346.435L447.392 346.004L433.107 323.579C433.676 323.167 434.168 322.655 434.562 322.071L455.762 336.664L456.226 336L434.969 321.366C435.342 320.586 435.555 319.708 435.555 318.778Z" fill="#2C3A64"/>
<path d="M429.558 353.688C410.166 353.688 394.391 338.028 394.391 318.778C394.391 299.528 410.166 283.868 429.558 283.868C448.949 283.868 464.725 299.528 464.725 318.778C464.725 324.948 463.081 331.014 459.969 336.319C456.927 341.506 452.563 345.857 447.349 348.897C441.976 352.032 435.825 353.688 429.558 353.688ZM429.558 288.712C412.857 288.712 399.271 302.199 399.271 318.778C399.271 335.357 412.857 348.844 429.558 348.844C434.956 348.844 440.254 347.419 444.88 344.721C449.373 342.1 453.133 338.352 455.753 333.881C458.431 329.315 459.845 324.093 459.845 318.778C459.848 302.199 446.259 288.712 429.558 288.712Z" fill="#2C3A64"/>
<path d="M429.828 349.736C412.747 349.736 398.853 335.941 398.853 318.987C398.853 302.03 412.749 288.238 429.828 288.238C446.909 288.238 460.803 302.033 460.803 318.987C460.803 335.941 446.909 349.736 429.828 349.736ZM429.828 289.478C413.437 289.478 400.102 302.716 400.102 318.987C400.102 335.258 413.437 348.496 429.828 348.496C446.218 348.496 459.554 335.258 459.554 318.987C459.554 302.716 446.218 289.478 429.828 289.478Z" fill="#B84C42"/>
<path d="M413.796 273.559C413.273 272.251 412.05 271.442 410.725 271.356C395.544 236.736 395.382 236.463 395.152 236.09L392.958 240.406C392.842 240.216 401.247 258.764 407.246 272.361L406.391 272.701L427.294 317.109L430.681 315.737L413.796 273.559Z" fill="#B84C42"/>
<path d="M364.96 161.898C364.927 161.475 364.425 156.931 357.427 156.955C357.427 156.955 360.879 157.234 361.532 158.712C361.532 158.712 359.122 156.947 357.238 157.614C355.354 158.281 354.361 161.638 354.391 162.729C354.42 163.819 355.613 167.294 356.833 167.548C357.295 167.645 357.824 167.594 358.299 167.495C357.997 168.007 357.702 168.569 357.422 169.193C354.847 174.981 357.934 180.43 360.272 179.728C361.772 179.278 362.296 181.829 362.296 181.829L376.565 169.456C376.562 169.456 370.738 158.554 364.96 161.898Z" fill="#2C3A64"/>
<path d="M360.048 236.655C360.048 236.655 362.676 242.083 365.999 249.604C369.726 258.038 374.322 269.108 377.059 278.105C378.505 282.866 379.437 287.046 379.439 289.953C379.439 290.949 375.566 295 374.449 296.546C367.389 306.301 357.745 319.325 357.745 319.325L355.114 318.668C355.114 318.668 358.801 302.376 364.172 294.245C365.227 292.645 368.204 290.7 368.061 290.523C368.061 290.521 368.058 290.521 368.055 290.518C367.591 289.942 366.436 288.495 364.857 286.432C360.504 280.744 352.944 270.378 347.881 260.739C347.565 260.139 347.26 259.538 346.966 258.944C344.297 253.561 342.537 248.519 342.707 244.781L360.048 236.655Z" fill="#ED975D"/>
<path d="M352.776 319.3L354.587 320.439C355.254 320.726 355.813 320.833 356.487 321.144C357.51 321.615 357.702 322.272 357.731 322.414C357.737 322.432 357.737 322.443 357.737 322.443L365.431 327.276C365.801 327.124 366.02 326.371 366.136 325.789C366.217 325.396 366.101 324.986 365.831 324.683C365.164 323.935 363.688 322.716 363.059 320.469C362.703 319.204 360.8 315.22 360.8 315.22L360.787 315.207C360.716 315.164 360.32 315.057 358.107 315.359C356.962 315.515 356.652 313.211 356.652 313.211C356.652 313.211 356.288 313.256 355.877 313.511C355.551 313.709 355.192 314.038 354.965 314.58C354.641 315.341 353.456 316.385 352.609 317.066C352.096 317.479 351.708 317.755 351.708 317.755C351.708 317.755 351.34 318.127 352.776 319.3Z" fill="#B84C42"/>
<path d="M355.875 313.508C356.115 314.081 356.647 315.252 357.203 315.71C357.953 316.329 360.801 315.22 360.801 315.22L360.787 315.207C360.717 315.164 360.32 315.057 358.107 315.359C356.963 315.515 356.652 313.211 356.652 313.211C356.652 313.211 356.285 313.253 355.875 313.508Z" fill="#AA3E39"/>
<path d="M352.777 319.3L354.588 320.439C355.254 320.726 355.813 320.833 356.488 321.144C357.511 321.615 357.702 322.272 357.732 322.414C357.737 322.432 357.737 322.443 357.737 322.443L365.432 327.276C365.802 327.124 366.02 326.371 366.136 325.789C366.034 325.436 365.265 326.497 365.024 326.591C364.784 326.684 358.706 322.711 358.515 322.231C358.323 321.752 357.543 320.635 355.835 320.053C354.348 319.547 352.944 317.567 352.607 317.061C352.094 317.473 351.705 317.749 351.705 317.749C351.705 317.749 351.341 318.127 352.777 319.3Z" fill="#AA3E39"/>
<path d="M405.929 264.278L401.851 260.09L402.21 259.362L401.562 259.796L401.557 259.79L401.546 259.806L355.371 290.797L345.077 258.834L341.593 259.94L352.213 292.918L311.743 320.08L360.523 324.292L360.839 320.672L322.344 317.35L353.668 297.441L362.255 324.11L365.74 323.003L364.757 319.951L367.095 321.446L405.929 264.278ZM356.863 295.413L394.003 271.809L364.415 318.861L356.863 295.413Z" fill="#D8716B"/>
<path d="M414.743 230.697C414.023 228.288 411.472 226.917 409.046 227.632C407.127 228.197 405.861 229.901 405.775 231.782L385.355 236.87C384.208 235.637 382.413 235.083 380.683 235.595C378.257 236.31 376.875 238.842 377.596 241.25C378.316 243.659 380.867 245.031 383.293 244.315C384.483 243.964 385.42 243.177 385.984 242.18L409.197 236.396C409.98 236.599 410.827 236.599 411.659 236.353C414.082 235.637 415.464 233.106 414.743 230.697Z" fill="#415DA5"/>
<path d="M372.225 312.935L379.091 316.87C379.898 317.334 380.176 318.365 379.712 319.166C379.245 319.968 378.203 320.243 377.399 319.783L370.533 315.847C369.726 315.383 369.448 314.352 369.912 313.551C370.376 312.747 371.418 312.471 372.225 312.935Z" fill="#415DA5"/>
<path d="M373.585 315.472L364.93 324.983L364.131 324.292L372.786 314.783L373.585 315.472Z" fill="#415DA5"/>
<path d="M352.752 278.925C352.345 277.776 351.076 277.17 349.918 277.575L347.892 278.282C346.302 278.837 344.55 278.732 343.042 277.985C335.649 274.328 326.657 272.476 316.242 272.476C316.117 272.476 315.991 272.476 315.866 272.476C311.216 272.495 302.895 273.626 299.333 274.153C298.361 274.298 297.641 275.126 297.641 276.104V277.382C297.641 277.749 297.981 278.025 298.345 277.95L298.356 277.947C304.941 276.575 327.706 272.867 344.159 282.735C344.626 283.016 345.195 283.072 345.711 282.893L351.878 280.742C352.62 280.482 353.014 279.667 352.752 278.925Z" fill="#B84C42"/>
<path d="M330.413 258.025C330.413 258.025 329.752 255.048 331.633 254.847C333.515 254.646 340.375 256.109 342.202 255.905C344.032 255.704 353.586 254.14 355.262 255.755C356.938 257.371 356.228 258.783 352.874 259.086C349.519 259.388 345.047 259.943 343.776 261.004C342.507 262.06 333.309 265.186 330.413 258.025Z" fill="#415DA5"/>
<path d="M354.857 323.555C354.857 318.54 358.952 314.475 364.004 314.475C369.056 314.475 373.151 318.54 373.151 323.555C373.151 328.57 369.056 332.635 364.004 332.635C358.952 332.635 354.857 328.57 354.857 323.555Z" fill="#415DA5"/>
<path d="M320.876 318.778C320.876 318.58 320.865 318.387 320.846 318.194L346.453 313.929L346.318 313.133L320.711 317.398C320.401 316.096 319.659 314.96 318.641 314.146L334.184 292.104L333.517 291.64L318.606 312.787L326.649 288.838L325.877 288.584L317.532 313.438C316.846 313.103 316.088 312.895 315.286 312.841V286.29H314.474V312.841C314.01 312.873 313.559 312.953 313.13 313.085L304.828 290.121L304.062 290.395L311.961 312.246L296.078 294.095L295.466 294.625L312.021 313.543C311.154 314.009 310.42 314.684 309.878 315.496L308.941 315.335L285.793 303.686L285.426 304.407L306.221 314.872L283.037 310.915L282.899 311.71L308.685 316.112L309.362 316.452C309.057 317.168 308.887 317.953 308.887 318.778C308.887 318.936 308.895 319.094 308.909 319.25L283.318 323.019L283.436 323.818L309.028 320.048C309.082 320.289 309.146 320.522 309.227 320.75L285.86 330.714L286.181 331.456L309.551 321.489C309.557 321.497 309.559 321.505 309.565 321.513L291.223 339.879L291.8 340.447L310.002 322.221C310.372 322.738 310.822 323.193 311.335 323.568L297.876 344.587L298.561 345.021L312.021 324.002C312.139 324.067 312.261 324.126 312.382 324.182C309.019 332.97 302.863 349.069 302.712 349.519L303.484 349.774C303.616 349.374 309.041 335.188 313.143 324.469C313.697 324.635 314.282 324.726 314.89 324.726C314.989 324.726 315.089 324.723 315.186 324.718L313.06 350.218L313.869 350.285L316.01 324.621C316.269 324.573 316.52 324.509 316.765 324.428C320.995 334.757 326.549 348.335 326.7 348.769L327.472 348.514C327.321 348.064 321.013 332.654 317.521 324.126C317.597 324.088 317.672 324.051 317.745 324.013L332.028 346.435L332.716 346.004L318.431 323.579C319 323.167 319.494 322.655 319.885 322.071L341.085 336.664L341.549 336L320.293 321.366C320.66 320.586 320.876 319.708 320.876 318.778Z" fill="#2C3A64"/>
<path d="M314.879 353.688C295.487 353.688 279.712 338.028 279.712 318.778C279.712 299.528 295.487 283.868 314.879 283.868C334.27 283.868 350.045 299.528 350.045 318.778C350.045 324.948 348.402 331.014 345.29 336.319C342.248 341.506 337.884 345.857 332.67 348.897C327.296 352.032 321.143 353.688 314.879 353.688ZM314.879 288.712C298.178 288.712 284.592 302.199 284.592 318.778C284.592 335.357 298.178 348.844 314.879 348.844C320.276 348.844 325.574 347.419 330.198 344.721C334.691 342.1 338.451 338.352 341.072 333.881C343.749 329.315 345.163 324.093 345.163 318.778C345.166 302.199 331.579 288.712 314.879 288.712Z" fill="#2C3A64"/>
<path d="M315.146 349.736C298.064 349.736 284.17 335.941 284.17 318.987C284.17 302.03 298.067 288.238 315.146 288.238C332.227 288.238 346.121 302.033 346.121 318.987C346.124 335.941 332.227 349.736 315.146 349.736ZM315.146 289.478C298.755 289.478 285.42 302.716 285.42 318.987C285.42 335.258 298.755 348.496 315.146 348.496C331.536 348.496 344.872 335.258 344.872 318.987C344.872 302.716 331.539 289.478 315.146 289.478Z" fill="#B84C42"/>
<path d="M405.073 230.132C405.073 230.132 402.817 229.398 401.041 229.47C399.265 229.542 396.753 227.911 396.753 227.911C396.753 227.911 387.539 221.939 385.547 219.9C381.272 215.525 377.199 193.003 373.466 194.705C373.466 194.705 368.495 197.483 369.081 204.513C369.666 211.546 376.165 222.63 381.11 225.381C384.734 227.399 394.709 230.464 396.167 230.909C397.808 231.536 399.881 233.087 400.485 233.288C401.152 233.507 402.914 232.883 403.926 233.288C407.61 234.767 407.662 233.617 407.662 233.617C407.44 230.828 405.073 230.132 405.073 230.132Z" fill="#ED975D"/>
<path d="M372.973 210.52C372.746 212.103 372.325 213.47 371.807 214.766C371.375 215.854 370.873 216.888 370.358 217.968C368.849 221.14 365.292 222.702 365.17 228.797C365.13 230.898 363.365 235.627 364.363 239.051C369.281 255.94 337.104 240.583 338.848 236.096C342.31 227.179 347.258 222.024 347.152 214.681C347.152 214.662 347.15 214.643 347.147 214.625C347.115 214.268 347.066 213.314 347.012 212.055C346.877 208.974 346.702 204.058 346.64 201.569C346.637 201.51 346.637 201.454 346.634 201.397C346.607 200.331 346.575 199.559 346.534 199.358C348.925 189.253 354.431 189.21 356.31 189.242C357.006 189.253 357.737 189.298 358.339 189.349C359.519 188.682 361.562 185.574 362.622 180.462L363.052 180.644L370.266 183.688C370.266 183.688 369.599 186.005 369.127 188.218C368.757 189.949 368.509 191.616 368.787 192.071C369.354 192.275 369.694 192.406 369.694 192.406C369.694 192.406 369.694 192.409 369.696 192.414C369.82 192.698 374.125 202.482 372.973 210.52Z" fill="#FFB27D"/>
<path d="M371.804 214.766C371.372 215.854 370.87 216.888 370.355 217.968C368.846 221.14 365.289 222.702 365.168 228.797C365.06 228.808 364.949 228.819 364.836 228.827C351.641 229.85 347.144 214.624 347.144 214.624C347.112 214.268 347.063 213.314 347.009 212.055L370.819 212.093C370.822 212.095 371.313 213.164 371.804 214.766Z" fill="#ED975D"/>
<path d="M370.263 183.691C370.263 183.691 369.596 186.005 369.124 188.221C364.938 187.227 363.516 182.951 363.049 180.647L370.263 183.691Z" fill="#ED975D"/>
<path d="M377.842 200.283C377.445 199.233 375.513 195.208 375.513 195.208C375.513 195.208 373.958 193.888 369.691 192.406C369.691 192.406 369.691 192.409 369.694 192.414C369.772 192.655 371.802 199.021 371.202 200.417C370.59 201.839 357.864 197.796 357.138 196.794C356.558 195.991 356.377 191.626 356.329 189.925C356.315 189.502 356.313 189.245 356.313 189.245C356.313 189.245 351.6 188.789 349.007 189.946C349.007 189.946 350.132 192.151 350.607 194.614C350.653 194.847 350.691 195.08 350.723 195.316C350.793 195.814 350.826 196.312 350.818 196.8C350.791 198.038 349.662 199.045 348.148 200.229C347.676 200.599 347.166 200.985 346.64 201.403C346.642 201.459 346.642 201.515 346.645 201.574C346.734 205.081 347.044 213.403 347.152 214.63C347.155 214.649 347.155 214.667 347.158 214.686C349.406 214.579 354.631 214.442 359.953 215.099C361.67 215.31 363.4 215.605 365.041 216.012C366.995 216.492 368.822 217.13 370.36 217.971C370.425 218.006 370.487 218.04 370.549 218.075C370.549 218.075 372.649 213.553 374.935 208.141C375.016 207.945 375.092 207.75 375.159 207.554C375.888 205.397 375.656 203.216 375.307 201.277C376.479 200.293 377.842 200.283 377.842 200.283Z" fill="#739CF3"/>
<path d="M371.226 186.08C371.226 186.08 361.227 184.173 362.52 178.008C363.812 171.846 363.394 167.447 369.831 168.406C376.271 169.365 377.013 171.972 377.086 174.134C377.161 176.293 373.863 186.418 371.226 186.08Z" fill="#FFB27D"/>
<path d="M370.546 218.073C370.484 218.038 370.419 218.003 370.357 217.968C368.819 217.127 366.989 216.489 365.038 216.01C363.397 215.605 361.667 215.308 359.95 215.096C354.628 214.44 349.403 214.576 347.155 214.683C347.152 214.665 347.152 214.646 347.15 214.627C347.042 213.4 346.731 205.079 346.642 201.571C346.639 201.513 346.639 201.456 346.637 201.4C347.163 200.982 347.673 200.596 348.145 200.227C354.623 203.35 366.816 210.073 370.546 218.073Z" fill="#6488D3"/>
<path d="M377.515 170.646C376.365 168.473 375.115 168.636 374.346 169.06C369.526 164.955 365.089 168.62 365.089 168.62C363.491 172.904 359.745 174.769 359.745 174.769C359.745 174.769 361.327 176.261 365.739 176.063C367.089 176.001 368.419 175.337 369.62 174.445C367.332 176.912 364.595 178.463 364.595 178.463C370.082 177.207 373.547 170.721 373.901 170.032C374.395 170.702 375.345 172.127 375.466 173.36C375.631 175.031 375.175 178.308 376.146 178.396C376.146 178.391 379.239 173.903 377.515 170.646Z" fill="#2C3A64"/>
<path d="M338.524 236.763C338.524 236.763 331.085 248.468 340.278 254.906C349.47 261.344 380.416 264.423 378.897 265.671C374.254 269.492 370.039 275.364 370.26 310.537L372.554 311.713C372.554 311.713 394.62 264.058 393.141 258.378C392.162 254.617 359.975 234.271 338.524 236.763Z" fill="#FFB27D"/>
<path d="M356.366 261.119C356.366 261.119 337.614 258.035 335.682 251.463C334.238 246.555 333.809 244.551 342.308 228.693C342.308 228.693 345.859 235.388 364.393 233.84C364.393 233.84 364.298 234.708 364.298 235.884C364.323 237.834 364.63 240.607 366.169 241.406C366.193 241.43 366.239 241.43 366.263 241.454C368.7 242.558 372.479 244.787 373.046 244.998C373.067 244.996 361.667 247.161 356.366 261.119Z" fill="#EE9849"/>
<path d="M366.166 241.403C357.905 238.984 348.367 238.418 348.367 238.349C355.373 236.562 360.509 235.881 364.296 235.881C364.32 237.832 364.628 240.605 366.166 241.403Z" fill="#E58638"/>
<path d="M367.154 312.243L369.086 313.165C369.783 313.374 370.349 313.414 371.057 313.645C372.128 313.993 372.392 314.625 372.441 314.765C372.446 314.783 372.449 314.791 372.449 314.791L380.657 318.706C381.005 318.513 381.134 317.738 381.183 317.146C381.215 316.744 381.056 316.353 380.751 316.083C380.001 315.418 378.395 314.376 377.507 312.214C377.008 311 374.649 307.263 374.649 307.263L374.633 307.249C374.557 307.215 374.152 307.156 371.988 307.71C370.87 307.997 370.29 305.744 370.29 305.744C370.29 305.744 369.934 305.832 369.556 306.13C369.254 306.365 368.938 306.732 368.773 307.298C368.541 308.091 367.486 309.267 366.722 310.038C366.261 310.507 365.907 310.826 365.907 310.826C365.907 310.826 365.591 311.244 367.154 312.243Z" fill="#B84C42"/>
<path d="M369.553 306.132C369.858 306.676 370.525 307.775 371.129 308.166C371.947 308.696 374.646 307.263 374.646 307.263L374.63 307.249C374.554 307.215 374.149 307.156 371.985 307.71C370.868 307.997 370.287 305.744 370.287 305.744C370.287 305.744 369.931 305.835 369.553 306.132Z" fill="#AA3E39"/>
<path d="M367.154 312.243L369.086 313.165C369.782 313.374 370.349 313.414 371.056 313.645C372.128 313.993 372.392 314.625 372.441 314.765C372.446 314.783 372.449 314.791 372.449 314.791L380.656 318.706C381.005 318.513 381.134 317.738 381.183 317.146C381.04 316.809 380.4 317.95 380.173 318.071C379.944 318.191 373.445 314.947 373.199 314.491C372.954 314.038 372.05 313.018 370.282 312.637C368.746 312.308 367.119 310.499 366.725 310.038C366.263 310.507 365.91 310.826 365.91 310.826C365.91 310.826 365.591 311.244 367.154 312.243Z" fill="#AA3E39"/>
<path d="M391.638 233.29C391.638 233.29 389.382 232.556 387.606 232.629C385.83 232.701 383.317 231.069 383.317 231.069C383.317 231.069 366.082 222.892 364.179 219.889C361.705 215.975 357.535 202.753 353.808 195.222C352.029 191.632 350.353 189.333 349.001 189.946C349.001 189.946 345.627 191.005 345.827 197.805C345.835 198.185 345.859 198.581 345.894 198.999C346.55 206.874 354.852 225.502 360.339 228.671C365.823 231.841 382.602 234.116 382.602 234.116C384.365 234.059 386.386 236.229 387.053 236.449C387.719 236.669 389.679 236.2 390.491 236.449C394.216 237.59 394.226 236.779 394.226 236.779C394.005 233.987 391.638 233.29 391.638 233.29Z" fill="#FFB27D"/>
<path d="M353.808 195.219C349.206 194.142 345.827 197.802 345.827 197.802C345.627 191.002 349.001 189.944 349.001 189.944C350.353 189.33 352.032 191.629 353.808 195.219Z" fill="#739CF3"/>
<path d="M23.1267 285.811C19.108 285.35 15.54 293.398 12.6792 303.418C11.5834 307.247 10.5929 311.362 9.72119 315.408C9.86153 315.836 9.99918 316.26 10.1368 316.683C10.1557 316.744 10.1773 316.803 10.1935 316.86C11.0841 319.552 11.9937 322.13 12.9059 324.578C12.9059 324.581 12.9059 324.581 12.9059 324.581C12.9302 324.643 12.9545 324.71 12.9761 324.771C15.9044 318.59 19.1269 311.383 21.5613 304.857C25.3317 294.751 27.202 286.277 23.1267 285.811Z" fill="#82B378"/>
<path d="M55.7024 292.388C47.3331 290.084 38.6508 298.735 31.2099 310.001C25.7365 318.285 20.9324 327.986 17.4185 335.78V335.783C17.6641 336.343 17.9043 336.889 18.1418 337.428C18.7463 338.778 19.3266 340.053 19.8907 341.251C21.6045 344.9 23.1158 347.836 24.2548 349.956C30.3678 343.277 37.7115 334.904 44.1376 326.617C56.4851 310.684 65.4401 295.064 55.7024 292.388Z" fill="#82B378"/>
<path d="M75.9711 331.745C75.7147 330.157 74.2951 329.002 72.6757 328.986C65.4966 328.916 57.8965 331.542 50.6742 335.37C41.22 340.38 32.4188 347.456 26.0791 353.235C26.3193 353.645 26.4489 353.854 26.4489 353.854L28.0736 353.859L31.7576 353.873C31.7603 353.873 31.7603 353.873 31.7603 353.873L37.1365 353.891C47.0766 349.393 58.2959 344.257 65.3293 340.863C67.4344 339.847 69.1644 338.987 70.3709 338.349C75.2802 335.748 76.2383 333.422 75.9711 331.745Z" fill="#82B378"/>
</g>
<defs>
<clipPath id="clip0_55_4423">
<rect width="901" height="356" fill="white"/>
</clipPath>
</defs>
</svg>
