<?xml version="1.0" encoding="UTF-8" standalone="no"?>
<svg
   width="21"
   height="22"
   viewBox="0 0 21 22"
   fill="none"
   version="1.1"
   id="svg1067"
   sodipodi:docname="Activity.svg"
   inkscape:version="1.2.1 (9c6d41e410, 2022-07-14)"
   xmlns:inkscape="http://www.inkscape.org/namespaces/inkscape"
   xmlns:sodipodi="http://sodipodi.sourceforge.net/DTD/sodipodi-0.dtd"
   xmlns="http://www.w3.org/2000/svg"
   xmlns:svg="http://www.w3.org/2000/svg">
  <defs
     id="defs1071" />
  <sodipodi:namedview
     id="namedview1069"
     pagecolor="#ffffff"
     bordercolor="#000000"
     borderopacity="0.25"
     inkscape:showpageshadow="2"
     inkscape:pageopacity="0.0"
     inkscape:pagecheckerboard="0"
     inkscape:deskcolor="#d1d1d1"
     showgrid="false"
     inkscape:zoom="22.818182"
     inkscape:cx="10.496016"
     inkscape:cy="11"
     inkscape:window-width="1366"
     inkscape:window-height="705"
     inkscape:window-x="-8"
     inkscape:window-y="-8"
     inkscape:window-maximized="1"
     inkscape:current-layer="svg1067" />
  <path
     style="color:#000000;fill:#ffffff;stroke-linecap:round;stroke-linejoin:round"
     d="M 14.486328,8.0488281 A 0.75,0.75 0 0 0 13.988281,8.3339844 L 11.521484,11.517578 8.7011719,9.3007813 A 0.750075,0.750075 0 0 0 7.6425781,9.4335938 L 4.6503906,13.324219 A 0.75,0.75 0 0 0 4.7871094,14.375 0.75,0.75 0 0 0 5.8378906,14.238281 l 2.5332032,-3.289062 2.8164062,2.21289 a 0.750075,0.750075 0 0 0 1.056641,-0.128906 L 15.173828,9.2519531 A 0.75,0.75 0 0 0 15.039063,8.1992188 0.75,0.75 0 0 0 14.486328,8.0488281 Z"
     id="path1061" />
  <path
     style="color:#000000;fill:#ffffff;stroke-linecap:round;stroke-linejoin:round"
     d="m 17.994141,0.52734375 c -1.466931,0 -2.671875,1.20689775 -2.671875,2.67382815 0,1.4669303 1.204944,2.671875 2.671875,2.671875 1.46693,0 2.671875,-1.2049447 2.671875,-2.671875 0,-1.4669304 -1.204945,-2.67382815 -2.671875,-2.67382815 z m 0,1.50000005 c 0.656271,0 1.171875,0.5175571 1.171875,1.1738281 0,0.656271 -0.515604,1.171875 -1.171875,1.171875 -0.656271,0 -1.171875,-0.515604 -1.171875,-1.171875 0,-0.656271 0.515604,-1.1738281 1.171875,-1.1738281 z"
     id="circle1063" />
  <path
     style="color:#000000;fill:#ffffff;stroke-linecap:round;stroke-linejoin:round;-inkscape-stroke:none"
     d="m 5.65625,1.3710937 c -1.6827707,0 -3.1301029,0.614766 -4.1191406,1.6816407 C 0.54807169,4.1196091 0.02734375,5.6029383 0.02734375,7.2636719 v 8.0839841 c 0,1.657677 0.51038375,3.13868 1.49609375,4.205078 0.98571,1.066399 2.4346123,1.679688 4.1328125,1.679688 h 8.603516 c 1.681995,0 3.129702,-0.613113 4.11914,-1.677735 0.989439,-1.064621 1.509766,-2.546313 1.509766,-4.207031 V 8.3085938 a 0.75,0.75 0 0 0 -0.75,-0.7500001 0.75,0.75 0 0 0 -0.75,0.7500001 v 7.0390622 c 0,1.35068 -0.412315,2.435521 -1.109375,3.185547 -0.69706,0.750027 -1.690129,1.199219 -3.019531,1.199219 H 5.65625 c -1.3498467,0 -2.3396162,-0.449016 -3.03125,-1.197266 -0.6916338,-0.748249 -1.0976562,-1.833779 -1.0976563,-3.1875 V 7.2636719 C 1.5273438,5.9129684 1.9392601,4.8246141 2.6367188,4.0722656 3.3341774,3.3199172 4.3275837,2.8710937 5.65625,2.8710938 h 7.267578 a 0.75,0.75 0 0 0 0.75,-0.75 0.75,0.75 0 0 0 -0.75,-0.7500001 z"
     id="path1065" />
</svg>
