<svg width="27" height="24" viewBox="0 0 27 24" fill="none" xmlns="http://www.w3.org/2000/svg">
<path d="M26.6855 9.07031H19.1855C19.0566 9.07031 18.9512 9.17578 18.9512 9.30469V10.7109C18.9512 10.8398 19.0566 10.9453 19.1855 10.9453H26.6855C26.8145 10.9453 26.9199 10.8398 26.9199 10.7109V9.30469C26.9199 9.17578 26.8145 9.07031 26.6855 9.07031ZM22.7598 13.0547H19.1855C19.0566 13.0547 18.9512 13.1602 18.9512 13.2891V14.6953C18.9512 14.8242 19.0566 14.9297 19.1855 14.9297H22.7598C22.8887 14.9297 22.9941 14.8242 22.9941 14.6953V13.2891C22.9941 13.1602 22.8887 13.0547 22.7598 13.0547ZM12.9834 6.44824H11.7148C11.5332 6.44824 11.3867 6.59473 11.3867 6.77637V14.042C11.3867 14.1475 11.4365 14.2441 11.5215 14.3057L15.8838 17.4873C16.0303 17.5928 16.2354 17.5635 16.3408 17.417L17.0938 16.3887V16.3857C17.1992 16.2393 17.167 16.0342 17.0205 15.9287L13.3086 13.2451V6.77637C13.3115 6.59473 13.1621 6.44824 12.9834 6.44824V6.44824Z" fill="#FF852A"/>
<path d="M22.5781 16.7431H20.8848C20.7207 16.7431 20.5654 16.8281 20.4776 16.9687C20.1055 17.5576 19.6719 18.1025 19.1738 18.6006C18.3154 19.459 17.3164 20.1328 16.2061 20.6015C15.0547 21.0879 13.833 21.334 12.5733 21.334C11.3106 21.334 10.0889 21.0879 8.94045 20.6015C7.8301 20.1328 6.83107 19.459 5.97268 18.6006C5.11428 17.7422 4.44045 16.7431 3.9717 15.6328C3.48537 14.4844 3.23928 13.2627 3.23928 12C3.23928 10.7373 3.48537 9.51853 3.9717 8.36717C4.44045 7.25681 5.11428 6.25779 5.97268 5.39939C6.83107 4.54099 7.8301 3.86717 8.94045 3.39842C10.0889 2.91209 11.3135 2.66599 12.5733 2.66599C13.836 2.66599 15.0576 2.91209 16.2061 3.39842C17.3164 3.86717 18.3154 4.54099 19.1738 5.39939C19.6719 5.89744 20.1055 6.44236 20.4776 7.03123C20.5654 7.17185 20.7207 7.25681 20.8848 7.25681H22.5781C22.7803 7.25681 22.9092 7.04588 22.8184 6.86717C20.9082 3.06736 17.0352 0.597634 12.711 0.54783C6.3799 0.468728 1.12111 5.65135 1.1094 11.9765C1.09768 18.3135 6.23342 23.4551 12.5703 23.4551C16.9502 23.4551 20.8877 20.9765 22.8184 17.1328C22.9092 16.9541 22.7774 16.7431 22.5781 16.7431V16.7431Z" fill="#FF852A"/>
</svg>
