<?xml version="1.0" encoding="UTF-8" standalone="no"?>
<svg
   width="56"
   height="52"
   viewBox="0 0 56 52"
   fill="none"
   version="1.1"
   id="svg8758"
   sodipodi:docname="cloud.svg"
   inkscape:version="1.2.1 (9c6d41e410, 2022-07-14)"
   xmlns:inkscape="http://www.inkscape.org/namespaces/inkscape"
   xmlns:sodipodi="http://sodipodi.sourceforge.net/DTD/sodipodi-0.dtd"
   xmlns="http://www.w3.org/2000/svg"
   xmlns:svg="http://www.w3.org/2000/svg">
  <sodipodi:namedview
     id="namedview8760"
     pagecolor="#ffffff"
     bordercolor="#000000"
     borderopacity="0.25"
     inkscape:showpageshadow="2"
     inkscape:pageopacity="0.0"
     inkscape:pagecheckerboard="0"
     inkscape:deskcolor="#d1d1d1"
     showgrid="false"
     inkscape:zoom="10.096154"
     inkscape:cx="28.08"
     inkscape:cy="26.049524"
     inkscape:window-width="1366"
     inkscape:window-height="705"
     inkscape:window-x="-8"
     inkscape:window-y="-8"
     inkscape:window-maximized="1"
     inkscape:current-layer="svg8758" />
  <g
     clip-path="url(#clip0_216_11084)"
     id="g8747">
    <path
       fill-rule="evenodd"
       clip-rule="evenodd"
       d="M28 51.1333C41.3469 51.1333 52.1667 39.8808 52.1667 26C52.1667 12.1192 41.3469 0.866667 28 0.866667C14.6531 0.866667 3.83333 12.1192 3.83333 26C3.83333 39.8808 14.6531 51.1333 28 51.1333ZM53 26C53 40.3594 41.8071 52 28 52C14.1929 52 3 40.3594 3 26C3 11.6406 14.1929 0 28 0C41.8071 0 53 11.6406 53 26Z"
       fill="#FF852A"
       id="path8741" />
    <path
       fill-rule="evenodd"
       clip-rule="evenodd"
       d="M27.8607 47.6667C39.4433 47.6667 48.8329 37.9015 48.8329 25.8556C48.8329 13.8096 39.4433 4.04447 27.8607 4.04447C16.278 4.04447 6.88845 13.8096 6.88845 25.8556C6.88845 37.9015 16.278 47.6667 27.8607 47.6667ZM49.944 25.8556C49.944 38.5397 40.057 48.8223 27.8607 48.8223C15.6644 48.8223 5.77734 38.5397 5.77734 25.8556C5.77734 13.1714 15.6644 2.88892 27.8607 2.88892C40.057 2.88892 49.944 13.1714 49.944 25.8556Z"
       fill="#FF852A"
       id="path8743" />
    <path
       style="color:#000000;clip-rule:evenodd;fill:#ff852a;fill-rule:evenodd;-inkscape-stroke:none"
       d="m 27.861328,5.8554687 c -10.63632,0 -19.2499999,8.9706823 -19.2499999,20.0000003 0,11.029415 8.6136819,20 19.2499999,20 10.636415,0 19.25,-8.970587 19.25,-20 0,-11.029316 -8.613583,-20.0000003 -19.25,-20.0000003 z m 0,1 c 10.074362,0 18.25,8.4903373 18.25,19.0000003 0,10.509765 -8.175636,19 -18.25,19 -10.074261,0 -18.2499999,-8.490237 -18.2499999,-19 0,-10.509661 8.1757409,-19.0000003 18.2499999,-19.0000003 z"
       id="path8745" />
  </g>
  <path
     d="M52.9938 17.889C52.9979 17.7598 53 17.6302 53 17.5C53 11.1487 48.0304 6 41.9 6C37.037 6 32.9044 9.23998 31.4035 13.7501C30.3257 13.1673 29.1 12.8378 27.8 12.8378C23.4922 12.8378 20 16.4559 20 20.9189C20 25.382 23.4922 29 27.8 29L41.915 29H50.3C53.448 29 56 26.3561 56 23.0946C56 20.8426 54.7833 18.885 52.9938 17.889Z"
     fill="#FF852A"
     id="path8749" />
  <path
     d="M20.1629 38.2368C20.1654 38.1582 20.1667 38.0792 20.1667 38C20.1667 34.134 17.1297 31 13.3833 31C10.4115 31 7.886 32.9722 6.96882 35.7174C6.31013 35.3627 5.56109 35.1622 4.76667 35.1622C2.13411 35.1622 0 37.3644 0 40.0811C0 42.7977 2.13411 45 4.76667 45L13.3925 45H18.5167C20.4405 45 22 43.3906 22 41.4054C22 40.0346 21.2565 38.8431 20.1629 38.2368Z"
     fill="#FF852A"
     id="path8751" />
  <defs
     id="defs8756">
    <clipPath
       id="clip0_216_11084">
      <rect
         width="50"
         height="52"
         fill="white"
         transform="translate(3)"
         id="rect8753" />
    </clipPath>
  </defs>
</svg>
