<svg width="22" height="22" viewBox="0 0 22 22" fill="none" xmlns="http://www.w3.org/2000/svg">
<path d="M11 22C9.6963 22 8.46389 21.7861 7.30278 21.3583C6.14167 20.9306 5.09259 20.3398 4.15556 19.5861L1.74167 22L0 20.2583L2.41389 17.8444C1.66019 16.9074 1.06944 15.853 0.641667 14.6813C0.213889 13.5104 0 12.2833 0 11C0 7.94444 1.07474 5.34722 3.22422 3.20833C5.37289 1.06944 7.96481 0 11 0H22V11C22 14.0352 20.9306 16.6275 18.7917 18.777C16.6528 20.9257 14.0556 22 11 22ZM11 19.5556C13.3833 19.5556 15.4049 18.7204 17.0647 17.05C18.7253 15.3796 19.5556 13.363 19.5556 11V2.44444H11C8.63704 2.44444 6.62037 3.27433 4.95 4.93411C3.27963 6.5947 2.44444 8.61667 2.44444 11C2.44444 13.363 3.27963 15.3796 4.95 17.05C6.62037 18.7204 8.63704 19.5556 11 19.5556ZM9.38056 16.9583L15.7056 11.3056C15.9093 11.1222 15.9704 10.903 15.8889 10.648C15.8074 10.3938 15.6241 10.2463 15.3389 10.2056L10.3889 9.71667L13.3528 5.65278C13.4343 5.55093 13.4697 5.44378 13.4591 5.33133C13.4493 5.2197 13.4037 5.11296 13.3222 5.01111C13.2204 4.90926 13.1034 4.85833 12.9714 4.85833C12.8386 4.85833 12.7213 4.90926 12.6194 5.01111L6.325 10.6639C6.1213 10.8472 6.06018 11.066 6.14167 11.3202C6.22315 11.5753 6.40648 11.7231 6.69167 11.7639L11.6417 12.2528L8.64722 16.3167C8.58611 16.4185 8.55556 16.5257 8.55556 16.6381C8.55556 16.7497 8.60648 16.8565 8.70833 16.9583C8.81019 17.0602 8.92222 17.1111 9.04444 17.1111C9.16667 17.1111 9.2787 17.0602 9.38056 16.9583Z" fill="#FF852A"/>
</svg>
