<?xml version="1.0" encoding="UTF-8" standalone="no"?>
<svg
   width="32"
   height="32"
   viewBox="0 0 32 32"
   fill="none"
   version="1.1"
   id="svg274"
   sodipodi:docname="no.svg"
   inkscape:version="1.2.1 (9c6d41e410, 2022-07-14)"
   xmlns:inkscape="http://www.inkscape.org/namespaces/inkscape"
   xmlns:sodipodi="http://sodipodi.sourceforge.net/DTD/sodipodi-0.dtd"
   xmlns="http://www.w3.org/2000/svg"
   xmlns:svg="http://www.w3.org/2000/svg">
  <defs
     id="defs278" />
  <sodipodi:namedview
     id="namedview276"
     pagecolor="#ffffff"
     bordercolor="#000000"
     borderopacity="0.25"
     inkscape:showpageshadow="2"
     inkscape:pageopacity="0.0"
     inkscape:pagecheckerboard="0"
     inkscape:deskcolor="#d1d1d1"
     showgrid="false"
     inkscape:zoom="16.40625"
     inkscape:cx="16"
     inkscape:cy="16.030476"
     inkscape:window-width="1366"
     inkscape:window-height="705"
     inkscape:window-x="-8"
     inkscape:window-y="-8"
     inkscape:window-maximized="1"
     inkscape:current-layer="svg274" />
  <path
     style="color:#000000;fill:#00a743;-inkscape-stroke:none"
     d="M 16,0 C 7.178851,0 0,7.178851 0,16 0,24.821149 7.178851,32 16,32 24.821149,32 32,24.821149 32,16 32,7.178851 24.821149,0 16,0 Z m 0,2.5996094 C 23.416006,2.5996094 29.400391,8.5839938 29.400391,16 29.400391,23.416006 23.416006,29.400391 16,29.400391 8.5839938,29.400391 2.5996094,23.416006 2.5996094,16 2.5996094,8.5839938 8.5839938,2.5996094 16,2.5996094 Z"
     id="circle268" />
  <rect
     width="2.44376"
     height="17.9209"
     rx="1.22188"
     transform="matrix(-0.707105 -0.707108 -0.707105 0.707108 23.2 10.528)"
     fill="#00A743"
     id="rect270" />
  <rect
     width="2.44376"
     height="17.9209"
     rx="1.22188"
     transform="matrix(0.707105 -0.707108 0.707105 0.707108 8.80005 10.528)"
     fill="#00A743"
     id="rect272" />
</svg>
