<?xml version="1.0" encoding="UTF-8" standalone="no"?>
<svg
   width="52"
   height="58"
   viewBox="0 0 52 58"
   fill="none"
   version="1.1"
   id="svg19396"
   sodipodi:docname="ssl.svg"
   inkscape:version="1.2.1 (9c6d41e410, 2022-07-14)"
   xmlns:inkscape="http://www.inkscape.org/namespaces/inkscape"
   xmlns:sodipodi="http://sodipodi.sourceforge.net/DTD/sodipodi-0.dtd"
   xmlns="http://www.w3.org/2000/svg"
   xmlns:svg="http://www.w3.org/2000/svg">
  <defs
     id="defs19400" />
  <sodipodi:namedview
     id="namedview19398"
     pagecolor="#ffffff"
     bordercolor="#000000"
     borderopacity="0.25"
     inkscape:showpageshadow="2"
     inkscape:pageopacity="0.0"
     inkscape:pagecheckerboard="0"
     inkscape:deskcolor="#d1d1d1"
     showgrid="false"
     inkscape:zoom="9.0517241"
     inkscape:cx="26.017143"
     inkscape:cy="29.055238"
     inkscape:window-width="1366"
     inkscape:window-height="705"
     inkscape:window-x="-8"
     inkscape:window-y="-8"
     inkscape:window-maximized="1"
     inkscape:current-layer="svg19396" />
  <path
     style="color:#000000;fill:#ff852a;stroke-linejoin:round;-inkscape-stroke:none"
     d="M 25.539062,0.58203125 1.2949219,7.6210937 A 1.70017,1.70017 0 0 0 0.0703125,9.2539063 V 23.681641 c 0,15.904652 10.3312185,28.726642 25.3984375,33.71875 a 1.70017,1.70017 0 0 0 1.070312,-0.002 C 41.602144,52.404898 51.931641,39.587945 51.931641,23.6875 V 9.2539063 A 1.70017,1.70017 0 0 0 50.705078,7.6210937 L 26.486328,0.58203125 a 1.70017,1.70017 0 0 0 -0.947266,0 z M 26.011719,3.984375 48.53125,10.529297 V 23.6875 c 0,14.248166 -8.967504,25.548126 -22.527344,30.265625 C 12.440444,49.236835 3.46875,37.933746 3.46875,23.681641 V 10.53125 Z"
     id="path19390" />
  <path
     style="color:#000000;fill:#ff852a;stroke-linecap:round;stroke-linejoin:round"
     d="m 26,12.568359 c -4.631358,0 -8.429687,3.774711 -8.429688,8.396485 0,4.621774 3.79833,8.396484 8.429688,8.396484 4.631358,0 8.431641,-3.77471 8.431641,-8.396484 0,-4.621774 -3.800283,-8.396485 -8.431641,-8.396485 z m 0,3.400391 c 2.803234,0 5.03125,2.221275 5.03125,4.996094 0,2.774819 -2.228016,4.996093 -5.03125,4.996093 -2.803234,0 -5.03125,-2.221274 -5.03125,-4.996093 0,-2.774819 2.228016,-4.996094 5.03125,-4.996094 z"
     id="path19392" />
  <path
     style="color:#000000;fill:#ff852a;stroke-linecap:round;stroke-linejoin:round"
     d="m 26,25.960937 c -3.304102,0 -6.473734,1.305975 -8.8125,3.632813 -2.338702,2.326891 -3.65625,5.487094 -3.65625,8.78125 a 1.7,1.7 0 0 0 1.699219,1.699219 1.7,1.7 0 0 0 1.701172,-1.699219 c 0,-2.389038 0.95185,-4.679188 2.652343,-6.371094 1.700431,-1.691758 4.007724,-2.642578 6.416016,-2.642578 2.408292,0 4.715585,0.95082 6.416016,2.642578 1.700473,1.691886 2.654297,3.982016 2.654296,6.371094 a 1.7,1.7 0 0 0 1.699219,1.699219 1.7,1.7 0 0 0 1.701172,-1.699219 c 0,-3.294116 -1.317528,-6.45434 -3.65625,-8.78125 C 32.475687,27.266912 29.304102,25.960938 26,25.960937 Z"
     id="path19394" />
</svg>
