<svg width="798" height="366" viewBox="0 0 798 366" fill="none" xmlns="http://www.w3.org/2000/svg">
<g clip-path="url(#clip0_55_4888)">
<path d="M195.089 364.473C195.236 361.809 134.579 281.833 205.217 207.994C237.105 174.661 291.042 192.722 282.511 95.3473C275.144 11.2741 402.384 -38.1271 481.46 36.935C532.55 85.4331 584.27 20.7343 665.324 57.4434C746.375 94.1524 693.003 193.927 726.263 203.328C791.779 221.848 824.317 303.344 772.084 363.567L195.089 364.473Z" fill="#EBF3FA"/>
<path d="M468.185 170.092C467.841 169.359 467.463 168.616 467.058 167.883L468.199 167.213C468.616 167.971 469.009 168.743 469.365 169.501L468.185 170.092ZM465.799 165.746C465.365 165.056 464.901 164.364 464.42 163.686L465.478 162.882C465.973 163.58 466.452 164.293 466.899 165.003L465.799 165.746ZM335.437 180.704C334.608 180.795 333.773 180.869 332.956 180.917L332.88 179.562C333.675 179.514 334.49 179.443 335.297 179.354L335.437 180.704ZM337.904 180.367L337.702 179.027C338.493 178.9 339.298 178.753 340.095 178.588L340.353 179.918C339.536 180.085 338.711 180.237 337.904 180.367ZM330.465 181.003C329.63 181.011 328.791 180.993 327.971 180.955L328.033 179.601C328.828 179.639 329.643 179.654 330.455 179.649L330.465 181.003ZM342.78 179.36L342.468 178.043C343.246 177.848 344.037 177.629 344.82 177.396L345.183 178.7C344.383 178.936 343.575 179.159 342.78 179.36ZM325.483 180.762C324.653 180.674 323.821 180.562 323.009 180.425L323.22 179.086C324.005 179.217 324.813 179.329 325.618 179.413L325.483 180.762ZM347.556 177.944L347.146 176.655C347.907 176.396 348.68 176.117 349.446 175.826L349.9 177.099C349.122 177.396 348.332 177.68 347.556 177.944ZM352.212 176.171L351.716 174.915C352.46 174.6 353.213 174.268 353.957 173.923L354.492 175.161C353.736 175.511 352.97 175.851 352.212 176.171ZM320.557 179.933C319.74 179.743 318.927 179.522 318.137 179.281L318.51 177.979C319.271 178.213 320.059 178.423 320.847 178.609L320.557 179.933ZM462.932 161.71C462.424 161.071 461.889 160.432 461.347 159.813L462.319 158.899C462.878 159.536 463.426 160.191 463.949 160.85L462.932 161.71ZM356.74 174.078L356.168 172.857C356.89 172.495 357.623 172.114 358.347 171.723L358.956 172.926C358.217 173.322 357.474 173.71 356.74 174.078ZM315.764 178.467C314.981 178.167 314.2 177.837 313.447 177.485L313.987 176.249C314.713 176.587 315.464 176.906 316.218 177.193L315.764 178.467ZM361.133 171.706L360.492 170.521C361.194 170.115 361.906 169.691 362.606 169.26L363.278 170.425C362.566 170.863 361.845 171.295 361.133 171.706ZM459.668 157.999C459.099 157.413 458.505 156.832 457.906 156.274L458.785 155.267C459.398 155.84 460.007 156.436 460.594 157.037L459.668 157.999ZM311.201 176.338C310.468 175.927 309.741 175.486 309.042 175.024L309.748 173.882C310.418 174.326 311.118 174.753 311.825 175.146L311.201 176.338ZM365.389 169.088L364.687 167.941C365.367 167.497 366.054 167.035 366.736 166.566L367.465 167.695C366.775 168.169 366.076 168.639 365.389 169.088ZM369.507 166.249L368.753 165.138C369.411 164.661 370.079 164.163 370.739 163.664L371.517 164.757C370.849 165.264 370.172 165.767 369.507 166.249ZM306.983 173.545C306.315 173.025 305.662 172.474 305.039 171.906L305.908 170.889C306.504 171.434 307.132 171.962 307.773 172.462L306.983 173.545ZM456.066 154.635C455.442 154.107 454.799 153.59 454.151 153.09L454.934 152.001C455.599 152.511 456.259 153.044 456.897 153.585L456.066 154.635ZM373.49 163.22L372.69 162.144L372.884 161.989C373.475 161.517 374.064 161.053 374.653 160.599L375.439 161.685C374.857 162.136 374.273 162.596 373.686 163.065L373.49 163.22ZM452.168 151.644C451.501 151.18 450.811 150.725 450.121 150.294L450.801 149.132C451.51 149.574 452.215 150.04 452.902 150.515L452.168 151.644ZM303.228 170.118C302.648 169.499 302.086 168.847 301.556 168.184L302.57 167.322C303.078 167.959 303.615 168.58 304.172 169.174L303.228 170.118ZM377.412 160.188L376.646 159.087C377.316 158.59 377.996 158.093 378.666 157.616L379.412 158.732C378.747 159.204 378.075 159.696 377.412 160.188ZM448.016 149.046C447.309 148.65 446.58 148.265 445.853 147.904L446.423 146.682C447.169 147.052 447.915 147.448 448.639 147.854L448.016 149.046ZM381.437 157.316L380.713 156.185C381.405 155.713 382.104 155.246 382.792 154.8L383.491 155.949C382.814 156.39 382.122 156.85 381.437 157.316ZM300.04 166.117C299.563 165.412 299.107 164.676 298.687 163.93L299.821 163.245C300.226 163.958 300.66 164.663 301.117 165.341L300.04 166.117ZM385.575 154.625L384.9 153.46C385.607 153.021 386.326 152.59 387.037 152.171L387.685 153.351C386.983 153.765 386.274 154.193 385.575 154.625ZM443.642 146.869C442.898 146.545 442.14 146.233 441.387 145.946L441.841 144.672C442.614 144.967 443.394 145.286 444.155 145.621L443.642 146.869ZM389.823 152.133L389.202 150.939C389.929 150.535 390.667 150.139 391.399 149.759L391.988 150.972C391.269 151.344 390.54 151.735 389.823 152.133ZM439.089 145.134C438.321 144.883 437.538 144.65 436.758 144.436L437.094 143.125C437.894 143.343 438.699 143.584 439.485 143.843L439.089 145.134ZM394.187 149.865L393.627 148.638C394.376 148.275 395.134 147.92 395.883 147.58L396.408 148.823C395.674 149.158 394.925 149.508 394.187 149.865ZM297.504 161.639C297.144 160.865 296.805 160.066 296.503 159.262L297.725 158.77C298.015 159.541 298.339 160.307 298.685 161.051L297.504 161.639ZM434.397 143.85C433.612 143.675 432.809 143.518 432.011 143.381L432.227 142.044C433.045 142.184 433.867 142.346 434.672 142.526L434.397 143.85ZM398.658 147.851L398.17 146.593C398.938 146.273 399.716 145.964 400.484 145.674L400.936 146.948C400.182 147.232 399.417 147.537 398.658 147.851ZM429.609 143.026C428.809 142.927 427.996 142.846 427.191 142.785L427.287 141.433C428.112 141.496 428.944 141.577 429.763 141.679L429.609 143.026ZM403.238 146.116L402.826 144.827C403.613 144.558 404.411 144.299 405.194 144.064L405.565 145.365C404.794 145.598 404.011 145.852 403.238 146.116ZM424.767 142.658C423.966 142.635 423.149 142.628 422.337 142.64L422.317 141.283C423.147 141.27 423.984 141.275 424.803 141.301L424.767 142.658ZM407.913 144.695L407.587 143.381C408.387 143.168 409.199 142.968 410.002 142.787L410.282 144.112C409.494 144.292 408.699 144.487 407.913 144.695ZM419.91 142.732C419.107 142.78 418.292 142.846 417.487 142.927L417.357 141.577C418.179 141.494 419.014 141.425 419.834 141.377L419.91 142.732ZM412.67 143.622L412.436 142.288C413.254 142.135 414.078 141.998 414.891 141.882L415.072 143.226C414.277 143.34 413.47 143.475 412.67 143.622ZM295.686 156.811C295.445 155.995 295.232 155.15 295.05 154.305L296.331 154.011C296.505 154.823 296.712 155.632 296.942 156.418L295.686 156.811ZM294.594 151.76C294.549 151.448 294.508 151.136 294.473 150.824C294.409 150.281 294.358 149.731 294.319 149.188L295.627 149.087C295.666 149.609 295.715 150.142 295.776 150.662C295.811 150.964 295.85 151.263 295.894 151.563L294.594 151.76ZM295.526 146.59L294.213 146.6C294.208 145.748 294.228 144.878 294.277 144.015L295.588 144.094C295.541 144.929 295.519 145.768 295.526 146.59ZM295.803 141.603L294.5 141.44C294.598 140.608 294.721 139.761 294.868 138.924L296.167 139.127L296.157 139.18C296.019 139.977 295.899 140.796 295.803 141.603ZM296.653 136.668L295.372 136.369C295.553 135.534 295.757 134.695 295.97 133.875L297.237 134.23C297.028 135.032 296.832 135.852 296.653 136.668ZM341.548 129.804C340.682 129.887 339.825 129.91 338.998 129.872L339.06 128.517C339.823 128.555 340.618 128.533 341.423 128.454L341.548 129.804ZM344.054 129.393L343.772 128.068C344.532 127.896 345.308 127.673 346.071 127.406L346.491 128.692C345.681 128.974 344.861 129.21 344.054 129.393ZM336.453 129.532C335.592 129.337 334.762 129.063 333.994 128.713L334.522 127.47C335.211 127.782 335.955 128.03 336.733 128.205L336.453 129.532ZM348.84 127.733L348.3 126.498C349.021 126.161 349.738 125.78 350.432 125.369L351.085 126.546C350.354 126.98 349.598 127.378 348.84 127.733ZM353.211 125.151L352.455 124.04C353.108 123.565 353.746 123.053 354.349 122.523L355.201 123.555C354.568 124.116 353.898 124.651 353.211 125.151ZM297.926 131.823L296.677 131.409C296.93 130.595 297.202 129.776 297.487 128.979L298.717 129.448C298.439 130.227 298.174 131.026 297.926 131.823ZM331.743 127.366C331.046 126.83 330.408 126.211 329.849 125.521L330.853 124.649C331.348 125.257 331.913 125.805 332.526 126.277L331.743 127.366ZM357.039 121.772L356.097 120.828C356.654 120.232 357.184 119.605 357.672 118.966L358.703 119.806C358.185 120.483 357.626 121.143 357.039 121.772ZM299.61 127.114L298.4 126.587C298.722 125.798 299.065 125.009 299.419 124.24L300.604 124.824C300.26 125.577 299.924 126.346 299.61 127.114ZM328.408 123.291C328.023 122.533 327.694 121.703 327.431 120.83L328.685 120.427C328.923 121.221 329.223 121.972 329.571 122.66L328.408 123.291ZM360.159 117.675L359.047 116.952C359.474 116.251 359.862 115.528 360.203 114.798L361.386 115.389C361.023 116.163 360.61 116.931 360.159 117.675ZM301.701 122.586L300.545 121.947C300.935 121.193 301.348 120.44 301.77 119.707L302.896 120.402C302.484 121.117 302.081 121.853 301.701 122.586ZM326.859 118.261C326.825 118.025 326.791 117.784 326.764 117.54C326.693 116.934 326.643 116.3 326.621 115.653L327.932 115.599C327.954 116.208 328.001 116.807 328.067 117.375C328.094 117.604 328.123 117.827 328.158 118.05L326.859 118.261ZM362.353 112.966L361.113 112.525C361.371 111.748 361.587 110.952 361.749 110.158L363.033 110.439C362.856 111.287 362.628 112.136 362.353 112.966ZM304.187 118.276L303.093 117.527C303.547 116.817 304.023 116.107 304.511 115.414L305.571 116.213C305.095 116.891 304.629 117.583 304.187 118.276ZM327.942 113.113L326.631 113.06C326.663 112.192 326.724 111.325 326.815 110.482L328.121 110.63C328.033 111.441 327.971 112.279 327.942 113.113ZM363.406 107.847L362.097 107.73C362.164 106.921 362.186 106.094 362.156 105.277L363.467 105.228C363.499 106.099 363.477 106.981 363.406 107.847ZM307.046 114.222L306.023 113.375C306.538 112.71 307.076 112.048 307.623 111.406L308.607 112.301C308.075 112.925 307.549 113.572 307.046 114.222ZM310.254 110.452L309.309 109.511C309.883 108.894 310.477 108.285 311.076 107.699L311.979 108.684C311.395 109.257 310.814 109.851 310.254 110.452ZM328.467 108.171L327.176 107.925C327.328 107.075 327.512 106.225 327.726 105.401L328.995 105.751C328.788 106.54 328.612 107.354 328.467 108.171ZM361.864 102.889C361.688 102.106 361.425 101.352 361.089 100.654L362.264 100.051C362.647 100.845 362.942 101.695 363.143 102.582L361.864 102.889ZM313.778 106.994L312.917 105.969C313.54 105.411 314.183 104.858 314.831 104.328L315.646 105.391C315.015 105.911 314.385 106.451 313.778 106.994ZM329.704 103.379L328.467 102.925C328.747 102.113 329.061 101.304 329.402 100.52L330.6 101.078C330.273 101.826 329.971 102.6 329.704 103.379ZM359.83 98.6731C359.346 98.0795 358.782 97.5264 358.156 97.0267L358.956 95.951C359.658 96.5091 360.291 97.1307 360.836 97.7979L359.83 98.6731ZM317.585 103.874L316.814 102.775C317.484 102.273 318.171 101.781 318.861 101.311L319.585 102.443C318.91 102.902 318.238 103.384 317.585 103.874ZM321.639 101.106L320.964 99.9416C321.674 99.5027 322.4 99.0739 323.127 98.668L323.752 99.8604C323.043 100.259 322.331 100.677 321.639 101.106ZM331.672 98.8583L330.524 98.2038C330.877 97.5391 331.262 96.8795 331.665 96.2351C331.233 96.3924 330.801 96.5548 330.374 96.7222L329.908 95.4538C330.683 95.1493 331.473 94.8601 332.256 94.5963L332.664 95.885C332.445 95.9586 332.224 96.0347 332.006 96.1134L332.917 96.7374C332.475 97.4249 332.058 98.1404 331.672 98.8583ZM356.178 95.7404C355.505 95.3827 354.774 95.0631 354.003 94.7891L354.428 93.5054C355.258 93.7997 356.048 94.1447 356.777 94.5329L356.178 95.7404ZM325.915 98.7137L325.34 97.4934C326.084 97.1205 326.845 96.7577 327.603 96.4203L328.123 97.666C327.385 97.9958 326.641 98.3484 325.915 98.7137ZM351.709 94.1346C350.955 93.9671 350.16 93.8327 349.345 93.7337L349.495 92.3866C350.351 92.4881 351.188 92.6302 351.984 92.8078L351.709 94.1346ZM334.99 95.1595L334.73 94.1828C334.59 94.3604 334.455 94.5379 334.32 94.7155L333.285 93.8834C333.79 93.2111 334.33 92.5439 334.895 91.8996L335.869 92.8078C335.606 93.1097 335.346 93.4166 335.096 93.7261C335.754 93.546 336.414 93.3811 337.064 93.2314L337.346 94.5557C336.566 94.7358 335.773 94.9388 334.99 95.1595ZM346.947 93.5536C346.165 93.5283 345.352 93.5308 344.535 93.5663L344.483 92.2116C345.333 92.1761 346.174 92.171 346.989 92.1989L346.947 93.5536ZM339.727 94.0838L339.514 92.7443C340.346 92.6023 341.178 92.4881 341.99 92.3993L342.127 93.749C341.339 93.8352 340.534 93.9468 339.727 94.0838ZM337.545 91.0167L336.632 90.0425C337.221 89.454 337.842 88.8705 338.483 88.3098L339.332 89.3424C338.716 89.8827 338.115 90.4484 337.545 91.0167ZM341.219 87.7796L340.429 86.6964C341.079 86.189 341.762 85.6867 342.459 85.2021L343.192 86.3285C342.515 86.7978 341.852 87.2875 341.219 87.7796ZM345.234 84.9839L344.557 83.822C345.254 83.3882 345.983 82.9569 346.719 82.5434L347.345 83.7358C346.626 84.1417 345.914 84.5603 345.234 84.9839ZM349.51 82.5866L348.935 81.3688C349.667 81.001 350.425 80.6357 351.191 80.2881L351.721 81.5287C350.97 81.8712 350.226 82.2263 349.51 82.5866ZM353.969 80.557L353.486 79.2962C354.241 78.9841 355.024 78.6797 355.81 78.388L356.254 79.664C355.481 79.9507 354.713 80.2501 353.969 80.557ZM358.563 78.8522L358.161 77.5609C358.939 77.3022 359.739 77.0485 360.534 76.81L360.9 78.1114C360.117 78.3474 359.329 78.596 358.563 78.8522ZM363.258 77.4442L362.929 76.1301C363.722 75.917 364.535 75.7141 365.342 75.5238L365.634 76.8455C364.839 77.0333 364.039 77.2362 363.258 77.4442ZM368.027 76.3153L367.769 74.986C368.586 74.816 369.409 74.6587 370.214 74.5192L370.435 75.8561C369.642 75.9957 368.832 76.1504 368.027 76.3153ZM375.264 75.1762C375.257 75.1762 374.364 75.2524 372.854 75.468L372.675 74.1234C374.234 73.9002 375.134 73.8241 375.161 73.8215L375.264 75.1762Z" fill="#8C9DF4"/>
<path d="M381.646 224.58H329.439V363.159H381.646V224.58Z" fill="#BDD1F9"/>
<path d="M462.861 179.286H410.655V363.159H462.861V179.286Z" fill="#BDD1F9"/>
<path d="M541.665 130.4H484.5V363.156H541.665V130.4Z" fill="#BDD1F9"/>
<path d="M614.239 98.1784H562.032V363.159H614.239V98.1784Z" fill="#BDD1F9"/>
<path d="M541.665 207.968L651.389 153.062L602.454 260.883L594.18 211.964L541.665 207.968Z" fill="#F77D48"/>
<path d="M516.423 171.211C513.738 159.808 520.507 148.313 531.538 145.537C542.57 142.762 553.69 149.756 556.375 161.162C559.06 172.566 552.294 184.06 541.26 186.836C530.228 189.611 519.108 182.614 516.423 171.211Z" fill="#FFB93E"/>
<path d="M540.884 185.245C536.022 186.468 530.991 185.661 526.718 182.972C522.443 180.283 519.439 176.034 518.256 171.011C517.073 165.985 517.853 160.784 520.455 156.365C523.056 151.946 527.165 148.841 532.027 147.618C536.888 146.395 541.92 147.202 546.195 149.891C550.47 152.58 553.474 156.827 554.657 161.852C555.84 166.878 555.06 172.079 552.458 176.498C549.857 180.915 545.746 184.022 540.884 185.245ZM532.292 148.739C522.855 151.114 517.043 160.98 519.341 170.737C521.638 180.491 531.182 186.496 540.621 184.124C550.058 181.749 555.869 171.883 553.572 162.126C551.275 152.369 541.728 146.364 532.292 148.739Z" fill="#FFA412"/>
<path d="M540.246 171.262C540.197 170.843 540.096 170.483 539.947 170.181C539.794 169.877 539.576 169.613 539.286 169.387C538.997 169.161 538.636 168.966 538.202 168.796C537.767 168.628 537.242 168.476 536.628 168.342C535.571 168.101 534.604 167.832 533.73 167.532C532.854 167.233 532.091 166.858 531.44 166.406C530.787 165.952 530.257 165.394 529.85 164.729C529.44 164.065 529.18 163.245 529.065 162.271C528.966 161.426 529.02 160.637 529.229 159.907C529.438 159.176 529.781 158.516 530.257 157.933C530.736 157.349 531.33 156.847 532.042 156.431C532.753 156.015 533.57 155.703 534.493 155.497L534.12 152.306L536.604 151.994L536.984 155.228C537.888 155.236 538.724 155.378 539.493 155.655C540.261 155.931 540.933 156.332 541.508 156.855C542.084 157.377 542.555 158.022 542.924 158.788C543.292 159.554 543.535 160.434 543.65 161.426L539.164 161.989C539.024 160.797 538.663 159.937 538.081 159.409C537.5 158.882 536.778 158.674 535.919 158.78C535.453 158.838 535.06 158.955 534.739 159.133C534.417 159.308 534.162 159.529 533.973 159.787C533.784 160.049 533.654 160.343 533.588 160.675C533.521 161.008 533.509 161.355 533.553 161.723C533.598 162.091 533.688 162.418 533.826 162.702C533.963 162.989 534.174 163.24 534.459 163.463C534.741 163.684 535.107 163.882 535.551 164.052C535.998 164.222 536.543 164.389 537.193 164.549C538.243 164.81 539.203 165.094 540.074 165.399C540.945 165.703 541.706 166.084 542.359 166.543C543.012 167.002 543.542 167.563 543.952 168.228C544.362 168.892 544.622 169.707 544.735 170.671C544.838 171.546 544.781 172.35 544.568 173.081C544.354 173.814 544.008 174.468 543.53 175.042C543.051 175.615 542.45 176.105 541.724 176.508C541 176.911 540.175 177.216 539.255 177.421L539.603 180.39L537.134 180.699L536.788 177.746C535.919 177.764 535.065 177.675 534.228 177.477C533.391 177.279 532.628 176.939 531.941 176.455C531.254 175.97 530.674 175.326 530.201 174.517C529.727 173.71 529.423 172.708 529.283 171.515L533.769 170.955C533.853 171.66 534.017 172.238 534.263 172.685C534.508 173.134 534.81 173.479 535.163 173.723C535.517 173.966 535.905 174.118 536.327 174.182C536.749 174.245 537.171 174.25 537.595 174.197C538.081 174.136 538.501 174.017 538.854 173.842C539.205 173.667 539.493 173.449 539.716 173.19C539.937 172.931 540.091 172.637 540.18 172.307C540.268 171.977 540.29 171.63 540.246 171.262Z" fill="#FFA412"/>
<path d="M658.749 124.797C666.569 116.714 666.569 103.608 658.749 95.5247C650.929 87.4415 638.25 87.4415 630.431 95.5248C622.611 103.608 622.611 116.714 630.431 124.797C638.25 132.88 650.929 132.88 658.749 124.797Z" fill="#FFB93E"/>
<path d="M645.32 129.245C640.45 129.443 635.797 127.67 632.219 124.25C628.641 120.83 626.564 116.175 626.373 111.142C626.181 106.109 627.897 101.299 631.205 97.6C634.514 93.9012 639.017 91.755 643.886 91.5571C648.756 91.3592 653.406 93.1325 656.987 96.5523C660.565 99.972 662.642 104.627 662.833 109.66C663.025 114.694 661.309 119.504 658.001 123.203C654.692 126.901 650.189 129.048 645.32 129.245ZM643.931 92.6835C634.479 93.0665 627.092 101.329 627.463 111.099C627.833 120.869 635.827 128.505 645.278 128.122C654.729 127.736 662.116 119.476 661.746 109.706C661.373 99.934 653.382 92.2979 643.931 92.6835Z" fill="#FFA412"/>
<path d="M647.32 115.769C647.352 115.361 647.322 114.998 647.236 114.676C647.148 114.356 646.989 114.059 646.755 113.786C646.522 113.512 646.213 113.253 645.83 113.007C645.447 112.761 644.974 112.512 644.412 112.261C643.447 111.819 642.573 111.37 641.795 110.911C641.015 110.452 640.357 109.94 639.82 109.379C639.282 108.816 638.88 108.176 638.615 107.461C638.35 106.746 638.251 105.911 638.325 104.957C638.389 104.13 638.588 103.389 638.924 102.732C639.26 102.075 639.709 101.514 640.274 101.053C640.838 100.591 641.501 100.231 642.259 99.9746C643.018 99.7183 643.854 99.5839 644.772 99.5712L645.01 96.4508L647.44 96.6487L647.2 99.8122C648.061 99.9999 648.832 100.302 649.514 100.72C650.196 101.139 650.761 101.654 651.215 102.268C651.666 102.882 651.998 103.592 652.206 104.396C652.415 105.201 652.481 106.089 652.408 107.06L648.019 106.702C648.108 105.535 647.924 104.642 647.467 104.023C647.011 103.404 646.363 103.059 645.521 102.991C645.064 102.953 644.667 102.988 644.328 103.092C643.989 103.196 643.705 103.354 643.474 103.564C643.243 103.775 643.067 104.034 642.941 104.336C642.816 104.637 642.74 104.97 642.713 105.33C642.686 105.69 642.711 106.02 642.789 106.319C642.868 106.619 643.022 106.903 643.251 107.172C643.479 107.441 643.791 107.699 644.183 107.953C644.576 108.204 645.067 108.473 645.658 108.755C646.611 109.214 647.474 109.676 648.25 110.14C649.023 110.604 649.681 111.119 650.218 111.687C650.756 112.256 651.158 112.898 651.423 113.613C651.688 114.331 651.787 115.158 651.715 116.102C651.649 116.957 651.448 117.713 651.107 118.37C650.766 119.027 650.314 119.582 649.75 120.034C649.185 120.488 648.52 120.833 647.752 121.074C646.984 121.315 646.142 121.442 645.224 121.455L645.003 124.357L642.588 124.159L642.809 121.272C641.975 121.115 641.177 120.861 640.416 120.503C639.653 120.148 638.99 119.671 638.426 119.072C637.861 118.474 637.427 117.741 637.127 116.875C636.826 116.01 636.72 114.993 636.811 113.826L641.199 114.184C641.147 114.874 641.197 115.457 641.349 115.934C641.501 116.411 641.722 116.802 642.016 117.104C642.308 117.406 642.649 117.629 643.042 117.774C643.432 117.918 643.837 118.007 644.252 118.04C644.728 118.078 645.15 118.05 645.518 117.954C645.887 117.857 646.203 117.708 646.461 117.502C646.721 117.299 646.922 117.048 647.067 116.751C647.207 116.457 647.293 116.13 647.32 115.769Z" fill="#FFA412"/>
<path d="M596.333 147.686C596.198 139.802 602.272 133.299 609.897 133.16C617.523 133.02 623.815 139.299 623.95 147.181C624.085 155.064 618.011 161.568 610.386 161.708C602.76 161.847 596.468 155.568 596.333 147.686Z" fill="#FFB93E"/>
<path d="M610.366 160.607C607.006 160.668 603.823 159.374 601.406 156.961C598.988 154.549 597.624 151.306 597.563 147.833C597.504 144.36 598.755 141.07 601.089 138.571C603.423 136.072 606.56 134.662 609.92 134.598C613.279 134.537 616.463 135.831 618.88 138.244C621.298 140.656 622.662 143.899 622.723 147.372C622.782 150.845 621.531 154.135 619.194 156.634C616.863 159.135 613.729 160.546 610.366 160.607ZM609.934 135.372C603.411 135.491 598.198 141.075 598.314 147.818C598.429 154.561 603.831 159.95 610.354 159.83C616.877 159.711 622.09 154.127 621.975 147.384C621.86 140.641 616.46 135.253 609.934 135.372Z" fill="#FFA412"/>
<path d="M611.942 151.344C611.969 151.063 611.954 150.812 611.9 150.591C611.843 150.368 611.738 150.162 611.581 149.969C611.424 149.777 611.215 149.594 610.953 149.416C610.692 149.241 610.368 149.061 609.986 148.879C609.325 148.559 608.731 148.237 608.201 147.907C607.669 147.577 607.222 147.214 606.861 146.819C606.498 146.423 606.231 145.976 606.056 145.477C605.882 144.977 605.828 144.401 605.892 143.746C605.948 143.178 606.096 142.668 606.336 142.222C606.577 141.773 606.896 141.395 607.291 141.085C607.686 140.776 608.15 140.537 608.675 140.372C609.2 140.207 609.782 140.129 610.415 140.134L610.624 137.985L612.295 138.16L612.081 140.339C612.673 140.481 613.201 140.702 613.664 141.001C614.128 141.301 614.511 141.664 614.816 142.095C615.117 142.526 615.336 143.021 615.468 143.576C615.601 144.135 615.633 144.748 615.569 145.416L612.548 145.101C612.626 144.297 612.511 143.68 612.207 143.244C611.9 142.81 611.458 142.562 610.879 142.503C610.565 142.47 610.29 142.488 610.057 142.554C609.821 142.62 609.622 142.724 609.46 142.866C609.298 143.008 609.173 143.183 609.082 143.389C608.992 143.594 608.935 143.823 608.911 144.071C608.886 144.32 608.898 144.546 608.95 144.754C608.999 144.962 609.102 145.159 609.257 145.347C609.411 145.535 609.622 145.72 609.89 145.9C610.157 146.08 610.494 146.273 610.896 146.476C611.546 146.808 612.135 147.138 612.663 147.471C613.191 147.803 613.635 148.168 613.998 148.569C614.361 148.97 614.629 149.416 614.801 149.916C614.975 150.413 615.029 150.987 614.965 151.636C614.909 152.225 614.757 152.742 614.514 153.191C614.268 153.64 613.949 154.016 613.554 154.318C613.159 154.622 612.695 154.85 612.162 155.005C611.63 155.16 611.048 155.234 610.415 155.228L610.221 157.225L608.56 157.053L608.754 155.064C608.182 154.944 607.634 154.754 607.114 154.498C606.594 154.242 606.142 153.902 605.762 153.481C605.381 153.059 605.092 152.547 604.898 151.946C604.704 151.344 604.645 150.642 604.724 149.84L607.745 150.155C607.698 150.629 607.725 151.032 607.823 151.365C607.922 151.695 608.069 151.969 608.268 152.182C608.464 152.395 608.697 152.555 608.965 152.659C609.232 152.765 609.509 152.831 609.794 152.862C610.121 152.895 610.413 152.882 610.67 152.821C610.926 152.76 611.146 152.661 611.328 152.524C611.51 152.387 611.654 152.217 611.758 152.017C611.853 151.816 611.917 151.593 611.942 151.344Z" fill="#FFA412"/>
<path d="M572.456 127.429C591.026 126.126 605.056 109.509 603.793 90.313C602.53 71.1174 586.451 56.6128 567.881 57.9159C549.311 59.2191 535.281 75.8366 536.544 95.0321C537.807 114.228 553.886 128.732 572.456 127.429Z" fill="#FFB93E"/>
<path d="M579.944 123.19C572.159 125.854 563.834 125.227 556.506 121.419C549.177 117.614 543.721 111.084 541.142 103.037C538.565 94.9895 539.171 86.3843 542.855 78.8091C546.536 71.2339 552.854 65.5944 560.639 62.9281C568.423 60.2643 576.748 60.8909 584.077 64.6988C591.405 68.5042 596.861 75.0342 599.438 83.0813C602.015 91.1284 601.408 99.7336 597.725 107.309C594.046 114.887 587.728 120.526 579.944 123.19ZM561.215 64.7267C546.102 69.8995 537.878 86.8181 542.882 102.443C547.886 118.065 564.254 126.566 579.369 121.394C594.483 116.221 602.707 99.3023 597.702 83.68C592.696 68.0552 576.328 59.554 561.215 64.7267Z" fill="#FFA412"/>
<path d="M577.107 100.431C576.974 99.7564 576.763 99.1805 576.478 98.7061C576.191 98.2291 575.799 97.8283 575.298 97.4985C574.797 97.1687 574.181 96.8973 573.45 96.6842C572.719 96.4711 571.842 96.296 570.821 96.159C569.062 95.9104 567.449 95.6034 565.982 95.2356C564.512 94.8677 563.218 94.3578 562.094 93.7084C560.97 93.0589 560.032 92.2167 559.279 91.1867C558.526 90.1567 557.993 88.8527 557.681 87.2773C557.411 85.9099 557.399 84.6161 557.645 83.3908C557.89 82.1654 558.366 81.0441 559.073 80.0243C559.777 79.0044 560.685 78.1038 561.797 77.325C562.909 76.5462 564.202 75.9246 565.682 75.4629L564.661 70.3003L568.681 69.4504L569.717 74.6841C571.194 74.5725 572.579 74.6917 573.87 75.0367C575.158 75.3843 576.309 75.9449 577.315 76.7212C578.324 77.4975 579.178 78.4844 579.878 79.6843C580.577 80.8843 581.085 82.2897 581.404 83.8981L574.144 85.433C573.764 83.5024 573.062 82.1477 572.044 81.3663C571.025 80.5849 569.822 80.3414 568.431 80.6357C567.677 80.7955 567.049 81.0416 566.549 81.3739C566.048 81.7063 565.658 82.0969 565.38 82.551C565.103 83.0026 564.931 83.5049 564.867 84.0554C564.801 84.6059 564.828 85.1767 564.946 85.7729C565.064 86.3666 565.253 86.8892 565.518 87.3357C565.78 87.7822 566.158 88.1678 566.649 88.4899C567.14 88.8121 567.761 89.0836 568.509 89.3018C569.258 89.5199 570.173 89.7153 571.256 89.8903C573.003 90.1745 574.608 90.5042 576.071 90.8822C577.534 91.2602 578.827 91.7778 579.951 92.4374C581.075 93.097 582.015 93.9418 582.769 94.9692C583.522 95.9992 584.052 97.2956 584.361 98.8558C584.641 100.271 584.653 101.591 584.398 102.818C584.143 104.046 583.662 105.16 582.953 106.165C582.243 107.169 581.323 108.05 580.192 108.808C579.06 109.567 577.755 110.178 576.275 110.64L577.224 115.44L573.231 116.284L572.287 111.51C570.868 111.66 569.462 111.629 568.07 111.421C566.676 111.213 565.388 110.761 564.205 110.064C563.019 109.369 561.991 108.392 561.115 107.136C560.239 105.88 559.61 104.287 559.228 102.359L566.487 100.824C566.713 101.966 567.057 102.887 567.518 103.585C567.979 104.282 568.514 104.807 569.123 105.155C569.732 105.505 570.387 105.7 571.084 105.746C571.781 105.792 572.473 105.741 573.16 105.596C573.948 105.429 574.618 105.18 575.17 104.845C575.722 104.511 576.164 104.117 576.493 103.661C576.822 103.207 577.035 102.704 577.139 102.154C577.232 101.598 577.224 101.027 577.107 100.431Z" fill="#FFA412"/>
<path d="M679.605 186.369C679.605 186.369 694.859 202.717 695.58 208.871C696.302 215.023 688.274 224.631 688.274 224.631L679.605 186.369Z" fill="#ED7D2B"/>
<path d="M672.714 355.802C672.714 355.802 672.176 364.473 670.552 364.595C670.336 364.61 662.318 364.592 662.318 364.592L652.083 364.508C652.083 364.508 652.155 361.959 655.149 361.426C658.141 360.893 663.155 358.732 664.973 354.65C666.89 350.352 672.714 355.802 672.714 355.802Z" fill="#2E5A99"/>
<path d="M695.509 355.852C695.509 355.852 694.971 364.524 693.347 364.645C693.131 364.661 685.113 364.643 685.113 364.643L674.878 364.559C674.878 364.559 674.95 362.009 677.944 361.479C680.935 360.946 685.95 358.785 687.768 354.703C689.685 350.406 695.509 355.852 695.509 355.852Z" fill="#18417C"/>
<path d="M661.574 262.565C661.574 262.565 664.213 280.268 674.133 311.703C684.053 343.137 685.383 356.743 685.383 356.743L696.096 356.456C696.096 356.456 696.26 322.127 691.69 306.319C687.12 290.512 690.817 249.368 690.817 249.368L661.574 262.565Z" fill="#163560"/>
<path d="M656.388 250.261C656.388 250.261 655.954 276.927 660.347 309.678C664.743 342.43 663.199 356.324 663.199 356.324L673.89 356.715C673.89 356.715 680.347 323.976 678.55 307.583C676.754 291.192 687.417 251.367 687.417 251.367L656.388 250.261Z" fill="#1C468A"/>
<path d="M677.213 187.906L671.509 191.755L663.28 190.152C663.395 189.464 663.945 186.62 664.446 184.043C664.475 183.89 664.507 183.738 664.534 183.591C664.963 181.397 665.332 179.514 665.332 179.514L673.028 176.026L675.897 174.725C675.89 174.77 675.669 177.158 675.639 177.508C675.09 183.693 677.213 187.906 677.213 187.906Z" fill="#FFB27D"/>
<path d="M665.398 185.933C665.557 185.864 675.318 182.911 676.375 183.274C677.433 183.637 678.057 185.758 678.057 185.758L662.097 189.449C662.097 189.449 663.358 186.813 665.398 185.933Z" fill="#ED7D2B"/>
<path d="M691.518 253.633C689.85 261.424 662.335 262.286 655.257 255.195C654.452 254.386 654.42 250.634 654.734 245.575C655.35 235.692 657.292 220.825 657.382 213.227C657.427 209.559 657.922 205.807 658.58 202.402C659.977 195.144 662.097 189.449 662.097 189.449C662.097 189.449 675.544 184.989 678.057 185.758C690.164 189.464 693.19 245.842 691.518 253.633Z" fill="#F99746"/>
<path d="M654.736 245.575C655.352 235.692 657.294 220.825 657.384 213.227C657.429 209.559 657.924 205.807 658.582 202.402L666.669 200.946C666.666 200.946 674.5 234.334 654.736 245.575Z" fill="#ED7D2B"/>
<path d="M659.142 231.808C659.142 231.808 659.689 233.17 658.531 234.081C657.372 234.991 656.619 236.47 656.881 237.554C657.144 238.637 659.679 240.408 660.56 240.126C661.441 239.845 663.235 238.421 663.044 237.851C662.853 237.28 664.259 232.843 662.116 231.13C659.974 229.415 659.142 231.808 659.142 231.808Z" fill="#FFB27D"/>
<path d="M668.274 187.462C668.274 187.462 660.386 188.969 654.086 198.526C647.784 208.08 643.636 215.186 644.787 218.639C645.936 222.091 656.459 234.076 658.278 234.081C660.097 234.086 663.034 232.723 663.206 229.649C663.206 229.649 655.804 218.126 657.272 216.406C657.898 215.67 666.929 208.126 668.21 211.545C670.326 217.203 668.274 187.462 668.274 187.462Z" fill="#F99746"/>
<path d="M675.062 177.612C673.369 180.565 667.071 183.107 664.445 184.04C664.475 183.888 664.507 183.736 664.534 183.589C664.963 181.394 665.331 179.512 665.331 179.512L673.028 176.023C674.729 176.001 675.762 176.396 675.062 177.612Z" fill="#FCA56B"/>
<path d="M662.438 179.02C662.438 179.02 674.815 183.041 677.117 175.034C679.421 167.03 682.57 162.157 674.765 159.252C666.961 156.347 664.539 158.927 663.142 161.406C661.743 163.884 659.277 177.766 662.438 179.02Z" fill="#FFB27D"/>
<path d="M663.631 160.635C663.631 160.635 664.401 169.958 666.267 169.557C668.132 169.156 669.825 168.859 669.545 171.67C669.266 174.479 666.674 177.718 672.419 178.228C678.165 178.738 686.46 163.435 684.887 160.531C680.349 152.151 657.068 150.408 663.631 160.635Z" fill="#163560"/>
<path d="M603.62 359.214V362.568C603.62 362.834 603.526 363.083 603.364 363.288C603.195 363.504 602.952 363.676 602.667 363.77C602.579 363.803 602.488 363.824 602.395 363.839C602.309 363.851 602.221 363.859 602.132 363.859H540.6C539.856 363.859 539.235 363.38 539.125 362.761C539.12 362.72 539.112 362.677 539.112 362.634C539.112 362.611 539.11 362.591 539.11 362.568V359.214C539.11 359.191 539.112 359.171 539.112 359.148C539.115 359.105 539.12 359.062 539.125 359.021C539.235 358.402 539.856 357.923 540.6 357.923H602.132C602.223 357.923 602.309 357.928 602.395 357.943C602.488 357.956 602.579 357.981 602.667 358.011C602.952 358.108 603.195 358.278 603.364 358.493C603.524 358.699 603.62 358.948 603.62 359.214Z" fill="#FFB93E"/>
<path d="M573.403 363.859H540.438C539.827 363.859 539.311 363.451 539.159 362.903C539.144 362.857 539.132 362.809 539.122 362.761C539.117 362.72 539.11 362.677 539.11 362.634C539.11 362.611 539.107 362.591 539.107 362.568V359.214C539.107 359.191 539.11 359.171 539.11 359.148C539.112 359.105 539.117 359.062 539.122 359.021C539.132 358.973 539.144 358.925 539.159 358.879C539.314 358.331 539.827 357.923 540.438 357.923H569.356C569.817 359.671 570.892 362.086 573.403 363.859Z" fill="#FFA412"/>
<path d="M596.132 357.92H595.432V363.859H596.132V357.92Z" fill="#FFA412"/>
<path d="M593.763 357.92H593.064V363.859H593.763V357.92Z" fill="#FFA412"/>
<path d="M590.926 357.92H590.227V363.859H590.926V357.92Z" fill="#FFA412"/>
<path d="M586.575 357.92H585.875V363.859H586.575V357.92Z" fill="#FFA412"/>
<path d="M581.973 357.92H581.273V363.859H581.973V357.92Z" fill="#FFA412"/>
<path d="M574.92 357.92H574.22V363.859H574.92V357.92Z" fill="#FFA412"/>
<path d="M568.313 357.92H567.613V363.859H568.313V357.92Z" fill="#FFA412"/>
<path d="M562.415 357.92H561.716V363.859H562.415V357.92Z" fill="#FFA412"/>
<path d="M598.385 357.92H597.685V363.859H598.385V357.92Z" fill="#FFA412"/>
<path d="M599.872 357.92H599.172V363.859H599.872V357.92Z" fill="#FFA412"/>
<path d="M601.31 357.92H600.611V363.859H601.31V357.92Z" fill="#FFA412"/>
<path d="M602.392 357.943V363.839C602.306 363.851 602.218 363.859 602.13 363.859H601.693V357.92H602.13C602.218 357.92 602.306 357.928 602.392 357.943Z" fill="#FFA412"/>
<path d="M603.364 358.491V363.288C603.195 363.506 602.952 363.676 602.665 363.773V358.009C602.95 358.103 603.195 358.275 603.364 358.491Z" fill="#FFA412"/>
<path d="M597.04 353.275V356.626C597.04 356.895 596.947 357.144 596.787 357.349C596.746 357.402 596.696 357.456 596.647 357.501C596.493 357.643 596.304 357.76 596.088 357.831C596.002 357.862 595.909 357.882 595.815 357.897C595.732 357.91 595.641 357.92 595.553 357.92H534.018C533.276 357.92 532.655 357.438 532.545 356.819C532.54 356.778 532.533 356.735 532.533 356.695C532.53 356.672 532.53 356.652 532.53 356.626V353.275C532.53 353.252 532.53 353.229 532.533 353.206C532.535 353.163 532.54 353.123 532.545 353.082C532.655 352.463 533.276 351.981 534.018 351.981H595.553C595.592 351.981 595.631 351.984 595.671 351.986C595.685 351.986 595.7 351.989 595.712 351.991C595.715 351.989 595.717 351.989 595.72 351.991C595.737 351.991 595.756 351.994 595.776 351.996C595.788 351.999 595.801 352.001 595.815 352.001C595.909 352.017 596.002 352.037 596.088 352.067C596.139 352.085 596.191 352.105 596.238 352.128H596.24C596.272 352.143 596.306 352.161 596.336 352.176C596.353 352.187 596.372 352.199 596.39 352.209C596.407 352.22 596.424 352.23 596.439 352.24C596.505 352.28 596.564 352.326 596.62 352.377C596.64 352.392 596.655 352.41 596.672 352.428C596.684 352.438 596.692 352.448 596.704 352.458C596.709 352.463 596.716 352.471 596.719 352.476L596.731 352.488C596.75 352.509 596.77 352.529 596.787 352.554C596.944 352.762 597.04 353.009 597.04 353.275Z" fill="#FFB93E"/>
<path d="M566.823 357.923H533.858C533.247 357.923 532.734 357.512 532.582 356.964C532.567 356.918 532.555 356.87 532.545 356.822C532.54 356.781 532.533 356.738 532.533 356.697C532.53 356.674 532.53 356.654 532.53 356.629V353.277C532.53 353.255 532.53 353.232 532.533 353.209C532.535 353.166 532.54 353.125 532.545 353.085C532.552 353.036 532.567 352.988 532.582 352.943C532.734 352.395 533.247 351.984 533.858 351.984H562.776C562.789 352.034 562.801 352.08 562.818 352.131C563.299 353.863 564.384 356.2 566.823 357.923Z" fill="#FFA412"/>
<path d="M589.552 351.984H588.853V357.923H589.552V351.984Z" fill="#FFA412"/>
<path d="M587.186 351.984H586.487V357.923H587.186V351.984Z" fill="#FFA412"/>
<path d="M584.346 351.984H583.647V357.923H584.346V351.984Z" fill="#FFA412"/>
<path d="M579.995 351.984H579.296V357.923H579.995V351.984Z" fill="#FFA412"/>
<path d="M575.393 351.984H574.694V357.923H575.393V351.984Z" fill="#FFA412"/>
<path d="M568.34 351.984H567.641V357.923H568.34V351.984Z" fill="#FFA412"/>
<path d="M561.736 351.984H561.036V357.923H561.736V351.984Z" fill="#FFA412"/>
<path d="M555.838 351.984H555.139V357.923H555.838V351.984Z" fill="#FFA412"/>
<path d="M591.805 351.984H591.105V357.923H591.805V351.984Z" fill="#FFA412"/>
<path d="M593.295 351.984H592.595V357.923H593.295V351.984Z" fill="#FFA412"/>
<path d="M594.733 351.984H594.034V357.923H594.733V351.984Z" fill="#FFA412"/>
<path d="M595.813 352.004V357.9C595.727 357.912 595.638 357.92 595.55 357.92H595.113V351.981H595.55C595.641 351.984 595.727 351.991 595.813 352.004Z" fill="#FFA412"/>
<path d="M596.785 352.554V357.352C596.616 357.57 596.373 357.74 596.085 357.836V352.072C596.373 352.166 596.616 352.336 596.785 352.554Z" fill="#FFA412"/>
<path d="M600.218 347.483V350.837C600.218 351.103 600.125 351.352 599.963 351.557C599.794 351.773 599.551 351.946 599.266 352.039C599.18 352.07 599.087 352.09 598.994 352.108C598.91 352.121 598.822 352.128 598.733 352.128H537.198C536.953 352.128 536.717 352.075 536.511 351.981C536.104 351.796 535.804 351.451 535.726 351.042C535.721 351.015 535.718 350.987 535.713 350.959C535.711 350.941 535.711 350.921 535.711 350.9C535.708 350.878 535.708 350.857 535.708 350.834V347.481C535.708 347.458 535.708 347.437 535.711 347.415C535.713 347.374 535.716 347.328 535.723 347.29C535.834 346.669 536.455 346.189 537.196 346.189H598.731C598.819 346.189 598.908 346.194 598.991 346.21C599.084 346.222 599.178 346.245 599.264 346.276C599.551 346.372 599.794 346.544 599.961 346.76C600.125 346.968 600.218 347.217 600.218 347.483Z" fill="#FFB93E"/>
<path d="M570.005 352.128H537.039C536.818 352.128 536.61 352.075 536.428 351.981C536.062 351.796 535.795 351.451 535.729 351.042C535.724 351.015 535.721 350.987 535.716 350.959C535.714 350.941 535.714 350.921 535.714 350.9C535.711 350.878 535.711 350.857 535.711 350.834V347.481C535.711 347.458 535.711 347.437 535.714 347.415C535.716 347.374 535.719 347.328 535.726 347.29C535.733 347.242 535.746 347.196 535.76 347.151C535.91 346.598 536.426 346.189 537.039 346.189H565.958C566.407 347.889 567.437 350.223 569.803 351.979C569.867 352.032 569.936 352.083 570.005 352.128Z" fill="#FFA412"/>
<path d="M592.733 346.192H592.033V352.131H592.733V346.192Z" fill="#FFA412"/>
<path d="M590.364 346.192H589.665V352.131H590.364V346.192Z" fill="#FFA412"/>
<path d="M587.525 346.192H586.825V352.131H587.525V346.192Z" fill="#FFA412"/>
<path d="M583.174 346.192H582.474V352.131H583.174V346.192Z" fill="#FFA412"/>
<path d="M578.572 346.192H577.872V352.131H578.572V346.192Z" fill="#FFA412"/>
<path d="M571.518 346.192H570.819V352.131H571.518V346.192Z" fill="#FFA412"/>
<path d="M564.914 346.192H564.214V352.131H564.914V346.192Z" fill="#FFA412"/>
<path d="M559.016 346.192H558.317V352.131H559.016V346.192Z" fill="#FFA412"/>
<path d="M594.986 346.192H594.286V352.131H594.986V346.192Z" fill="#FFA412"/>
<path d="M596.473 346.192H595.773V352.131H596.473V346.192Z" fill="#FFA412"/>
<path d="M597.911 346.192H597.212V352.131H597.911V346.192Z" fill="#FFA412"/>
<path d="M598.993 346.212V352.108C598.907 352.121 598.822 352.128 598.731 352.128H598.294V346.189H598.731C598.819 346.192 598.907 346.199 598.993 346.212Z" fill="#FFA412"/>
<path d="M599.963 346.763V351.56C599.794 351.778 599.551 351.948 599.264 352.044V346.281C599.551 346.374 599.794 346.544 599.963 346.763Z" fill="#FFA412"/>
<path d="M601.693 341.547V344.898C601.693 345.167 601.6 345.413 601.438 345.619C601.418 345.646 601.394 345.672 601.372 345.697C601.254 345.827 601.109 345.936 600.947 346.017C600.881 346.05 600.812 346.078 600.741 346.103C600.653 346.134 600.562 346.154 600.469 346.169C600.427 346.174 600.385 346.182 600.341 346.184C600.297 346.189 600.25 346.189 600.206 346.189H538.671C537.927 346.189 537.306 345.707 537.196 345.088C537.191 345.045 537.184 345.005 537.184 344.964V341.476C537.223 340.847 537.782 340.334 538.494 340.261C538.551 340.255 538.612 340.25 538.671 340.25H600.204C600.248 340.25 600.294 340.253 600.339 340.255C600.383 340.258 600.425 340.263 600.466 340.271C600.559 340.283 600.65 340.306 600.739 340.337C601.023 340.433 601.266 340.603 601.436 340.819C601.6 341.029 601.693 341.278 601.693 341.547Z" fill="#FFB93E"/>
<path d="M571.477 346.192H538.511C537.9 346.192 537.385 345.781 537.233 345.233C537.218 345.187 537.206 345.139 537.196 345.091C537.191 345.048 537.184 345.007 537.184 344.967V341.478C537.218 340.852 537.719 340.337 538.354 340.263C538.406 340.258 538.457 340.253 538.511 340.253H567.43C567.43 340.258 567.432 340.258 567.432 340.263C567.896 342.008 568.971 344.421 571.477 346.192Z" fill="#FFA412"/>
<path d="M594.205 340.253H593.506V346.192H594.205V340.253Z" fill="#FFA412"/>
<path d="M591.84 340.253H591.14V346.192H591.84V340.253Z" fill="#FFA412"/>
<path d="M589 340.253H588.3V346.192H589V340.253Z" fill="#FFA412"/>
<path d="M584.649 340.253H583.949V346.192H584.649V340.253Z" fill="#FFA412"/>
<path d="M580.047 340.253H579.347V346.192H580.047V340.253Z" fill="#FFA412"/>
<path d="M572.993 340.253H572.294V346.192H572.993V340.253Z" fill="#FFA412"/>
<path d="M566.389 340.253H565.689V346.192H566.389V340.253Z" fill="#FFA412"/>
<path d="M560.491 340.253H559.792V346.192H560.491V340.253Z" fill="#FFA412"/>
<path d="M596.458 340.253H595.759V346.192H596.458V340.253Z" fill="#FFA412"/>
<path d="M597.948 340.253H597.249V346.192H597.948V340.253Z" fill="#FFA412"/>
<path d="M599.386 340.253H598.687V346.192H599.386V340.253Z" fill="#FFA412"/>
<path d="M600.466 340.273V346.169C600.38 346.182 600.294 346.189 600.203 346.189H599.767V340.25H600.203C600.294 340.253 600.38 340.261 600.466 340.273Z" fill="#FFA412"/>
<path d="M601.438 340.824V345.621C601.269 345.839 601.026 346.009 600.739 346.106V340.342C601.026 340.436 601.269 340.608 601.438 340.824Z" fill="#FFA412"/>
<path d="M597.168 335.618V338.969C597.168 339.238 597.075 339.484 596.915 339.69C596.746 339.908 596.503 340.08 596.216 340.174C596.13 340.205 596.037 340.225 595.943 340.24C595.914 340.245 595.887 340.25 595.857 340.253H595.845C595.83 340.255 595.813 340.258 595.798 340.258C595.786 340.261 595.774 340.261 595.759 340.263C595.732 340.263 595.708 340.266 595.681 340.266H534.148C533.355 340.266 532.7 339.72 532.661 339.04C532.658 339.017 532.658 338.997 532.658 338.972V335.621C532.658 335.598 532.658 335.575 532.661 335.552C532.661 335.534 532.663 335.517 532.663 335.499C532.722 334.953 533.181 334.499 533.78 334.367C533.792 334.365 533.809 334.36 533.824 334.357C533.927 334.337 534.035 334.324 534.148 334.324H595.681C595.727 334.324 595.769 334.327 595.813 334.329C595.833 334.332 595.853 334.332 595.87 334.334C595.872 334.334 595.872 334.334 595.875 334.334H595.877C595.899 334.337 595.924 334.339 595.946 334.344C596.039 334.357 596.13 334.38 596.218 334.41C596.505 334.507 596.748 334.677 596.918 334.895C597.077 335.103 597.168 335.349 597.168 335.618Z" fill="#FFB93E"/>
<path d="M566.954 340.263H533.991C533.282 340.263 532.7 339.718 532.663 339.038C532.661 339.015 532.661 338.995 532.661 338.969V335.618C532.661 335.595 532.661 335.572 532.663 335.55C532.663 335.532 532.666 335.514 532.666 335.496C532.72 334.936 533.144 334.479 533.699 334.357C533.716 334.352 533.736 334.347 533.755 334.344C533.831 334.332 533.912 334.322 533.991 334.322H562.907C562.909 334.337 562.914 334.35 562.919 334.365C563.385 336.105 564.463 338.492 566.942 340.25C566.944 340.258 566.949 340.261 566.954 340.263Z" fill="#FFA412"/>
<path d="M589.682 334.324H588.983V340.263H589.682V334.324Z" fill="#FFA412"/>
<path d="M587.314 334.324H586.615V340.263H587.314V334.324Z" fill="#FFA412"/>
<path d="M584.477 334.324H583.777V340.263H584.477V334.324Z" fill="#FFA412"/>
<path d="M580.126 334.324H579.426V340.263H580.126V334.324Z" fill="#FFA412"/>
<path d="M575.524 334.324H574.825V340.263H575.524V334.324Z" fill="#FFA412"/>
<path d="M568.468 334.324H567.769V340.263H568.468V334.324Z" fill="#FFA412"/>
<path d="M561.864 334.324H561.164V340.263H561.864V334.324Z" fill="#FFA412"/>
<path d="M555.966 334.324H555.267V340.263H555.966V334.324Z" fill="#FFA412"/>
<path d="M591.935 334.324H591.236V340.263H591.935V334.324Z" fill="#FFA412"/>
<path d="M593.425 334.324H592.726V340.263H593.425V334.324Z" fill="#FFA412"/>
<path d="M594.861 334.324H594.162V340.263H594.861V334.324Z" fill="#FFA412"/>
<path d="M595.943 334.344V340.24C595.857 340.253 595.771 340.261 595.681 340.261H595.244V334.322H595.681C595.771 334.324 595.857 334.332 595.943 334.344Z" fill="#FFA412"/>
<path d="M596.915 334.895V339.692C596.746 339.91 596.503 340.08 596.216 340.177V334.413C596.501 334.507 596.746 334.679 596.915 334.895Z" fill="#FFA412"/>
<path d="M597.04 329.722V333.073C597.04 333.342 596.947 333.588 596.787 333.794C596.746 333.847 596.696 333.898 596.647 333.949C596.493 334.091 596.304 334.207 596.088 334.279C596.019 334.301 595.948 334.322 595.877 334.334H595.874C595.872 334.334 595.872 334.334 595.869 334.334C595.85 334.337 595.833 334.342 595.813 334.344C595.729 334.357 595.639 334.367 595.55 334.367H534.015C533.951 334.367 533.887 334.362 533.824 334.355C533.799 334.352 533.775 334.35 533.75 334.344C533.124 334.246 532.628 333.802 532.54 333.251C532.535 333.213 532.53 333.177 532.528 333.139C532.525 333.117 532.525 333.094 532.525 333.071V329.72C532.525 329.697 532.525 329.674 532.528 329.651C532.53 329.611 532.535 329.567 532.54 329.527C532.651 328.908 533.271 328.426 534.013 328.426H595.548C595.587 328.426 595.626 328.428 595.666 328.431C595.671 328.431 595.678 328.433 595.68 328.433C595.693 328.436 595.702 328.436 595.715 328.436C595.732 328.439 595.752 328.441 595.771 328.444C595.783 328.444 595.796 328.446 595.81 328.449C595.904 328.461 595.997 328.484 596.083 328.515C596.134 328.532 596.186 328.553 596.233 328.573H596.235C596.426 328.662 596.593 328.784 596.728 328.931C596.748 328.954 596.768 328.974 596.785 328.997C596.944 329.205 597.04 329.453 597.04 329.722Z" fill="#FFB93E"/>
<path d="M566.823 334.367H533.858C533.833 334.367 533.807 334.365 533.782 334.365C533.753 334.362 533.725 334.36 533.698 334.357C533.102 334.284 532.626 333.827 532.545 333.254C532.54 333.216 532.535 333.18 532.533 333.142C532.53 333.119 532.53 333.096 532.53 333.074V329.722C532.53 329.699 532.53 329.677 532.533 329.654C532.535 329.613 532.54 329.57 532.545 329.529C532.552 329.481 532.567 329.433 532.582 329.387C532.734 328.839 533.247 328.428 533.858 328.428H562.776C562.789 328.479 562.801 328.525 562.818 328.576C563.297 330.296 564.367 332.604 566.767 334.324C566.784 334.339 566.804 334.352 566.823 334.367Z" fill="#FFA412"/>
<path d="M589.552 328.428H588.853V334.367H589.552V328.428Z" fill="#FFA412"/>
<path d="M587.186 328.428H586.487V334.367H587.186V328.428Z" fill="#FFA412"/>
<path d="M584.346 328.428H583.647V334.367H584.346V328.428Z" fill="#FFA412"/>
<path d="M579.995 328.428H579.296V334.367H579.995V328.428Z" fill="#FFA412"/>
<path d="M575.393 328.428H574.694V334.367H575.393V328.428Z" fill="#FFA412"/>
<path d="M568.34 328.428H567.641V334.367H568.34V328.428Z" fill="#FFA412"/>
<path d="M561.736 328.428H561.036V334.367H561.736V328.428Z" fill="#FFA412"/>
<path d="M555.838 328.428H555.139V334.367H555.838V328.428Z" fill="#FFA412"/>
<path d="M591.805 328.428H591.105V334.367H591.805V328.428Z" fill="#FFA412"/>
<path d="M593.295 328.428H592.595V334.367H593.295V328.428Z" fill="#FFA412"/>
<path d="M594.733 328.428H594.034V334.367H594.733V328.428Z" fill="#FFA412"/>
<path d="M595.813 328.451V334.347C595.727 334.36 595.638 334.367 595.55 334.367H595.113V328.428H595.55C595.641 328.428 595.727 328.436 595.813 328.451Z" fill="#FFA412"/>
<path d="M596.785 328.999V333.796C596.616 334.015 596.373 334.185 596.085 334.281V328.517C596.373 328.611 596.616 328.784 596.785 328.999Z" fill="#FFA412"/>
<path d="M600.218 323.93V327.282C600.218 327.551 600.125 327.799 599.963 328.005C599.794 328.22 599.551 328.393 599.266 328.487C599.18 328.517 599.087 328.537 598.994 328.553C598.91 328.565 598.822 328.573 598.733 328.573H537.198C536.953 328.573 536.717 328.52 536.511 328.426C536.104 328.241 535.804 327.896 535.726 327.487C535.721 327.459 535.718 327.431 535.713 327.404C535.711 327.383 535.711 327.365 535.711 327.345C535.708 327.322 535.708 327.302 535.708 327.277V323.925C535.708 323.903 535.708 323.88 535.711 323.857C535.713 323.814 535.716 323.773 535.723 323.733C535.834 323.114 536.455 322.632 537.196 322.632H598.731C598.819 322.632 598.908 322.639 598.991 322.654C599.084 322.667 599.178 322.69 599.264 322.72C599.551 322.817 599.794 322.987 599.961 323.205C600.125 323.415 600.218 323.662 600.218 323.93Z" fill="#FFB93E"/>
<path d="M570.004 328.576H537.039C536.818 328.576 536.609 328.522 536.428 328.428C536.062 328.243 535.794 327.898 535.728 327.49C535.723 327.462 535.721 327.434 535.716 327.406C535.713 327.386 535.713 327.368 535.713 327.348C535.711 327.325 535.711 327.305 535.711 327.279V323.928C535.711 323.905 535.711 323.882 535.713 323.86C535.716 323.816 535.718 323.776 535.726 323.735C535.733 323.687 535.745 323.641 535.76 323.598C535.91 323.048 536.425 322.634 537.039 322.634H565.957C566.406 324.336 567.437 326.67 569.803 328.426C569.867 328.479 569.935 328.527 570.004 328.576Z" fill="#FFA412"/>
<path d="M592.733 322.639H592.033V328.578H592.733V322.639Z" fill="#FFA412"/>
<path d="M590.364 322.639H589.665V328.578H590.364V322.639Z" fill="#FFA412"/>
<path d="M587.525 322.639H586.825V328.578H587.525V322.639Z" fill="#FFA412"/>
<path d="M583.174 322.639H582.474V328.578H583.174V322.639Z" fill="#FFA412"/>
<path d="M578.572 322.639H577.872V328.578H578.572V322.639Z" fill="#FFA412"/>
<path d="M571.518 322.639H570.819V328.578H571.518V322.639Z" fill="#FFA412"/>
<path d="M564.914 322.639H564.214V328.578H564.914V322.639Z" fill="#FFA412"/>
<path d="M559.016 322.639H558.317V328.578H559.016V322.639Z" fill="#FFA412"/>
<path d="M594.986 322.639H594.286V328.578H594.986V322.639Z" fill="#FFA412"/>
<path d="M596.473 322.639H595.773V328.578H596.473V322.639Z" fill="#FFA412"/>
<path d="M597.911 322.639H597.212V328.578H597.911V322.639Z" fill="#FFA412"/>
<path d="M598.993 322.659V328.555C598.907 328.568 598.822 328.576 598.731 328.576H598.294V322.637H598.731C598.819 322.637 598.907 322.644 598.993 322.659Z" fill="#FFA412"/>
<path d="M599.963 323.207V328.005C599.794 328.223 599.551 328.393 599.264 328.489V322.725C599.551 322.819 599.794 322.992 599.963 323.207Z" fill="#FFA412"/>
<path d="M605.247 317.992V321.345C605.247 321.612 605.154 321.858 604.994 322.066L604.992 322.069C604.97 322.096 604.948 322.122 604.926 322.147C604.832 322.251 604.722 322.34 604.597 322.414C604.535 322.449 604.469 322.482 604.4 322.51C604.398 322.51 604.398 322.512 604.398 322.512C604.366 322.525 604.332 322.54 604.295 322.553C604.209 322.583 604.116 322.604 604.022 322.619C603.939 322.632 603.848 322.639 603.76 322.639H542.225C541.483 322.639 540.862 322.16 540.752 321.541C540.745 321.498 540.74 321.457 540.74 321.414C540.737 321.391 540.737 321.371 540.737 321.348V317.994C540.737 317.971 540.737 317.951 540.74 317.928C540.777 317.299 541.339 316.787 542.05 316.713C542.109 316.705 542.166 316.703 542.225 316.703H603.76C603.848 316.703 603.936 316.711 604.022 316.723C604.116 316.738 604.209 316.761 604.295 316.792C604.545 316.875 604.759 317.015 604.926 317.195C604.948 317.22 604.972 317.246 604.992 317.274L604.994 317.276C605.154 317.479 605.247 317.725 605.247 317.992Z" fill="#FFB93E"/>
<path d="M575.033 322.637H542.067C541.454 322.637 540.939 322.226 540.789 321.675C540.774 321.63 540.762 321.584 540.754 321.538C540.747 321.495 540.742 321.455 540.742 321.411C540.74 321.389 540.74 321.368 540.74 321.345V317.992C540.74 317.969 540.74 317.948 540.742 317.926C540.774 317.297 541.277 316.784 541.91 316.711C541.962 316.703 542.013 316.7 542.067 316.7H570.986C570.986 316.703 570.988 316.705 570.988 316.711C571.45 318.456 572.525 320.868 575.033 322.637Z" fill="#FFA412"/>
<path d="M597.761 316.7H597.062V322.639H597.761V316.7Z" fill="#FFA412"/>
<path d="M595.393 316.7H594.694V322.639H595.393V316.7Z" fill="#FFA412"/>
<path d="M592.553 316.7H591.854V322.639H592.553V316.7Z" fill="#FFA412"/>
<path d="M588.202 316.7H587.503V322.639H588.202V316.7Z" fill="#FFA412"/>
<path d="M583.6 316.7H582.901V322.639H583.6V316.7Z" fill="#FFA412"/>
<path d="M576.547 316.7H575.848V322.639H576.547V316.7Z" fill="#FFA412"/>
<path d="M569.943 316.7H569.243V322.639H569.943V316.7Z" fill="#FFA412"/>
<path d="M564.045 316.7H563.346V322.639H564.045V316.7Z" fill="#FFA412"/>
<path d="M600.014 316.7H599.315V322.639H600.014V316.7Z" fill="#FFA412"/>
<path d="M601.502 316.7H600.802V322.639H601.502V316.7Z" fill="#FFA412"/>
<path d="M602.94 316.7H602.241V322.639H602.94V316.7Z" fill="#FFA412"/>
<path d="M604.022 316.721V322.616C603.936 322.629 603.848 322.637 603.76 322.637H603.323V316.698H603.76C603.848 316.7 603.936 316.708 604.022 316.721Z" fill="#FFA412"/>
<path d="M604.992 317.271V322.068C604.823 322.287 604.58 322.457 604.292 322.553V316.789C604.58 316.883 604.823 317.053 604.992 317.271Z" fill="#FFA412"/>
<path d="M597.168 312.065V315.417C597.168 315.686 597.075 315.932 596.915 316.137C596.746 316.355 596.503 316.528 596.216 316.622C596.13 316.652 596.037 316.672 595.943 316.688C595.914 316.693 595.887 316.695 595.857 316.7H595.845C595.826 316.705 595.806 316.705 595.786 316.705C595.774 316.705 595.764 316.708 595.752 316.708C595.727 316.708 595.705 316.71 595.678 316.71H534.146C533.61 316.71 533.139 316.464 532.879 316.094C532.751 315.914 532.67 315.706 532.658 315.485C532.656 315.462 532.656 315.439 532.656 315.417V312.065C532.656 312.043 532.656 312.02 532.658 311.997C532.69 311.446 533.127 310.982 533.714 310.827C533.851 310.789 533.996 310.769 534.146 310.769H595.678C595.705 310.769 595.73 310.772 595.757 310.772C595.772 310.772 595.784 310.774 595.796 310.777C595.845 310.779 595.894 310.784 595.941 310.792C596.034 310.804 596.125 310.827 596.213 310.858C596.257 310.87 596.299 310.888 596.341 310.909H596.343C596.508 310.977 596.653 311.073 596.773 311.188C596.775 311.19 596.778 311.193 596.778 311.195C596.783 311.2 596.79 311.205 596.795 311.21C596.837 311.251 596.876 311.294 596.913 311.34C597.077 311.548 597.168 311.796 597.168 312.065Z" fill="#FFB93E"/>
<path d="M566.954 316.71H533.991C533.527 316.71 533.117 316.477 532.879 316.124C532.751 315.937 532.673 315.719 532.663 315.485C532.661 315.462 532.661 315.44 532.661 315.417V312.065C532.661 312.043 532.661 312.02 532.663 311.997C532.695 311.406 533.139 310.916 533.721 310.799C533.807 310.782 533.898 310.772 533.991 310.772H562.907C562.919 310.817 562.931 310.863 562.946 310.909C563.425 312.641 564.507 314.975 566.942 316.7C566.944 316.703 566.949 316.705 566.954 316.71Z" fill="#FFA412"/>
<path d="M589.682 310.772H588.983V316.71H589.682V310.772Z" fill="#FFA412"/>
<path d="M587.314 310.772H586.615V316.71H587.314V310.772Z" fill="#FFA412"/>
<path d="M584.477 310.772H583.777V316.71H584.477V310.772Z" fill="#FFA412"/>
<path d="M580.126 310.772H579.426V316.71H580.126V310.772Z" fill="#FFA412"/>
<path d="M575.524 310.772H574.825V316.71H575.524V310.772Z" fill="#FFA412"/>
<path d="M568.468 310.772H567.769V316.71H568.468V310.772Z" fill="#FFA412"/>
<path d="M561.864 310.772H561.164V316.71H561.864V310.772Z" fill="#FFA412"/>
<path d="M555.966 310.772H555.267V316.71H555.966V310.772Z" fill="#FFA412"/>
<path d="M591.935 310.772H591.236V316.71H591.935V310.772Z" fill="#FFA412"/>
<path d="M593.425 310.772H592.726V316.71H593.425V310.772Z" fill="#FFA412"/>
<path d="M594.861 310.772H594.162V316.71H594.861V310.772Z" fill="#FFA412"/>
<path d="M595.943 310.792V316.688C595.857 316.7 595.771 316.708 595.681 316.708H595.244V310.772H595.681C595.771 310.772 595.857 310.779 595.943 310.792Z" fill="#FFA412"/>
<path d="M596.915 311.342V316.14C596.746 316.358 596.503 316.528 596.216 316.624V310.86C596.501 310.954 596.746 311.124 596.915 311.342Z" fill="#FFA412"/>
<path d="M601.693 306.263V309.617C601.693 309.884 601.6 310.132 601.438 310.338C601.269 310.556 601.026 310.726 600.739 310.822C600.65 310.853 600.56 310.876 600.466 310.888C600.38 310.901 600.294 310.909 600.204 310.909H538.671C538.433 310.909 538.205 310.86 538.006 310.772C537.557 310.576 537.235 310.188 537.189 309.736C537.186 309.719 537.186 309.701 537.184 309.683C537.184 309.66 537.181 309.64 537.181 309.617V306.263C537.181 306.241 537.181 306.22 537.184 306.197C537.22 305.568 537.782 305.053 538.494 304.98C538.551 304.972 538.61 304.97 538.671 304.97H600.204C600.294 304.97 600.38 304.977 600.466 304.99C600.56 305.005 600.65 305.025 600.739 305.056C601.023 305.152 601.269 305.322 601.438 305.54C601.6 305.748 601.693 305.995 601.693 306.263Z" fill="#FFB93E"/>
<path d="M571.477 310.909H538.511C538.298 310.909 538.097 310.86 537.917 310.772C537.517 310.576 537.23 310.188 537.189 309.736C537.186 309.719 537.186 309.701 537.184 309.683C537.184 309.66 537.181 309.64 537.181 309.617V306.263C537.181 306.241 537.181 306.22 537.184 306.197C537.216 305.568 537.719 305.053 538.354 304.98C538.406 304.972 538.457 304.97 538.511 304.97H567.427C567.427 304.972 567.43 304.977 567.43 304.98C567.881 306.682 568.914 309.016 571.285 310.772C571.349 310.817 571.413 310.863 571.477 310.909Z" fill="#FFA412"/>
<path d="M594.205 304.97H593.506V310.909H594.205V304.97Z" fill="#FFA412"/>
<path d="M591.84 304.97H591.14V310.909H591.84V304.97Z" fill="#FFA412"/>
<path d="M589 304.97H588.3V310.909H589V304.97Z" fill="#FFA412"/>
<path d="M584.649 304.97H583.949V310.909H584.649V304.97Z" fill="#FFA412"/>
<path d="M580.047 304.97H579.347V310.909H580.047V304.97Z" fill="#FFA412"/>
<path d="M572.993 304.97H572.294V310.909H572.993V304.97Z" fill="#FFA412"/>
<path d="M566.389 304.97H565.689V310.909H566.389V304.97Z" fill="#FFA412"/>
<path d="M560.491 304.97H559.792V310.909H560.491V304.97Z" fill="#FFA412"/>
<path d="M596.458 304.97H595.759V310.909H596.458V304.97Z" fill="#FFA412"/>
<path d="M597.948 304.97H597.249V310.909H597.948V304.97Z" fill="#FFA412"/>
<path d="M599.386 304.97H598.687V310.909H599.386V304.97Z" fill="#FFA412"/>
<path d="M600.466 304.99V310.886C600.38 310.898 600.294 310.906 600.203 310.906H599.767V304.967H600.203C600.294 304.97 600.38 304.977 600.466 304.99Z" fill="#FFA412"/>
<path d="M601.438 305.54V310.338C601.269 310.556 601.026 310.726 600.739 310.822V305.058C601.026 305.152 601.269 305.325 601.438 305.54Z" fill="#FFA412"/>
<path d="M603.62 300.335V303.689C603.62 303.955 603.526 304.204 603.364 304.409C603.195 304.627 602.952 304.797 602.665 304.894C602.577 304.924 602.486 304.947 602.393 304.96C602.363 304.965 602.336 304.967 602.307 304.97C602.292 304.97 602.275 304.972 602.258 304.975C602.243 304.977 602.226 304.977 602.208 304.977C602.181 304.98 602.157 304.98 602.13 304.98H540.597C539.804 304.98 539.152 304.434 539.11 303.755C539.11 303.732 539.107 303.711 539.107 303.689V300.335C539.107 300.312 539.107 300.292 539.11 300.269C539.149 299.589 539.804 299.044 540.597 299.044H602.13C602.221 299.044 602.307 299.051 602.393 299.064C602.486 299.079 602.577 299.099 602.665 299.13C602.95 299.226 603.195 299.396 603.364 299.614C603.524 299.82 603.62 300.066 603.62 300.335Z" fill="#FFB93E"/>
<path d="M573.403 304.98H540.438C539.731 304.98 539.147 304.434 539.11 303.755C539.11 303.732 539.107 303.711 539.107 303.689V300.335C539.107 300.312 539.107 300.292 539.11 300.269C539.147 299.589 539.731 299.044 540.438 299.044H569.356C569.817 300.789 570.89 303.202 573.391 304.972C573.393 304.972 573.398 304.977 573.403 304.98Z" fill="#FFA412"/>
<path d="M596.132 299.041H595.432V304.98H596.132V299.041Z" fill="#FFA412"/>
<path d="M593.763 299.041H593.064V304.98H593.763V299.041Z" fill="#FFA412"/>
<path d="M590.926 299.041H590.227V304.98H590.926V299.041Z" fill="#FFA412"/>
<path d="M586.575 299.041H585.875V304.98H586.575V299.041Z" fill="#FFA412"/>
<path d="M581.973 299.041H581.273V304.98H581.973V299.041Z" fill="#FFA412"/>
<path d="M574.92 299.041H574.22V304.98H574.92V299.041Z" fill="#FFA412"/>
<path d="M568.313 299.041H567.613V304.98H568.313V299.041Z" fill="#FFA412"/>
<path d="M562.415 299.041H561.716V304.98H562.415V299.041Z" fill="#FFA412"/>
<path d="M598.385 299.041H597.685V304.98H598.385V299.041Z" fill="#FFA412"/>
<path d="M599.874 299.041H599.175V304.98H599.874V299.041Z" fill="#FFA412"/>
<path d="M601.31 299.041H600.611V304.98H601.31V299.041Z" fill="#FFA412"/>
<path d="M602.392 299.061V304.957C602.306 304.97 602.221 304.977 602.13 304.977H601.693V299.038H602.13C602.221 299.041 602.306 299.048 602.392 299.061Z" fill="#FFA412"/>
<path d="M603.364 299.612V304.409C603.195 304.627 602.952 304.797 602.665 304.893V299.13C602.95 299.224 603.195 299.396 603.364 299.612Z" fill="#FFA412"/>
<path d="M584.113 265.204C584.113 265.204 580.881 269.907 577.919 269.973C574.957 270.039 570.448 267.794 570.448 267.794C570.448 267.794 567.729 261.528 569.572 259.074C569.572 259.074 571.422 258.235 573.356 259.716C573.688 259.972 574.026 260.295 574.358 260.708C574.826 261.292 575.354 261.624 575.914 261.799C578.029 262.464 580.537 260.901 581.477 262.41C582.025 263.288 582.621 263.948 583.112 264.409C583.691 264.942 584.113 265.204 584.113 265.204Z" fill="#FFEDDC"/>
<path d="M541.979 299.13C541.979 299.13 553.404 270.518 573.965 269.973C573.965 269.973 592.946 272.152 593.999 299.13H541.979Z" fill="#FFEDDC"/>
<path d="M568.332 270.846C568.332 270.846 576.574 272.741 579.116 271.627C579.116 271.627 579.502 268.065 576.029 268.565C573.653 268.907 572.107 267.728 571.197 267.248C569.908 266.568 567.989 269.354 568.332 270.846Z" fill="#DB6A1D"/>
<path d="M575.504 265.475C574.976 265.883 573.359 259.714 573.359 259.714C573.69 259.97 574.029 260.292 574.36 260.706C574.829 261.289 575.357 261.621 575.916 261.796C575.921 261.977 576.017 265.077 575.504 265.475Z" fill="#E5C1A1"/>
<path d="M583.112 264.407C582.997 264.478 579.185 266.837 578.667 266.837C578.14 266.837 581.478 262.405 581.478 262.405C582.027 263.286 582.621 263.943 583.112 264.407Z" fill="#E5C1A1"/>
<path d="M553.138 291.136C552.927 290.948 561.223 278.51 563.507 278.418C565.792 278.327 570.924 281.143 574.642 281.506C578.358 281.868 581.961 280.78 582.665 283.051C583.367 285.321 585.301 293.371 584.116 294.66C582.928 295.948 557.701 295.164 553.138 291.136Z" fill="#F9DDBF"/>
<path opacity="0.5" d="M560.953 334.324C560.95 334.339 560.95 334.355 560.948 334.367C560.84 336.361 560.531 338.332 560.025 340.253C560.025 340.255 560.023 340.258 560.023 340.263C559.949 340.542 559.873 340.819 559.79 341.095C559.274 342.848 558.597 344.556 557.762 346.192C556.714 348.249 555.423 350.195 553.897 351.981C553.855 352.032 553.813 352.08 553.772 352.128C551.865 354.335 549.602 356.296 547.013 357.92C546.468 358.262 545.908 358.592 545.332 358.904C544.944 359.115 544.554 359.313 544.161 359.506C543.785 359.729 543.39 359.922 543.017 360.16C541.933 360.845 540.58 361.39 539.108 361.824V359.214C539.108 359.191 539.11 359.171 539.11 359.148C539.113 359.105 539.117 359.062 539.122 359.021C539.132 358.973 539.144 358.925 539.159 358.879C539.314 358.331 539.827 357.922 540.438 357.922H533.858C533.247 357.922 532.734 357.512 532.582 356.964C532.567 356.918 532.555 356.87 532.545 356.821C532.54 356.781 532.533 356.738 532.533 356.697C532.53 356.674 532.53 356.654 532.53 356.629V353.277C532.53 353.255 532.53 353.232 532.533 353.209C532.535 353.166 532.54 353.125 532.545 353.085C532.552 353.036 532.567 352.988 532.582 352.943C532.734 352.395 533.247 351.984 533.858 351.984H536.425C536.059 351.798 535.792 351.453 535.726 351.045C535.721 351.017 535.718 350.989 535.713 350.961C535.711 350.943 535.711 350.923 535.711 350.903C535.709 350.88 535.709 350.86 535.709 350.837V347.483C535.709 347.46 535.709 347.44 535.711 347.417C535.713 347.377 535.716 347.331 535.723 347.293C535.731 347.245 535.743 347.199 535.758 347.153C535.907 346.6 536.423 346.192 537.036 346.192H538.511C537.9 346.192 537.385 345.781 537.233 345.233C537.218 345.187 537.206 345.139 537.196 345.091C537.191 345.048 537.184 345.007 537.184 344.967V341.478C537.218 340.852 537.719 340.337 538.354 340.263H533.988C533.279 340.263 532.697 339.718 532.66 339.038C532.658 339.015 532.658 338.995 532.658 338.969V335.618C532.658 335.595 532.658 335.572 532.66 335.55C532.66 335.532 532.663 335.514 532.663 335.496C532.717 334.936 533.141 334.479 533.696 334.357C533.1 334.284 532.624 333.827 532.543 333.254C532.538 333.216 532.533 333.18 532.53 333.142C532.528 333.119 532.528 333.096 532.528 333.073V329.722C532.528 329.699 532.528 329.677 532.53 329.654C532.533 329.613 532.538 329.57 532.543 329.529C532.55 329.481 532.565 329.433 532.579 329.387C532.732 328.839 533.244 328.428 533.856 328.428H536.423C536.057 328.243 535.79 327.898 535.723 327.49C535.718 327.462 535.716 327.434 535.711 327.406C535.709 327.386 535.709 327.368 535.709 327.348C535.706 327.325 535.706 327.305 535.706 327.279V323.928C535.706 323.905 535.706 323.882 535.709 323.859C535.711 323.816 535.713 323.776 535.721 323.735C535.728 323.687 535.74 323.641 535.755 323.598C535.905 323.048 536.42 322.634 537.034 322.634H542.063C541.449 322.634 540.934 322.223 540.784 321.673C540.769 321.627 540.757 321.581 540.75 321.536C540.742 321.492 540.737 321.452 540.737 321.409C540.735 321.386 540.735 321.366 540.735 321.343V317.989C540.735 317.966 540.735 317.946 540.737 317.923C540.769 317.294 541.272 316.781 541.906 316.708H533.986C533.522 316.708 533.112 316.474 532.874 316.122L532.879 316.091L533.713 310.827L533.716 310.797L534.904 303.285C536.283 303.475 537.645 303.759 538.98 304.132C539.059 304.155 539.135 304.176 539.216 304.198C539.221 304.201 539.225 304.203 539.23 304.203C540.008 304.427 540.779 304.683 541.535 304.97C541.542 304.972 541.547 304.975 541.557 304.977C545.044 306.291 548.291 308.24 551.111 310.769C551.16 310.812 551.212 310.858 551.259 310.906C552.724 312.235 554.069 313.724 555.264 315.366C555.504 315.693 555.738 316.023 555.961 316.36C556.037 316.472 556.111 316.584 556.182 316.695C556.187 316.698 556.187 316.7 556.187 316.705C556.55 317.261 556.894 317.827 557.22 318.413C557.991 319.79 558.639 321.201 559.166 322.634C559.871 324.537 560.366 326.475 560.658 328.426C560.668 328.477 560.673 328.522 560.68 328.573C560.968 330.493 561.051 332.419 560.953 334.324Z" fill="#E2810E"/>
<path d="M497.39 346.364C489.321 331.232 494.647 312.202 509.286 303.861C523.926 295.52 542.335 301.025 550.405 316.157C558.474 331.29 553.148 350.319 538.511 358.661C523.869 367 505.46 361.494 497.39 346.364Z" fill="#E2810E"/>
<path d="M537.333 359.295C536.96 359.531 536.582 359.757 536.197 359.977C536.067 360.051 535.937 360.125 535.804 360.196C535.505 360.36 535.208 360.518 534.906 360.673C520.492 367.989 502.912 362.375 495.076 347.681C487.603 333.667 491.62 316.31 503.882 307.194C504.861 306.466 505.889 305.792 506.969 305.178C507.357 304.957 507.75 304.744 508.142 304.543C508.523 304.345 508.91 304.16 509.296 303.983C510.481 303.437 511.684 302.976 512.901 302.6C514.707 302.037 516.543 301.659 518.381 301.459C524.083 300.834 529.818 301.91 534.906 304.482C540.303 307.21 544.968 311.621 548.09 317.474C555.946 332.208 551.106 350.634 537.333 359.295Z" fill="#FFB93E"/>
<path d="M521.795 360.947C519.265 360.947 516.72 360.576 514.222 359.83C507.264 357.75 501.504 352.993 498.009 346.435C494.512 339.877 493.694 332.305 495.707 325.113C497.719 317.921 502.321 311.966 508.665 308.354C521.761 300.89 538.288 305.835 545.508 319.369C552.726 332.906 547.945 349.99 534.849 357.453C530.783 359.767 526.314 360.947 521.795 360.947ZM521.712 305.629C517.407 305.629 513.046 306.718 509.016 309.013C502.844 312.53 498.365 318.321 496.406 325.321C494.448 332.32 495.243 339.687 498.644 346.068C502.046 352.448 507.649 357.078 514.42 359.102C521.192 361.127 528.319 360.305 534.491 356.786C547.234 349.525 551.887 332.901 544.86 319.729C540.062 310.726 531.023 305.629 521.712 305.629Z" fill="#FFA412"/>
<path d="M535.095 335.623C535.036 335.468 534.972 335.319 534.908 335.174C534.417 334.058 533.806 333.155 533.072 332.462C532.243 331.681 531.281 331.095 530.181 330.704C529.084 330.313 527.86 330.075 526.51 329.991C525.16 329.905 523.687 329.885 522.1 329.933C521.118 329.963 520.279 329.945 519.581 329.879C518.884 329.814 518.293 329.679 517.81 329.479C517.324 329.278 516.928 329.002 516.627 328.649C516.322 328.299 516.074 327.873 515.876 327.368C515.677 326.863 515.564 326.361 515.534 325.864C515.505 325.369 515.576 324.897 515.75 324.448C515.922 324.001 516.204 323.591 516.595 323.213C516.982 322.835 517.498 322.51 518.138 322.241C519.319 321.744 520.421 321.756 521.444 322.274C522.468 322.791 523.3 323.87 523.943 325.508L530.11 322.921C529.573 321.556 528.9 320.402 528.093 319.46C527.285 318.519 526.375 317.794 525.359 317.279C524.345 316.766 523.241 316.464 522.048 316.378C520.855 316.292 519.613 316.421 518.327 316.771L516.58 312.327L513.166 313.76L514.887 318.144C513.655 318.803 512.611 319.572 511.752 320.45C510.896 321.328 510.238 322.276 509.777 323.296C509.315 324.319 509.075 325.389 509.05 326.513C509.028 327.637 509.244 328.779 509.701 329.938C510.226 331.277 510.903 332.338 511.733 333.119C512.562 333.901 513.524 334.484 514.619 334.867C515.714 335.25 516.938 335.481 518.293 335.555C519.648 335.631 521.123 335.628 522.713 335.55C523.636 335.496 524.438 335.501 525.118 335.567C525.798 335.631 526.385 335.768 526.88 335.973C527.376 336.179 527.786 336.468 528.115 336.838C528.444 337.209 528.721 337.683 528.944 338.256C529.143 338.764 529.241 339.266 529.239 339.768C529.239 340.271 529.129 340.75 528.91 341.207C528.692 341.663 528.365 342.087 527.931 342.478C527.496 342.866 526.944 343.201 526.274 343.482C525.69 343.726 525.089 343.888 524.465 343.97C523.842 344.048 523.233 343.985 522.64 343.779C522.046 343.576 521.491 343.203 520.973 342.666C520.455 342.128 520.004 341.374 519.626 340.405L513.461 342.993C514.104 344.632 514.914 345.931 515.885 346.889C516.86 347.848 517.925 348.536 519.081 348.949C520.237 349.363 521.447 349.543 522.711 349.49C523.975 349.437 525.221 349.226 526.448 348.851L528.041 352.907L531.433 351.484L529.833 347.41C531.065 346.75 532.12 345.986 532.999 345.126C533.814 344.33 534.449 343.47 534.908 342.549C534.945 342.475 534.982 342.399 535.016 342.323C535.48 341.318 535.73 340.25 535.76 339.124C535.787 337.99 535.566 336.826 535.095 335.623Z" fill="#FFA412"/>
<g opacity="0.7">
<path d="M737.793 329.306C737.793 329.306 743.609 322.292 738.151 317.837C738.151 317.837 734.165 315.343 730.914 315.543C730.914 315.543 735.52 323.527 734.031 324.321C732.541 325.115 729.52 315.041 729.52 315.041C729.52 315.041 720.449 314.133 717.531 315.581C717.531 315.581 725.286 322.142 723.652 322.533C722.019 322.923 713.641 316.485 713.641 316.485C713.641 316.485 705.198 317.969 705.647 323.294C706.096 328.619 709.007 330.263 710.286 330.121C711.564 329.978 719.045 327.028 719.207 328.111C719.369 329.195 714.868 332.734 711.714 332.898C711.714 332.898 717.666 339.685 721.624 337.726C725.581 335.768 725.919 332.662 728.383 331.498C730.85 330.334 732.956 330.336 731.937 331.523C730.919 332.711 726.457 333.865 725.046 336.442C723.634 339.02 722.37 340.76 726.464 340.124C730.558 339.487 737.211 336.392 737.503 332.845C737.793 329.306 737.793 329.306 737.793 329.306Z" fill="#82B378"/>
<path d="M709.795 323.441C709.795 323.441 732.727 322.528 737.793 329.306C737.793 329.306 738.912 332.774 742.36 335.93L742.898 337.445C742.898 337.445 738.924 333.114 737.501 332.85C737.501 332.85 739.724 324.453 709.795 323.441Z" fill="#82B378"/>
<path d="M742.36 335.93C742.36 335.93 747.283 339.692 747.624 346.415L746.731 346.499C746.731 346.499 745.158 339.548 742.318 336.828C739.476 334.111 742.36 335.93 742.36 335.93Z" fill="#82B378"/>
<path d="M755.729 323.568C755.729 323.568 747.573 318.846 751.38 312.438C751.38 312.438 754.426 308.503 757.687 307.491C757.687 307.491 755.947 317.045 757.687 317.271C759.427 317.497 758.883 306.479 758.883 306.479C758.883 306.479 767.472 302.207 770.845 302.544C770.845 302.544 765.516 311.875 767.256 311.649C768.996 311.423 774.977 301.981 774.977 301.981C774.977 301.981 783.786 300.294 785.199 305.69C786.613 311.086 784.331 313.783 783.025 314.12C781.719 314.458 773.345 314.346 773.564 315.47C773.782 316.594 779.437 318.392 782.59 317.38C782.59 317.38 779.11 326.259 774.543 325.81C769.976 325.361 768.562 322.439 765.735 322.213C762.907 321.987 760.841 322.776 762.255 323.563C763.668 324.349 768.454 323.821 770.736 325.828C773.021 327.835 774.869 329.07 770.629 329.971C766.388 330.869 758.775 330.308 757.253 326.937C755.729 323.568 755.729 323.568 755.729 323.568Z" fill="#82B378"/>
<path d="M781.174 307.38C781.174 307.38 758.338 315.023 755.726 323.568C755.726 323.568 755.834 327.391 753.552 331.775V333.462C753.552 333.462 755.945 327.728 757.25 326.942C757.25 326.939 752.141 319.521 781.174 307.38Z" fill="#82B378"/>
<path d="M753.554 331.772C753.554 331.772 750.032 337.3 752.04 344.03L752.946 343.779C752.946 343.779 752.067 336.366 753.908 332.64C755.751 328.91 753.554 331.772 753.554 331.772Z" fill="#82B378"/>
<path d="M743.408 313.098C743.408 313.098 755.603 306.038 749.912 296.456C749.912 296.456 745.359 290.573 740.48 289.061C740.48 289.061 743.082 303.348 740.48 303.686C737.879 304.021 738.691 287.549 738.691 287.549C738.691 287.549 725.846 281.161 720.805 281.665C720.805 281.665 728.774 295.616 726.172 295.281C723.571 294.946 714.627 280.826 714.627 280.826C714.627 280.826 701.456 278.304 699.342 286.374C697.229 294.441 700.643 298.478 702.594 298.98C704.545 299.485 717.067 299.317 716.743 300.997C716.417 302.679 707.962 305.368 703.245 303.853C703.245 303.853 708.448 317.132 715.278 316.459C722.108 315.787 724.221 311.416 728.45 311.081C732.678 310.744 735.768 311.921 733.653 313.098C731.54 314.275 724.383 313.483 720.969 316.485C717.555 319.486 714.789 321.335 721.131 322.68C727.473 324.024 738.856 323.185 741.133 318.141C743.408 313.098 743.408 313.098 743.408 313.098Z" fill="#B9E0AD"/>
<path d="M705.358 288.893C705.358 288.893 739.506 300.325 743.408 313.098C743.408 313.098 743.247 318.814 746.66 325.369V327.891C746.66 327.891 743.082 319.318 741.131 318.141C741.133 318.141 748.776 307.047 705.358 288.893Z" fill="#B9E0AD"/>
<path d="M746.663 325.369C746.663 325.369 751.93 333.637 748.926 343.698L747.571 343.323C747.571 343.323 748.886 332.239 746.13 326.665C743.377 321.089 746.663 325.369 746.663 325.369Z" fill="#B9E0AD"/>
<path d="M743.114 363.268C731.483 363.268 722.054 353.521 722.054 341.499H764.174C764.174 353.521 754.747 363.268 743.114 363.268Z" fill="#9FC1F4"/>
<path d="M721.577 342.164H764.868V341.497H721.577V342.164Z" fill="#77A4E5"/>
<path d="M752.109 363.268H732.391C732.391 362.304 733.147 361.522 734.08 361.522H750.42C751.353 361.52 752.109 362.304 752.109 363.268Z" fill="#77A4E5"/>
</g>
<path d="M614.752 217.109C587.654 239.916 555.19 257.446 518.258 269.214C488.26 278.771 455.025 284.626 419.473 286.623C409.778 287.168 400.334 287.404 391.244 287.404C372.864 287.404 355.915 286.437 341.146 285.093L347.122 255.865C367.487 257.58 391.811 258.481 418.088 257.007C451.547 255.135 482.709 249.657 510.699 240.74C544.381 230.004 573.842 214.146 598.254 193.594L614.752 217.109Z" fill="#F77D48"/>
<path d="M517.93 93.3282L514.206 73.9922L514.197 73.9494L501.802 9.59607L381.321 9.61255L397.449 93.3479L420.334 93.3446H420.547L446.161 93.3413H446.237L471.736 93.3348H471.911L497.356 93.3315H497.585L517.93 93.3282Z" fill="#1E3458"/>
<path d="M519.994 91.6751L399.513 91.6916L383.385 9.61255L503.866 9.59607L519.994 91.6751Z" fill="#465C93"/>
<path d="M422.627 91.6886H422.398L406.312 9.8302H406.544L422.627 91.6886Z" fill="#C0D8FB"/>
<path d="M448.301 91.6851H448.072L431.985 9.82666H432.217L448.301 91.6851Z" fill="#C0D8FB"/>
<path d="M473.975 91.682H473.747L457.66 9.82355H457.892L473.975 91.682Z" fill="#C0D8FB"/>
<path d="M499.65 91.6751L499.421 91.6784L483.337 9.82001H483.566L499.65 91.6751Z" fill="#C0D8FB"/>
<path d="M507.694 29.0741L387.21 29.0906L387.166 28.8662L507.65 28.8497L507.694 29.0741Z" fill="#C0D8FB"/>
<path d="M511.981 50.8962L391.5 50.9127L391.455 50.6883L511.936 50.6718L511.981 50.8962Z" fill="#C0D8FB"/>
<path d="M516.27 72.7183L395.786 72.7348L395.742 72.5104L516.226 72.4939L516.27 72.7183Z" fill="#C0D8FB"/>
<path d="M410.665 31.3889L407.71 28.9785L409.714 26.5648L412.671 28.9752L410.665 31.3889Z" fill="#C0D8FB"/>
<path d="M414.973 53.3227L412.019 50.909L414.026 48.4985L416.98 50.909L414.973 53.3227Z" fill="#C0D8FB"/>
<path d="M436.453 31.3856L433.499 28.9719L435.506 26.5615L438.46 28.9719L436.453 31.3856Z" fill="#C0D8FB"/>
<path d="M440.762 53.3194L437.808 50.9057L439.814 48.4919L442.768 50.9057L440.762 53.3194Z" fill="#C0D8FB"/>
<path d="M462.127 31.3822L459.173 28.9685L461.179 26.5548L464.133 28.9685L462.127 31.3822Z" fill="#C0D8FB"/>
<path d="M487.572 31.3787L484.618 28.965L486.625 26.5513L489.579 28.965L487.572 31.3787Z" fill="#C0D8FB"/>
<path d="M419.241 75.0328L416.287 72.6191L418.29 70.2087L421.244 72.6191L419.241 75.0328Z" fill="#C0D8FB"/>
<path d="M445.029 75.0295L442.075 72.6158L444.082 70.2021L447.036 72.6158L445.029 75.0295Z" fill="#C0D8FB"/>
<path d="M470.703 75.0262L467.749 72.6125L469.755 70.1988L472.71 72.6125L470.703 75.0262Z" fill="#C0D8FB"/>
<path d="M496.148 75.0229L493.194 72.6092L495.201 70.1955L498.155 72.6092L496.148 75.0229Z" fill="#C0D8FB"/>
<path d="M491.881 53.3128L488.927 50.8991L490.933 48.4854L493.887 50.8991L491.881 53.3128Z" fill="#C0D8FB"/>
<path d="M466.439 53.3161L463.482 50.9024L465.488 48.4886L468.442 50.9024L466.439 53.3161Z" fill="#C0D8FB"/>
<path d="M47.3514 214.728L38.6034 231.648V240H32.4474V231.648L23.6994 214.728H30.6834L35.5794 225.312L40.4394 214.728H47.3514ZM59.3358 240.288C57.3678 240.288 55.5918 239.868 54.0078 239.028C52.4478 238.188 51.2118 236.988 50.2998 235.428C49.4118 233.868 48.9678 232.044 48.9678 229.956C48.9678 227.892 49.4238 226.08 50.3358 224.52C51.2478 222.936 52.4958 221.724 54.0798 220.884C55.6638 220.044 57.4398 219.624 59.4078 219.624C61.3758 219.624 63.1518 220.044 64.7358 220.884C66.3198 221.724 67.5678 222.936 68.4798 224.52C69.3918 226.08 69.8478 227.892 69.8478 229.956C69.8478 232.02 69.3798 233.844 68.4438 235.428C67.5318 236.988 66.2718 238.188 64.6638 239.028C63.0798 239.868 61.3038 240.288 59.3358 240.288ZM59.3358 234.96C60.5118 234.96 61.5078 234.528 62.3238 233.664C63.1638 232.8 63.5838 231.564 63.5838 229.956C63.5838 228.348 63.1758 227.112 62.3598 226.248C61.5678 225.384 60.5838 224.952 59.4078 224.952C58.2078 224.952 57.2118 225.384 56.4198 226.248C55.6278 227.088 55.2318 228.324 55.2318 229.956C55.2318 231.564 55.6158 232.8 56.3838 233.664C57.1758 234.528 58.1598 234.96 59.3358 234.96ZM93.3096 219.912V240H87.1536V237.264C86.5296 238.152 85.6776 238.872 84.5976 239.424C83.5416 239.952 82.3656 240.216 81.0696 240.216C79.5336 240.216 78.1776 239.88 77.0016 239.208C75.8256 238.512 74.9136 237.516 74.2656 236.22C73.6176 234.924 73.2936 233.4 73.2936 231.648V219.912H79.4136V230.82C79.4136 232.164 79.7616 233.208 80.4576 233.952C81.1536 234.696 82.0896 235.068 83.2656 235.068C84.4656 235.068 85.4136 234.696 86.1096 233.952C86.8056 233.208 87.1536 232.164 87.1536 230.82V219.912H93.3096ZM104.247 223.26C104.967 222.156 105.867 221.292 106.947 220.668C108.027 220.02 109.227 219.696 110.547 219.696V226.212H108.855C107.319 226.212 106.167 226.548 105.399 227.22C104.631 227.868 104.247 229.02 104.247 230.676V240H98.0915V219.912H104.247V223.26ZM130.011 240.288C128.259 240.288 126.699 239.988 125.331 239.388C123.963 238.788 122.883 237.972 122.091 236.94C121.299 235.884 120.855 234.708 120.759 233.412H126.843C126.915 234.108 127.239 234.672 127.815 235.104C128.391 235.536 129.099 235.752 129.939 235.752C130.707 235.752 131.295 235.608 131.703 235.32C132.135 235.008 132.351 234.612 132.351 234.132C132.351 233.556 132.051 233.136 131.451 232.872C130.851 232.584 129.879 232.272 128.535 231.936C127.095 231.6 125.895 231.252 124.935 230.892C123.975 230.508 123.147 229.92 122.451 229.128C121.755 228.312 121.407 227.22 121.407 225.852C121.407 224.7 121.719 223.656 122.343 222.72C122.991 221.76 123.927 221.004 125.151 220.452C126.399 219.9 127.875 219.624 129.579 219.624C132.099 219.624 134.079 220.248 135.519 221.496C136.983 222.744 137.823 224.4 138.039 226.464H132.351C132.255 225.768 131.943 225.216 131.415 224.808C130.911 224.4 130.239 224.196 129.399 224.196C128.679 224.196 128.127 224.34 127.743 224.628C127.359 224.892 127.167 225.264 127.167 225.744C127.167 226.32 127.467 226.752 128.067 227.04C128.691 227.328 129.651 227.616 130.947 227.904C132.435 228.288 133.647 228.672 134.583 229.056C135.519 229.416 136.335 230.016 137.031 230.856C137.751 231.672 138.123 232.776 138.147 234.168C138.147 235.344 137.811 236.4 137.139 237.336C136.491 238.248 135.543 238.968 134.295 239.496C133.071 240.024 131.643 240.288 130.011 240.288ZM141.049 229.92C141.049 227.856 141.433 226.044 142.201 224.484C142.993 222.924 144.061 221.724 145.405 220.884C146.749 220.044 148.249 219.624 149.905 219.624C151.321 219.624 152.557 219.912 153.613 220.488C154.693 221.064 155.521 221.82 156.097 222.756V219.912H162.253V240H156.097V237.156C155.497 238.092 154.657 238.848 153.577 239.424C152.521 240 151.285 240.288 149.869 240.288C148.237 240.288 146.749 239.868 145.405 239.028C144.061 238.164 142.993 236.952 142.201 235.392C141.433 233.808 141.049 231.984 141.049 229.92ZM156.097 229.956C156.097 228.42 155.665 227.208 154.801 226.32C153.961 225.432 152.929 224.988 151.705 224.988C150.481 224.988 149.437 225.432 148.573 226.32C147.733 227.184 147.313 228.384 147.313 229.92C147.313 231.456 147.733 232.68 148.573 233.592C149.437 234.48 150.481 234.924 151.705 234.924C152.929 234.924 153.961 234.48 154.801 233.592C155.665 232.704 156.097 231.492 156.097 229.956ZM176.103 234.24L180.459 219.912H187.011L179.883 240H172.287L165.159 219.912H171.747L176.103 234.24ZM193.058 217.824C191.978 217.824 191.09 217.512 190.394 216.888C189.722 216.24 189.386 215.448 189.386 214.512C189.386 213.552 189.722 212.76 190.394 212.136C191.09 211.488 191.978 211.164 193.058 211.164C194.114 211.164 194.978 211.488 195.65 212.136C196.346 212.76 196.694 213.552 196.694 214.512C196.694 215.448 196.346 216.24 195.65 216.888C194.978 217.512 194.114 217.824 193.058 217.824ZM196.118 219.912V240H189.962V219.912H196.118ZM213.179 219.696C215.531 219.696 217.403 220.464 218.795 222C220.211 223.512 220.919 225.6 220.919 228.264V240H214.799V229.092C214.799 227.748 214.451 226.704 213.755 225.96C213.059 225.216 212.123 224.844 210.947 224.844C209.771 224.844 208.835 225.216 208.139 225.96C207.443 226.704 207.095 227.748 207.095 229.092V240H200.939V219.912H207.095V222.576C207.719 221.688 208.559 220.992 209.615 220.488C210.671 219.96 211.859 219.696 213.179 219.696ZM233.189 219.624C234.605 219.624 235.841 219.912 236.897 220.488C237.977 221.064 238.805 221.82 239.381 222.756V219.912H245.537V239.964C245.537 241.812 245.165 243.48 244.421 244.968C243.701 246.48 242.585 247.68 241.073 248.568C239.585 249.456 237.725 249.9 235.493 249.9C232.517 249.9 230.105 249.192 228.257 247.776C226.409 246.384 225.353 244.488 225.089 242.088H231.173C231.365 242.856 231.821 243.456 232.541 243.888C233.261 244.344 234.149 244.572 235.205 244.572C236.477 244.572 237.485 244.2 238.229 243.456C238.997 242.736 239.381 241.572 239.381 239.964V237.12C238.781 238.056 237.953 238.824 236.897 239.424C235.841 240 234.605 240.288 233.189 240.288C231.533 240.288 230.033 239.868 228.689 239.028C227.345 238.164 226.277 236.952 225.485 235.392C224.717 233.808 224.333 231.984 224.333 229.92C224.333 227.856 224.717 226.044 225.485 224.484C226.277 222.924 227.345 221.724 228.689 220.884C230.033 220.044 231.533 219.624 233.189 219.624ZM239.381 229.956C239.381 228.42 238.949 227.208 238.085 226.32C237.245 225.432 236.213 224.988 234.989 224.988C233.765 224.988 232.721 225.432 231.857 226.32C231.017 227.184 230.597 228.384 230.597 229.92C230.597 231.456 231.017 232.68 231.857 233.592C232.721 234.48 233.765 234.924 234.989 234.924C236.213 234.924 237.245 234.48 238.085 233.592C238.949 232.704 239.381 231.492 239.381 229.956ZM258.522 240.288C256.77 240.288 255.21 239.988 253.842 239.388C252.474 238.788 251.394 237.972 250.602 236.94C249.81 235.884 249.366 234.708 249.27 233.412H255.354C255.426 234.108 255.75 234.672 256.326 235.104C256.902 235.536 257.61 235.752 258.45 235.752C259.218 235.752 259.806 235.608 260.214 235.32C260.646 235.008 260.862 234.612 260.862 234.132C260.862 233.556 260.562 233.136 259.962 232.872C259.362 232.584 258.39 232.272 257.046 231.936C255.606 231.6 254.406 231.252 253.446 230.892C252.486 230.508 251.658 229.92 250.962 229.128C250.266 228.312 249.918 227.22 249.918 225.852C249.918 224.7 250.23 223.656 250.854 222.72C251.502 221.76 252.438 221.004 253.662 220.452C254.91 219.9 256.386 219.624 258.09 219.624C260.61 219.624 262.59 220.248 264.03 221.496C265.494 222.744 266.334 224.4 266.55 226.464H260.862C260.766 225.768 260.454 225.216 259.926 224.808C259.422 224.4 258.75 224.196 257.91 224.196C257.19 224.196 256.638 224.34 256.254 224.628C255.87 224.892 255.678 225.264 255.678 225.744C255.678 226.32 255.978 226.752 256.578 227.04C257.202 227.328 258.162 227.616 259.458 227.904C260.946 228.288 262.158 228.672 263.094 229.056C264.03 229.416 264.846 230.016 265.542 230.856C266.262 231.672 266.634 232.776 266.658 234.168C266.658 235.344 266.322 236.4 265.65 237.336C265.002 238.248 264.054 238.968 262.806 239.496C261.582 240.024 260.154 240.288 258.522 240.288ZM101.126 273.624C102.542 273.624 103.778 273.912 104.834 274.488C105.914 275.064 106.742 275.82 107.318 276.756V273.912H113.474V293.964C113.474 295.812 113.102 297.48 112.358 298.968C111.638 300.48 110.522 301.68 109.01 302.568C107.522 303.456 105.662 303.9 103.43 303.9C100.454 303.9 98.0424 303.192 96.1944 301.776C94.3464 300.384 93.2904 298.488 93.0264 296.088H99.1104C99.3024 296.856 99.7584 297.456 100.478 297.888C101.198 298.344 102.086 298.572 103.142 298.572C104.414 298.572 105.422 298.2 106.166 297.456C106.934 296.736 107.318 295.572 107.318 293.964V291.12C106.718 292.056 105.89 292.824 104.834 293.424C103.778 294 102.542 294.288 101.126 294.288C99.4704 294.288 97.9704 293.868 96.6264 293.028C95.2824 292.164 94.2144 290.952 93.4224 289.392C92.6544 287.808 92.2704 285.984 92.2704 283.92C92.2704 281.856 92.6544 280.044 93.4224 278.484C94.2144 276.924 95.2824 275.724 96.6264 274.884C97.9704 274.044 99.4704 273.624 101.126 273.624ZM107.318 283.956C107.318 282.42 106.886 281.208 106.022 280.32C105.182 279.432 104.15 278.988 102.926 278.988C101.702 278.988 100.658 279.432 99.7944 280.32C98.9544 281.184 98.5344 282.384 98.5344 283.92C98.5344 285.456 98.9544 286.68 99.7944 287.592C100.658 288.48 101.702 288.924 102.926 288.924C104.15 288.924 105.182 288.48 106.022 287.592C106.886 286.704 107.318 285.492 107.318 283.956ZM124.444 277.26C125.164 276.156 126.064 275.292 127.144 274.668C128.224 274.02 129.424 273.696 130.744 273.696V280.212H129.052C127.516 280.212 126.364 280.548 125.596 281.22C124.828 281.868 124.444 283.02 124.444 284.676V294H118.288V273.912H124.444V277.26ZM143.19 294.288C141.222 294.288 139.446 293.868 137.862 293.028C136.302 292.188 135.066 290.988 134.154 289.428C133.266 287.868 132.822 286.044 132.822 283.956C132.822 281.892 133.278 280.08 134.19 278.52C135.102 276.936 136.35 275.724 137.934 274.884C139.518 274.044 141.294 273.624 143.262 273.624C145.23 273.624 147.006 274.044 148.59 274.884C150.174 275.724 151.422 276.936 152.334 278.52C153.246 280.08 153.702 281.892 153.702 283.956C153.702 286.02 153.234 287.844 152.298 289.428C151.386 290.988 150.126 292.188 148.518 293.028C146.934 293.868 145.158 294.288 143.19 294.288ZM143.19 288.96C144.366 288.96 145.362 288.528 146.178 287.664C147.018 286.8 147.438 285.564 147.438 283.956C147.438 282.348 147.03 281.112 146.214 280.248C145.422 279.384 144.438 278.952 143.262 278.952C142.062 278.952 141.066 279.384 140.274 280.248C139.482 281.088 139.086 282.324 139.086 283.956C139.086 285.564 139.47 286.8 140.238 287.664C141.03 288.528 142.014 288.96 143.19 288.96ZM186.164 273.912L180.728 294H173.924L170.756 280.968L167.48 294H160.712L155.24 273.912H161.396L164.24 288.276L167.624 273.912H174.14L177.56 288.204L180.368 273.912H186.164ZM196.972 267.828L196.252 285.072H191.032L190.312 267.828H196.972ZM193.732 294.288C192.652 294.288 191.764 293.976 191.068 293.352C190.396 292.704 190.06 291.912 190.06 290.976C190.06 290.016 190.396 289.212 191.068 288.564C191.764 287.916 192.652 287.592 193.732 287.592C194.788 287.592 195.652 287.916 196.324 288.564C197.02 289.212 197.368 290.016 197.368 290.976C197.368 291.912 197.02 292.704 196.324 293.352C195.652 293.976 194.788 294.288 193.732 294.288Z" fill="#8FC48A"/>
</g>
<defs>
<clipPath id="clip0_55_4888">
<rect width="798" height="366" fill="white"/>
</clipPath>
</defs>
</svg>
