<svg width="1730" height="473" viewBox="0 0 1730 473" fill="none" xmlns="http://www.w3.org/2000/svg">
<g clip-path="url(#clip0_537_274)">
<path d="M1000.72 472.606C1000.74 472.74 1000.77 472.868 1000.8 472.997L1012.42 472.96L1192.54 472.41L1311.4 472.049L1315.02 472.035L1323.39 472.011L1432.12 471.679L1604.95 471.151L1636.79 471.055L1645.24 471.028L1648.2 471.02L1648.67 471.017L1649.65 471.014L1682.66 470.913C1682.66 470.913 1682.66 470.913 1682.66 470.913L1691.86 470.889C1691.86 470.889 1691.86 470.889 1691.87 470.889L1692.87 470.886L1698.24 470.867C1698.24 470.867 1698.24 470.867 1698.25 470.867L1701.93 470.854L1703.56 470.848C1703.56 470.848 1703.63 470.733 1703.76 470.508C1703.81 470.43 1703.86 470.337 1703.93 470.229C1704.01 470.074 1704.12 469.892 1704.24 469.683C1704.28 469.611 1704.33 469.533 1704.37 469.453C1704.53 469.169 1704.72 468.847 1704.92 468.477C1705.17 468.03 1705.44 467.521 1705.75 466.953V466.95C1706.89 464.831 1708.4 461.895 1710.11 458.245C1710.68 457.048 1711.26 455.773 1711.86 454.422C1712.1 453.884 1712.34 453.337 1712.58 452.777V452.775C1712.82 452.233 1713.06 451.681 1713.3 451.116C1713.3 451.097 1713.31 451.079 1713.32 451.06C1713.49 450.671 1713.65 450.28 1713.81 449.881C1713.99 449.474 1714.16 449.059 1714.33 448.641C1715.22 446.481 1716.12 444.188 1717.03 441.768C1717.05 441.707 1717.07 441.64 1717.1 441.578C1717.1 441.578 1717.1 441.578 1717.1 441.576C1717.69 439.992 1718.27 438.358 1718.86 436.675C1719.18 435.748 1719.49 434.811 1719.81 433.857C1719.83 433.801 1719.85 433.742 1719.87 433.68C1720.01 433.257 1720.14 432.833 1720.28 432.405C1720.4 432.043 1720.51 431.684 1720.63 431.32C1720.86 430.572 1721.1 429.817 1721.34 429.053C1721.64 428.072 1721.94 427.076 1722.23 426.068C1722.62 424.699 1723.01 423.309 1723.39 421.894C1723.5 421.471 1723.61 421.045 1723.73 420.619C1724.06 419.341 1724.38 418.044 1724.7 416.734C1724.8 416.313 1724.9 415.893 1725 415.47C1725.06 415.207 1725.12 414.947 1725.18 414.685C1725.66 412.611 1726.11 410.497 1726.53 408.346C1727 405.977 1727.43 403.561 1727.81 401.104C1728.17 398.837 1728.49 396.533 1728.77 394.197C1729.03 391.992 1729.26 389.763 1729.44 387.504C1729.87 382.223 1730.06 376.803 1729.98 371.282C1729.83 361.669 1728.82 351.748 1726.64 341.706C1726.56 341.339 1726.48 340.977 1726.39 340.61C1725.85 338.22 1725.25 335.828 1724.57 333.43C1724.06 331.603 1723.5 329.77 1722.9 327.94C1722.47 326.614 1722.01 325.285 1721.53 323.956C1720.45 320.948 1719.24 317.942 1717.91 314.936C1717.54 314.105 1717.17 313.272 1716.78 312.441C1709.55 296.948 1698.88 281.598 1683.7 267.077C1683.42 266.807 1683.13 266.536 1682.85 266.265C1675.32 259.123 1667.88 252.907 1660.54 247.511C1660.27 247.313 1660 247.117 1659.73 246.919C1579.13 188.261 1511.01 228.066 1474.86 225.861C1467.74 225.429 1461.5 222.624 1455.36 218.182C1444.11 210.04 1433.22 196.395 1418.03 181.748C1395.26 159.792 1362.84 135.583 1305.04 124.271C1233.53 110.272 1135.29 114.197 1092.79 156.271C1067.08 181.724 1061.76 221.132 1095.1 278.981C1097.13 282.496 1099.3 286.083 1101.62 289.74C1103.56 292.811 1105.26 295.742 1106.72 298.539C1110.39 305.569 1112.56 311.766 1113.48 317.291C1115.67 330.563 1110.62 339.962 1101.57 347.689C1099.11 349.781 1096.37 351.75 1093.4 353.645C1093.21 353.765 1093.02 353.886 1092.83 354.006C1082.25 360.643 1068.88 366.341 1055.55 373.023C1048.2 376.715 1040.85 380.702 1033.99 385.315C1027.62 389.602 1021.67 394.422 1016.52 400.037C1013.16 403.703 1010.14 407.713 1007.57 412.131C1007.42 412.38 1007.28 412.63 1007.14 412.876C1003.82 418.754 1001.29 425.356 999.789 432.841C999.714 433.222 999.638 433.602 999.571 433.988C997.571 444.855 997.711 457.568 1000.72 472.606Z" fill="#EBF3FA"/>
<path d="M1095.11 278.984L1611.66 367.628L1594.24 335.169L1092.79 156.277C1067.08 181.727 1061.77 221.137 1095.11 278.984Z" fill="#F8FBFF"/>
<path d="M1246 149.619L1455.36 218.188C1444.11 210.046 1433.23 196.4 1418.04 181.753L1246 149.619Z" fill="#F8FBFF"/>
<path d="M1252.46 172.497C1257.55 172.497 1261.67 176.588 1261.67 181.635C1261.67 186.683 1257.55 190.774 1252.46 190.774C1247.38 190.774 1243.26 186.683 1243.26 181.635C1243.26 176.588 1247.38 172.497 1252.46 172.497Z" fill="#F8FBFF"/>
<path d="M1368.6 206.431H1416.4V437.192H1368.6V206.431Z" fill="#C4D9ED"/>
<path d="M1357.86 206.431H1405.67V437.193H1357.86V206.431Z" fill="#D5E7F7"/>
<path d="M1405.65 219.704H1357.86V206.369H1405.65V219.704Z" fill="#C4D9ED"/>
<path d="M1405.65 248.624H1357.86V235.289H1405.65V248.624Z" fill="#C4D9ED"/>
<path d="M1405.65 277.546H1357.86V264.212H1405.65V277.546Z" fill="#C4D9ED"/>
<path d="M1357.86 293.133H1405.65V306.467H1357.86V293.133Z" fill="#C4D9ED"/>
<path d="M1357.86 322.052H1405.65V335.386H1357.86V322.052Z" fill="#C4D9ED"/>
<path d="M1357.86 350.974H1405.65V364.308H1357.86V350.974Z" fill="#C4D9ED"/>
<path d="M1357.86 379.895H1405.65V393.23H1357.86V379.895Z" fill="#C4D9ED"/>
<path d="M1405.65 422.151H1357.86V408.817H1405.65V422.151Z" fill="#C4D9ED"/>
<path d="M1292.18 239.082H1339.98V437.19H1292.18V239.082Z" fill="#C4D9ED"/>
<path d="M1281.44 239.083H1329.25V437.19H1281.44V239.083Z" fill="#D5E7F7"/>
<path d="M1281.44 239.032H1329.23V250.48H1281.44V239.032Z" fill="#C4D9ED"/>
<path d="M1281.44 263.86H1329.23V275.308H1281.44V263.86Z" fill="#C4D9ED"/>
<path d="M1281.44 288.688H1329.23V300.136H1281.44V288.688Z" fill="#C4D9ED"/>
<path d="M1281.44 313.516H1329.23V324.964H1281.44V313.516Z" fill="#C4D9ED"/>
<path d="M1281.44 338.344H1329.23V349.792H1281.44V338.344Z" fill="#C4D9ED"/>
<path d="M1281.44 363.175H1329.23V374.623H1281.44V363.175Z" fill="#C4D9ED"/>
<path d="M1281.44 388.003H1329.23V399.451H1281.44V388.003Z" fill="#C4D9ED"/>
<path d="M1329.23 424.278H1281.45V412.83H1329.23V424.278Z" fill="#C4D9ED"/>
<path d="M1442.27 459.089H1422.25V430.113H1442.27V459.089Z" fill="#DCEAF9"/>
<path d="M1436.16 390.583V471.033H1648.2L1649.64 471.02L1703.76 470.516C1703.81 470.439 1703.86 470.345 1703.92 470.238C1704.01 470.082 1704.12 469.9 1704.24 469.691C1704.28 469.619 1704.32 469.541 1704.37 469.461C1704.53 469.177 1704.71 468.855 1704.92 468.486C1705.17 468.038 1705.44 467.529 1705.75 466.961V466.958C1706.88 464.839 1708.39 461.903 1710.11 458.254C1710.67 457.056 1711.26 455.781 1711.86 454.43C1712.1 453.892 1712.34 453.345 1712.58 452.786V452.783C1712.82 452.242 1713.06 451.69 1713.29 451.124C1713.3 451.106 1713.31 451.087 1713.32 451.068C1713.48 450.68 1713.65 450.288 1713.81 449.889C1713.99 449.482 1714.16 449.067 1714.33 448.649C1715.22 446.489 1716.12 444.196 1717.02 441.777C1717.05 441.715 1717.07 441.648 1717.09 441.586C1717.09 441.586 1717.09 441.586 1717.09 441.584C1717.69 440 1718.27 438.366 1718.85 436.684C1719.18 435.757 1719.49 434.819 1719.81 433.865C1719.83 433.809 1719.85 433.75 1719.86 433.688C1720 433.265 1720.14 432.842 1720.28 432.413C1720.4 432.051 1720.51 431.692 1720.62 431.328C1720.86 430.58 1721.1 429.825 1721.33 429.061C1721.63 428.081 1721.93 427.084 1722.23 426.077C1722.62 424.708 1723.01 423.317 1723.39 421.902C1723.5 421.479 1723.61 421.053 1723.72 420.627C1724.06 419.349 1724.38 418.052 1724.7 416.742C1724.8 416.322 1724.9 415.901 1725 415.478C1725.06 415.215 1725.12 414.955 1725.18 414.693C1725.66 412.619 1726.11 410.505 1726.53 408.354C1727 405.985 1727.43 403.569 1727.81 401.112C1728.17 398.845 1728.49 396.541 1728.76 394.205C1729.03 392 1729.25 389.771 1729.43 387.512C1729.87 382.232 1730.06 376.812 1729.98 371.29C1729.83 361.677 1728.82 351.756 1726.64 341.714C1726.56 341.347 1726.48 340.986 1726.39 340.619C1725.85 338.229 1725.25 335.836 1724.57 333.438C1724.06 331.611 1723.5 329.779 1722.9 327.949C1722.47 326.622 1722.01 325.294 1721.53 323.965C1720.45 320.956 1719.24 317.95 1717.91 314.944L1716.78 312.45C1709.54 296.956 1698.88 281.607 1683.7 267.086C1683.42 266.815 1683.13 266.544 1682.85 266.274H1681.96V297.047H1654.53V246.9H1624.25V279.453H1617.35V240.588H1587.08V313.452H1548.79V355.938H1534.49V366.642H1501.63V348.209H1482.76V298.127H1459.46V390.583H1436.16Z" fill="#D5E7F7"/>
<path d="M1617.36 252.931H1587.07V245.507H1617.36V252.931Z" fill="#C4D9ED"/>
<path d="M1617.36 266.877H1587.07V259.453H1617.36V266.877Z" fill="#C4D9ED"/>
<path d="M1617.36 279.425H1587.07V272.001H1617.36V279.425Z" fill="#C4D9ED"/>
<path d="M1654.52 279.425H1624.23V272.001H1654.52V279.425Z" fill="#C4D9ED"/>
<path d="M1654.52 266.877H1624.23V259.453H1654.52V266.877Z" fill="#C4D9ED"/>
<path d="M1654.52 254.351H1624.23V246.927H1654.52V254.351Z" fill="#C4D9ED"/>
<path d="M1654.53 291.591H1587.07V284.167H1654.53V291.591Z" fill="#C4D9ED"/>
<path d="M1654.53 303.757H1587.07V296.333H1654.53V303.757Z" fill="#C4D9ED"/>
<path d="M1482.98 309.592H1459.47V298.133H1482.98V309.592Z" fill="#C4D9ED"/>
<path d="M1482.98 326.634H1459.47V315.175H1482.98V326.634Z" fill="#C4D9ED"/>
<path d="M1482.98 343.676H1459.47V332.217H1482.98V343.676Z" fill="#C4D9ED"/>
<path d="M1482.98 361.54H1459.47V350.081H1482.98V361.54Z" fill="#C4D9ED"/>
<path d="M1482.98 378.85H1459.47V367.392H1482.98V378.85Z" fill="#C4D9ED"/>
<path d="M1482.98 396.162H1459.47V384.703H1482.98V396.162Z" fill="#C4D9ED"/>
<path d="M1482.98 414.271H1459.47V402.813H1482.98V414.271Z" fill="#C4D9ED"/>
<path d="M1654.53 312.936H1587.07V308.223H1654.53V312.936Z" fill="#C4D9ED"/>
<path d="M1482.66 298.132H1491.33V348.211H1482.66V298.132Z" fill="#C4D9ED"/>
<path d="M1501.64 348.211H1519.07V366.642H1501.64V348.211Z" fill="#C4D9ED"/>
<path d="M1654.53 246.925V254.349L1654.53 284.165L1654.53 291.589V297.042H1660.54V247.517C1660.27 247.318 1660 247.123 1659.73 246.925H1654.53Z" fill="#C4D9ED"/>
<path d="M1617.36 240.588H1621.05V279.426H1617.36V240.588Z" fill="#C4D9ED"/>
<g opacity="0.8">
<path d="M1560.19 327.943H1555.05V320.763H1560.19V327.943Z" fill="#C4D9ED"/>
<path d="M1569.78 327.943H1564.65V320.763H1569.78V327.943Z" fill="#C4D9ED"/>
<path d="M1579.16 327.943H1574.03V320.763H1579.16V327.943Z" fill="#C4D9ED"/>
<path d="M1588.06 327.943H1582.93V320.763H1588.06V327.943Z" fill="#C4D9ED"/>
<path d="M1597.13 327.943H1591.99V320.763H1597.13V327.943Z" fill="#C4D9ED"/>
<path d="M1606.3 327.943H1601.17V320.763H1606.3V327.943Z" fill="#C4D9ED"/>
<path d="M1615.89 327.943H1610.76V320.763H1615.89V327.943Z" fill="#C4D9ED"/>
<path d="M1625.28 327.943H1620.14V320.763H1625.28V327.943Z" fill="#C4D9ED"/>
<path d="M1634.17 327.943H1629.04V320.763H1634.17V327.943Z" fill="#C4D9ED"/>
<path d="M1643.24 327.943H1638.1V320.763H1643.24V327.943Z" fill="#C4D9ED"/>
<path d="M1652.68 327.943H1647.55V320.763H1652.68V327.943Z" fill="#C4D9ED"/>
<path d="M1662.28 327.943H1657.15V320.763H1662.28V327.943Z" fill="#C4D9ED"/>
<path d="M1671.67 327.943H1666.53V320.763H1671.67V327.943Z" fill="#C4D9ED"/>
<path d="M1680.56 327.943H1675.43V320.763H1680.56V327.943Z" fill="#C4D9ED"/>
<path d="M1689.63 327.943H1684.49V320.763H1689.63V327.943Z" fill="#C4D9ED"/>
<path d="M1698.8 327.943H1693.67V320.763H1698.8V327.943Z" fill="#C4D9ED"/>
<path d="M1708.39 327.943H1703.26V320.763H1708.39V327.943Z" fill="#C4D9ED"/>
<path d="M1717.78 327.943H1712.64V320.763H1717.78V327.943Z" fill="#C4D9ED"/>
<path d="M1721.54 323.959V327.943H1722.91C1722.47 326.617 1722.02 325.288 1721.54 323.959Z" fill="#C4D9ED"/>
<path d="M1560.19 340.614H1555.05V333.433H1560.19V340.614Z" fill="#C4D9ED"/>
<path d="M1569.78 340.614H1564.65V333.433H1569.78V340.614Z" fill="#C4D9ED"/>
<path d="M1579.16 340.614H1574.03V333.433H1579.16V340.614Z" fill="#C4D9ED"/>
<path d="M1588.06 340.614H1582.93V333.433H1588.06V340.614Z" fill="#C4D9ED"/>
<path d="M1597.13 340.614H1591.99V333.433H1597.13V340.614Z" fill="#C4D9ED"/>
<path d="M1606.3 340.614H1601.17V333.433H1606.3V340.614Z" fill="#C4D9ED"/>
<path d="M1615.89 340.614H1610.76V333.433H1615.89V340.614Z" fill="#C4D9ED"/>
<path d="M1625.28 340.614H1620.14V333.433H1625.28V340.614Z" fill="#C4D9ED"/>
<path d="M1634.17 340.614H1629.04V333.433H1634.17V340.614Z" fill="#C4D9ED"/>
<path d="M1643.24 340.614H1638.1V333.433H1643.24V340.614Z" fill="#C4D9ED"/>
<path d="M1652.68 340.614H1647.55V333.433H1652.68V340.614Z" fill="#C4D9ED"/>
<path d="M1662.28 340.614H1657.15V333.433H1662.28V340.614Z" fill="#C4D9ED"/>
<path d="M1671.67 340.614H1666.53V333.433H1671.67V340.614Z" fill="#C4D9ED"/>
<path d="M1680.56 340.614H1675.43V333.433H1680.56V340.614Z" fill="#C4D9ED"/>
<path d="M1689.63 340.614H1684.49V333.433H1689.63V340.614Z" fill="#C4D9ED"/>
<path d="M1698.8 340.614H1693.67V333.433H1698.8V340.614Z" fill="#C4D9ED"/>
<path d="M1708.39 340.614H1703.26V333.433H1708.39V340.614Z" fill="#C4D9ED"/>
<path d="M1717.78 340.614H1712.64V333.433H1717.78V340.614Z" fill="#C4D9ED"/>
<path d="M1721.54 333.433V340.613H1726.39C1725.85 338.223 1725.25 335.831 1724.57 333.433H1721.54Z" fill="#C4D9ED"/>
<path d="M1560.19 353.091H1555.05V345.911H1560.19V353.091Z" fill="#C4D9ED"/>
<path d="M1569.78 353.091H1564.65V345.911H1569.78V353.091Z" fill="#C4D9ED"/>
<path d="M1579.16 353.091H1574.03V345.911H1579.16V353.091Z" fill="#C4D9ED"/>
<path d="M1588.06 353.091H1582.93V345.911H1588.06V353.091Z" fill="#C4D9ED"/>
<path d="M1597.13 353.091H1591.99V345.911H1597.13V353.091Z" fill="#C4D9ED"/>
<path d="M1606.3 353.091H1601.17V345.911H1606.3V353.091Z" fill="#C4D9ED"/>
<path d="M1615.89 353.091H1610.76V345.911H1615.89V353.091Z" fill="#C4D9ED"/>
<path d="M1625.28 353.091H1620.14V345.911H1625.28V353.091Z" fill="#C4D9ED"/>
<path d="M1634.17 353.091H1629.04V345.911H1634.17V353.091Z" fill="#C4D9ED"/>
<path d="M1643.24 353.091H1638.1V345.911H1643.24V353.091Z" fill="#C4D9ED"/>
<path d="M1652.68 353.091H1647.55V345.911H1652.68V353.091Z" fill="#C4D9ED"/>
<path d="M1662.28 353.091H1657.15V345.911H1662.28V353.091Z" fill="#C4D9ED"/>
<path d="M1671.67 353.091H1666.53V345.911H1671.67V353.091Z" fill="#C4D9ED"/>
<path d="M1680.56 353.091H1675.43V345.911H1680.56V353.091Z" fill="#C4D9ED"/>
<path d="M1689.63 353.091H1684.49V345.911H1689.63V353.091Z" fill="#C4D9ED"/>
<path d="M1698.8 353.091H1693.67V345.911H1698.8V353.091Z" fill="#C4D9ED"/>
<path d="M1708.39 353.091H1703.26V345.911H1708.39V353.091Z" fill="#C4D9ED"/>
<path d="M1717.78 353.091H1712.64V345.911H1717.78V353.091Z" fill="#C4D9ED"/>
<path d="M1726.67 353.091H1721.54V345.911H1726.67V353.091Z" fill="#C4D9ED"/>
<path d="M1560.19 366.348H1555.05V359.167H1560.19V366.348Z" fill="#C4D9ED"/>
<path d="M1569.78 366.348H1564.65V359.167H1569.78V366.348Z" fill="#C4D9ED"/>
<path d="M1579.16 366.348H1574.03V359.167H1579.16V366.348Z" fill="#C4D9ED"/>
<path d="M1588.06 366.348H1582.93V359.167H1588.06V366.348Z" fill="#C4D9ED"/>
<path d="M1597.13 366.348H1591.99V359.167H1597.13V366.348Z" fill="#C4D9ED"/>
<path d="M1606.3 366.348H1601.17V359.167H1606.3V366.348Z" fill="#C4D9ED"/>
<path d="M1615.89 366.348H1610.76V359.167H1615.89V366.348Z" fill="#C4D9ED"/>
<path d="M1625.28 366.348H1620.14V359.167H1625.28V366.348Z" fill="#C4D9ED"/>
<path d="M1634.17 366.348H1629.04V359.167H1634.17V366.348Z" fill="#C4D9ED"/>
<path d="M1643.24 366.348H1638.1V359.167H1643.24V366.348Z" fill="#C4D9ED"/>
<path d="M1652.68 366.348H1647.55V359.167H1652.68V366.348Z" fill="#C4D9ED"/>
<path d="M1662.28 366.348H1657.15V359.167H1662.28V366.348Z" fill="#C4D9ED"/>
<path d="M1671.67 366.348H1666.53V359.167H1671.67V366.348Z" fill="#C4D9ED"/>
<path d="M1680.56 366.348H1675.43V359.167H1680.56V366.348Z" fill="#C4D9ED"/>
<path d="M1689.63 366.348H1684.49V359.167H1689.63V366.348Z" fill="#C4D9ED"/>
<path d="M1698.8 366.348H1693.67V359.167H1698.8V366.348Z" fill="#C4D9ED"/>
<path d="M1708.39 366.348H1703.26V359.167H1708.39V366.348Z" fill="#C4D9ED"/>
<path d="M1717.78 366.348H1712.64V359.167H1717.78V366.348Z" fill="#C4D9ED"/>
<path d="M1726.67 366.348H1721.54V359.167H1726.67V366.348Z" fill="#C4D9ED"/>
<path d="M1560.19 379.018H1555.05V371.837H1560.19V379.018Z" fill="#C4D9ED"/>
<path d="M1569.78 379.018H1564.65V371.837H1569.78V379.018Z" fill="#C4D9ED"/>
<path d="M1579.16 379.018H1574.03V371.837H1579.16V379.018Z" fill="#C4D9ED"/>
<path d="M1588.06 379.018H1582.93V371.837H1588.06V379.018Z" fill="#C4D9ED"/>
<path d="M1597.13 379.018H1591.99V371.837H1597.13V379.018Z" fill="#C4D9ED"/>
<path d="M1606.3 379.018H1601.17V371.837H1606.3V379.018Z" fill="#C4D9ED"/>
<path d="M1615.89 379.018H1610.76V371.837H1615.89V379.018Z" fill="#C4D9ED"/>
<path d="M1625.28 379.018H1620.14V371.837H1625.28V379.018Z" fill="#C4D9ED"/>
<path d="M1634.17 379.018H1629.04V371.837H1634.17V379.018Z" fill="#C4D9ED"/>
<path d="M1643.24 379.018H1638.1V371.837H1643.24V379.018Z" fill="#C4D9ED"/>
<path d="M1652.68 379.018H1647.55V371.837H1652.68V379.018Z" fill="#C4D9ED"/>
<path d="M1662.28 379.018H1657.15V371.837H1662.28V379.018Z" fill="#C4D9ED"/>
<path d="M1671.67 379.018H1666.53V371.837H1671.67V379.018Z" fill="#C4D9ED"/>
<path d="M1680.56 379.018H1675.43V371.837H1680.56V379.018Z" fill="#C4D9ED"/>
<path d="M1689.63 379.018H1684.49V371.837H1689.63V379.018Z" fill="#C4D9ED"/>
<path d="M1698.8 379.018H1693.67V371.837H1698.8V379.018Z" fill="#C4D9ED"/>
<path d="M1708.39 379.018H1703.26V371.837H1708.39V379.018Z" fill="#C4D9ED"/>
<path d="M1717.78 379.018H1712.64V371.837H1717.78V379.018Z" fill="#C4D9ED"/>
<path d="M1726.67 379.018H1721.54V371.837H1726.67V379.018Z" fill="#C4D9ED"/>
<path d="M1560.19 391.495H1555.05V384.315H1560.19V391.495Z" fill="#C4D9ED"/>
<path d="M1569.78 391.495H1564.65V384.315H1569.78V391.495Z" fill="#C4D9ED"/>
<path d="M1579.16 391.495H1574.03V384.315H1579.16V391.495Z" fill="#C4D9ED"/>
<path d="M1588.06 391.495H1582.93V384.315H1588.06V391.495Z" fill="#C4D9ED"/>
<path d="M1597.13 391.495H1591.99V384.315H1597.13V391.495Z" fill="#C4D9ED"/>
<path d="M1606.3 391.495H1601.17V384.315H1606.3V391.495Z" fill="#C4D9ED"/>
<path d="M1615.89 391.495H1610.76V384.315H1615.89V391.495Z" fill="#C4D9ED"/>
<path d="M1625.28 391.495H1620.14V384.315H1625.28V391.495Z" fill="#C4D9ED"/>
<path d="M1634.17 391.495H1629.04V384.315H1634.17V391.495Z" fill="#C4D9ED"/>
<path d="M1643.24 391.495H1638.1V384.315H1643.24V391.495Z" fill="#C4D9ED"/>
<path d="M1652.68 391.495H1647.55V384.315H1652.68V391.495Z" fill="#C4D9ED"/>
<path d="M1662.28 391.495H1657.15V384.315H1662.28V391.495Z" fill="#C4D9ED"/>
<path d="M1671.67 391.495H1666.53V384.315H1671.67V391.495Z" fill="#C4D9ED"/>
<path d="M1680.56 391.495H1675.43V384.315H1680.56V391.495Z" fill="#C4D9ED"/>
<path d="M1689.63 391.495H1684.49V384.315H1689.63V391.495Z" fill="#C4D9ED"/>
<path d="M1698.8 391.495H1693.67V384.315H1698.8V391.495Z" fill="#C4D9ED"/>
<path d="M1708.39 391.495H1703.26V384.315H1708.39V391.495Z" fill="#C4D9ED"/>
<path d="M1717.78 391.495H1712.64V384.315H1717.78V391.495Z" fill="#C4D9ED"/>
<path d="M1726.67 391.495H1721.54V384.315H1726.67V391.495Z" fill="#C4D9ED"/>
</g>
<path d="M1638.02 470.512H1519.07V406.812H1638.02V470.512Z" fill="#C4D9ED"/>
<path d="M1547.82 470.513H1428.87V438.663H1547.82V470.513Z" fill="#C4D9ED"/>
<path d="M1647.55 416.737V470.514H1703.76C1703.81 470.436 1703.86 470.342 1703.92 470.235C1704.01 470.08 1704.12 469.898 1704.24 469.689C1704.28 469.616 1704.32 469.538 1704.37 469.458C1704.53 469.174 1704.71 468.853 1704.92 468.483C1705.17 468.035 1705.44 467.526 1705.75 466.958V466.956C1706.88 464.836 1708.39 461.9 1710.11 458.251C1710.67 457.053 1711.26 455.778 1711.86 454.428C1712.1 453.889 1712.34 453.343 1712.58 452.783V452.78C1712.82 452.239 1713.06 451.687 1713.29 451.122C1713.3 451.103 1713.31 451.084 1713.32 451.065C1713.48 450.677 1713.65 450.286 1713.81 449.887C1713.99 449.479 1714.16 449.064 1714.33 448.646C1715.22 446.487 1716.12 444.193 1717.02 441.774C1717.05 441.712 1717.07 441.645 1717.09 441.584C1717.09 441.584 1717.09 441.584 1717.09 441.581C1717.69 439.998 1718.27 438.363 1718.85 436.681C1719.18 435.754 1719.49 434.816 1719.81 433.862C1719.83 433.806 1719.85 433.747 1719.86 433.686C1720 433.262 1720.14 432.839 1720.28 432.41C1720.4 432.049 1720.51 431.69 1720.62 431.325C1720.86 430.578 1721.1 429.822 1721.33 429.059C1721.63 428.078 1721.93 427.081 1722.23 426.074C1722.62 424.705 1723.01 423.314 1723.39 421.9C1723.5 421.477 1723.61 421.051 1723.72 420.625C1724.05 419.347 1724.38 418.05 1724.7 416.74H1647.55V416.737Z" fill="#C4D9ED"/>
<path d="M1549.18 426.07H1527.01V414.271H1549.18V426.07Z" fill="#D5E7F7"/>
<path d="M1577.63 426.07H1555.46V414.271H1577.63V426.07Z" fill="#D5E7F7"/>
<path d="M1605.53 426.07H1583.37V414.271H1605.53V426.07Z" fill="#D5E7F7"/>
<path d="M1632.9 426.07H1610.74V414.271H1632.9V426.07Z" fill="#D5E7F7"/>
<path d="M1648.2 471.061H1636.78V406.811H1648.2V471.061Z" fill="#ADC9E0"/>
<path d="M1464.77 298.131H1464.15V293.145H1464.77V298.131Z" fill="#DCEAF9"/>
<path d="M1486.98 298.131H1486.37V293.145H1486.98V298.131Z" fill="#DCEAF9"/>
<path d="M1728.77 394.2C1728.49 396.536 1728.17 398.84 1727.81 401.107C1727.43 403.563 1727 405.98 1726.53 408.348C1726.11 410.5 1725.66 412.614 1725.18 414.687C1725.12 414.95 1725.06 415.21 1725 415.472C1724.9 415.896 1724.8 416.316 1724.7 416.737C1724.38 418.047 1724.06 419.341 1723.73 420.622C1723.61 421.048 1723.5 421.474 1723.39 421.897C1723.01 423.312 1722.62 424.702 1722.23 426.071C1721.94 427.079 1721.64 428.075 1721.34 429.056C1721.1 429.819 1720.86 430.575 1720.63 431.323C1720.51 431.687 1720.4 432.046 1720.28 432.408C1720.14 432.836 1720 433.26 1719.87 433.683C1719.85 433.745 1719.83 433.803 1719.81 433.86C1719.49 434.814 1719.18 435.754 1718.86 436.678C1718.27 438.363 1717.69 439.998 1717.1 441.578C1717.1 441.581 1717.1 441.581 1717.1 441.581C1717.07 441.643 1717.05 441.71 1717.03 441.771C1716.12 444.191 1715.22 446.484 1714.33 448.643C1714.16 449.061 1713.99 449.474 1713.81 449.884C1713.65 450.283 1713.48 450.677 1713.32 451.063C1713.31 451.082 1713.3 451.1 1713.3 451.119V394.197H1728.77V394.2Z" fill="#D5E7F7"/>
<path d="M1713.29 415.472V451.124C1713.3 451.106 1713.31 451.087 1713.32 451.068C1713.48 450.68 1713.65 450.289 1713.81 449.889C1713.98 449.482 1714.16 449.067 1714.33 448.649C1715.21 446.489 1716.12 444.196 1717.02 441.777C1717.05 441.715 1717.07 441.648 1717.09 441.587C1717.09 441.587 1717.09 441.587 1717.09 441.584C1717.68 440 1718.27 438.366 1718.85 436.684C1719.17 435.757 1719.49 434.819 1719.8 433.865C1719.82 433.809 1719.84 433.75 1719.86 433.688C1720 433.265 1720.14 432.842 1720.28 432.413C1720.39 432.051 1720.51 431.692 1720.62 431.328C1720.86 430.58 1721.1 429.825 1721.33 429.061C1721.63 428.081 1721.93 427.084 1722.22 426.077C1722.62 424.708 1723.01 423.317 1723.38 421.903C1723.5 421.479 1723.61 421.053 1723.72 420.627C1724.05 419.349 1724.38 418.053 1724.69 416.742C1724.8 416.322 1724.9 415.901 1724.99 415.478H1713.29V415.472Z" fill="#D5E7F7"/>
<path d="M1713.29 408.348V426.071H1722.22C1722.62 424.702 1723.01 423.312 1723.39 421.897C1723.5 421.474 1723.61 421.048 1723.72 420.622C1724.05 419.344 1724.38 418.047 1724.7 416.737C1724.8 416.316 1724.9 415.896 1725 415.472C1725.06 415.21 1725.12 414.95 1725.18 414.687C1725.66 412.614 1726.11 410.5 1726.53 408.348H1713.29Z" fill="#C4D9ED"/>
<path d="M1718.85 431.323V436.681C1719.17 435.754 1719.49 434.816 1719.81 433.862C1719.83 433.806 1719.85 433.747 1719.86 433.686C1720 433.262 1720.14 432.839 1720.28 432.41C1720.39 432.049 1720.51 431.69 1720.62 431.325H1718.85V431.323Z" fill="#C4D9ED"/>
<path d="M1723.05 419.382H1719.52V413.33H1723.05V419.382Z" fill="#ADC9E0"/>
<path d="M1451.39 469.997H1369.72V415.472H1451.39V469.997Z" fill="#D5E7F7"/>
<path d="M1451.39 426.07H1369.72V408.35H1451.39V426.07Z" fill="#C4D9ED"/>
<path d="M1379.48 437.191H1375.28V431.321H1379.48V437.191Z" fill="#C4D9ED"/>
<path d="M1387.32 437.191H1383.12V431.321H1387.32V437.191Z" fill="#C4D9ED"/>
<path d="M1394.99 437.191H1390.79V431.321H1394.99V437.191Z" fill="#C4D9ED"/>
<path d="M1402.26 437.191H1398.06V431.321H1402.26V437.191Z" fill="#C4D9ED"/>
<path d="M1409.67 437.191H1405.47V431.321H1409.67V437.191Z" fill="#C4D9ED"/>
<path d="M1417.16 437.191H1412.97V431.321H1417.16V437.191Z" fill="#C4D9ED"/>
<path d="M1425.01 437.191H1420.81V431.321H1425.01V437.191Z" fill="#C4D9ED"/>
<path d="M1432.67 437.191H1428.48V431.321H1432.67V437.191Z" fill="#C4D9ED"/>
<path d="M1439.95 437.191H1435.75V431.321H1439.95V437.191Z" fill="#C4D9ED"/>
<path d="M1447.36 437.191H1443.16V431.321H1447.36V437.191Z" fill="#C4D9ED"/>
<path d="M1379.48 447.549H1375.28V441.679H1379.48V447.549Z" fill="#C4D9ED"/>
<path d="M1387.32 447.549H1383.12V441.679H1387.32V447.549Z" fill="#C4D9ED"/>
<path d="M1394.99 447.549H1390.79V441.679H1394.99V447.549Z" fill="#C4D9ED"/>
<path d="M1402.26 447.549H1398.06V441.679H1402.26V447.549Z" fill="#C4D9ED"/>
<path d="M1409.67 447.549H1405.47V441.679H1409.67V447.549Z" fill="#C4D9ED"/>
<path d="M1417.16 447.549H1412.97V441.679H1417.16V447.549Z" fill="#C4D9ED"/>
<path d="M1425.01 447.549H1420.81V441.679H1425.01V447.549Z" fill="#C4D9ED"/>
<path d="M1432.67 447.549H1428.48V441.679H1432.67V447.549Z" fill="#C4D9ED"/>
<path d="M1439.95 447.549H1435.75V441.679H1439.95V447.549Z" fill="#C4D9ED"/>
<path d="M1447.36 447.549H1443.16V441.679H1447.36V447.549Z" fill="#C4D9ED"/>
<path d="M1379.48 457.745H1375.28V451.875H1379.48V457.745Z" fill="#C4D9ED"/>
<path d="M1387.32 457.745H1383.12V451.875H1387.32V457.745Z" fill="#C4D9ED"/>
<path d="M1394.99 457.745H1390.79V451.875H1394.99V457.745Z" fill="#C4D9ED"/>
<path d="M1402.26 457.745H1398.06V451.875H1402.26V457.745Z" fill="#C4D9ED"/>
<path d="M1409.67 457.745H1405.47V451.875H1409.67V457.745Z" fill="#C4D9ED"/>
<path d="M1417.16 457.745H1412.97V451.875H1417.16V457.745Z" fill="#C4D9ED"/>
<path d="M1425.01 457.745H1420.81V451.875H1425.01V457.745Z" fill="#C4D9ED"/>
<path d="M1432.67 457.745H1428.48V451.875H1432.67V457.745Z" fill="#C4D9ED"/>
<path d="M1439.95 457.745H1435.75V451.875H1439.95V457.745Z" fill="#C4D9ED"/>
<path d="M1447.36 457.745H1443.16V451.875H1447.36V457.745Z" fill="#C4D9ED"/>
<path d="M1379.48 419.382H1375.95V413.33H1379.48V419.382Z" fill="#ADC9E0"/>
<path d="M1414.47 419.382H1410.94V413.33H1414.47V419.382Z" fill="#ADC9E0"/>
<path d="M1442.3 419.382H1438.78V413.33H1442.3V419.382Z" fill="#ADC9E0"/>
<path d="M1364.59 469.996H1282.92V415.472H1364.59V469.996Z" fill="#D5E7F7"/>
<path d="M1364.59 426.07H1282.92V408.35H1364.59V426.07Z" fill="#C4D9ED"/>
<path d="M1292.67 437.191H1288.48V431.321H1292.67V437.191Z" fill="#C4D9ED"/>
<path d="M1300.52 437.191H1296.32V431.321H1300.52V437.191Z" fill="#C4D9ED"/>
<path d="M1308.19 437.191H1303.99V431.321H1308.19V437.191Z" fill="#C4D9ED"/>
<path d="M1315.46 437.191H1311.26V431.321H1315.46V437.191Z" fill="#C4D9ED"/>
<path d="M1322.87 437.191H1318.67V431.321H1322.87V437.191Z" fill="#C4D9ED"/>
<path d="M1330.36 437.191H1326.17V431.321H1330.36V437.191Z" fill="#C4D9ED"/>
<path d="M1338.21 437.191H1334.01V431.321H1338.21V437.191Z" fill="#C4D9ED"/>
<path d="M1345.87 437.191H1341.68V431.321H1345.87V437.191Z" fill="#C4D9ED"/>
<path d="M1353.14 437.191H1348.95V431.321H1353.14V437.191Z" fill="#C4D9ED"/>
<path d="M1360.55 437.191H1356.36V431.321H1360.55V437.191Z" fill="#C4D9ED"/>
<path d="M1292.67 447.549H1288.48V441.679H1292.67V447.549Z" fill="#C4D9ED"/>
<path d="M1300.52 447.549H1296.32V441.679H1300.52V447.549Z" fill="#C4D9ED"/>
<path d="M1308.19 447.549H1303.99V441.679H1308.19V447.549Z" fill="#C4D9ED"/>
<path d="M1315.46 447.549H1311.26V441.679H1315.46V447.549Z" fill="#C4D9ED"/>
<path d="M1322.87 447.549H1318.67V441.679H1322.87V447.549Z" fill="#C4D9ED"/>
<path d="M1330.36 447.549H1326.17V441.679H1330.36V447.549Z" fill="#C4D9ED"/>
<path d="M1338.21 447.549H1334.01V441.679H1338.21V447.549Z" fill="#C4D9ED"/>
<path d="M1345.87 447.549H1341.68V441.679H1345.87V447.549Z" fill="#C4D9ED"/>
<path d="M1353.14 447.549H1348.95V441.679H1353.14V447.549Z" fill="#C4D9ED"/>
<path d="M1360.55 447.549H1356.36V441.679H1360.55V447.549Z" fill="#C4D9ED"/>
<path d="M1292.67 457.745H1288.48V451.875H1292.67V457.745Z" fill="#C4D9ED"/>
<path d="M1300.52 457.745H1296.32V451.875H1300.52V457.745Z" fill="#C4D9ED"/>
<path d="M1308.19 457.745H1303.99V451.875H1308.19V457.745Z" fill="#C4D9ED"/>
<path d="M1315.46 457.745H1311.26V451.875H1315.46V457.745Z" fill="#C4D9ED"/>
<path d="M1322.87 457.745H1318.67V451.875H1322.87V457.745Z" fill="#C4D9ED"/>
<path d="M1330.36 457.745H1326.17V451.875H1330.36V457.745Z" fill="#C4D9ED"/>
<path d="M1338.21 457.745H1334.01V451.875H1338.21V457.745Z" fill="#C4D9ED"/>
<path d="M1345.87 457.745H1341.68V451.875H1345.87V457.745Z" fill="#C4D9ED"/>
<path d="M1353.14 457.745H1348.95V451.875H1353.14V457.745Z" fill="#C4D9ED"/>
<path d="M1360.55 457.745H1356.36V451.875H1360.55V457.745Z" fill="#C4D9ED"/>
<path d="M1292.67 419.382H1289.15V413.33H1292.67V419.382Z" fill="#ADC9E0"/>
<path d="M1327.67 419.382H1324.14V413.33H1327.67V419.382Z" fill="#ADC9E0"/>
<path d="M1355.51 419.382H1351.98V413.33H1355.51V419.382Z" fill="#ADC9E0"/>
<path d="M1277.6 469.996H1195.93V415.472H1277.6V469.996Z" fill="#D5E7F7"/>
<path d="M1277.6 426.07H1195.93V408.35H1277.6V426.07Z" fill="#C4D9ED"/>
<path d="M1205.68 437.191H1201.49V431.32H1205.68V437.191Z" fill="#C4D9ED"/>
<path d="M1213.53 437.191H1209.33V431.32H1213.53V437.191Z" fill="#C4D9ED"/>
<path d="M1221.19 437.191H1217V431.32H1221.19V437.191Z" fill="#C4D9ED"/>
<path d="M1228.46 437.191H1224.27V431.32H1228.46V437.191Z" fill="#C4D9ED"/>
<path d="M1235.88 437.191H1231.68V431.32H1235.88V437.191Z" fill="#C4D9ED"/>
<path d="M1243.37 437.191H1239.18V431.32H1243.37V437.191Z" fill="#C4D9ED"/>
<path d="M1251.21 437.191H1247.02V431.32H1251.21V437.191Z" fill="#C4D9ED"/>
<path d="M1258.88 437.191H1254.69V431.32H1258.88V437.191Z" fill="#C4D9ED"/>
<path d="M1266.15 437.191H1261.96V431.32H1266.15V437.191Z" fill="#C4D9ED"/>
<path d="M1273.56 437.191H1269.37V431.32H1273.56V437.191Z" fill="#C4D9ED"/>
<path d="M1205.68 447.549H1201.49V441.679H1205.68V447.549Z" fill="#C4D9ED"/>
<path d="M1213.53 447.549H1209.33V441.679H1213.53V447.549Z" fill="#C4D9ED"/>
<path d="M1221.19 447.549H1217V441.679H1221.19V447.549Z" fill="#C4D9ED"/>
<path d="M1228.46 447.549H1224.27V441.679H1228.46V447.549Z" fill="#C4D9ED"/>
<path d="M1235.88 447.549H1231.68V441.679H1235.88V447.549Z" fill="#C4D9ED"/>
<path d="M1243.37 447.549H1239.18V441.679H1243.37V447.549Z" fill="#C4D9ED"/>
<path d="M1251.21 447.549H1247.02V441.679H1251.21V447.549Z" fill="#C4D9ED"/>
<path d="M1258.88 447.549H1254.69V441.679H1258.88V447.549Z" fill="#C4D9ED"/>
<path d="M1266.15 447.549H1261.96V441.679H1266.15V447.549Z" fill="#C4D9ED"/>
<path d="M1273.56 447.549H1269.37V441.679H1273.56V447.549Z" fill="#C4D9ED"/>
<path d="M1205.68 457.745H1201.49V451.875H1205.68V457.745Z" fill="#C4D9ED"/>
<path d="M1213.53 457.745H1209.33V451.875H1213.53V457.745Z" fill="#C4D9ED"/>
<path d="M1221.19 457.745H1217V451.875H1221.19V457.745Z" fill="#C4D9ED"/>
<path d="M1228.46 457.745H1224.27V451.875H1228.46V457.745Z" fill="#C4D9ED"/>
<path d="M1235.88 457.745H1231.68V451.875H1235.88V457.745Z" fill="#C4D9ED"/>
<path d="M1243.37 457.745H1239.18V451.875H1243.37V457.745Z" fill="#C4D9ED"/>
<path d="M1251.21 457.745H1247.02V451.875H1251.21V457.745Z" fill="#C4D9ED"/>
<path d="M1258.88 457.745H1254.69V451.875H1258.88V457.745Z" fill="#C4D9ED"/>
<path d="M1266.15 457.745H1261.96V451.875H1266.15V457.745Z" fill="#C4D9ED"/>
<path d="M1273.56 457.745H1269.37V451.875H1273.56V457.745Z" fill="#C4D9ED"/>
<path d="M1205.68 419.382H1202.16V413.33H1205.68V419.382Z" fill="#ADC9E0"/>
<path d="M1240.68 419.382H1237.15V413.33H1240.68V419.382Z" fill="#ADC9E0"/>
<path d="M1268.51 419.382H1264.99V413.33H1268.51V419.382Z" fill="#ADC9E0"/>
<path d="M1000.72 472.606L1386.32 470.613C1386.32 470.613 1374.82 423.874 1323.47 423.874C1272.12 423.874 1254.01 385.374 1193.95 385.717C1154.65 385.942 1128.83 365.385 1093.41 353.647C1093.22 353.768 1093.03 353.889 1092.84 354.009C1082.26 360.645 1068.89 366.344 1055.56 373.026C1048.2 376.718 1040.85 380.705 1033.99 385.318C1027.62 389.605 1021.67 394.425 1016.53 400.04C1013.16 403.705 1010.14 407.716 1007.57 412.134C1007.42 412.383 1007.28 412.632 1007.14 412.879C1003.83 418.757 1001.29 425.359 999.795 432.844C999.719 433.225 999.643 433.605 999.576 433.991C997.571 444.855 997.711 457.568 1000.72 472.606Z" fill="#B9E0AD"/>
<path d="M1498.75 471.1C1498.75 471.1 1412.25 448.108 1259.38 455.382C1106.5 462.656 1000.9 438.192 1000.9 438.192V472.962L1498.75 471.1Z" fill="#ACD29A"/>
<path d="M999.795 432.842C1001.3 425.356 1003.83 418.757 1007.14 412.879C1012.2 409.442 1018.77 406.427 1023.76 409.241C1033.15 414.521 1007.41 416.879 1003.6 424.86C1002.22 427.765 1001.48 430.32 1001.11 432.397C1002.48 431.995 1004.71 431.51 1006.8 431.815C1009 432.14 1012.7 434.83 1014.96 436.614C1013.91 434.851 1012.94 432.643 1012.7 430.229C1012.12 424.381 1014.43 417.782 1018.11 422.141C1020.78 425.3 1019.58 433.64 1018.72 437.991C1020.15 438.546 1021.58 439.151 1023.02 439.807C1028.51 420.608 1041.4 390.087 1066.51 389.042C1066.51 389.042 1076.42 392.79 1065.45 405.115C1056.1 415.601 1041.18 419.802 1027.03 441.79C1027.91 442.254 1028.78 442.741 1029.64 443.25C1036.43 436.801 1049.12 426.562 1059.75 428.413C1071.09 430.39 1046.46 440.298 1032.92 445.305C1036 447.365 1038.97 449.731 1041.71 452.456C1041.71 452.456 1046.13 458.313 1065.68 455.384C1085.23 452.456 1102.19 472.609 1102.19 472.609H1000.72C997.606 457.04 997.563 443.96 999.795 432.842Z" fill="#82B378"/>
<path d="M1648.67 471.023L1682.66 470.918C1682.66 470.918 1682.66 470.918 1682.66 470.918L1691.86 470.894C1691.86 470.894 1691.86 470.894 1691.86 470.894L1692.87 470.891L1698.24 470.873C1698.24 470.873 1698.24 470.873 1698.24 470.873L1701.93 470.859L1703.55 470.854C1703.55 470.854 1703.68 470.645 1703.92 470.235C1704.01 470.08 1704.12 469.897 1704.24 469.689C1704.28 469.616 1704.32 469.538 1704.37 469.458C1704.53 469.174 1704.71 468.853 1704.92 468.483C1705.16 468.035 1705.44 467.526 1705.74 466.958V466.956C1706.88 464.836 1708.39 461.9 1710.11 458.251C1710.67 457.053 1711.26 455.778 1711.86 454.428C1712.1 453.889 1712.34 453.343 1712.58 452.783V452.78C1712.83 452.22 1713.07 451.65 1713.31 451.068C1713.48 450.68 1713.64 450.289 1713.81 449.889C1713.98 449.482 1714.15 449.067 1714.33 448.649C1715.21 446.489 1716.12 444.196 1717.02 441.777C1717.04 441.715 1717.07 441.648 1717.09 441.586C1717.09 441.586 1717.09 441.586 1717.09 441.584C1718.01 439.132 1718.91 436.558 1719.8 433.865C1719.82 433.809 1719.84 433.75 1719.86 433.688C1720 433.265 1720.14 432.842 1720.28 432.413C1720.63 431.312 1720.98 430.195 1721.33 429.061C1722.04 426.746 1722.72 424.359 1723.38 421.902C1723.49 421.479 1723.6 421.053 1723.71 420.627C1721.44 420.41 1719.31 420.349 1717.31 420.426C1714 420.555 1711.06 421.061 1708.43 421.868C1704.62 423.036 1701.47 424.834 1698.78 427.009C1693.05 431.641 1689.39 437.986 1685.85 443.623C1683.77 446.956 1681.72 450.039 1679.32 452.376C1676.99 454.637 1674.32 456.199 1670.96 456.598C1668.63 456.877 1666.55 457.313 1664.66 457.865C1652.95 461.305 1649.33 469.276 1648.67 471.023Z" fill="#8EBF82"/>
<path d="M1706.87 402.811C1710.89 402.35 1714.46 410.398 1717.32 420.418C1718.42 424.247 1719.41 428.362 1720.28 432.408C1720.14 432.836 1720 433.26 1719.86 433.683C1719.84 433.745 1719.82 433.803 1719.81 433.86C1718.92 436.552 1718.01 439.13 1717.09 441.578C1717.09 441.581 1717.09 441.581 1717.09 441.581C1717.07 441.643 1717.05 441.71 1717.02 441.771C1714.1 435.59 1710.87 428.383 1708.44 421.857C1704.67 411.751 1702.8 403.277 1706.87 402.811Z" fill="#82B378"/>
<path d="M1674.3 409.388C1682.67 407.084 1691.35 415.735 1698.79 427.001C1704.26 435.285 1709.07 444.986 1712.58 452.78V452.783C1712.34 453.343 1712.1 453.889 1711.86 454.428C1711.25 455.778 1710.67 457.053 1710.11 458.251C1708.4 461.9 1706.88 464.837 1705.74 466.956C1699.63 460.277 1692.29 451.904 1685.86 443.617C1673.51 427.684 1664.56 412.065 1674.3 409.388Z" fill="#82B378"/>
<path d="M1654.03 448.745C1654.28 447.157 1655.7 446.002 1657.32 445.986C1664.5 445.916 1672.1 448.542 1679.32 452.37C1688.78 457.38 1697.58 464.456 1703.92 470.235C1703.68 470.645 1703.55 470.854 1703.55 470.854L1701.93 470.859L1698.24 470.873C1698.24 470.873 1698.24 470.873 1698.24 470.873L1692.86 470.892C1682.92 466.393 1671.7 461.257 1664.67 457.863C1662.56 456.847 1660.83 455.987 1659.63 455.35C1654.72 452.748 1653.76 450.422 1654.03 448.745Z" fill="#82B378"/>
<g clip-path="url(#clip1_537_274)">
<path d="M1521.08 280.681C1521.41 291.445 1522.2 302.184 1522.73 312.937C1522.95 317.264 1523.2 321.57 1522.08 325.785C1521.18 329.222 1519.42 332.211 1516.94 334.525C1510.16 340.851 1500.6 340.334 1492.29 341.206C1485.11 341.959 1477.02 344.165 1472.35 350.725C1467.22 357.916 1468.65 367.681 1473.64 374.467C1479.09 381.878 1488.13 384.594 1496.38 385.579C1505.99 386.728 1515.91 385.527 1525.07 382.094C1527.31 381.257 1529.53 380.268 1531.59 378.996C1533.66 377.72 1535.55 376.125 1537.46 374.59C1541.02 371.74 1544.8 369.408 1548.97 367.843C1566.56 361.237 1585.25 367.017 1601.52 375.204C1603.68 376.291 1605.82 377.424 1607.95 378.582C1609.82 379.597 1611.47 376.514 1609.59 375.493C1593.23 366.596 1575.38 359.106 1556.83 362.095C1552.6 362.777 1548.48 364.051 1544.55 365.914C1540.41 367.875 1536.91 370.7 1533.27 373.55C1525.57 379.572 1515.57 381.915 1506.26 382.351C1497.69 382.754 1488.05 381.785 1480.66 376.555C1474.65 372.301 1469.97 363.241 1473.43 355.477C1476.61 348.373 1484.52 345.716 1491.16 344.909C1499.86 343.851 1509.24 344.452 1516.9 338.972C1522.95 334.645 1525.91 327.575 1526.18 319.775C1526.35 314.582 1525.8 309.295 1525.5 304.116C1525.2 298.784 1524.88 293.452 1524.62 288.117C1524.51 285.64 1524.41 283.163 1524.33 280.684C1524.26 278.386 1521.01 278.375 1521.08 280.681Z" fill="#B9E0AD"/>
<path d="M1492.9 132.427V220.409C1492.9 224.64 1490.33 228.246 1486.83 229.427C1486.04 229.693 1485.21 229.836 1484.34 229.836C1479.63 229.836 1475.78 225.594 1475.78 220.409V132.427C1475.78 127.242 1479.63 123 1484.34 123C1485.21 123 1486.04 123.143 1486.83 123.409C1488.19 123.867 1489.4 124.688 1490.39 125.768C1491.93 127.479 1492.9 129.836 1492.9 132.427Z" fill="#B8D5DC"/>
<path d="M1492.9 132.427V220.409C1492.9 224.64 1490.33 228.246 1486.83 229.427C1483.33 228.246 1480.76 224.64 1480.76 220.409V132.427C1480.76 128.196 1483.32 124.59 1486.83 123.409C1488.19 123.867 1489.4 124.688 1490.38 125.768C1491.93 127.479 1492.9 129.836 1492.9 132.427Z" fill="white"/>
<path d="M1566.43 132.427V220.409C1566.43 224.64 1563.87 228.246 1560.36 229.427C1559.57 229.693 1558.74 229.836 1557.87 229.836C1553.17 229.836 1549.31 225.594 1549.31 220.409V132.427C1549.32 127.242 1553.17 123 1557.88 123C1558.74 123 1559.58 123.143 1560.37 123.409C1561.72 123.867 1562.94 124.688 1563.92 125.768C1565.47 127.479 1566.43 129.836 1566.43 132.427Z" fill="#B8D5DC"/>
<path d="M1566.43 132.427V220.409C1566.43 224.64 1563.87 228.246 1560.36 229.427C1556.86 228.246 1554.29 224.64 1554.29 220.409V132.427C1554.29 128.196 1556.86 124.59 1560.36 123.409C1561.72 123.867 1562.94 124.688 1563.92 125.768C1565.47 127.479 1566.43 129.836 1566.43 132.427Z" fill="white"/>
<path d="M1563.19 293.022H1465.04C1458.94 293.022 1454 287.578 1454 280.861V191.6C1454 184.885 1458.94 179.439 1465.04 179.439H1563.19C1569.29 179.439 1574.23 184.882 1574.23 191.6V280.861C1574.23 287.578 1569.29 293.022 1563.19 293.022Z" fill="#82B378"/>
<path d="M1571.69 293.022H1480.77C1474.88 293.022 1470.1 287.76 1470.1 281.273V191.19C1470.1 184.7 1474.88 179.441 1480.77 179.441H1571.69C1577.58 179.441 1582.35 184.703 1582.35 191.19V281.273C1582.35 287.763 1577.58 293.022 1571.69 293.022Z" fill="#B9E0AD"/>
<path d="M1509.88 270.272L1525.31 245.179H1508.08L1529.84 206.959H1544.13L1526.1 237.072H1544.13L1509.88 270.272Z" fill="#82B378"/>
<path d="M1509.88 270.272L1522.25 245.179H1505.01L1526.77 206.959H1541.06L1523.04 237.072H1541.06L1509.88 270.272Z" fill="white"/>
<path opacity="0.6" d="M1621.23 213.367C1587.63 211.977 1559 245.582 1557.72 277.428C1556.91 297.444 1567.11 311.998 1583.13 320.396C1604.9 332.866 1603.95 356.674 1603.95 356.674L1633.27 357.886C1634.14 336.258 1654.17 322.232 1656.74 320.524C1668.98 312.623 1677.22 298.185 1679.75 273.545C1682.99 241.858 1654.83 214.757 1621.23 213.367Z" fill="white"/>
<path d="M1637.06 365.868C1637.06 365.868 1641.18 372.756 1636.68 379.087C1635.42 380.857 1632.07 381.799 1627.84 382.156C1616.93 383.086 1600.19 380.138 1598.51 377.508C1596.18 373.855 1597.58 369.767 1600.27 368.889C1600.27 368.889 1596.66 365.514 1597.81 361.544C1598.96 357.575 1600.93 356.867 1600.93 356.867C1600.93 356.867 1598.17 354.977 1598.12 349.64C1598.11 347.529 1598.99 345.218 1601.8 343.535C1606.1 340.962 1614.9 339.852 1631.84 343.162C1631.84 343.162 1639.48 344.734 1637.25 354.122C1637.24 354.126 1642.42 360.759 1637.06 365.868Z" fill="#B9E0AD"/>
<path opacity="0.9" d="M1616.14 243.136C1616.14 243.136 1602.21 246.803 1593.77 258.755C1585.34 270.706 1574.23 261.751 1576.71 249.078C1579.19 236.405 1593.82 225.83 1602.28 228.082C1610.74 230.332 1623.79 235.013 1616.14 243.136Z" fill="white"/>
<path d="M1637.11 366.455C1637.03 366.464 1636.94 366.453 1636.86 366.417C1636.83 366.405 1634.01 365.172 1629.69 364.442C1625.71 363.771 1619.62 363.398 1613.15 365.441C1612.86 365.529 1612.57 365.35 1612.49 365.038C1612.41 364.727 1612.57 364.401 1612.85 364.31C1619.52 362.206 1625.8 362.593 1629.88 363.287C1634.31 364.04 1637.14 365.275 1637.26 365.327C1637.53 365.448 1637.66 365.791 1637.55 366.091C1637.48 366.301 1637.3 366.435 1637.11 366.455Z" fill="#82B378"/>
<path d="M1637.29 354.711C1637.23 354.718 1637.16 354.711 1637.1 354.69C1637.06 354.679 1633.19 353.469 1628.12 352.739C1623.46 352.07 1616.8 351.676 1611.52 353.612C1611.24 353.714 1610.94 353.548 1610.84 353.239C1610.75 352.93 1610.9 352.598 1611.18 352.495C1616.66 350.489 1623.5 350.887 1628.27 351.574C1633.42 352.315 1637.35 353.546 1637.39 353.557C1637.67 353.646 1637.84 353.974 1637.76 354.285C1637.69 354.527 1637.51 354.688 1637.29 354.711Z" fill="#82B378"/>
<path d="M1627.84 382.158C1616.93 383.088 1600.19 380.14 1598.51 377.511C1596.18 373.857 1597.58 369.77 1600.27 368.892C1600.27 368.892 1596.66 365.516 1597.81 361.546C1598.96 357.577 1600.93 356.87 1600.93 356.87C1600.93 356.87 1598.17 354.979 1598.12 349.643C1598.1 347.532 1598.99 345.221 1601.8 343.537L1601.81 343.535C1601.81 343.535 1598.14 353.86 1606.81 357.042C1606.81 357.042 1608.18 357.836 1607.09 359.108C1606.01 360.382 1607.31 367.377 1610.05 368.807C1612.79 370.238 1609.4 375.723 1612.87 378.507C1615.53 380.645 1624.05 381.76 1627.84 382.158Z" fill="#82B378"/>
<path d="M1597.82 299.007C1591.82 289.869 1594.79 270.201 1619.03 259.876C1640.4 250.773 1647.29 239.515 1647.29 239.515C1647.29 239.515 1655.35 267.465 1643.79 289.046C1629.68 315.38 1605.58 310.833 1597.82 299.007Z" fill="#B9E0AD"/>
<path d="M1599.46 318.922C1599.05 318.922 1598.68 318.604 1598.6 318.146C1598.56 317.914 1594.76 294.817 1620.85 277.133C1642.08 262.736 1646.38 239.563 1646.43 239.331C1646.52 238.808 1646.99 238.455 1647.45 238.571C1647.93 238.673 1648.23 239.176 1648.14 239.697C1648.1 239.94 1643.67 263.921 1621.77 278.77C1596.7 295.763 1600.27 317.553 1600.31 317.773C1600.41 318.297 1600.1 318.804 1599.63 318.904C1599.57 318.915 1599.51 318.922 1599.46 318.922Z" fill="#82B378"/>
<path d="M1609.98 287.803C1609.6 287.803 1609.25 287.535 1609.14 287.119C1606.41 277.176 1609.06 270.24 1609.17 269.951C1609.37 269.467 1609.88 269.244 1610.32 269.449C1610.77 269.656 1610.97 270.224 1610.78 270.713C1610.76 270.777 1608.28 277.328 1610.81 286.561C1610.95 287.071 1610.69 287.608 1610.23 287.763C1610.14 287.79 1610.06 287.803 1609.98 287.803Z" fill="#82B378"/>
<path d="M1627.63 277.672C1625.12 277.672 1623.39 277.547 1623.2 277.531C1622.72 277.494 1622.35 277.035 1622.39 276.503C1622.42 275.973 1622.84 275.547 1623.32 275.609C1623.45 275.613 1636.57 276.569 1643.94 273.074C1644.38 272.861 1644.9 273.09 1645.09 273.579C1645.28 274.071 1645.08 274.635 1644.63 274.847C1639.58 277.237 1632.28 277.672 1627.63 277.672Z" fill="#82B378"/>
</g>
</g>
<path d="M848.587 390.55L848.575 390.79C848.228 397.774 847.318 404.373 845.986 410.578C838.942 443.407 820.566 464.381 815.984 469.462C815.981 469.466 815.977 469.469 815.974 469.472C815.354 470.162 814.972 470.556 814.925 470.658C795.013 470.658 666.291 470.681 519.604 470.638C480.065 470.628 439.221 470.612 398.848 470.586C380.515 470.576 362.279 470.566 344.308 470.553C331.221 470.543 318.275 470.53 305.535 470.52C257.17 470.477 211.75 470.422 172.796 470.349C151.943 470.31 132.945 470.267 116.335 470.215C72.1074 470.086 44.853 469.922 44.7703 469.709L44.7226 469.561C44.7226 469.561 44.6813 469.518 44.6781 469.472C44.6749 469.469 44.6749 469.466 44.6749 469.462C44.6749 469.413 44.6241 469.361 44.6241 469.361C44.5064 469.078 19.0265 432.682 11.4513 382.749C9.69581 371.17 8.90076 358.864 9.60995 346.113V345.912C12.2622 298.883 35.3188 245.878 105.783 200.892C173.114 157.848 101.537 129.453 155.076 81.5272C216.616 26.5288 283.804 87.4071 352.242 62.4454C364.302 58.0142 376.457 50.9386 388.611 40.0788C395.458 33.9526 402.935 28.572 410.94 23.9863C412.196 23.2406 413.401 22.541 414.654 21.8939C419.478 19.3054 424.446 16.9633 429.607 14.8708C433.029 13.4748 436.55 12.1805 440.121 10.9848C445.811 9.04349 451.646 7.39777 457.581 6.05427C466.021 4.06036 474.75 2.61502 483.623 1.61971C487.484 1.16968 491.389 0.821487 495.345 0.571838C567.775 -4.14522 648.822 20.7836 694.919 58.2474C697.476 60.3234 699.922 62.4389 702.256 64.5904C703.223 65.4839 704.559 66.7814 706.136 68.46C716.895 79.911 738.803 109.054 729.759 148.463C728.986 151.823 727.991 155.262 726.744 158.767C724.957 163.787 722.654 168.947 719.763 174.239C715.279 182.458 715.953 190.529 720.005 198.701L720.049 198.751H720.053C720.275 199.191 720.507 199.631 720.749 200.071C721.595 201.612 722.562 203.156 723.637 204.703C724.247 205.59 724.896 206.473 725.58 207.357C725.749 207.577 725.92 207.797 726.095 208.02C726.445 208.464 726.801 208.904 727.167 209.348C727.167 209.348 727.164 209.348 727.167 209.351C727.459 209.706 727.755 210.057 728.057 210.412C728.356 210.767 728.662 211.121 728.976 211.479C729.288 211.834 729.603 212.186 729.924 212.54C730.242 212.895 730.566 213.25 730.897 213.608C731.228 213.963 731.562 214.318 731.899 214.672C732.236 215.027 732.579 215.382 732.926 215.737H732.929C738.749 221.705 740.355 229.231 741.863 238.024C742.451 241.45 743.023 245.074 743.828 248.868C743.863 249.035 743.901 249.206 743.936 249.377C744.626 252.573 745.488 255.891 746.665 259.32C746.719 259.488 746.779 259.658 746.84 259.829C747.883 262.809 749.168 265.873 750.789 269.017C750.939 269.309 751.092 269.602 751.251 269.894V269.897C751.371 270.131 751.495 270.361 751.626 270.594C751.718 270.765 751.81 270.932 751.906 271.103C752.065 271.392 752.23 271.681 752.399 271.97L752.402 271.977C752.469 272.095 752.539 272.22 752.615 272.341C753.772 274.335 755.08 276.359 756.555 278.408C757.198 279.309 757.875 280.215 758.587 281.125C762.391 285.99 767.161 291.006 773.191 296.143C781.135 302.917 791.27 309.907 804.265 317.068C806.332 318.208 808.323 319.364 810.24 320.533C828.304 331.554 839.622 343.8 843.671 357.619C844.243 359.571 845.21 363.384 846.142 367.967C847.569 374.99 848.908 383.826 848.587 390.55Z" fill="#E2F2FF"/>
<path d="M225.029 470.458H470.621L573.001 470.405H758.149C758.149 470.405 758.256 470.263 758.466 469.977C758.615 469.773 758.816 469.499 759.077 469.15L759.176 469.048C759.176 469.048 759.176 469.048 759.176 468.996C759.176 468.996 759.278 468.94 759.278 468.89C759.689 468.472 759.993 468.001 760.403 467.428C760.613 467.165 760.814 466.849 761.122 466.539C761.122 466.486 761.122 466.486 761.122 466.434C761.22 466.381 761.22 466.381 761.22 466.381C762.623 464.514 764.364 462.084 766.37 459.147C766.554 458.88 766.734 458.61 766.922 458.34C767.923 456.12 769.022 453.638 770.194 450.898C772.979 444.256 776.174 436.149 779.297 426.995C780.52 423.386 781.743 419.618 782.898 415.693C783.578 413.428 784.263 411.07 784.917 408.686C785.105 407.988 785.294 407.29 785.477 406.592C786.679 402.13 787.809 397.536 788.827 392.841C790.829 383.647 792.407 374.068 793.297 364.36C713.771 367.515 560.477 375.82 445.166 395.646C282.461 423.619 242.254 428.137 173.327 433.156C134.762 435.965 178.773 454.596 225.029 470.458Z" fill="#D4DFFF"/>
<path d="M328.447 440.163C328.447 440.163 591.966 378.378 658.318 373.903C724.669 369.428 661.106 379.886 661.106 379.886C661.106 379.886 480.762 416.003 438.847 431.404C350.198 463.977 328.447 440.163 328.447 440.163Z" fill="#D4DFFF"/>
<path d="M408.042 468.689C408.042 468.689 627.662 391.033 687.092 378.418C746.523 365.799 690.925 383.439 690.925 383.439C690.925 383.439 517.518 453.051 481.194 470.626C475.933 473.168 408.042 468.689 408.042 468.689Z" fill="#D4DFFF"/>
<path d="M848.313 391.5C848.322 391.583 848.325 391.665 848.332 391.747C847.985 398.748 847.076 405.363 845.743 411.584L810.002 417.389L802.625 418.588L798.427 419.269L769.348 423.995L766.746 424.416L760.899 425.368L759.379 425.615H759.369C759.369 425.615 758.116 425.766 755.941 425.98C755.76 426 755.569 426.017 755.375 426.036C753.929 426.175 752.135 426.336 750.078 426.497C749.305 426.56 748.494 426.619 747.652 426.678C747.493 426.688 747.334 426.702 747.171 426.711C745.992 426.794 744.755 426.869 743.464 426.945C740.805 427.093 737.937 427.222 734.951 427.298C733.791 427.327 732.611 427.35 731.422 427.367C730.802 427.373 730.175 427.377 729.549 427.377C728.795 427.38 728.038 427.38 727.278 427.373C726.156 427.367 725.027 427.347 723.901 427.317C723.075 427.298 722.245 427.271 721.421 427.242C720.27 427.195 719.122 427.136 717.98 427.067C717.805 427.057 717.631 427.044 717.456 427.031C716.925 426.998 716.394 426.962 715.866 426.919C713.246 426.715 710.689 426.435 708.256 426.063C707.846 426 707.442 425.934 707.042 425.865C697.893 424.317 690.748 421.364 689.104 416.075C687.61 411.231 690.84 404.339 701.499 394.754C703.274 393.16 705.124 391.632 707.042 390.173C719.411 380.756 734.64 374.081 750.596 369.369C751.257 369.171 751.919 368.98 752.583 368.792C752.685 368.763 752.787 368.733 752.889 368.703C753.07 368.654 753.251 368.601 753.432 368.552C753.792 368.45 754.151 368.351 754.507 368.256C755.137 368.081 755.766 367.91 756.399 367.745C759.585 366.902 762.791 366.135 765.996 365.437C766.804 365.259 767.611 365.088 768.419 364.92C768.797 364.841 769.176 364.762 769.551 364.686C769.812 364.63 770.073 364.578 770.333 364.528C770.731 364.449 771.128 364.37 771.526 364.294C784.881 361.683 798.106 360.181 810.002 359.355C823.399 358.42 835.113 358.344 843.428 358.495C844.389 360.899 845.209 364.564 845.899 368.868C846.99 375.628 847.772 383.973 848.313 391.5Z" fill="#A8D29F"/>
<path d="M670.09 261.66L633.822 351.605H523.649L581.088 261.988L670.09 261.66Z" fill="#ED9F4A"/>
<path d="M673.388 261.66L637.124 351.096H526.951L584.39 261.986L673.388 261.66Z" fill="#F9DDBF"/>
<path d="M636.885 351.096V470.295L526.951 470.554V351.096H636.885Z" fill="#F9DDBF"/>
<path d="M729.977 351.096H636.886V470.299H729.977V351.096Z" fill="#FFF3E9"/>
<path d="M740.205 356.383H640.201L581.088 261.981L610.876 261.99L679.375 262.008L740.205 356.383Z" fill="#F99746"/>
<path d="M575.892 311.638C575.892 308.201 578.219 305.413 581.088 305.413C583.961 305.413 586.285 308.201 586.285 311.638C586.285 315.079 583.957 317.863 581.088 317.863C578.219 317.863 575.892 315.074 575.892 311.638Z" fill="#EFCDAF"/>
<path d="M647.107 338.639H715.666L679.503 285.204H610.943L647.107 338.639Z" fill="#465C93"/>
<path d="M620.281 299.28H688.84L688.415 298.651H619.855L620.281 299.28Z" fill="#AEC3FF"/>
<path d="M663.387 285.204L699.55 338.635H700.072L663.905 285.204H663.387Z" fill="#AEC3FF"/>
<path d="M645.219 285.204L681.386 338.635H681.908L645.741 285.204H645.219Z" fill="#AEC3FF"/>
<path d="M627.742 285.204L663.909 338.635H664.432L628.264 285.204H627.742Z" fill="#AEC3FF"/>
<path d="M629.238 312.236H697.797L697.372 311.607H628.812L629.238 312.236Z" fill="#AEC3FF"/>
<path d="M638.698 326.213H707.257L706.832 325.584H638.272L638.698 326.213Z" fill="#AEC3FF"/>
<path d="M674.798 301.581L675.189 299.006L671.313 296.435L670.918 299.006L674.798 301.581Z" fill="#AEC3FF"/>
<path d="M656.828 301.581L657.223 299.006L653.344 296.435L652.948 299.006L656.828 301.581Z" fill="#AEC3FF"/>
<path d="M639.086 301.581L639.481 299.006L635.605 296.435L635.21 299.006L639.086 301.581Z" fill="#AEC3FF"/>
<path d="M683.538 314.492L683.93 311.922L680.054 309.347L679.658 311.922L683.538 314.492Z" fill="#AEC3FF"/>
<path d="M665.568 314.492L665.96 311.922L662.084 309.347L661.688 311.922L665.568 314.492Z" fill="#AEC3FF"/>
<path d="M647.826 314.492L648.222 311.922L644.346 309.347L643.95 311.922L647.826 314.492Z" fill="#AEC3FF"/>
<path d="M692.995 328.469L693.391 325.899L689.515 323.323L689.119 325.899L692.995 328.469Z" fill="#AEC3FF"/>
<path d="M675.029 328.469L675.421 325.899L671.545 323.323L671.149 325.899L675.029 328.469Z" fill="#AEC3FF"/>
<path d="M657.287 328.469L657.683 325.899L653.803 323.323L653.411 325.899L657.287 328.469Z" fill="#AEC3FF"/>
<path d="M447.01 80.2547C447.01 80.2547 457.293 58.2318 481.883 60.6784C481.883 60.6784 517.583 23.9723 555.652 55.7851C555.652 55.7851 596.119 47.9019 626.089 62.6113C646.071 72.4176 652.669 82.7014 652.669 82.7014L447.01 80.2547Z" fill="#F8FCFF"/>
<path d="M413.536 238.619C413.536 238.619 427.419 213.695 460.617 216.464C460.617 216.464 508.817 174.924 560.213 210.926C560.213 210.926 614.849 202.005 655.309 218.651C682.287 229.748 691.197 241.388 691.197 241.388L413.536 238.619Z" fill="#F8FCFF"/>
<path d="M167.031 135.101C167.031 135.101 176.161 118.713 197.99 120.534C197.99 120.534 229.684 93.219 263.479 116.892C263.479 116.892 299.405 111.027 326.011 121.969C343.748 129.266 349.608 136.922 349.608 136.922L167.031 135.101Z" fill="#F8FCFF"/>
<path d="M701.054 410.974C701.054 410.974 616.941 395.617 567.697 414.436C518.453 433.255 547.583 454.911 489.317 453.028C431.057 451.144 401.921 449.336 398.854 470.484H656.437L701.054 410.974Z" fill="#A8D29F"/>
<path d="M265.759 470.458C265.74 470.514 265.721 470.566 265.702 470.622H44.5277C44.5245 470.619 44.5245 470.616 44.5245 470.612C44.5245 470.563 44.4736 470.51 44.4736 470.51C44.356 470.227 18.8791 433.742 11.3047 383.686C16.8408 381.483 36.3873 374.641 63.8866 375.382C64.9931 375.411 66.1125 375.454 67.2445 375.51C77.3914 376.001 88.5431 377.545 100.413 380.716C100.83 380.828 101.25 380.94 101.669 381.055C101.787 381.088 101.905 381.121 102.022 381.154C102.862 381.388 103.701 381.628 104.547 381.878C105.495 382.158 106.442 382.448 107.4 382.748C107.74 382.856 108.083 382.965 108.427 383.074C109.692 383.482 110.964 383.91 112.246 384.355C127.185 389.561 136.454 395.172 142.906 400.595C143.039 400.707 143.173 400.819 143.306 400.931C146.403 403.582 148.842 406.187 150.951 408.673C151.526 409.351 152.079 410.02 152.614 410.678C153.275 411.498 153.911 412.302 154.534 413.089C156.624 415.73 158.554 418.166 160.818 420.294C167.063 426.178 175.842 429.734 197.491 428.842C201.373 428.681 205.084 428.644 208.63 428.723C255.18 429.728 272.882 450.387 265.759 470.458Z" fill="#A8D29F"/>
<path d="M848.635 392.204C848.626 392.201 848.613 392.201 848.604 392.198C840.119 390.457 826.797 388.36 810.305 387.857C800.089 387.544 788.651 387.841 776.397 389.212C775.965 389.261 775.529 389.31 775.094 389.359C773.816 389.513 772.529 389.673 771.232 389.849C768.402 390.228 765.532 390.669 762.63 391.172C762.627 391.175 762.623 391.175 762.62 391.172C761.756 391.322 760.897 391.476 760.026 391.639C759.095 391.809 758.16 391.989 757.223 392.175C755.214 392.573 753.186 393.004 751.145 393.468C750.248 393.671 749.349 393.883 748.446 394.102C747.543 394.314 746.64 394.539 745.731 394.768C744.631 395.049 743.528 395.336 742.422 395.633H742.419C742.076 395.728 741.729 395.823 741.386 395.918H741.383C740.369 396.199 739.351 396.486 738.331 396.783C734.208 397.982 730.041 399.324 725.848 400.823C718.963 403.266 712.847 405.673 707.379 408.018C700.44 410.987 694.543 413.858 689.448 416.572C684.416 419.244 680.143 421.781 676.392 424.149C656.073 436.978 651.07 444.895 623.354 442.678C620.884 442.485 618.519 442.406 616.253 442.439C608.827 442.537 602.476 443.768 597.069 445.666C586.229 449.468 579.188 455.957 574.906 461.372C571.378 465.834 569.718 469.564 569.346 470.458C569.289 470.592 569.264 470.664 569.264 470.664H574.906H597.069H676.392H707.379H715.291H720.845H789.077H794.631H810.305H816.046C820.627 465.612 838.994 444.758 846.035 412.117C847.367 405.948 848.276 399.386 848.623 392.443L848.635 392.204Z" fill="#A8D29F"/>
<path d="M123.864 254.947C123.864 254.947 129.194 244.623 141.938 245.769C141.938 245.769 160.442 228.564 180.173 243.474C180.173 243.474 201.147 239.78 216.681 246.672C227.037 251.269 230.456 256.089 230.456 256.089L123.864 254.947Z" fill="#F8FCFF"/>
<path d="M305.87 299.34C305.87 299.34 311.2 289.016 323.944 290.162C323.944 290.162 342.448 272.957 362.179 287.867C362.179 287.867 383.153 284.173 398.687 291.065C409.043 295.661 412.462 300.482 412.462 300.482L305.87 299.34Z" fill="#F8FCFF"/>
<path d="M362.15 177.712C362.15 177.712 366.564 167.896 377.118 168.986C377.118 168.986 392.438 152.624 408.78 166.803C408.78 166.803 426.148 163.289 439.01 169.846C447.586 174.215 450.42 178.802 450.42 178.802L362.15 177.712Z" fill="#F8FCFF"/>
<path d="M136.966 467.854L149.561 467.693L178.978 340.758L166.383 340.919L136.966 467.854Z" fill="#1E3458"/>
<path d="M116.157 470.679H172.641C172.641 467.258 169.963 464.482 166.656 464.482H122.139C118.838 464.482 116.157 467.258 116.157 470.679Z" fill="#1E3458"/>
<path d="M246.635 411.908L241.211 383.743L241.201 383.684L223.146 289.948L47.6631 289.974L71.1526 411.934L104.484 411.931H104.799L142.101 411.924H142.216L179.356 411.917H179.611L216.669 411.914H217.006L246.635 411.908Z" fill="#1E3458"/>
<path d="M249.643 409.497L74.1575 409.524L50.668 289.974L226.151 289.948L249.643 409.497Z" fill="#465C93"/>
<path d="M107.825 409.517H107.492L84.0625 290.291H84.3996L107.825 409.517Z" fill="#C0D8FB"/>
<path d="M145.221 409.514H144.887L121.458 290.288H121.795L145.221 409.514Z" fill="#C0D8FB"/>
<path d="M182.616 409.507H182.282L158.853 290.281H159.19L182.616 409.507Z" fill="#C0D8FB"/>
<path d="M220.011 409.501H219.677L196.248 290.274H196.585L220.011 409.501Z" fill="#C0D8FB"/>
<path d="M231.725 318.321L56.2423 318.347L56.1787 318.02L231.662 317.994L231.725 318.321Z" fill="#C0D8FB"/>
<path d="M237.97 350.104L62.4874 350.13L62.4238 349.803L237.907 349.777L237.97 350.104Z" fill="#C0D8FB"/>
<path d="M244.215 381.89L68.7325 381.913L68.6689 381.587L244.152 381.56L244.215 381.89Z" fill="#C0D8FB"/>
<path d="M90.4 321.692L86.0977 318.179L89.0199 314.665L93.3223 318.179L90.4 321.692Z" fill="#C0D8FB"/>
<path d="M96.6773 353.64L92.375 350.126L95.2973 346.613L99.5996 350.126L96.6773 353.64Z" fill="#C0D8FB"/>
<path d="M127.963 321.689L123.661 318.175L126.583 314.658L130.886 318.172L127.963 321.689Z" fill="#C0D8FB"/>
<path d="M134.241 353.633L129.938 350.119L132.861 346.606L137.163 350.119L134.241 353.633Z" fill="#C0D8FB"/>
<path d="M165.358 321.682L161.056 318.169L163.978 314.652L168.28 318.169L165.358 321.682Z" fill="#C0D8FB"/>
<path d="M202.42 321.675L198.114 318.162L201.037 314.648L205.339 318.162L202.42 321.675Z" fill="#C0D8FB"/>
<path d="M102.89 385.258L98.5879 381.745L101.51 378.231L105.812 381.745L102.89 385.258Z" fill="#C0D8FB"/>
<path d="M140.454 385.255L136.151 381.741L139.074 378.224L143.376 381.738L140.454 385.255Z" fill="#C0D8FB"/>
<path d="M177.849 385.248L173.547 381.735L176.469 378.221L180.771 381.735L177.849 385.248Z" fill="#C0D8FB"/>
<path d="M214.91 385.242L210.604 381.731L213.527 378.215L217.832 381.728L214.91 385.242Z" fill="#C0D8FB"/>
<path d="M208.696 353.623L204.391 350.11L207.313 346.596L211.618 350.11L208.696 353.623Z" fill="#C0D8FB"/>
<path d="M171.635 353.63L167.333 350.116L170.255 346.599L174.558 350.113L171.635 353.63Z" fill="#C0D8FB"/>
<path d="M319.635 468.74L328.281 468.628L348.479 381.478L339.83 381.59L319.635 468.74Z" fill="#1E3458"/>
<path d="M305.348 470.679H344.129C344.129 468.332 342.291 466.425 340.021 466.425H309.456C307.186 466.425 305.348 468.332 305.348 470.679Z" fill="#1E3458"/>
<path d="M394.931 430.328L391.207 410.992L391.197 410.949L378.802 346.596L258.321 346.613L274.449 430.348L297.335 430.345H297.548L323.161 430.341H323.238L348.737 430.335H348.912L374.357 430.331H374.586L394.931 430.328Z" fill="#1E3458"/>
<path d="M396.994 428.675L276.513 428.692L260.385 346.613L380.866 346.596L396.994 428.675Z" fill="#465C93"/>
<path d="M299.627 428.689H299.398L283.312 346.83H283.544L299.627 428.689Z" fill="#C0D8FB"/>
<path d="M325.302 428.685H325.073L308.986 346.827H309.218L325.302 428.685Z" fill="#C0D8FB"/>
<path d="M350.976 428.682H350.747L334.66 346.824H334.892L350.976 428.682Z" fill="#C0D8FB"/>
<path d="M376.65 428.675L376.421 428.678L360.337 346.82H360.566L376.65 428.675Z" fill="#C0D8FB"/>
<path d="M384.695 366.074L264.211 366.091L264.166 365.866L384.65 365.85L384.695 366.074Z" fill="#C0D8FB"/>
<path d="M388.982 387.896L268.501 387.913L268.456 387.688L388.937 387.672L388.982 387.896Z" fill="#C0D8FB"/>
<path d="M393.271 409.718L272.787 409.735L272.742 409.51L393.226 409.494L393.271 409.718Z" fill="#C0D8FB"/>
<path d="M287.665 368.389L284.711 365.978L286.714 363.565L289.672 365.975L287.665 368.389Z" fill="#C0D8FB"/>
<path d="M291.974 390.323L289.02 387.909L291.026 385.498L293.98 387.909L291.974 390.323Z" fill="#C0D8FB"/>
<path d="M313.453 368.386L310.499 365.972L312.506 363.561L315.46 365.972L313.453 368.386Z" fill="#C0D8FB"/>
<path d="M317.763 390.319L314.809 387.906L316.815 385.492L319.769 387.906L317.763 390.319Z" fill="#C0D8FB"/>
<path d="M339.128 368.382L336.174 365.968L338.18 363.555L341.134 365.968L339.128 368.382Z" fill="#C0D8FB"/>
<path d="M364.572 368.379L361.618 365.965L363.625 363.551L366.579 365.965L364.572 368.379Z" fill="#C0D8FB"/>
<path d="M296.241 412.033L293.287 409.619L295.29 407.209L298.244 409.619L296.241 412.033Z" fill="#C0D8FB"/>
<path d="M322.029 412.029L319.075 409.616L321.082 407.202L324.036 409.616L322.029 412.029Z" fill="#C0D8FB"/>
<path d="M347.704 412.026L344.75 409.612L346.756 407.199L349.711 409.612L347.704 412.026Z" fill="#C0D8FB"/>
<path d="M373.148 412.023L370.194 409.609L372.201 407.195L375.155 409.609L373.148 412.023Z" fill="#C0D8FB"/>
<path d="M368.882 390.313L365.928 387.899L367.934 385.485L370.888 387.899L368.882 390.313Z" fill="#C0D8FB"/>
<path d="M343.44 390.316L340.482 387.902L342.489 385.489L345.443 387.902L343.44 390.316Z" fill="#C0D8FB"/>
<path d="M906.894 440.621L909.854 440.041C909.854 440.041 902.782 411.979 903.754 409.661C904.538 407.738 912.689 406.348 916.683 402.989C917.536 402.271 918.183 401.484 918.553 400.579C920.677 395.366 917.215 391.497 917.215 391.497C917.215 391.497 909.966 393.167 903.383 395.992C898.697 398.007 894.355 400.625 893.154 403.661C890.266 411.008 906.894 440.621 906.894 440.621Z" fill="#E8945B"/>
<path d="M898.849 444.948C898.895 444.654 899.088 444.394 899.374 444.236C900.076 443.848 901.517 443.291 902.596 441.846C903.203 441.032 905.71 438.632 905.71 438.632L905.723 438.625C905.789 438.609 906.117 438.612 907.705 439.267C908.526 439.603 909.382 438.056 909.382 438.056C909.382 438.056 909.645 438.161 909.888 438.418C910.081 438.622 910.262 438.925 910.291 439.346C910.331 439.942 910.944 440.907 911.401 441.553C911.676 441.941 911.896 442.214 911.896 442.214C911.896 442.214 912.067 442.55 910.669 443.084L908.998 443.518C908.418 443.584 907.968 443.548 907.377 443.63C906.478 443.756 906.16 444.177 906.098 444.269C906.088 444.282 906.084 444.289 906.084 444.289L898.98 446.133C898.744 445.945 898.78 445.376 898.849 444.948Z" fill="#415DA5"/>
<path d="M884.921 446.067C885.649 446.067 886.24 445.474 886.24 444.743C886.24 428.308 872.917 414.936 856.539 414.936C852.755 414.936 849.073 415.641 845.592 417.027C844.916 417.297 844.584 418.068 844.853 418.749C845.126 419.424 845.887 419.76 846.57 419.49C849.736 418.229 853.093 417.587 856.539 417.587C871.46 417.587 883.602 429.771 883.602 444.743C883.602 445.474 884.192 446.067 884.921 446.067Z" fill="#2C3A64"/>
<path d="M861.018 444.74C861.018 442.303 859.049 440.328 856.621 440.328C854.193 440.328 852.224 442.303 852.224 444.74C852.224 447.177 854.193 449.153 856.621 449.153C859.049 449.153 861.018 447.177 861.018 444.74Z" fill="#415DA5"/>
<path d="M864 423.525L856.544 444.371L857.106 444.573L864.562 423.728L864 423.525Z" fill="#415DA5"/>
<path d="M877.675 454.141L877.911 453.591L856.818 444.5L842.95 424.62L842.461 424.963L856.424 444.98L856.503 445.017L877.675 454.141Z" fill="#415DA5"/>
<path d="M864.986 467.725L865.55 467.534C865.399 467.086 857.244 445.547 856.897 444.631L856.683 444.072L843.544 464.926L844.049 465.245L856.552 445.405C859.541 453.295 864.871 467.385 864.986 467.725Z" fill="#415DA5"/>
<path d="M879.967 438.887L856.561 442.932L856.662 443.523L880.068 439.478L879.967 438.887Z" fill="#415DA5"/>
<path d="M848.544 422.339L847.978 422.529L854.84 443.173L855.406 442.983L848.544 422.339Z" fill="#415DA5"/>
<path d="M856.667 445.053L856.755 445.007L878.226 434.088L877.954 433.551L856.575 444.431L833.561 440.555L833.463 441.148L856.667 445.053Z" fill="#415DA5"/>
<path d="M847.957 466.977C848.085 466.602 853.595 452.999 856.679 445.389L868.595 464.198L869.097 463.875L856.561 444.085L856.345 444.622C855.984 445.507 847.544 466.328 847.393 466.783L847.957 466.977Z" fill="#415DA5"/>
<path d="M856.663 444.441L856.575 445.034L879.684 448.47L879.772 447.877L856.663 444.441Z" fill="#415DA5"/>
<path d="M870.396 426.465L857.574 441.275L858.025 441.668L870.847 426.858L870.396 426.465Z" fill="#415DA5"/>
<path d="M856.167 446.394L855.572 446.444L857.35 468.141L857.945 468.091L856.167 446.394Z" fill="#415DA5"/>
<path d="M857.497 443.335L837.069 457.548L837.41 458.04L857.838 443.827L857.497 443.335Z" fill="#415DA5"/>
<path d="M873.554 460.809L873.977 460.388L856.919 443.12V420.652H856.322V443.367L873.554 460.809Z" fill="#415DA5"/>
<path d="M877.561 429.642C877.085 428.98 876.576 428.338 876.041 427.726C874.007 425.391 871.562 423.425 868.822 421.943C867.627 421.295 866.377 420.741 865.081 420.29C862.429 419.362 859.584 418.858 856.621 418.858C855.702 418.858 854.793 418.907 853.901 419.003H853.897C848.545 419.569 843.675 421.785 839.806 425.128L839.803 425.131C834.313 429.883 830.828 436.91 830.828 444.74C830.828 447.111 831.153 449.462 831.783 451.724C832.347 453.759 833.165 455.725 834.218 457.569C834.248 457.629 834.284 457.685 834.316 457.744C836.548 461.59 839.747 464.817 843.57 467.069C846.573 468.841 849.91 469.977 853.363 470.415C853.366 470.415 853.366 470.415 853.369 470.415C853.372 470.415 853.372 470.415 853.376 470.415C854.445 470.553 855.535 470.622 856.621 470.622C857.74 470.622 858.846 470.55 859.929 470.412H859.935C872.602 468.772 882.414 457.889 882.414 444.74C882.414 439.109 880.616 433.893 877.561 429.642ZM877.147 453.262C877.075 453.447 876.996 453.631 876.911 453.812C875.969 455.929 874.706 457.872 873.183 459.581C873.052 459.733 872.917 459.881 872.779 460.026C871.585 461.294 870.246 462.423 868.786 463.385C868.622 463.497 868.454 463.602 868.284 463.707C867.178 464.395 866.006 464.988 864.782 465.476C864.599 465.548 864.411 465.62 864.224 465.69C862.226 466.421 860.093 466.875 857.875 466.997C857.674 467.01 857.478 467.017 857.277 467.023C857.058 467.03 856.841 467.033 856.621 467.033C853.845 467.033 851.102 466.513 848.542 465.508C848.355 465.439 848.171 465.364 847.987 465.288C847.095 464.906 846.225 464.471 845.385 463.974C845.257 463.898 845.129 463.819 845.001 463.74C844.831 463.638 844.663 463.533 844.499 463.421C842.212 461.926 840.217 460.016 838.619 457.803C838.517 457.661 838.415 457.517 838.317 457.372C838.202 457.207 838.09 457.039 837.985 456.871C837.782 456.565 837.591 456.255 837.408 455.939C836.321 454.066 835.517 452.044 835.019 449.943C834.612 448.247 834.405 446.499 834.405 444.74C834.405 443.584 834.494 442.452 834.661 441.345C834.694 441.148 834.727 440.95 834.759 440.756C835.803 434.977 839.075 429.968 843.643 426.659C843.803 426.54 843.967 426.425 844.132 426.313C845.48 425.388 846.934 424.611 848.47 423.998C848.657 423.926 848.844 423.856 849.031 423.787C851.312 422.951 853.766 422.483 856.322 422.45C856.421 422.447 856.523 422.447 856.621 422.447C856.72 422.447 856.821 422.447 856.92 422.45C859.309 422.48 861.609 422.892 863.758 423.626H863.762C863.817 423.646 863.87 423.665 863.926 423.685C864.116 423.751 864.3 423.82 864.487 423.889C865.462 424.262 866.403 424.699 867.306 425.197C868.241 425.714 869.134 426.297 869.98 426.939C870.141 427.057 870.295 427.179 870.45 427.307C871.28 427.969 872.064 428.694 872.793 429.468C873.505 430.225 874.161 431.035 874.761 431.888C875.326 432.685 875.841 433.521 876.294 434.394C876.389 434.572 876.481 434.749 876.566 434.927C877.236 436.287 877.767 437.726 878.151 439.224C878.197 439.419 878.246 439.613 878.289 439.811C878.647 441.398 878.837 443.048 878.837 444.74C878.837 445.748 878.772 446.742 878.64 447.717C878.614 447.914 878.584 448.115 878.552 448.31C878.276 450.035 877.8 451.695 877.147 453.262Z" fill="#202E51"/>
<path d="M919.044 400.338L903.887 447.915L906.443 448.735L921.601 401.158L919.044 400.338Z" fill="#739CF3"/>
<path d="M907.728 448.876L943.507 445.754L877.154 400.737L880.948 408.535L935.73 443.729L907.495 446.192L907.728 448.876Z" fill="#739CF3"/>
<path d="M902.907 446.769L905.162 445.306L877.63 401.053L874.427 404.382L902.907 446.769Z" fill="#739CF3"/>
<path d="M858.758 443.555L874.089 410.629L872.035 409.806C870.699 409.269 869.186 409.924 868.655 411.264L856.273 442.537L858.758 443.555Z" fill="#415DA5"/>
<path d="M874.089 410.629C876.307 404.853 880.012 395.778 879.953 395.867L877.718 394.375C877.61 394.54 877.538 394.648 871.72 409.799L874.089 410.629Z" fill="#415DA5"/>
<path d="M886.959 399.021C887.838 397.796 887.559 396.091 886.339 395.208C885.118 394.326 883.418 394.606 882.539 395.831C881.659 397.055 881.938 398.761 883.159 399.644C884.38 400.523 886.083 400.243 886.959 399.021Z" fill="#415DA5"/>
<path d="M876.655 391.869C877.535 390.644 877.256 388.938 876.035 388.056C874.814 387.173 873.114 387.453 872.235 388.678C871.356 389.903 871.634 391.609 872.855 392.492C874.076 393.371 875.776 393.094 876.655 391.869Z" fill="#415DA5"/>
<path d="M874 392.837L884.396 399.476L885.84 396.627L875.441 389.989L874 392.837Z" fill="#415DA5"/>
<path d="M891.11 455.215H896.925C897.607 455.215 898.169 454.655 898.169 453.967C898.169 453.282 897.611 452.719 896.925 452.719H891.11C890.427 452.719 889.866 453.279 889.866 453.967C889.869 454.652 890.427 455.215 891.11 455.215Z" fill="#415DA5"/>
<path d="M905.333 447.36L893.556 452.746L893.988 453.699L905.766 448.313L905.333 447.36Z" fill="#415DA5"/>
<path d="M944.015 444.74C944.015 442.303 942.046 440.328 939.618 440.328C937.19 440.328 935.221 442.303 935.221 444.74C935.221 447.177 937.19 449.153 939.618 449.153C942.046 449.153 944.015 447.177 944.015 444.74Z" fill="#415DA5"/>
<path d="M946.999 423.531L939.543 444.377L940.105 444.579L947.561 423.733L946.999 423.531Z" fill="#415DA5"/>
<path d="M960.672 454.141L960.905 453.591L939.811 444.5L925.947 424.62L925.458 424.963L939.421 444.98L939.5 445.017L960.672 454.141Z" fill="#415DA5"/>
<path d="M947.983 467.725L948.547 467.534C948.396 467.086 940.242 445.547 939.894 444.631L939.681 444.072L926.538 464.926L927.043 465.245L939.546 445.405C942.539 453.295 947.868 467.385 947.983 467.725Z" fill="#415DA5"/>
<path d="M962.959 438.887L939.553 442.932L939.654 443.523L963.06 439.478L962.959 438.887Z" fill="#415DA5"/>
<path d="M931.543 422.327L930.977 422.516L937.839 443.161L938.405 442.971L931.543 422.327Z" fill="#415DA5"/>
<path d="M939.664 445.053L939.753 445.007L961.221 434.088L960.951 433.551L939.569 444.431L916.559 440.555L916.457 441.147L939.664 445.053Z" fill="#415DA5"/>
<path d="M930.955 466.977C931.083 466.602 936.593 452.999 939.677 445.389L951.593 464.198L952.095 463.875L939.559 444.085L939.343 444.622C938.985 445.507 930.542 466.328 930.391 466.783L930.955 466.977Z" fill="#415DA5"/>
<path d="M939.656 444.457L939.568 445.05L962.675 448.498L962.763 447.905L939.656 444.457Z" fill="#415DA5"/>
<path d="M953.394 426.467L940.572 441.277L941.023 441.67L953.845 426.86L953.394 426.467Z" fill="#415DA5"/>
<path d="M939.192 446.367L938.597 446.417L940.376 468.11L940.971 468.06L939.192 446.367Z" fill="#415DA5"/>
<path d="M940.498 443.337L920.07 457.55L920.411 458.043L940.839 443.83L940.498 443.337Z" fill="#415DA5"/>
<path d="M956.551 460.809L956.974 460.388L939.917 443.12V420.652H939.319V443.367L956.551 460.809Z" fill="#415DA5"/>
<path d="M939.618 418.858C935.67 418.858 931.926 419.753 928.579 421.354C924.805 423.148 921.534 425.842 919.04 429.155C918.39 430.014 917.793 430.92 917.254 431.858C915.072 435.652 913.825 440.054 913.825 444.74C913.825 445.04 913.832 445.339 913.842 445.639C913.871 446.538 913.95 447.434 914.071 448.323C914.534 451.639 915.63 454.846 917.31 457.744C919.424 461.386 922.41 464.475 925.97 466.704C926.167 466.829 926.367 466.951 926.567 467.069C929.547 468.828 932.852 469.957 936.271 470.405C937.377 470.55 938.496 470.622 939.618 470.622C940.754 470.622 941.873 470.55 942.969 470.405C955.612 468.752 965.411 457.872 965.411 444.74C965.411 430.469 953.84 418.858 939.618 418.858ZM960.144 453.262C960.072 453.447 959.993 453.631 959.908 453.812C958.966 455.929 957.703 457.872 956.18 459.581C956.049 459.733 955.914 459.881 955.776 460.026C954.582 461.294 953.243 462.423 951.783 463.385C951.619 463.496 951.451 463.602 951.281 463.707C950.175 464.395 949.003 464.988 947.779 465.476C947.596 465.548 947.409 465.62 947.221 465.69C945.22 466.421 943.087 466.875 940.868 466.997C940.672 467.01 940.471 467.017 940.274 467.023C940.055 467.03 939.838 467.033 939.618 467.033C936.839 467.033 934.099 466.513 931.539 465.508C931.352 465.439 931.168 465.364 930.984 465.288C930.092 464.906 929.222 464.471 928.382 463.974C928.254 463.898 928.126 463.819 927.998 463.74C927.828 463.638 927.66 463.533 927.496 463.421C927.49 463.421 927.483 463.417 927.48 463.411C925.051 461.82 922.954 459.762 921.314 457.372C921.199 457.207 921.087 457.039 920.982 456.871C920.779 456.565 920.588 456.255 920.405 455.939C918.987 453.496 918.052 450.802 917.645 448.01C917.51 447.124 917.435 446.228 917.412 445.326C917.405 445.132 917.402 444.934 917.402 444.74C917.402 443.584 917.491 442.452 917.658 441.345C917.691 441.148 917.724 440.95 917.756 440.756C918.206 438.27 919.066 435.925 920.27 433.798C920.785 432.876 921.366 431.997 922.006 431.167C923.325 429.448 924.887 427.926 926.64 426.659C926.8 426.54 926.965 426.425 927.129 426.313C928.477 425.388 929.931 424.611 931.467 423.998C931.654 423.926 931.841 423.856 932.028 423.787C933.419 423.277 934.866 422.905 936.369 422.684H936.373C937.337 422.543 938.319 422.464 939.32 422.45C939.418 422.447 939.52 422.447 939.618 422.447C939.717 422.447 939.818 422.447 939.917 422.45C942.368 422.48 944.724 422.915 946.923 423.685C947.113 423.751 947.297 423.82 947.484 423.889C949.466 424.643 951.314 425.677 952.977 426.939C953.138 427.057 953.292 427.179 953.447 427.307C955.852 429.231 957.85 431.641 959.291 434.394C959.386 434.572 959.478 434.749 959.563 434.927C960.233 436.287 960.764 437.726 961.148 439.224C961.194 439.419 961.244 439.613 961.283 439.811C961.644 441.398 961.834 443.048 961.834 444.74C961.834 445.748 961.769 446.742 961.637 447.717C961.611 447.914 961.582 448.115 961.549 448.31C961.273 450.035 960.797 451.695 960.144 453.262Z" fill="#202E51"/>
<path d="M918.596 418.183C918.973 418.318 919.39 418.272 919.735 418.064C931.804 410.747 948.501 413.497 953.331 414.515H953.338C953.603 414.571 953.853 414.366 953.853 414.093V413.148C953.853 412.424 953.324 411.808 952.612 411.702C950 411.311 943.897 410.474 940.484 410.458C940.392 410.458 940.3 410.458 940.208 410.458C932.569 410.458 925.973 411.831 920.552 414.541C919.446 415.094 918.163 415.173 916.994 414.761L915.508 414.238C914.658 413.938 913.726 414.386 913.427 415.239C913.234 415.789 913.523 416.391 914.071 416.586L918.596 418.183Z" fill="#F99746"/>
<path d="M929.816 399.746C929.816 399.746 930.301 397.54 928.92 397.388C927.541 397.24 922.508 398.323 921.165 398.172C919.823 398.024 912.817 396.861 911.587 398.06C910.356 399.255 910.878 400.306 913.339 400.53C915.8 400.753 919.078 401.165 920.01 401.952C920.942 402.739 927.689 405.057 929.816 399.746Z" fill="#F99746"/>
<path d="M905.178 455.067C908.884 455.067 911.888 452.052 911.888 448.333C911.888 444.614 908.884 441.599 905.178 441.599C901.471 441.599 898.467 444.614 898.467 448.333C898.467 452.052 901.471 455.067 905.178 455.067Z" fill="#2C3A64"/>
<path d="M881.797 391.267C881.797 391.267 879.602 388.471 878.401 388.817C876.327 389.419 876.156 391.319 876.209 391.708C876.258 392.096 876.235 393.624 877.154 393.95C878.073 394.276 879.031 393.875 879.457 393.519C879.881 393.16 881.797 391.267 881.797 391.267Z" fill="#E8945B"/>
<path d="M878.069 389.008C878.069 389.008 878.375 390.746 880.475 391.326C882.575 391.882 895.573 386.393 898.664 384.865C900.328 384.032 902.727 379.396 904.574 375.342C905.014 374.344 905.428 373.396 905.798 372.54C906.721 370.386 907.321 368.832 907.321 368.832C907.321 366.701 904.975 367.531 902.852 368.506C902.205 368.809 898.822 367.373 897.919 369.109C897.503 369.919 896.951 369.826 896.538 370.732C894.897 374.371 893.397 378.47 893.076 379.445C892.502 381.18 878.069 389.008 878.069 389.008Z" fill="#E8945B"/>
<path d="M883.418 392.893C883.418 392.893 881.232 390.14 880.021 390.443C877.166 391.161 877.55 393.226 877.6 393.614C877.649 394.003 877.852 395.251 878.774 395.577C879.693 395.903 880.651 395.501 881.078 395.146C881.501 394.79 883.418 392.893 883.418 392.893Z" fill="#FFB27D"/>
<path d="M908.542 365.322L901.129 368.068C900.18 367.146 899.232 365.677 898.471 364.334C897.525 362.668 896.869 361.192 896.869 361.192L902.051 357.554L903.678 356.411C903.78 359.727 908.542 365.322 908.542 365.322Z" fill="#FFB27D"/>
<path d="M904.066 358.209C904.066 358.209 902.599 362.803 898.468 364.334C897.523 362.668 896.866 361.192 896.866 361.192L902.048 357.554L904.066 358.209Z" fill="#E8945B"/>
<path d="M894.519 361.08C894.519 361.08 903.688 362.523 904.495 356.78C905.302 351.037 907.028 347.356 901.21 346.19C895.389 345.024 893.942 347.056 893.21 348.907C892.475 350.76 892.156 360.56 894.519 361.08Z" fill="#FFB27D"/>
<path d="M906.553 345.146C906.553 345.146 906.136 345.232 905.802 345.581C905.798 345.577 905.798 345.574 905.798 345.574C905.775 344.336 904.561 343.085 904.561 343.085C905.142 343.819 904.955 345.176 904.955 345.176C903.229 342.212 894.822 344.543 894.034 344.741C893.246 344.939 892.689 343.753 892.689 343.753C891.445 344.837 890.969 347.484 892.003 349.213C893.033 350.942 896.38 353.487 897.342 353.003C898.307 352.519 898.307 353.52 898.257 354.926C898.208 356.332 900.633 358.693 902.343 359.039C903.721 359.315 903.829 358.37 904.203 357.764C904.295 357.613 904.407 357.475 904.538 357.359C906.415 355.66 907.449 352.262 907.029 348.916C906.862 347.586 906.313 346.47 906.005 345.93C906.133 345.712 906.376 345.314 906.553 345.146Z" fill="#2C3A64"/>
<path d="M903.383 395.992C903.475 396.41 904.492 399.838 907.124 400.717C908.833 401.297 912.988 402.709 916.683 402.989C917.536 402.271 918.183 401.484 918.553 400.579C920.677 395.366 917.215 391.497 917.215 391.497C917.215 391.497 909.962 393.167 903.383 395.992Z" fill="#2C3A64"/>
<path d="M924.208 383.9C924.208 383.9 931.637 392.485 924.815 402.14C917.993 411.791 906.888 419.582 906.274 423.023C905.09 429.685 898.021 443.443 894.651 450.249L891.767 449.139C891.767 449.139 897.181 416.882 899.104 413.02C901.027 409.157 910.996 391.082 910.996 391.082L924.208 383.9Z" fill="#FFB27D"/>
<path d="M896.456 370.297C897.171 370.528 898.904 371.176 899.367 371.967C899.852 372.754 904.932 370.554 905.533 368.493C904.079 366.896 901.585 365.526 900.131 365.99C899.275 366.24 897.887 368.071 896.456 370.297Z" fill="#5885D6"/>
<path d="M925.704 386.541C925.704 386.541 916.06 393.437 909.615 393.051C909.615 393.051 905.382 400.292 904.443 402.683C904.443 402.683 915.41 408.186 921.11 407.171C921.11 407.171 928.543 399.93 928.11 394.862C927.677 389.791 925.704 386.541 925.704 386.541Z" fill="#35488B"/>
<path d="M899.249 373.574L901.562 376.88L901.746 377.298L906.55 388.303L908.998 393.911C910.639 394.306 913.684 394.026 915.049 393.539C922.485 390.99 925.718 386.541 925.718 386.541C921.399 375.21 915.42 367.472 914.196 366.105C912.073 363.787 906.508 361.887 906.508 361.887C904.985 363.465 899.534 366.221 899.534 366.221C898.327 367.169 899.249 373.574 899.249 373.574Z" fill="#739AF0"/>
<path d="M901.742 377.295L906.546 388.3C910.195 380.907 907.885 370.182 907.885 370.182C907.885 370.182 902.021 375.279 901.811 375.675C901.791 375.74 901.742 376.343 901.742 377.295Z" fill="#5885D6"/>
<path d="M879.693 390.638C879.693 390.638 879.999 392.376 882.099 392.956C884.199 393.512 897.197 388.023 900.288 386.495C901.952 385.662 904.351 381.026 906.198 376.972C906.638 375.974 907.052 375.026 907.422 374.17C908.345 372.016 908.945 370.462 908.945 370.462C908.945 368.331 903.934 365.434 901.811 366.408C901.165 366.711 900.311 368.029 899.409 369.767C898.992 370.577 898.579 371.46 898.162 372.362C896.521 376.001 895.021 380.1 894.7 381.075C894.122 382.81 879.693 390.638 879.693 390.638Z" fill="#FFB27D"/>
<path d="M898.165 372.359C900.104 373.238 903.593 374.954 906.202 376.969C906.641 375.971 907.055 375.023 907.426 374.167C908.348 372.013 908.948 370.459 908.948 370.459C908.948 368.328 903.937 365.43 901.814 366.405C901.168 366.708 900.314 368.025 899.412 369.764C898.995 370.574 898.579 371.456 898.165 372.359Z" fill="#739AF0"/>
<path d="M895.79 452.89H894.064C893.486 452.808 893.056 452.66 892.465 452.59C891.563 452.485 891.149 452.814 891.067 452.89C891.058 452.9 891.051 452.907 891.051 452.907H883.714C883.53 452.673 883.707 452.129 883.881 451.731C883.999 451.461 884.252 451.253 884.567 451.174C885.344 450.974 886.877 450.796 888.285 449.666C889.076 449.034 892.101 447.335 892.101 447.335L892.118 447.332C892.183 447.332 892.501 447.417 893.876 448.451C894.589 448.985 895.799 447.7 895.799 447.7C895.799 447.7 896.026 447.868 896.197 448.178C896.334 448.425 896.433 448.761 896.354 449.179C896.246 449.765 896.597 450.855 896.879 451.593C897.05 452.04 897.194 452.357 897.194 452.357C897.194 452.357 897.273 452.725 895.79 452.89Z" fill="#739CF3"/>
<path d="M896.193 448.181C895.78 448.438 894.91 448.949 894.333 449.015C893.552 449.107 892.095 447.338 892.095 447.338L892.111 447.335C892.177 447.335 892.495 447.421 893.87 448.455C894.582 448.988 895.793 447.704 895.793 447.704C895.793 447.704 896.023 447.869 896.193 448.181Z" fill="#415DA5"/>
<path d="M895.79 452.89H894.064C893.486 452.808 893.056 452.66 892.465 452.59C891.563 452.485 891.149 452.814 891.067 452.89C891.058 452.9 891.051 452.907 891.051 452.907H883.714C883.53 452.673 883.707 452.129 883.881 451.731C884.104 451.556 884.166 452.495 884.291 452.643C884.416 452.791 890.277 452.699 890.615 452.478C890.953 452.261 891.97 451.879 893.384 452.179C894.618 452.439 896.433 451.77 896.882 451.593C897.053 452.04 897.197 452.357 897.197 452.357C897.197 452.357 897.273 452.725 895.79 452.89Z" fill="#415DA5"/>
<defs>
<clipPath id="clip0_537_274">
<rect width="732" height="356" fill="white" transform="matrix(-1 0 0 1 1730 117)"/>
</clipPath>
<clipPath id="clip1_537_274">
<rect width="226" height="263" fill="white" transform="translate(1454 123)"/>
</clipPath>
</defs>
</svg>
