<svg width="792" height="421" viewBox="0 0 792 421" fill="none" xmlns="http://www.w3.org/2000/svg">
<g clip-path="url(#clip0_107_1142)">
<path d="M2.94324 420.534C2.96948 420.692 2.99573 420.844 3.02783 420.997L15.599 420.952L210.488 420.303L339.091 419.875L343.004 419.859L352.056 419.831L469.705 419.438L656.705 418.814L691.145 418.7L700.296 418.668L703.497 418.658L704.008 418.655L705.059 418.652L740.781 418.532C740.784 418.532 740.784 418.532 740.784 418.532L750.739 418.503C750.739 418.503 750.739 418.503 750.742 418.503L751.825 418.5L757.642 418.478C757.642 418.478 757.642 418.478 757.645 418.478L761.631 418.462L763.389 418.456C763.389 418.456 763.465 418.319 763.611 418.053C763.66 417.961 763.719 417.85 763.789 417.724C763.885 417.54 763.999 417.324 764.13 417.077C764.174 416.992 764.221 416.9 764.273 416.805C764.446 416.469 764.644 416.089 764.863 415.652C765.132 415.122 765.43 414.52 765.76 413.849V413.846C766.992 411.339 768.624 407.867 770.482 403.552C771.092 402.135 771.723 400.627 772.374 399.03C772.634 398.393 772.894 397.747 773.156 397.085V397.082C773.413 396.442 773.67 395.789 773.927 395.121C773.936 395.098 773.945 395.076 773.954 395.054C774.132 394.595 774.31 394.132 774.488 393.66C774.675 393.178 774.862 392.687 775.049 392.193C776.006 389.639 776.988 386.927 777.963 384.066C777.989 383.993 778.013 383.914 778.039 383.841C778.039 383.841 778.039 383.841 778.039 383.838C778.678 381.965 779.312 380.033 779.943 378.043C780.29 376.947 780.632 375.838 780.974 374.71C780.994 374.643 781.017 374.574 781.035 374.501C781.187 374 781.336 373.5 781.485 372.993C781.61 372.565 781.736 372.14 781.858 371.709C782.115 370.825 782.372 369.932 782.626 369.029C782.951 367.869 783.275 366.691 783.59 365.499C784.016 363.88 784.437 362.236 784.846 360.563C784.968 360.063 785.091 359.559 785.211 359.055C785.57 357.544 785.923 356.01 786.265 354.461C786.376 353.963 786.484 353.466 786.589 352.965C786.656 352.655 786.723 352.348 786.788 352.037C787.304 349.585 787.795 347.085 788.251 344.541C788.756 341.74 789.22 338.882 789.635 335.977C790.02 333.296 790.368 330.571 790.666 327.809C790.952 325.201 791.194 322.565 791.39 319.894C791.857 313.649 792.07 307.239 791.98 300.709C791.819 289.341 790.724 277.609 788.362 265.734C788.277 265.3 788.189 264.872 788.099 264.438C787.515 261.612 786.861 258.782 786.128 255.947C785.573 253.786 784.971 251.619 784.323 249.455C783.853 247.886 783.359 246.315 782.84 244.743C781.666 241.185 780.363 237.63 778.921 234.076C778.524 233.093 778.118 232.108 777.694 231.126C769.868 212.803 758.328 194.652 741.908 177.479C741.602 177.159 741.292 176.839 740.988 176.519C732.838 168.072 724.787 160.721 716.845 154.34C716.553 154.106 716.261 153.875 715.969 153.64C628.768 84.2719 555.061 131.344 515.946 128.737C508.248 128.227 501.491 124.909 494.848 119.656C482.674 110.028 470.897 93.8911 454.462 76.5696C429.825 50.6049 394.74 21.9755 332.211 8.59865C254.836 -7.95607 148.541 -3.31441 102.555 46.4416C74.7375 76.5411 68.9877 123.145 105.06 191.556C107.253 195.713 109.601 199.955 112.109 204.28C114.215 207.911 116.052 211.377 117.631 214.685C121.6 222.999 123.947 230.327 124.94 236.861C127.32 252.557 121.854 263.671 112.057 272.809C109.402 275.283 106.438 277.612 103.223 279.852C103.019 279.995 102.812 280.137 102.607 280.28C91.1603 288.128 76.694 294.867 62.2714 302.769C54.3112 307.135 46.3596 311.849 38.9366 317.305C32.0452 322.375 25.6092 328.075 20.0376 334.716C16.3991 339.05 13.1315 343.793 10.3516 349.018C10.1909 349.312 10.0391 349.607 9.88721 349.898C6.2984 356.85 3.5564 364.657 1.93573 373.509C1.85394 373.959 1.77222 374.409 1.69922 374.865C-0.4646 387.716 -0.312744 402.75 2.94324 420.534Z" fill="#EBF3FA"/>
<path d="M105.066 191.56L663.955 296.388L645.111 258.003L102.56 46.4483C74.7432 76.5446 68.9965 123.151 105.066 191.56Z" fill="#F8FBFF"/>
<path d="M268.328 38.5749L494.852 119.663C482.678 110.034 470.901 93.8978 454.466 76.5763L268.328 38.5749Z" fill="#F8FBFF"/>
<path d="M275.321 65.6296C280.822 65.6296 285.281 70.4677 285.281 76.4369C285.281 82.4061 280.822 87.2442 275.321 87.2442C269.819 87.2442 265.36 82.4061 265.36 76.4369C265.36 70.4677 269.819 65.6296 275.321 65.6296Z" fill="#F8FBFF"/>
<path d="M400.976 105.76H452.697V378.655H400.976V105.76Z" fill="#C4D9ED"/>
<path d="M389.359 105.76H441.08V378.655H389.359V105.76Z" fill="#D5E7F7"/>
<path d="M441.066 121.456H389.359V105.687H441.066V121.456Z" fill="#C4D9ED"/>
<path d="M441.066 155.656H389.359V139.887H441.066V155.656Z" fill="#C4D9ED"/>
<path d="M441.066 189.859H389.359V174.09H441.066V189.859Z" fill="#C4D9ED"/>
<path d="M389.36 208.292H441.066V224.061H389.36V208.292Z" fill="#C4D9ED"/>
<path d="M389.36 242.491H441.066V258.26H389.36V242.491Z" fill="#C4D9ED"/>
<path d="M389.36 276.693H441.066V292.462H389.36V276.693Z" fill="#C4D9ED"/>
<path d="M389.36 310.896H441.066V326.665H389.36V310.896Z" fill="#C4D9ED"/>
<path d="M441.066 360.867H389.359V345.098H441.066V360.867Z" fill="#C4D9ED"/>
<path d="M318.294 144.373H370.016V378.651H318.294V144.373Z" fill="#C4D9ED"/>
<path d="M306.677 144.373H358.398V378.652H306.677V144.373Z" fill="#D5E7F7"/>
<path d="M306.678 144.313H358.385V157.851H306.678V144.313Z" fill="#C4D9ED"/>
<path d="M306.678 173.674H358.385V187.213H306.678V173.674Z" fill="#C4D9ED"/>
<path d="M306.678 203.035H358.385V216.574H306.678V203.035Z" fill="#C4D9ED"/>
<path d="M306.678 232.397H358.385V245.935H306.678V232.397Z" fill="#C4D9ED"/>
<path d="M306.678 261.758H358.385V275.296H306.678V261.758Z" fill="#C4D9ED"/>
<path d="M306.678 291.122H358.385V304.661H306.678V291.122Z" fill="#C4D9ED"/>
<path d="M306.678 320.484H358.385V334.022H306.678V320.484Z" fill="#C4D9ED"/>
<path d="M358.384 363.382H306.678V349.844H358.384V363.382Z" fill="#C4D9ED"/>
<path d="M480.686 404.549H459.027V370.283H480.686V404.549Z" fill="#DCEAF9"/>
<path d="M474.075 323.535V418.674H703.495L705.057 418.659L763.609 418.063C763.658 417.971 763.717 417.86 763.787 417.733C763.883 417.55 763.997 417.334 764.128 417.087C764.172 417.002 764.219 416.91 764.271 416.815C764.444 416.479 764.642 416.099 764.861 415.661C765.13 415.132 765.428 414.53 765.758 413.858V413.855C766.99 411.349 768.622 407.877 770.48 403.561C771.09 402.145 771.721 400.637 772.372 399.04C772.632 398.403 772.892 397.757 773.154 397.095V397.092C773.411 396.452 773.668 395.799 773.925 395.13C773.934 395.108 773.943 395.086 773.952 395.064C774.13 394.604 774.308 394.142 774.486 393.67C774.673 393.188 774.86 392.697 775.047 392.203C776.005 389.649 776.986 386.937 777.961 384.076C777.987 384.003 778.011 383.924 778.037 383.851C778.037 383.851 778.037 383.851 778.037 383.848C778.676 381.975 779.31 380.043 779.941 378.053C780.288 376.957 780.63 375.848 780.972 374.72C780.992 374.653 781.015 374.583 781.033 374.511C781.185 374.01 781.334 373.509 781.483 373.002C781.608 372.575 781.734 372.15 781.856 371.719C782.113 370.835 782.37 369.942 782.624 369.039C782.949 367.879 783.273 366.701 783.588 365.509C784.014 363.89 784.435 362.246 784.844 360.573C784.966 360.072 785.089 359.569 785.209 359.065C785.568 357.553 785.921 356.02 786.263 354.471C786.374 353.973 786.482 353.476 786.587 352.975C786.654 352.665 786.721 352.357 786.786 352.047C787.303 349.595 787.793 347.095 788.249 344.55C788.754 341.75 789.218 338.892 789.633 335.986C790.018 333.306 790.366 330.581 790.664 327.818C790.95 325.211 791.192 322.575 791.388 319.904C791.855 313.659 792.068 307.249 791.978 300.719C791.817 289.351 790.722 277.619 788.36 265.744C788.275 265.31 788.187 264.882 788.097 264.448C787.513 261.622 786.859 258.792 786.126 255.957C785.571 253.796 784.969 251.629 784.321 249.465C783.851 247.896 783.357 246.325 782.838 244.753C781.664 241.195 780.361 237.64 778.919 234.085L777.692 231.136C769.866 212.813 758.326 194.661 741.906 177.489C741.6 177.169 741.29 176.849 740.986 176.529H740.026V212.921H710.343V153.618H677.587V192.114H670.118V146.154H637.363V232.321H595.938V282.565H580.461V295.222H544.908V273.424H524.497V214.197H499.281V323.535H474.075Z" fill="#D5E7F7"/>
<path d="M670.126 160.75H637.354V151.971H670.126V160.75Z" fill="#C4D9ED"/>
<path d="M670.126 177.242H637.354V168.462H670.126V177.242Z" fill="#C4D9ED"/>
<path d="M670.126 192.081H637.354V183.301H670.126V192.081Z" fill="#C4D9ED"/>
<path d="M710.337 192.081H677.564V183.301H710.337V192.081Z" fill="#C4D9ED"/>
<path d="M710.337 177.242H677.564V168.462H710.337V177.242Z" fill="#C4D9ED"/>
<path d="M710.337 162.429H677.564V153.649H710.337V162.429Z" fill="#C4D9ED"/>
<path d="M710.346 206.468H637.352V197.689H710.346V206.468Z" fill="#C4D9ED"/>
<path d="M710.346 220.856H637.352V212.076H710.346V220.856Z" fill="#C4D9ED"/>
<path d="M524.738 227.756H499.301V214.205H524.738V227.756Z" fill="#C4D9ED"/>
<path d="M524.738 247.91H499.301V234.359H524.738V247.91Z" fill="#C4D9ED"/>
<path d="M524.738 268.063H499.301V254.512H524.738V268.063Z" fill="#C4D9ED"/>
<path d="M524.738 289.189H499.301V275.638H524.738V289.189Z" fill="#C4D9ED"/>
<path d="M524.738 309.66H499.301V296.109H524.738V309.66Z" fill="#C4D9ED"/>
<path d="M524.738 330.132H499.301V316.581H524.738V330.132Z" fill="#C4D9ED"/>
<path d="M524.738 351.549H499.301V337.997H524.738V351.549Z" fill="#C4D9ED"/>
<path d="M710.346 231.71H637.352V226.137H710.346V231.71Z" fill="#C4D9ED"/>
<path d="M524.382 214.204H533.762V273.427H524.382V214.204Z" fill="#C4D9ED"/>
<path d="M544.917 273.427H563.781V295.222H544.917V273.427Z" fill="#C4D9ED"/>
<path d="M710.339 153.647V162.426L710.345 197.687L710.347 206.467V212.914H716.848V154.347C716.556 154.113 716.264 153.881 715.972 153.647H710.339Z" fill="#C4D9ED"/>
<path d="M670.123 146.154H674.121V192.082H670.123V146.154Z" fill="#C4D9ED"/>
<g opacity="0.8">
<path d="M608.266 249.458H602.715V240.967H608.266V249.458Z" fill="#C4D9ED"/>
<path d="M618.649 249.458H613.098V240.967H618.649V249.458Z" fill="#C4D9ED"/>
<path d="M628.801 249.458H623.25V240.967H628.801V249.458Z" fill="#C4D9ED"/>
<path d="M638.427 249.458H632.873V240.967H638.427V249.458Z" fill="#C4D9ED"/>
<path d="M648.234 249.458H642.68V240.967H648.234V249.458Z" fill="#C4D9ED"/>
<path d="M658.16 249.458H652.605V240.967H658.16V249.458Z" fill="#C4D9ED"/>
<path d="M668.539 249.458H662.988V240.967H668.539V249.458Z" fill="#C4D9ED"/>
<path d="M678.693 249.458H673.139V240.967H678.693V249.458Z" fill="#C4D9ED"/>
<path d="M688.315 249.458H682.764V240.967H688.315V249.458Z" fill="#C4D9ED"/>
<path d="M698.123 249.458H692.572V240.967H698.123V249.458Z" fill="#C4D9ED"/>
<path d="M708.348 249.458H702.797V240.967H708.348V249.458Z" fill="#C4D9ED"/>
<path d="M718.731 249.458H713.18V240.967H718.731V249.458Z" fill="#C4D9ED"/>
<path d="M728.884 249.458H723.33V240.967H728.884V249.458Z" fill="#C4D9ED"/>
<path d="M738.506 249.458H732.955V240.967H738.506V249.458Z" fill="#C4D9ED"/>
<path d="M748.316 249.458H742.762V240.967H748.316V249.458Z" fill="#C4D9ED"/>
<path d="M758.239 249.458H752.688V240.967H758.239V249.458Z" fill="#C4D9ED"/>
<path d="M768.621 249.458H763.07V240.967H768.621V249.458Z" fill="#C4D9ED"/>
<path d="M778.774 249.458H773.223V240.967H778.774V249.458Z" fill="#C4D9ED"/>
<path d="M782.843 244.747V249.458H784.326C783.856 247.89 783.363 246.318 782.843 244.747Z" fill="#C4D9ED"/>
<path d="M608.268 264.442H602.717V255.951H608.268V264.442Z" fill="#C4D9ED"/>
<path d="M618.651 264.442H613.1V255.951H618.651V264.442Z" fill="#C4D9ED"/>
<path d="M628.803 264.442H623.252V255.951H628.803V264.442Z" fill="#C4D9ED"/>
<path d="M638.429 264.442H632.875V255.951H638.429V264.442Z" fill="#C4D9ED"/>
<path d="M648.236 264.442H642.682V255.951H648.236V264.442Z" fill="#C4D9ED"/>
<path d="M658.162 264.442H652.607V255.951H658.162V264.442Z" fill="#C4D9ED"/>
<path d="M668.541 264.442H662.99V255.951H668.541V264.442Z" fill="#C4D9ED"/>
<path d="M678.695 264.442H673.141V255.951H678.695V264.442Z" fill="#C4D9ED"/>
<path d="M688.317 264.442H682.766V255.951H688.317V264.442Z" fill="#C4D9ED"/>
<path d="M698.125 264.442H692.574V255.951H698.125V264.442Z" fill="#C4D9ED"/>
<path d="M708.348 264.442H702.797V255.951H708.348V264.442Z" fill="#C4D9ED"/>
<path d="M718.731 264.442H713.18V255.951H718.731V264.442Z" fill="#C4D9ED"/>
<path d="M728.884 264.442H723.33V255.951H728.884V264.442Z" fill="#C4D9ED"/>
<path d="M738.506 264.442H732.955V255.951H738.506V264.442Z" fill="#C4D9ED"/>
<path d="M748.316 264.442H742.762V255.951H748.316V264.442Z" fill="#C4D9ED"/>
<path d="M758.239 264.442H752.688V255.951H758.239V264.442Z" fill="#C4D9ED"/>
<path d="M768.621 264.442H763.07V255.951H768.621V264.442Z" fill="#C4D9ED"/>
<path d="M778.774 264.442H773.223V255.951H778.774V264.442Z" fill="#C4D9ED"/>
<path d="M782.843 255.95V264.441H788.1C787.516 261.615 786.861 258.786 786.129 255.95H782.843Z" fill="#C4D9ED"/>
<path d="M608.268 279.198H602.717V270.706H608.268V279.198Z" fill="#C4D9ED"/>
<path d="M618.651 279.198H613.1V270.706H618.651V279.198Z" fill="#C4D9ED"/>
<path d="M628.803 279.198H623.252V270.706H628.803V279.198Z" fill="#C4D9ED"/>
<path d="M638.429 279.198H632.875V270.706H638.429V279.198Z" fill="#C4D9ED"/>
<path d="M648.236 279.198H642.682V270.706H648.236V279.198Z" fill="#C4D9ED"/>
<path d="M658.162 279.198H652.607V270.706H658.162V279.198Z" fill="#C4D9ED"/>
<path d="M668.541 279.198H662.99V270.706H668.541V279.198Z" fill="#C4D9ED"/>
<path d="M678.695 279.198H673.141V270.706H678.695V279.198Z" fill="#C4D9ED"/>
<path d="M688.317 279.198H682.766V270.706H688.317V279.198Z" fill="#C4D9ED"/>
<path d="M698.125 279.198H692.574V270.706H698.125V279.198Z" fill="#C4D9ED"/>
<path d="M708.348 279.198H702.797V270.706H708.348V279.198Z" fill="#C4D9ED"/>
<path d="M718.731 279.198H713.18V270.706H718.731V279.198Z" fill="#C4D9ED"/>
<path d="M728.884 279.198H723.33V270.706H728.884V279.198Z" fill="#C4D9ED"/>
<path d="M738.506 279.198H732.955V270.706H738.506V279.198Z" fill="#C4D9ED"/>
<path d="M748.316 279.198H742.762V270.706H748.316V279.198Z" fill="#C4D9ED"/>
<path d="M758.239 279.198H752.688V270.706H758.239V279.198Z" fill="#C4D9ED"/>
<path d="M768.621 279.198H763.07V270.706H768.621V279.198Z" fill="#C4D9ED"/>
<path d="M778.774 279.198H773.223V270.706H778.774V279.198Z" fill="#C4D9ED"/>
<path d="M788.4 279.198H782.846V270.706H788.4V279.198Z" fill="#C4D9ED"/>
<path d="M608.268 294.875H602.717V286.383H608.268V294.875Z" fill="#C4D9ED"/>
<path d="M618.651 294.875H613.1V286.383H618.651V294.875Z" fill="#C4D9ED"/>
<path d="M628.803 294.875H623.252V286.383H628.803V294.875Z" fill="#C4D9ED"/>
<path d="M638.429 294.875H632.875V286.383H638.429V294.875Z" fill="#C4D9ED"/>
<path d="M648.236 294.875H642.682V286.383H648.236V294.875Z" fill="#C4D9ED"/>
<path d="M658.162 294.875H652.607V286.383H658.162V294.875Z" fill="#C4D9ED"/>
<path d="M668.541 294.875H662.99V286.383H668.541V294.875Z" fill="#C4D9ED"/>
<path d="M678.695 294.875H673.141V286.383H678.695V294.875Z" fill="#C4D9ED"/>
<path d="M688.317 294.875H682.766V286.383H688.317V294.875Z" fill="#C4D9ED"/>
<path d="M698.125 294.875H692.574V286.383H698.125V294.875Z" fill="#C4D9ED"/>
<path d="M708.348 294.875H702.797V286.383H708.348V294.875Z" fill="#C4D9ED"/>
<path d="M718.731 294.875H713.18V286.383H718.731V294.875Z" fill="#C4D9ED"/>
<path d="M728.884 294.875H723.33V286.383H728.884V294.875Z" fill="#C4D9ED"/>
<path d="M738.506 294.875H732.955V286.383H738.506V294.875Z" fill="#C4D9ED"/>
<path d="M748.316 294.875H742.762V286.383H748.316V294.875Z" fill="#C4D9ED"/>
<path d="M758.239 294.875H752.688V286.383H758.239V294.875Z" fill="#C4D9ED"/>
<path d="M768.621 294.875H763.07V286.383H768.621V294.875Z" fill="#C4D9ED"/>
<path d="M778.774 294.875H773.223V286.383H778.774V294.875Z" fill="#C4D9ED"/>
<path d="M788.4 294.875H782.846V286.383H788.4V294.875Z" fill="#C4D9ED"/>
<path d="M608.268 309.858H602.717V301.367H608.268V309.858Z" fill="#C4D9ED"/>
<path d="M618.651 309.858H613.1V301.367H618.651V309.858Z" fill="#C4D9ED"/>
<path d="M628.803 309.858H623.252V301.367H628.803V309.858Z" fill="#C4D9ED"/>
<path d="M638.429 309.858H632.875V301.367H638.429V309.858Z" fill="#C4D9ED"/>
<path d="M648.236 309.858H642.682V301.367H648.236V309.858Z" fill="#C4D9ED"/>
<path d="M658.162 309.858H652.607V301.367H658.162V309.858Z" fill="#C4D9ED"/>
<path d="M668.541 309.858H662.99V301.367H668.541V309.858Z" fill="#C4D9ED"/>
<path d="M678.695 309.858H673.141V301.367H678.695V309.858Z" fill="#C4D9ED"/>
<path d="M688.317 309.858H682.766V301.367H688.317V309.858Z" fill="#C4D9ED"/>
<path d="M698.125 309.858H692.574V301.367H698.125V309.858Z" fill="#C4D9ED"/>
<path d="M708.348 309.858H702.797V301.367H708.348V309.858Z" fill="#C4D9ED"/>
<path d="M718.731 309.858H713.18V301.367H718.731V309.858Z" fill="#C4D9ED"/>
<path d="M728.884 309.858H723.33V301.367H728.884V309.858Z" fill="#C4D9ED"/>
<path d="M738.506 309.858H732.955V301.367H738.506V309.858Z" fill="#C4D9ED"/>
<path d="M748.316 309.858H742.762V301.367H748.316V309.858Z" fill="#C4D9ED"/>
<path d="M758.239 309.858H752.688V301.367H758.239V309.858Z" fill="#C4D9ED"/>
<path d="M768.621 309.858H763.07V301.367H768.621V309.858Z" fill="#C4D9ED"/>
<path d="M778.774 309.858H773.223V301.367H778.774V309.858Z" fill="#C4D9ED"/>
<path d="M788.4 309.858H782.846V301.367H788.4V309.858Z" fill="#C4D9ED"/>
<path d="M608.268 324.614H602.717V316.122H608.268V324.614Z" fill="#C4D9ED"/>
<path d="M618.651 324.614H613.1V316.122H618.651V324.614Z" fill="#C4D9ED"/>
<path d="M628.803 324.614H623.252V316.122H628.803V324.614Z" fill="#C4D9ED"/>
<path d="M638.429 324.614H632.875V316.122H638.429V324.614Z" fill="#C4D9ED"/>
<path d="M648.236 324.614H642.682V316.122H648.236V324.614Z" fill="#C4D9ED"/>
<path d="M658.162 324.614H652.607V316.122H658.162V324.614Z" fill="#C4D9ED"/>
<path d="M668.541 324.614H662.99V316.122H668.541V324.614Z" fill="#C4D9ED"/>
<path d="M678.695 324.614H673.141V316.122H678.695V324.614Z" fill="#C4D9ED"/>
<path d="M688.317 324.614H682.766V316.122H688.317V324.614Z" fill="#C4D9ED"/>
<path d="M698.125 324.614H692.574V316.122H698.125V324.614Z" fill="#C4D9ED"/>
<path d="M708.348 324.614H702.797V316.122H708.348V324.614Z" fill="#C4D9ED"/>
<path d="M718.731 324.614H713.18V316.122H718.731V324.614Z" fill="#C4D9ED"/>
<path d="M728.884 324.614H723.33V316.122H728.884V324.614Z" fill="#C4D9ED"/>
<path d="M738.506 324.614H732.955V316.122H738.506V324.614Z" fill="#C4D9ED"/>
<path d="M748.316 324.614H742.762V316.122H748.316V324.614Z" fill="#C4D9ED"/>
<path d="M758.239 324.614H752.688V316.122H758.239V324.614Z" fill="#C4D9ED"/>
<path d="M768.621 324.614H763.07V316.122H768.621V324.614Z" fill="#C4D9ED"/>
<path d="M778.774 324.614H773.223V316.122H778.774V324.614Z" fill="#C4D9ED"/>
<path d="M788.4 324.614H782.846V316.122H788.4V324.614Z" fill="#C4D9ED"/>
</g>
<path d="M692.478 418.058H563.779V342.727H692.478V418.058Z" fill="#C4D9ED"/>
<path d="M594.89 418.059H466.191V380.393H594.89V418.059Z" fill="#C4D9ED"/>
<path d="M702.796 354.464V418.06H763.607C763.657 417.968 763.715 417.857 763.785 417.73C763.882 417.546 763.996 417.331 764.127 417.084C764.171 416.998 764.218 416.906 764.27 416.811C764.443 416.476 764.641 416.095 764.86 415.658C765.129 415.129 765.427 414.527 765.757 413.855V413.852C766.989 411.346 768.621 407.873 770.478 403.558C771.089 402.142 771.719 400.634 772.371 399.037C772.631 398.4 772.89 397.754 773.153 397.091V397.088C773.41 396.448 773.667 395.796 773.924 395.127C773.933 395.105 773.942 395.083 773.95 395.061C774.129 394.601 774.307 394.139 774.485 393.666C774.672 393.185 774.859 392.694 775.046 392.2C776.003 389.646 776.984 386.934 777.96 384.073C777.986 384 778.009 383.921 778.036 383.848C778.036 383.848 778.036 383.848 778.036 383.845C778.675 381.972 779.309 380.039 779.94 378.05C780.287 376.953 780.629 375.844 780.97 374.716C780.991 374.65 781.014 374.58 781.032 374.507C781.184 374.007 781.333 373.506 781.481 372.999C781.607 372.571 781.733 372.147 781.855 371.716C782.112 370.832 782.369 369.939 782.623 369.036C782.947 367.876 783.272 366.697 783.587 365.506C784.013 363.887 784.434 362.243 784.843 360.57C784.965 360.069 785.088 359.565 785.208 359.062C785.567 357.55 785.92 356.017 786.262 354.467H702.796V354.464Z" fill="#C4D9ED"/>
<path d="M596.354 365.501H572.377V351.547H596.354V365.501Z" fill="#D5E7F7"/>
<path d="M627.135 365.501H603.158V351.547H627.135V365.501Z" fill="#D5E7F7"/>
<path d="M657.327 365.501H633.35V351.547H657.327V365.501Z" fill="#D5E7F7"/>
<path d="M686.94 365.501H662.963V351.547H686.94V365.501Z" fill="#D5E7F7"/>
<path d="M703.493 418.707H691.141V342.726H703.493V418.707Z" fill="#ADC9E0"/>
<path d="M505.031 214.203H504.363V208.307H505.031V214.203Z" fill="#DCEAF9"/>
<path d="M529.064 214.203H528.396V208.307H529.064V214.203Z" fill="#DCEAF9"/>
<path d="M790.666 327.812C790.365 330.575 790.018 333.3 789.635 335.98C789.221 338.885 788.753 341.743 788.251 344.544C787.796 347.088 787.305 349.588 786.788 352.04C786.724 352.351 786.657 352.658 786.59 352.969C786.484 353.469 786.376 353.967 786.265 354.464C785.924 356.014 785.57 357.544 785.211 359.058C785.091 359.562 784.969 360.066 784.846 360.567C784.437 362.239 784.02 363.884 783.591 365.503C783.275 366.694 782.951 367.873 782.627 369.032C782.373 369.935 782.116 370.829 781.859 371.713C781.736 372.144 781.611 372.568 781.485 372.996C781.333 373.503 781.184 374.004 781.035 374.504C781.015 374.577 780.992 374.647 780.974 374.713C780.632 375.841 780.291 376.953 779.943 378.046C779.313 380.039 778.679 381.972 778.039 383.841C778.039 383.845 778.039 383.845 778.039 383.845C778.013 383.917 777.987 383.997 777.963 384.069C776.988 386.931 776.007 389.643 775.049 392.196C774.862 392.691 774.675 393.179 774.489 393.663C774.307 394.135 774.129 394.601 773.954 395.057C773.945 395.08 773.937 395.102 773.928 395.124V327.809H790.666V327.812Z" fill="#D5E7F7"/>
<path d="M773.922 352.969V395.13C773.931 395.108 773.94 395.086 773.949 395.064C774.127 394.604 774.305 394.142 774.483 393.67C774.67 393.188 774.857 392.697 775.044 392.203C776.001 389.649 776.983 386.937 777.958 384.076C777.984 384.003 778.008 383.924 778.034 383.851C778.034 383.851 778.034 383.851 778.034 383.848C778.673 381.975 779.307 380.042 779.938 378.053C780.285 376.956 780.627 375.848 780.969 374.72C780.989 374.653 781.012 374.583 781.03 374.511C781.182 374.01 781.331 373.509 781.48 373.002C781.605 372.575 781.731 372.15 781.853 371.719C782.11 370.835 782.367 369.942 782.621 369.039C782.946 367.879 783.27 366.701 783.585 365.509C784.011 363.89 784.432 362.246 784.841 360.573C784.963 360.072 785.086 359.569 785.206 359.065C785.565 357.553 785.918 356.02 786.26 354.471C786.371 353.973 786.479 353.476 786.584 352.975H773.922V352.969Z" fill="#D5E7F7"/>
<path d="M773.922 344.544V365.503H783.588C784.014 363.884 784.434 362.239 784.843 360.567C784.966 360.066 785.088 359.562 785.208 359.058C785.567 357.547 785.921 356.014 786.262 354.464C786.373 353.967 786.481 353.469 786.586 352.969C786.654 352.658 786.721 352.351 786.785 352.04C787.302 349.588 787.793 347.088 788.248 344.544H773.922Z" fill="#C4D9ED"/>
<path d="M779.94 371.713V378.05C780.287 376.953 780.629 375.844 780.971 374.716C780.991 374.65 781.014 374.58 781.032 374.507C781.184 374.007 781.333 373.506 781.482 372.999C781.607 372.571 781.733 372.147 781.855 371.716H779.94V371.713Z" fill="#C4D9ED"/>
<path d="M784.478 357.592H780.664V350.435H784.478V357.592Z" fill="#ADC9E0"/>
<path d="M490.555 417.448H402.189V352.969H490.555V417.448Z" fill="#D5E7F7"/>
<path d="M490.555 365.501H402.189V344.546H490.555V365.501Z" fill="#C4D9ED"/>
<path d="M412.745 378.652H408.207V371.71H412.745V378.652Z" fill="#C4D9ED"/>
<path d="M421.229 378.652H416.691V371.71H421.229V378.652Z" fill="#C4D9ED"/>
<path d="M429.526 378.652H424.988V371.71H429.526V378.652Z" fill="#C4D9ED"/>
<path d="M437.393 378.652H432.855V371.71H437.393V378.652Z" fill="#C4D9ED"/>
<path d="M445.413 378.652H440.875V371.71H445.413V378.652Z" fill="#C4D9ED"/>
<path d="M453.522 378.652H448.984V371.71H453.522V378.652Z" fill="#C4D9ED"/>
<path d="M462.007 378.652H457.469V371.71H462.007V378.652Z" fill="#C4D9ED"/>
<path d="M470.303 378.652H465.766V371.71H470.303V378.652Z" fill="#C4D9ED"/>
<path d="M478.171 378.652H473.633V371.71H478.171V378.652Z" fill="#C4D9ED"/>
<path d="M486.19 378.652H481.652V371.71H486.19V378.652Z" fill="#C4D9ED"/>
<path d="M412.745 390.902H408.207V383.96H412.745V390.902Z" fill="#C4D9ED"/>
<path d="M421.229 390.902H416.691V383.96H421.229V390.902Z" fill="#C4D9ED"/>
<path d="M429.526 390.902H424.988V383.96H429.526V390.902Z" fill="#C4D9ED"/>
<path d="M437.393 390.902H432.855V383.96H437.393V390.902Z" fill="#C4D9ED"/>
<path d="M445.413 390.902H440.875V383.96H445.413V390.902Z" fill="#C4D9ED"/>
<path d="M453.522 390.902H448.984V383.96H453.522V390.902Z" fill="#C4D9ED"/>
<path d="M462.007 390.902H457.469V383.96H462.007V390.902Z" fill="#C4D9ED"/>
<path d="M470.303 390.902H465.766V383.96H470.303V390.902Z" fill="#C4D9ED"/>
<path d="M478.171 390.902H473.633V383.96H478.171V390.902Z" fill="#C4D9ED"/>
<path d="M486.19 390.902H481.652V383.96H486.19V390.902Z" fill="#C4D9ED"/>
<path d="M412.745 402.96H408.207V396.018H412.745V402.96Z" fill="#C4D9ED"/>
<path d="M421.229 402.96H416.691V396.018H421.229V402.96Z" fill="#C4D9ED"/>
<path d="M429.526 402.96H424.988V396.018H429.526V402.96Z" fill="#C4D9ED"/>
<path d="M437.393 402.96H432.855V396.018H437.393V402.96Z" fill="#C4D9ED"/>
<path d="M445.413 402.96H440.875V396.018H445.413V402.96Z" fill="#C4D9ED"/>
<path d="M453.522 402.96H448.984V396.018H453.522V402.96Z" fill="#C4D9ED"/>
<path d="M462.007 402.96H457.469V396.018H462.007V402.96Z" fill="#C4D9ED"/>
<path d="M470.303 402.96H465.766V396.018H470.303V402.96Z" fill="#C4D9ED"/>
<path d="M478.171 402.96H473.633V396.018H478.171V402.96Z" fill="#C4D9ED"/>
<path d="M486.19 402.96H481.652V396.018H486.19V402.96Z" fill="#C4D9ED"/>
<path d="M412.745 357.592H408.932V350.435H412.745V357.592Z" fill="#ADC9E0"/>
<path d="M450.607 357.592H446.793V350.435H450.607V357.592Z" fill="#ADC9E0"/>
<path d="M480.724 357.592H476.91V350.435H480.724V357.592Z" fill="#ADC9E0"/>
<path d="M396.639 417.448H308.273V352.969H396.639V417.448Z" fill="#D5E7F7"/>
<path d="M396.639 365.501H308.273V344.546H396.639V365.501Z" fill="#C4D9ED"/>
<path d="M318.827 378.652H314.289V371.71H318.827V378.652Z" fill="#C4D9ED"/>
<path d="M327.315 378.652H322.777V371.71H327.315V378.652Z" fill="#C4D9ED"/>
<path d="M335.612 378.652H331.074V371.71H335.612V378.652Z" fill="#C4D9ED"/>
<path d="M343.477 378.652H338.939V371.71H343.477V378.652Z" fill="#C4D9ED"/>
<path d="M351.495 378.652H346.957V371.71H351.495V378.652Z" fill="#C4D9ED"/>
<path d="M359.604 378.652H355.066V371.71H359.604V378.652Z" fill="#C4D9ED"/>
<path d="M368.091 378.652H363.553V371.71H368.091V378.652Z" fill="#C4D9ED"/>
<path d="M376.389 378.652H371.852V371.71H376.389V378.652Z" fill="#C4D9ED"/>
<path d="M384.255 378.652H379.717V371.71H384.255V378.652Z" fill="#C4D9ED"/>
<path d="M392.272 378.652H387.734V371.71H392.272V378.652Z" fill="#C4D9ED"/>
<path d="M318.827 390.902H314.289V383.96H318.827V390.902Z" fill="#C4D9ED"/>
<path d="M327.315 390.902H322.777V383.96H327.315V390.902Z" fill="#C4D9ED"/>
<path d="M335.612 390.902H331.074V383.96H335.612V390.902Z" fill="#C4D9ED"/>
<path d="M343.477 390.902H338.939V383.96H343.477V390.902Z" fill="#C4D9ED"/>
<path d="M351.495 390.902H346.957V383.96H351.495V390.902Z" fill="#C4D9ED"/>
<path d="M359.604 390.902H355.066V383.96H359.604V390.902Z" fill="#C4D9ED"/>
<path d="M368.091 390.902H363.553V383.96H368.091V390.902Z" fill="#C4D9ED"/>
<path d="M376.389 390.902H371.852V383.96H376.389V390.902Z" fill="#C4D9ED"/>
<path d="M384.255 390.902H379.717V383.96H384.255V390.902Z" fill="#C4D9ED"/>
<path d="M392.272 390.902H387.734V383.96H392.272V390.902Z" fill="#C4D9ED"/>
<path d="M318.827 402.96H314.289V396.018H318.827V402.96Z" fill="#C4D9ED"/>
<path d="M327.315 402.96H322.777V396.018H327.315V402.96Z" fill="#C4D9ED"/>
<path d="M335.612 402.96H331.074V396.018H335.612V402.96Z" fill="#C4D9ED"/>
<path d="M343.477 402.96H338.939V396.018H343.477V402.96Z" fill="#C4D9ED"/>
<path d="M351.495 402.96H346.957V396.018H351.495V402.96Z" fill="#C4D9ED"/>
<path d="M359.604 402.96H355.066V396.018H359.604V402.96Z" fill="#C4D9ED"/>
<path d="M368.091 402.96H363.553V396.018H368.091V402.96Z" fill="#C4D9ED"/>
<path d="M376.389 402.96H371.852V396.018H376.389V402.96Z" fill="#C4D9ED"/>
<path d="M384.255 402.96H379.717V396.018H384.255V402.96Z" fill="#C4D9ED"/>
<path d="M392.272 402.96H387.734V396.018H392.272V402.96Z" fill="#C4D9ED"/>
<path d="M318.827 357.592H315.014V350.435H318.827V357.592Z" fill="#ADC9E0"/>
<path d="M356.691 357.592H352.877V350.435H356.691V357.592Z" fill="#ADC9E0"/>
<path d="M386.808 357.592H382.994V350.435H386.808V357.592Z" fill="#ADC9E0"/>
<path d="M302.516 417.448H214.15V352.969H302.516V417.448Z" fill="#D5E7F7"/>
<path d="M302.516 365.501H214.15V344.546H302.516V365.501Z" fill="#C4D9ED"/>
<path d="M224.706 378.652H220.168V371.71H224.706V378.652Z" fill="#C4D9ED"/>
<path d="M233.19 378.652H228.652V371.71H233.19V378.652Z" fill="#C4D9ED"/>
<path d="M241.487 378.652H236.949V371.71H241.487V378.652Z" fill="#C4D9ED"/>
<path d="M249.352 378.652H244.814V371.71H249.352V378.652Z" fill="#C4D9ED"/>
<path d="M257.374 378.652H252.836V371.71H257.374V378.652Z" fill="#C4D9ED"/>
<path d="M265.483 378.652H260.945V371.71H265.483V378.652Z" fill="#C4D9ED"/>
<path d="M273.968 378.652H269.43V371.71H273.968V378.652Z" fill="#C4D9ED"/>
<path d="M282.264 378.652H277.727V371.71H282.264V378.652Z" fill="#C4D9ED"/>
<path d="M290.13 378.652H285.592V371.71H290.13V378.652Z" fill="#C4D9ED"/>
<path d="M298.151 378.652H293.613V371.71H298.151V378.652Z" fill="#C4D9ED"/>
<path d="M224.706 390.902H220.168V383.96H224.706V390.902Z" fill="#C4D9ED"/>
<path d="M233.19 390.902H228.652V383.96H233.19V390.902Z" fill="#C4D9ED"/>
<path d="M241.487 390.902H236.949V383.96H241.487V390.902Z" fill="#C4D9ED"/>
<path d="M249.352 390.902H244.814V383.96H249.352V390.902Z" fill="#C4D9ED"/>
<path d="M257.374 390.902H252.836V383.96H257.374V390.902Z" fill="#C4D9ED"/>
<path d="M265.483 390.902H260.945V383.96H265.483V390.902Z" fill="#C4D9ED"/>
<path d="M273.968 390.902H269.43V383.96H273.968V390.902Z" fill="#C4D9ED"/>
<path d="M282.264 390.902H277.727V383.96H282.264V390.902Z" fill="#C4D9ED"/>
<path d="M290.13 390.902H285.592V383.96H290.13V390.902Z" fill="#C4D9ED"/>
<path d="M298.151 390.902H293.613V383.96H298.151V390.902Z" fill="#C4D9ED"/>
<path d="M224.706 402.96H220.168V396.018H224.706V402.96Z" fill="#C4D9ED"/>
<path d="M233.19 402.96H228.652V396.018H233.19V402.96Z" fill="#C4D9ED"/>
<path d="M241.487 402.96H236.949V396.018H241.487V402.96Z" fill="#C4D9ED"/>
<path d="M249.352 402.96H244.814V396.018H249.352V402.96Z" fill="#C4D9ED"/>
<path d="M257.374 402.96H252.836V396.018H257.374V402.96Z" fill="#C4D9ED"/>
<path d="M265.483 402.96H260.945V396.018H265.483V402.96Z" fill="#C4D9ED"/>
<path d="M273.968 402.96H269.43V396.018H273.968V402.96Z" fill="#C4D9ED"/>
<path d="M282.264 402.96H277.727V396.018H282.264V402.96Z" fill="#C4D9ED"/>
<path d="M290.13 402.96H285.592V396.018H290.13V402.96Z" fill="#C4D9ED"/>
<path d="M298.151 402.96H293.613V396.018H298.151V402.96Z" fill="#C4D9ED"/>
<path d="M224.706 357.592H220.893V350.435H224.706V357.592Z" fill="#ADC9E0"/>
<path d="M262.568 357.592H258.754V350.435H262.568V357.592Z" fill="#ADC9E0"/>
<path d="M292.685 357.592H288.871V350.435H292.685V357.592Z" fill="#ADC9E0"/>
<path d="M2.94287 420.534L420.15 418.177C420.15 418.177 407.711 362.905 352.149 362.905C296.588 362.905 276.997 317.375 212.009 317.781C169.487 318.047 141.556 293.736 103.229 279.856C103.024 279.998 102.817 280.141 102.613 280.283C91.1658 288.131 76.6995 294.87 62.2769 302.772C54.3167 307.138 46.3651 311.853 38.9422 317.309C32.0507 322.378 25.6147 328.078 20.0431 334.719C16.4046 339.053 13.137 343.796 10.3571 349.021C10.1964 349.316 10.0446 349.61 9.89273 349.902C6.30389 356.853 3.56189 364.66 1.94122 373.513C1.85947 373.962 1.77768 374.412 1.70468 374.869C-0.464966 387.716 -0.313049 402.75 2.94287 420.534Z" fill="#B9E0AD"/>
<path d="M541.801 418.754C541.801 418.754 448.208 391.563 282.803 400.165C117.398 408.767 3.13342 379.837 3.13342 379.837V420.956L541.801 418.754Z" fill="#ACD29A"/>
<path d="M1.94171 373.509C3.56531 364.657 6.30438 356.853 9.89322 349.902C15.3626 345.837 22.4732 342.272 27.8754 345.599C38.0258 351.844 10.1824 354.632 6.06204 364.071C4.56402 367.505 3.76974 370.528 3.36385 372.983C4.84435 372.508 7.26218 371.935 9.52235 372.296C11.8993 372.679 15.9087 375.86 18.347 377.97C17.2111 375.886 16.1686 373.275 15.9087 370.42C15.275 363.504 17.7718 355.7 21.7607 360.855C24.6516 364.59 23.3521 374.453 22.4177 379.599C23.9624 380.255 25.5159 380.971 27.0665 381.747C33.0061 359.043 46.9584 322.948 74.1302 321.713C74.1302 321.713 84.8529 326.145 72.9738 340.72C62.8673 353.121 46.719 358.089 31.4117 384.092C32.3578 384.64 33.2981 385.216 34.2354 385.818C41.5766 378.192 55.3129 366.083 66.8066 368.272C79.0799 370.61 52.4307 382.327 37.7834 388.249C41.1152 390.685 44.3245 393.483 47.2943 396.705C47.2943 396.705 52.0804 403.631 73.2279 400.168C94.3755 396.705 112.729 420.537 112.729 420.537H2.94337C-0.42646 402.126 -0.473236 386.658 1.94171 373.509Z" fill="#82B378"/>
<path d="M704.005 418.662L740.778 418.538C740.781 418.538 740.781 418.538 740.781 418.538L750.736 418.51C750.736 418.51 750.736 418.51 750.739 418.51L751.822 418.506L757.639 418.484C757.639 418.484 757.639 418.484 757.642 418.484L761.628 418.468L763.386 418.462C763.386 418.462 763.526 418.215 763.786 417.73C763.882 417.546 763.996 417.331 764.128 417.084C764.171 416.998 764.218 416.906 764.271 416.811C764.443 416.476 764.642 416.095 764.861 415.658C765.129 415.129 765.427 414.527 765.757 413.855V413.852C766.989 411.346 768.622 407.873 770.479 403.558C771.089 402.142 771.72 400.634 772.371 399.037C772.631 398.4 772.891 397.754 773.154 397.092V397.088C773.419 396.426 773.685 395.751 773.948 395.064C774.126 394.604 774.304 394.142 774.482 393.67C774.669 393.188 774.856 392.697 775.043 392.203C776.001 389.649 776.982 386.937 777.957 384.076C777.984 384.003 778.007 383.924 778.033 383.851C778.033 383.851 778.033 383.851 778.033 383.848C779.023 380.949 780.004 377.904 780.968 374.72C780.988 374.653 781.012 374.583 781.029 374.511C781.181 374.01 781.33 373.509 781.479 373.002C781.862 371.7 782.244 370.379 782.618 369.039C783.386 366.301 784.125 363.478 784.834 360.573C784.957 360.072 785.079 359.569 785.199 359.065C782.735 358.808 780.431 358.735 778.276 358.827C774.684 358.979 771.504 359.578 768.663 360.532C764.542 361.913 761.137 364.039 758.223 366.612C752.018 372.09 748.061 379.593 744.236 386.259C741.978 390.2 739.762 393.847 737.163 396.61C734.643 399.284 731.761 401.131 728.117 401.603C725.605 401.933 723.345 402.449 721.31 403.102C708.636 407.17 704.723 416.596 704.005 418.662Z" fill="#8EBF82"/>
<path d="M766.978 337.995C771.326 337.45 775.187 346.968 778.282 358.818C779.468 363.345 780.539 368.212 781.482 372.996C781.331 373.503 781.182 374.004 781.033 374.504C781.012 374.577 780.989 374.647 780.971 374.713C780.008 377.898 779.024 380.945 778.037 383.841C778.037 383.845 778.037 383.845 778.037 383.845C778.01 383.917 777.984 383.997 777.961 384.069C774.792 376.76 771.306 368.237 768.672 360.519C764.592 348.568 762.569 338.546 766.978 337.995Z" fill="#82B378"/>
<path d="M731.732 345.773C740.788 343.049 750.182 353.279 758.232 366.602C764.154 376.399 769.352 387.872 773.154 397.088V397.092C772.889 397.754 772.629 398.4 772.372 399.037C771.718 400.634 771.09 402.142 770.479 403.558C768.625 407.873 766.99 411.346 765.758 413.852C759.144 405.953 751.198 396.052 744.245 386.253C730.885 367.41 721.196 348.939 731.732 345.773Z" fill="#82B378"/>
<path d="M709.802 392.317C710.079 390.438 711.615 389.072 713.367 389.053C721.135 388.971 729.358 392.076 737.172 396.604C747.401 402.528 756.924 410.896 763.783 417.73C763.523 418.215 763.383 418.462 763.383 418.462L761.625 418.469L757.639 418.484C757.636 418.484 757.636 418.484 757.636 418.484L751.819 418.507C741.065 413.187 728.926 407.113 721.316 403.099C719.038 401.898 717.166 400.881 715.861 400.127C710.549 397.05 709.513 394.3 709.802 392.317Z" fill="#82B378"/>
<g clip-path="url(#clip1_107_1142)">
<path d="M583.08 163.681C583.413 174.445 584.195 185.184 584.73 195.937C584.945 200.264 585.197 204.57 584.084 208.785C583.177 212.222 581.424 215.211 578.943 217.525C572.161 223.851 562.598 223.334 554.285 224.206C547.106 224.959 539.025 227.165 534.349 233.725C529.223 240.916 530.654 250.681 535.644 257.467C541.092 264.878 550.128 267.594 558.379 268.579C567.995 269.728 577.913 268.527 587.072 265.094C589.311 264.257 591.525 263.268 593.59 261.996C595.662 260.72 597.55 259.125 599.464 257.59C603.017 254.74 606.802 252.408 610.97 250.843C628.563 244.237 647.252 250.017 663.524 258.204C665.685 259.291 667.824 260.424 669.954 261.582C671.821 262.597 673.469 259.514 671.594 258.493C655.232 249.596 637.384 242.106 618.829 245.095C614.597 245.777 610.477 247.051 606.548 248.914C602.414 250.875 598.915 253.7 595.27 256.55C587.57 262.572 577.57 264.915 568.261 265.351C559.69 265.754 550.051 264.785 542.658 259.555C536.645 255.301 531.965 246.241 535.433 238.477C538.605 231.373 546.522 228.716 553.156 227.909C561.863 226.851 571.244 227.452 578.904 221.972C584.951 217.645 587.913 210.575 588.175 202.775C588.349 197.582 587.797 192.295 587.502 187.116C587.198 181.784 586.878 176.452 586.624 171.117C586.506 168.64 586.405 166.163 586.329 163.684C586.257 161.386 583.008 161.375 583.08 163.681Z" fill="#B9E0AD"/>
<path d="M554.899 15.4266V103.409C554.899 107.64 552.334 111.246 548.829 112.427C548.04 112.693 547.205 112.836 546.338 112.836C541.631 112.836 537.779 108.594 537.779 103.409V15.4266C537.781 10.2424 541.633 6 546.34 6C547.205 6 548.042 6.14331 548.831 6.40946C550.188 6.86668 551.404 7.68787 552.385 8.76837C553.934 10.479 554.899 12.8356 554.899 15.4266Z" fill="#B8D5DC"/>
<path d="M554.898 15.4266V103.409C554.898 107.64 552.333 111.246 548.828 112.427C545.325 111.246 542.758 107.64 542.758 103.409V15.4266C542.758 11.1955 545.323 7.59005 548.828 6.40945C550.185 6.86668 551.401 7.68786 552.382 8.76837C553.933 10.479 554.898 12.8356 554.898 15.4266Z" fill="white"/>
<path d="M628.434 15.4266V103.409C628.434 107.64 625.869 111.246 622.364 112.427C621.575 112.693 620.741 112.836 619.873 112.836C615.166 112.836 611.314 108.594 611.314 103.409V15.4266C611.317 10.2424 615.168 6 619.875 6C620.741 6 621.577 6.14331 622.366 6.40946C623.723 6.86668 624.939 7.68787 625.92 8.76837C627.469 10.479 628.434 12.8356 628.434 15.4266Z" fill="#B8D5DC"/>
<path d="M628.435 15.4266V103.409C628.435 107.64 625.87 111.246 622.365 112.427C618.862 111.246 616.295 107.64 616.295 103.409V15.4266C616.295 11.1955 618.86 7.59005 622.365 6.40945C623.722 6.86668 624.938 7.68786 625.919 8.76837C627.47 10.479 628.435 12.8356 628.435 15.4266Z" fill="white"/>
<path d="M625.194 176.022H527.041C520.942 176.022 516 170.578 516 163.861V74.5997C516 67.8846 520.942 62.4389 527.041 62.4389H625.194C631.29 62.4389 636.235 67.8824 636.235 74.5997V163.861C636.235 170.578 631.29 176.022 625.194 176.022Z" fill="#82B378"/>
<path d="M633.686 176.022H542.771C536.879 176.022 532.104 170.76 532.104 164.273V74.1902C532.104 67.7004 536.881 62.4411 542.771 62.4411H633.686C639.579 62.4411 644.354 67.7026 644.354 74.1902V164.273C644.354 170.763 639.577 176.022 633.686 176.022Z" fill="#B9E0AD"/>
<path d="M571.881 153.272L587.313 128.179H570.076L591.836 89.9588H606.126L588.102 120.072H606.126L571.881 153.272Z" fill="#82B378"/>
<path d="M571.882 153.272L584.247 128.179H567.012L588.77 89.9588H603.06L585.036 120.072H603.06L571.882 153.272Z" fill="white"/>
<path opacity="0.6" d="M683.231 96.3668C649.632 94.9769 621.001 128.582 619.72 160.428C618.915 180.444 629.107 194.998 645.132 203.396C666.901 215.866 665.953 239.674 665.953 239.674L695.268 240.886C696.137 219.258 716.175 205.232 718.736 203.524C730.979 195.623 739.222 181.185 741.746 156.545C744.99 124.858 716.828 97.7567 683.231 96.3668Z" fill="white"/>
<path d="M699.06 248.868C699.06 248.868 703.184 255.756 698.682 262.087C697.424 263.857 694.072 264.799 689.842 265.156C678.933 266.086 662.19 263.138 660.511 260.508C658.179 256.855 659.583 252.767 662.272 251.889C662.272 251.889 658.664 248.514 659.81 244.544C660.959 240.575 662.933 239.867 662.933 239.867C662.933 239.867 660.172 237.977 660.124 232.64C660.106 230.529 660.99 228.218 663.805 226.535C668.103 223.962 676.901 222.852 693.837 226.162C693.837 226.162 701.48 227.734 699.246 237.122C699.244 237.126 704.423 243.759 699.06 248.868Z" fill="#B9E0AD"/>
<path opacity="0.9" d="M678.144 126.136C678.144 126.136 664.207 129.803 655.774 141.755C647.339 153.706 636.228 144.751 638.708 132.078C641.187 119.405 655.82 108.83 664.283 111.082C672.745 113.332 685.79 118.013 678.144 126.136Z" fill="white"/>
<path d="M699.112 249.455C699.03 249.464 698.945 249.453 698.862 249.417C698.833 249.405 696.012 248.172 691.691 247.442C687.716 246.771 681.619 246.398 675.148 248.441C674.863 248.529 674.57 248.35 674.487 248.038C674.407 247.727 674.57 247.401 674.853 247.31C681.522 245.206 687.796 245.593 691.884 246.287C696.316 247.04 699.139 248.275 699.257 248.327C699.529 248.448 699.664 248.791 699.554 249.091C699.48 249.301 699.304 249.435 699.112 249.455Z" fill="#82B378"/>
<path d="M699.292 237.711C699.228 237.718 699.16 237.711 699.094 237.69C699.055 237.679 695.193 236.469 690.118 235.739C685.461 235.07 678.802 234.676 673.519 236.612C673.24 236.714 672.937 236.548 672.844 236.239C672.751 235.93 672.902 235.598 673.183 235.495C678.662 233.489 685.5 233.887 690.273 234.574C695.424 235.315 699.35 236.546 699.389 236.557C699.672 236.646 699.838 236.974 699.755 237.285C699.693 237.527 699.505 237.688 699.292 237.711Z" fill="#82B378"/>
<path d="M689.84 265.158C678.931 266.088 662.188 263.14 660.509 260.511C658.177 256.857 659.581 252.77 662.27 251.892C662.27 251.892 658.662 248.516 659.808 244.546C660.957 240.577 662.931 239.87 662.931 239.87C662.931 239.87 660.17 237.979 660.122 232.643C660.104 230.532 660.988 228.221 663.803 226.537L663.809 226.535C663.809 226.535 660.143 236.86 668.805 240.042C668.805 240.042 670.178 240.836 669.094 242.108C668.012 243.382 669.311 250.377 672.052 251.807C674.794 253.238 671.401 258.723 674.867 261.507C677.533 263.645 686.053 264.76 689.84 265.158Z" fill="#82B378"/>
<path d="M659.819 182.007C653.823 172.869 656.787 153.201 681.03 142.876C702.404 133.773 709.285 122.515 709.285 122.515C709.285 122.515 717.35 150.465 705.787 172.046C691.678 198.38 667.578 193.833 659.819 182.007Z" fill="#B9E0AD"/>
<path d="M661.455 201.922C661.046 201.922 660.681 201.604 660.598 201.146C660.557 200.914 656.759 177.817 682.85 160.133C704.079 145.736 708.384 122.563 708.425 122.331C708.518 121.808 708.985 121.455 709.449 121.571C709.924 121.673 710.232 122.176 710.141 122.697C710.098 122.94 705.672 146.921 683.765 161.77C658.698 178.763 662.273 200.553 662.312 200.773C662.405 201.297 662.098 201.804 661.625 201.904C661.569 201.915 661.513 201.922 661.455 201.922Z" fill="#82B378"/>
<path d="M671.977 170.803C671.601 170.803 671.254 170.535 671.141 170.119C668.414 160.176 671.06 153.24 671.174 152.951C671.366 152.467 671.878 152.244 672.322 152.449C672.766 152.656 672.97 153.224 672.78 153.713C672.756 153.777 670.283 160.328 672.814 169.561C672.952 170.071 672.692 170.608 672.229 170.763C672.144 170.79 672.06 170.803 671.977 170.803Z" fill="#82B378"/>
<path d="M689.625 160.672C687.121 160.672 685.391 160.547 685.197 160.531C684.715 160.494 684.352 160.035 684.385 159.503C684.418 158.973 684.835 158.547 685.318 158.609C685.446 158.613 698.565 159.569 705.943 156.074C706.383 155.861 706.901 156.09 707.091 156.579C707.283 157.071 707.077 157.635 706.633 157.847C701.583 160.237 694.276 160.672 689.625 160.672Z" fill="#82B378"/>
</g>
</g>
<defs>
<clipPath id="clip0_107_1142">
<rect width="792" height="421" fill="white" transform="matrix(-1 0 0 1 792 0)"/>
</clipPath>
<clipPath id="clip1_107_1142">
<rect width="226" height="263" fill="white" transform="translate(516 6)"/>
</clipPath>
</defs>
</svg>
